<svg xmlns="http://www.w3.org/2000/svg" width="659" height="28" viewBox="0 0 659 28"><defs><style>.a{fill:#fbb03b;}.b{fill:#322f40;}</style></defs><title>danger_stripe</title><rect class="a" x="0.0001" y="0.0003" width="659.0001" height="27.9998"/><polygon class="b" points="193.712 0 175.712 0 201.814 28 219.814 28 193.712 0"/><polygon class="b" points="129.712 0 111.712 0 137.814 28 155.814 28 129.712 0"/><polygon class="b" points="161.712 0 143.712 0 169.814 28 187.813 28 161.712 0"/><polygon class="b" points="257.712 0 239.712 0 265.813 28 283.813 28 257.712 0"/><polygon class="b" points="225.712 0 207.712 0 233.814 28 251.814 28 225.712 0"/><polygon class="b" points="33.712 0 15.712 0 41.814 28 59.814 28 33.712 0"/><polygon class="b" points="289.712 0 271.712 0 297.814 28 315.814 28 289.712 0"/><polygon class="b" points="9.814 28 27.813 28 1.712 0 0 0 0 17.473 9.814 28"/><polygon class="b" points="65.712 0 47.712 0 73.814 28 91.814 28 65.712 0"/><polygon class="b" points="97.712 0 79.712 0 105.814 28 123.813 28 97.712 0"/><polygon class="b" points="641.712 0 623.712 0 649.814 28 659 28 659 18.546 641.712 0"/><polygon class="b" points="513.712 0 495.711 0 521.814 28 539.814 28 513.712 0"/><polygon class="b" points="481.712 0 463.712 0 489.813 28 507.813 28 481.712 0"/><polygon class="b" points="545.712 0 527.712 0 553.814 28 571.814 28 545.712 0"/><polygon class="b" points="609.712 0 591.713 0 617.814 28 635.814 28 609.712 0"/><polygon class="b" points="577.712 0 559.712 0 585.813 28 603.813 28 577.712 0"/><polygon class="b" points="353.712 0 335.712 0 361.813 28 379.814 28 353.712 0"/><polygon class="b" points="385.712 0 367.712 0 393.814 28 411.814 28 385.712 0"/><polygon class="b" points="321.712 0 303.712 0 329.814 28 347.814 28 321.712 0"/><polygon class="b" points="417.712 0 399.712 0 425.814 28 443.814 28 417.712 0"/><polygon class="b" points="449.712 0 431.712 0 457.814 28 475.814 28 449.712 0"/></svg>