<svg xmlns="http://www.w3.org/2000/svg" viewBox="0 0 480 366"><defs><style>.a{fill:#07617d;}.b{fill:#d27332;}.c{fill:#b05f1f;}.d{fill:#f78536;}.e{fill:#497285;}.f{fill:#3d91a6;}.g{fill:#fff;}.h{fill:#20485e;}.i{fill:#2b4450;}</style></defs><title>jau_simple_fit</title><polygon class="a" points="201.456 217.902 201.456 344.326 115.118 344.326 115.118 342.27 199.4 342.27 199.4 217.902 201.456 217.902"/><rect class="a" x="311.4347" y="64.7539" width="24.6681" height="2.0557"/><polygon class="a" points="222.712 287.609 222.712 282.655 377.216 282.655 377.216 280.6 222.712 280.6 222.712 275.646 200.428 281.628 222.712 287.609"/><polygon class="a" points="0.195 225.797 6.167 203.512 12.139 225.797 0.195 225.797"/><polygon class="a" points="291.906 43.169 293.962 43.169 293.962 22.284 298.916 22.284 292.934 0 286.952 22.284 291.906 22.284 291.906 43.169"/><polygon class="a" points="75.032 0 77.088 0 77.088 63.027 82.042 63.027 76.06 85.311 70.078 63.027 75.032 63.027 75.032 0"/><polygon class="a" points="354.933 219.772 354.933 214.818 243.597 214.818 243.597 212.762 354.933 212.762 354.933 207.808 377.216 213.79 354.933 219.772"/><polygon class="a" points="450.892 71.764 450.892 66.81 480 66.81 480 64.754 450.892 64.754 450.892 59.8 428.608 65.782 450.892 71.764"/><polygon class="a" points="38.359 106.71 38.359 101.756 7.195 101.756 7.195 322.741 5.139 322.741 5.139 99.7 38.359 99.7 38.359 94.746 60.642 100.728 38.359 106.71"/><polygon class="a" points="281.822 182.122 259.537 188.094 281.822 194.067 281.822 182.122"/><polygon class="a" points="169.266 337.325 146.981 343.298 169.266 349.27 169.266 337.325"/><polygon class="a" points="60.314 349.28 60.314 344.326 79.143 344.326 79.143 342.27 60.314 342.27 60.314 337.316 38.03 343.298 60.314 349.28"/><polygon class="a" points="250.093 133.434 250.093 128.48 230.236 128.48 230.236 180.899 228.18 180.899 228.18 126.424 250.093 126.424 250.093 121.47 272.377 127.452 250.093 133.434"/><polygon class="a" points="291.906 152.12 291.906 187.066 245.653 187.067 245.653 189.122 293.961 189.122 293.961 152.12 291.906 152.12"/><polygon class="a" points="161.556 156.56 166.51 156.56 166.51 101.756 124.368 101.756 124.368 99.7 168.565 99.7 168.565 156.56 173.52 156.56 167.537 178.844 161.556 156.56"/><polygon class="b" points="79.143 100.728 126.424 117.174 126.424 84.283 79.143 100.728"/><polygon class="c" points="79.143 100.728 126.424 100.728 126.424 117.174 79.143 100.728"/><rect class="d" x="60.6424" y="85.3106" width="30.8351" height="30.8351" transform="translate(-24.6682 176.7881) rotate(-90)"/><rect class="b" x="68.3512" y="93.0194" width="15.4176" height="30.8351" transform="translate(-32.377 184.4969) rotate(-90)"/><polygon class="e" points="16.445 339.186 31.863 365.91 1.028 365.91 16.445 339.186"/><rect class="b" x="-4.6253" y="326.3385" width="21.5846" height="12.334" transform="translate(-326.3385 338.6725) rotate(-90)"/><circle class="d" cx="16.4454" cy="343.2978" r="16.4454"/><rect class="b" x="16.4454" y="339.7432" width="21.5846" height="7.1092" transform="translate(54.4754 686.5956) rotate(180)"/><circle class="c" cx="16.4454" cy="343.2978" r="6.167"/><rect class="a" y="363.8545" width="32.8908" height="2.0557" transform="translate(32.8908 729.7647) rotate(180)"/><circle class="d" cx="97.6475" cy="343.2978" r="16.4454"/><path class="b" d="M81.2021,343.2978a16.4454,16.4454,0,0,0,32.8908,0Z"/><polygon class="e" points="79.143 342.27 79.143 344.326 84.879 344.326 91.806 351.346 93.307 352.867 94.366 351.027 98.837 343.298 96.452 343.298 92.865 349.506 87.757 344.326 85.732 342.27 79.143 342.27"/><polygon class="f" points="96.452 343.298 98.837 343.298 102.424 337.09 107.532 342.27 109.557 344.326 116.146 344.326 116.146 342.27 110.41 342.27 103.483 335.25 101.982 333.729 96.452 343.298"/><path class="d" d="M249.7645,199.4006c0,11.3473-4.6047,20.5567-10.2784,20.5567h-82.227c-5.6737,0-10.2784-9.2094-10.2784-20.5567s4.6047-20.5568,10.2784-20.5568h82.227C245.16,178.8438,249.7645,188.0532,249.7645,199.4006Z"/><path class="b" d="M249.7645,199.4006c0,11.3473-4.6047,20.5567-10.2784,20.5567h-82.227c-5.6736,0-10.2784-9.2094-10.2784-20.5567Z"/><path class="c" d="M160.3426,222.013a2.0559,2.0559,0,0,1-2.0557-2.0557V178.8438a2.0557,2.0557,0,0,1,4.1114,0v41.1135A2.0558,2.0558,0,0,1,160.3426,222.013Z"/><path class="c" d="M236.4026,222.013a2.0558,2.0558,0,0,1-2.0557-2.0557V178.8438a2.0557,2.0557,0,1,1,4.1113,0v41.1135A2.0558,2.0558,0,0,1,236.4026,222.013Z"/><rect class="e" x="165.4818" y="215.8459" width="6.167" height="12.334"/><rect class="e" x="225.0964" y="215.8459" width="6.167" height="12.334"/><rect class="a" x="163.2548" y="228.18" width="10.2784" height="2.0557"/><rect class="a" x="223.0407" y="228.18" width="10.2784" height="2.0557"/><rect class="g" x="176.3312" y="195.2892" width="2.0557" height="22.6124"/><path class="d" d="M292.9336,153.1478c-11.3473,0-20.5567-4.6047-20.5567-10.2783V50.3642c0-5.6737,9.2093-10.2784,20.5567-10.2784S313.49,44.6905,313.49,50.3641v92.5053C313.49,148.5431,304.281,153.1478,292.9336,153.1478Z"/><path class="b" d="M292.9336,153.1478c-11.3473,0-20.5567-4.6047-20.5567-10.2783V50.3642c0-5.6737,9.2093-10.2784,20.5567-10.2784Z"/><path class="c" d="M270.3212,53.4477a2.0557,2.0557,0,0,1,2.0557-2.0557H313.49a2.0557,2.0557,0,1,1,0,4.1113H272.3769A2.0557,2.0557,0,0,1,270.3212,53.4477Z"/><path class="c" d="M270.3212,139.7859a2.0558,2.0558,0,0,1,2.0557-2.0556H313.49a2.0557,2.0557,0,0,1,0,4.1113H272.3769A2.0558,2.0558,0,0,1,270.3212,139.7859Z"/><rect class="e" x="303.212" y="148.0086" width="6.167" height="12.334"/><rect class="a" x="302.1842" y="160.3427" width="10.2784" height="2.0557"/><rect class="e" x="276.4882" y="148.0086" width="6.167" height="12.334" transform="translate(559.1435 308.3513) rotate(180)"/><rect class="a" x="273.4047" y="160.3427" width="10.2784" height="2.0557" transform="translate(557.0878 322.741) rotate(180)"/><path class="g" d="M274.4326,75.0322v43.1692h37.0021V75.0322Zm19.7549,21.5846L309.379,78.6811v35.8714Zm14.0506-19.5289L292.9336,95.1368,277.6291,77.0879Zm-31.75,1.5932L291.68,96.6168l-15.1915,17.9357Zm1.1409,37.4646,15.3045-18.0592,15.3045,18.0592Z"/><rect class="a" x="334.0471" y="61.6704" width="8.2227" height="8.2227"/><rect class="a" x="420.3854" y="61.6704" width="8.2227" height="8.2227"/><path class="f" d="M410.1071,38.3727v14.39h-9.5932V40.771a1.0278,1.0278,0,0,0-1.0278-1.0278h-16.788V30.15h19.1863A8.2227,8.2227,0,0,1,410.1071,38.3727Z"/><path class="e" d="M384.0685,28.78v12.334H370.364a2.0557,2.0557,0,0,0-2.0556,2.0557V45.91H355.9743V41.1136A12.334,12.334,0,0,1,368.3084,28.78Z"/><rect class="a" x="352.5482" y="45.225" width="19.1863" height="7.5375"/><rect class="a" x="419.7002" y="88.3941" width="4.7966" height="2.7409"/><rect class="a" x="419.7002" y="95.2464" width="4.7966" height="2.7409"/><path class="d" d="M422.4411,65.7817c0,7.5649-3.07,13.7045-6.8522,13.7045H347.0664c-3.7825,0-6.8523-6.14-6.8523-13.7045s3.07-13.7045,6.8523-13.7045h68.5225C419.3713,52.0772,422.4411,58.2168,422.4411,65.7817Z"/><path class="d" d="M421.0707,93.1907c0,5.2954-2.9675,9.5932-6.6239,9.5932H348.2084c-3.6564,0-6.6238-4.2978-6.6238-9.5932s2.9674-9.5931,6.6238-9.5931h66.2384C418.1032,83.5976,421.0707,87.8953,421.0707,93.1907Z"/><path class="b" d="M422.4411,65.7817c0,7.5649-3.07,13.7045-6.8522,13.7045H347.0664c-3.7824,0-6.8523-6.14-6.8523-13.7045Z"/><path class="b" d="M421.0707,93.1907c0,5.2954-2.9675,9.5932-6.6239,9.5932H348.2084c-3.6563,0-6.6238-4.2978-6.6238-9.5932Z"/><path class="c" d="M349.8073,104.1543a1.3706,1.3706,0,0,1-1.37-1.37V52.0772a1.37,1.37,0,0,1,2.7409,0v50.7067A1.37,1.37,0,0,1,349.8073,104.1543Z"/><path class="c" d="M412.848,104.1543a1.37,1.37,0,0,1-1.37-1.37V52.0772a1.37,1.37,0,0,1,2.7409,0v50.7067A1.37,1.37,0,0,1,412.848,104.1543Z"/><rect class="e" x="347.8658" y="99.3577" width="4.1113" height="8.2227"/><rect class="e" x="410.7923" y="99.3577" width="4.1113" height="8.2227"/><rect class="a" x="346.3812" y="107.5804" width="6.8522" height="1.3704"/><rect class="a" x="409.4218" y="107.5804" width="6.8522" height="1.3704"/><path class="h" d="M362.1413,95.9316a4.7963,4.7963,0,0,1-4.7965-4.7966V71.9487a4.7966,4.7966,0,0,1,9.5931,0V91.135A4.7963,4.7963,0,0,1,362.1413,95.9316Z"/><rect class="e" x="382.0128" y="62.3556" width="25.3533" height="32.2056"/><rect class="h" x="397.773" y="68.5226" width="3.4261" height="3.4261"/><rect class="h" x="397.773" y="75.3749" width="3.4261" height="3.4261"/><rect class="h" x="397.773" y="82.2271" width="3.4261" height="3.4261"/><path class="i" d="M388.9039,119.7673l-3.8223.4215a2.7888,2.7888,0,0,0-.7307-1.7425,2.1258,2.1258,0,0,0-1.5317-.5621,2.5937,2.5937,0,0,0-2.1159,1.1242q-.8613,1.1232-1.0881,4.68a4.6146,4.6146,0,0,1,3.6677-1.7425,5.6067,5.6067,0,0,1,4.2378,1.883,6.8323,6.8323,0,0,1,1.7626,4.8622,6.9748,6.9748,0,0,1-1.8549,5.0729,6.7565,6.7565,0,0,1-9.8929-.5119q-2.0085-2.427-2.01-7.9477,0-5.6642,2.0938-8.1645a6.7551,6.7551,0,0,1,5.4383-2.5013,5.771,5.771,0,0,1,3.8845,1.3129A6.1526,6.1526,0,0,1,388.9039,119.7673Zm-8.9514,8.6141a4.4709,4.4709,0,0,0,.8853,2.9711,2.6039,2.6039,0,0,0,2.0235,1.0479,2.3016,2.3016,0,0,0,1.8269-.8572,4.3159,4.3159,0,0,0,.7307-2.8105,4.5356,4.5356,0,0,0-.7869-2.945,2.5306,2.5306,0,0,0-3.8926-.04A3.8734,3.8734,0,0,0,379.9525,128.3814Z"/><path class="i" d="M246.9319,76.578l3.9347-.4075a3.3879,3.3879,0,0,0,.9977,2.1159,2.7147,2.7147,0,0,0,1.9111.7789,2.6561,2.6561,0,0,0,2.0938-1.0037,4.5718,4.5718,0,0,0,.8572-3.0294,4.1358,4.1358,0,0,0-.8511-2.8446,2.8233,2.8233,0,0,0-2.2123-.95,4.0233,4.0233,0,0,0-3.0494,1.5036L247.41,72.278l2.0235-10.7221h10.441v3.6958h-7.4478l-.6183,3.4991a6.036,6.036,0,0,1,7.1527,1.2507,6.88,6.88,0,0,1,1.8268,4.9605,7.4381,7.4381,0,0,1-1.4755,4.5389,6.5426,6.5426,0,0,1-5.5788,2.7262,6.9213,6.9213,0,0,1-4.6514-1.5317A6.3143,6.3143,0,0,1,246.9319,76.578Z"/><path class="i" d="M31.4623,316.574v-4.1455h-8.43v-3.4569l8.9363-13.0828h3.3164v13.0688h2.5576v3.4709H35.2846v4.1455Zm0-7.6164v-7.04l-4.7346,7.04Z"/><path class="i" d="M90.2177,310.7563l3.8223-.4637a3.62,3.62,0,0,0,.9836,2.2343,2.7818,2.7818,0,0,0,3.998-.1546,3.5965,3.5965,0,0,0,.8361-2.5013,3.3507,3.3507,0,0,0-.801-2.3608,2.5562,2.5562,0,0,0-1.9533-.8713,6.8908,6.8908,0,0,0-1.8128.2951l.4357-3.218a3.4706,3.4706,0,0,0,2.4451-.6946,2.4809,2.4809,0,0,0,.8431-1.9613,2.1282,2.1282,0,0,0-2.2624-2.2765,2.3824,2.3824,0,0,0-1.7285.7026,3.3016,3.3016,0,0,0-.8712,2.0517l-3.64-.6183a8.1037,8.1037,0,0,1,1.1453-2.9852,5.17,5.17,0,0,1,2.136-1.7586,7.186,7.186,0,0,1,3.07-.6383,6.1248,6.1248,0,0,1,4.6654,1.8549,4.8421,4.8421,0,0,1,1.4474,3.4288q0,2.7131-2.965,4.3281a4.7948,4.7948,0,0,1,2.8315,1.7,4.9318,4.9318,0,0,1,1.061,3.19,6.1876,6.1876,0,0,1-1.9814,4.6233,7.401,7.401,0,0,1-9.57.3031A6.3285,6.3285,0,0,1,90.2177,310.7563Z"/><path class="i" d="M207.2778,162.8421V166.51H193.4362a9.53,9.53,0,0,1,1.349-3.9428,26.2536,26.2536,0,0,1,4.4406-4.9384A27.934,27.934,0,0,0,202.5,154.256a4.3451,4.3451,0,0,0,.815-2.417,2.7514,2.7514,0,0,0-.71-2.0316,3.0175,3.0175,0,0,0-3.9277.0361,3.828,3.828,0,0,0-.8431,2.4733l-3.9347-.3935a6.4474,6.4474,0,0,1,2.2062-4.68,7.4124,7.4124,0,0,1,4.6373-1.4193,6.702,6.702,0,0,1,4.7919,1.6442,5.3938,5.3938,0,0,1,1.7425,4.0892,7.1335,7.1335,0,0,1-.4988,2.65,10.761,10.761,0,0,1-1.5809,2.6339,25.3426,25.3426,0,0,1-2.5857,2.6278q-1.8684,1.7133-2.3678,2.2765a6.8646,6.8646,0,0,0-.808,1.0961Z"/><path class="i" d="M110.5869,74.0044h-3.9488V59.1229a13.608,13.608,0,0,1-5.101,2.9931V58.5326a11.4544,11.4544,0,0,0,3.3585-1.9171,7.3053,7.3053,0,0,0,2.4873-3.2963h3.204Z"/><path class="i" d="M338.827,269.2935l-7.3635-20.6009h4.5108l5.2135,15.2469,5.0448-15.2469h4.4125l-7.3776,20.6009Z"/><path class="i" d="M325.449,201.4562V180.8553h4.1595v20.6009Z"/><path class="i" d="M338.827,201.4562l-7.3635-20.6009h4.5108l5.2135,15.2469,5.0448-15.2469h4.4125l-7.3776,20.6009Z"/><path class="i" d="M458.6182,55.5041V34.9032h4.1595V55.5041Z"/><path class="i" d="M466.614,55.5041V34.9032h4.16V55.5041Z"/><path class="i" d="M474.61,55.5041V34.9032h4.16V55.5041Z"/><path class="i" d="M259.015,22.6125V2.0116h4.16V22.6125Z"/><path class="i" d="M267.0108,22.6125V2.0116h4.16V22.6125Z"/><path class="i" d="M93.5362,22.6125V2.0116h4.16V22.6125Z"/></svg>