<svg xmlns="http://www.w3.org/2000/svg" viewBox="0 0 480 282"><defs><style>.a{fill:#07617d;}.b{fill:#d27332;}.c{fill:#b05f1f;}.d{fill:#f78536;}.e{fill:#497285;}.f{fill:#fff;}.g{fill:#3d91a6;}.h{fill:#ff892e;}.i{fill:#306b8c;}.j{fill:#1a1d2e;}.k{fill:#1f5887;}.l{opacity:0.15;}.m{fill:#0a0b12;}.n{fill:#20485e;}.o{fill:#cf4e1f;}.p{fill:#1f6678;}.q{fill:#2b4450;}</style></defs><title>jau_oil_fit</title><rect class="a" x="395.6941" y="77.0733" width="0.9065" height="38.0737"/><polygon class="a" points="455.216 90.589 455.216 88.405 423.796 88.405 423.796 115.147 422.89 115.147 422.89 87.498 455.216 87.498 455.216 85.313 465.042 87.951 455.216 90.589"/><polygon class="a" points="351.275 14.524 351.275 120.586 350.368 120.586 350.368 15.43 126.006 15.43 126.006 45.49 128.19 45.49 125.552 55.317 122.914 45.49 125.099 45.49 125.099 14.524 351.275 14.524"/><polygon class="a" points="215.751 29.934 215.751 150.501 214.844 150.501 214.844 30.841 151.841 30.841 151.841 39.145 154.026 39.145 151.388 48.971 148.75 39.145 150.935 39.145 150.935 29.934 215.751 29.934"/><polygon class="a" points="155.1 154.271 157.734 164.099 160.367 154.271 155.1 154.271"/><polygon class="a" points="474.647 111.665 477.28 101.838 479.914 111.665 474.647 111.665"/><polygon class="a" points="393.514 91.722 396.147 101.549 398.781 91.722 393.514 91.722"/><polygon class="a" points="453.403 190.759 453.403 188.575 445.099 188.575 445.099 187.668 453.403 187.668 453.403 185.483 463.229 188.121 453.403 190.759"/><polygon class="a" points="411.105 131.464 411.105 160.019 369.713 160.019 369.713 162.204 359.887 159.566 369.713 156.928 369.713 159.113 410.198 159.113 410.198 131.464 411.105 131.464"/><polygon class="a" points="65.414 271.439 65.414 269.255 57.11 269.255 57.11 268.348 65.414 268.348 65.414 266.163 75.241 268.801 65.414 271.439"/><rect class="a" x="150.9348" y="77.0733" width="0.9065" height="38.0737"/><polygon class="a" points="175.95 85.994 178.584 76.167 181.217 85.994 175.95 85.994"/><polygon class="a" points="86.658 112.427 89.292 102.6 91.925 112.427 86.658 112.427"/><polygon class="a" points="86.658 247.498 89.292 237.671 91.925 247.498 86.658 247.498"/><polygon class="a" points="148.754 91.722 151.388 101.549 154.022 91.722 148.754 91.722"/><polygon class="a" points="104.788 30.985 107.422 40.813 110.056 30.985 104.788 30.985"/><path class="a" d="M234.4793,58.8615V56.6767H218.434a2.8478,2.8478,0,0,0,0-.9065,3.1685,3.1685,0,0,0-6.2731,0,2.8478,2.8478,0,0,0,0,.9065H179.0368v58.47H178.13V55.77h33.1151a4.0771,4.0771,0,0,1,8.1041,0h15.13V53.5853l9.8266,2.6381Z"/><polygon class="a" points="291.137 162.204 291.137 160.019 283.286 160.019 283.286 225.742 89.745 225.742 89.745 260.189 88.839 260.189 88.839 214.864 89.745 214.864 89.745 224.835 182.663 224.835 182.663 160.019 173.598 160.019 173.598 131.464 174.504 131.464 174.504 159.113 191.42 159.113 191.42 156.928 201.246 159.566 191.42 162.204 191.42 160.019 183.569 160.019 183.569 224.835 282.38 224.835 282.38 160.019 273.314 160.019 273.314 131.464 274.221 131.464 274.221 159.113 291.137 159.113 291.137 156.928 300.963 159.566 291.137 162.204"/><polygon class="a" points="134.763 58.408 134.763 56.223 106.969 56.223 106.969 15.43 34.448 15.43 34.448 40.813 33.541 40.813 33.541 14.524 107.875 14.524 107.875 55.317 134.763 55.317 134.763 53.132 144.589 55.77 134.763 58.408"/><path class="a" d="M257.9037,131.4642v57.1105h-71.651a2.8478,2.8478,0,0,0,0-.9065,3.1685,3.1685,0,0,0-6.2731,0,2.8478,2.8478,0,0,0,0,.9065H89.745v9.9717h-.9065V30.841H44.9l-.0272,9.9717H43.966V29.9345H89.745V187.6682h67.5355v-56.204h.9065v56.204h20.877a4.0771,4.0771,0,0,1,8.1042,0h69.829v-56.204Z"/><polygon class="a" points="231.161 227.922 240.989 225.289 231.161 222.655 231.161 227.922"/><polygon class="a" points="132.351 227.922 142.179 225.289 132.351 222.655 132.351 227.922"/><polygon class="a" points="235.405 190.755 225.578 188.121 235.405 185.488 235.405 190.755"/><polygon class="a" points="130.25 190.755 120.422 188.121 130.25 185.488 130.25 190.755"/><polygon class="a" points="72.521 17.611 82.349 14.977 72.521 12.343 72.521 17.611"/><polygon class="a" points="75.859 33.021 66.031 30.388 75.859 27.754 75.859 33.021"/><polygon class="a" points="315.467 29.934 315.467 150.501 314.561 150.501 314.561 30.841 251.558 30.841 251.558 39.145 253.743 39.145 251.105 48.971 248.467 39.145 250.652 39.145 250.652 29.934 315.467 29.934"/><polygon class="a" points="477.734 29.934 477.734 179.51 476.827 179.51 476.827 30.841 396.601 30.841 396.601 39.145 398.785 39.145 396.147 48.971 393.509 39.145 395.694 39.145 395.694 29.934 477.734 29.934"/><polygon class="a" points="254.817 154.271 257.45 164.099 260.084 154.271 254.817 154.271"/><rect class="a" x="250.6516" y="77.0733" width="0.9065" height="38.0737"/><polygon class="a" points="275.667 85.994 278.3 76.167 280.934 85.994 275.667 85.994"/><polygon class="a" points="248.471 91.722 251.105 101.549 253.738 91.722 248.471 91.722"/><path class="a" d="M379.5218,58.8615V56.6767H353.9581a2.8556,2.8556,0,0,0,0-.9065,3.1685,3.1685,0,0,0-6.2731,0,2.8478,2.8478,0,0,0,0,.9065H318.1507a2.8478,2.8478,0,0,0,0-.9065,3.1685,3.1685,0,0,0-6.2731,0,2.8556,2.8556,0,0,0,0,.9065H278.7535v58.47h-.9065V55.77h33.1151a4.0771,4.0771,0,0,1,8.1042,0h27.7031a4.0771,4.0771,0,0,1,8.1042,0h24.6482V53.5853l9.8266,2.6381Z"/><polygon class="a" points="429.688 187.668 429.688 188.575 350.368 188.575 350.368 169.538 351.275 169.538 351.275 187.668 429.688 187.668"/><polygon class="b" points="396.147 57.13 388.895 77.98 403.399 77.98 396.147 57.13"/><polygon class="c" points="396.147 57.13 396.147 77.98 388.895 77.98 396.147 57.13"/><rect class="d" x="389.3484" y="48.9713" width="13.5977" height="13.5977"/><rect class="b" x="389.3484" y="48.9713" width="6.7989" height="13.5977"/><path class="d" d="M432.4079,123.3056c0,5.004-2.0306,9.0652-4.5325,9.0652H391.6147c-2.502,0-4.5325-4.0612-4.5325-9.0652s2.0305-9.0652,4.5325-9.0652h36.2607C430.3773,114.24,432.4079,118.3016,432.4079,123.3056Z"/><path class="b" d="M432.4079,123.3056c0,5.004-2.0306,9.0652-4.5325,9.0652H391.6147c-2.5019,0-4.5325-4.0612-4.5325-9.0652Z"/><path class="c" d="M392.9745,133.2773a.9066.9066,0,0,1-.9065-.9065V114.24a.9065.9065,0,1,1,1.813,0v18.13A.9066.9066,0,0,1,392.9745,133.2773Z"/><path class="c" d="M426.5156,133.2773a.9066.9066,0,0,1-.9065-.9065V114.24a.9065.9065,0,1,1,1.813,0v18.13A.9066.9066,0,0,1,426.5156,133.2773Z"/><rect class="e" x="395.2408" y="130.5577" width="2.7195" height="5.4391"/><rect class="e" x="421.5297" y="130.5577" width="2.7195" height="5.4391"/><rect class="a" x="394.2587" y="135.9968" width="4.5326" height="0.9065"/><rect class="a" x="420.6232" y="135.9968" width="4.5326" height="0.9065"/><rect class="f" x="400.0252" y="121.4926" width="0.9065" height="9.9717"/><polygon class="e" points="472.748 186.308 465.949 198.093 479.547 198.093 472.748 186.308"/><rect class="b" x="472.5212" y="180.6427" width="9.5184" height="5.4391" transform="translate(293.9183 660.6427) rotate(-90)"/><circle class="d" cx="472.7479" cy="188.1215" r="7.2521"/><rect class="b" x="463.2295" y="186.5539" width="9.5184" height="3.135"/><circle class="c" cx="472.7479" cy="188.1215" r="2.7195"/><rect class="a" x="465.4958" y="197.1866" width="14.5042" height="0.9065"/><circle class="d" cx="436.9392" cy="188.1215" r="7.2521"/><path class="b" d="M444.1913,188.1215a7.2521,7.2521,0,1,1-14.5042,0Z"/><polygon class="e" points="445.099 187.668 445.099 188.575 442.57 188.575 439.515 191.67 438.853 192.341 438.386 191.53 436.415 188.121 437.466 188.121 439.048 190.859 441.301 188.575 442.194 187.668 445.099 187.668"/><polygon class="g" points="437.466 188.121 436.415 188.121 434.833 185.384 432.58 187.668 431.687 188.575 428.782 188.575 428.782 187.668 431.311 187.668 434.366 184.572 435.028 183.902 437.466 188.121"/><polygon class="e" points="210.765 157.753 203.966 169.538 217.564 169.538 210.765 157.753"/><rect class="b" x="210.5382" y="152.0875" width="9.5184" height="5.4391" transform="translate(60.4905 370.1045) rotate(-90)"/><circle class="d" cx="210.7649" cy="159.5662" r="7.2521"/><rect class="b" x="201.2465" y="157.9987" width="9.5184" height="3.135"/><circle class="c" cx="210.7649" cy="159.5662" r="2.7195"/><rect class="a" x="203.5127" y="168.6314" width="14.5042" height="0.9065"/><polygon class="e" points="84.759 266.988 77.96 278.773 91.558 278.773 84.759 266.988"/><rect class="b" x="84.5326" y="261.3226" width="9.5184" height="5.4391" transform="translate(-174.7503 353.334) rotate(-90)"/><circle class="d" cx="84.7592" cy="268.8013" r="7.2521"/><rect class="b" x="75.2408" y="267.2338" width="9.5184" height="3.135"/><circle class="c" cx="84.7592" cy="268.8013" r="2.7195"/><rect class="a" x="77.5071" y="277.8665" width="14.5042" height="0.9065"/><polygon class="b" points="151.388 57.13 144.136 77.98 158.64 77.98 151.388 57.13"/><polygon class="c" points="151.388 57.13 151.388 77.98 144.136 77.98 151.388 57.13"/><rect class="d" x="144.5892" y="48.9713" width="13.5977" height="13.5977"/><rect class="b" x="144.5892" y="48.9713" width="6.7989" height="13.5977"/><path class="d" d="M187.6487,123.3056c0,5.004-2.0306,9.0652-4.5326,9.0652H146.8555c-2.502,0-4.5326-4.0612-4.5326-9.0652s2.0306-9.0652,4.5326-9.0652h36.2606C185.6181,114.24,187.6487,118.3016,187.6487,123.3056Z"/><path class="b" d="M187.6487,123.3056c0,5.004-2.0306,9.0652-4.5326,9.0652H146.8555c-2.5019,0-4.5326-4.0612-4.5326-9.0652Z"/><path class="c" d="M148.2153,133.2773a.9066.9066,0,0,1-.9065-.9065V114.24a.9065.9065,0,1,1,1.813,0v18.13A.9066.9066,0,0,1,148.2153,133.2773Z"/><path class="c" d="M181.7564,133.2773a.9066.9066,0,0,1-.9065-.9065V114.24a.9065.9065,0,1,1,1.813,0v18.13A.9066.9066,0,0,1,181.7564,133.2773Z"/><rect class="e" x="150.4816" y="130.5577" width="2.7195" height="5.4391"/><rect class="e" x="176.7705" y="130.5577" width="2.7195" height="5.4391"/><rect class="a" x="149.4995" y="135.9968" width="4.5326" height="0.9065"/><rect class="a" x="175.864" y="135.9968" width="4.5326" height="0.9065"/><rect class="f" x="155.266" y="121.4926" width="0.9065" height="9.9717"/><rect class="h" x="18.1243" y="43.6245" width="41.7059" height="29.3301"/><path class="f" d="M48.2781,54.6268a1.929,1.929,0,1,1,3.8287,0,1.9336,1.9336,0,1,1-3.8287,0Zm2.8519,0c0-.84-.3622-1.3452-.9376-1.3452s-.9379.5049-.9379,1.3452c0,.8474.3622,1.3842.9379,1.3842S51.13,55.4742,51.13,54.6268Z"/><path class="f" d="M52.9032,52.5378h.9507v4.217h-.9507Z"/><path class="f" d="M54.85,52.5378h.9508v3.4149H57.47v.8021H54.85Z"/><path class="f" d="M46.5026,58.3786a7.5252,7.5252,0,1,1-7.5253-7.5253A7.5252,7.5252,0,0,1,46.5026,58.3786Z"/><path class="i" d="M38.9773,51.7777a6.601,6.601,0,1,1-6.6011,6.6009,6.6085,6.6085,0,0,1,6.6011-6.6009Zm0-.9244a7.5253,7.5253,0,1,0,7.5253,7.5253,7.5254,7.5254,0,0,0-7.5253-7.5253Z"/><path class="j" d="M38.9734,54.1258s-5.2473,7.7494,0,7.7494Z"/><path class="k" d="M38.9734,54.1258v7.7494C44.22,61.8752,38.9734,54.1258,38.9734,54.1258ZM40.58,59.7667c-.1855.0241-.3774-.2724-.4283-.6629s.0583-.7252.2439-.75.377.2723.4279.6628S40.7652,59.7425,40.58,59.7667Z"/><rect class="l" x="18.1243" y="58.3786" width="41.7059" height="14.576"/><path class="c" d="M61.3956,42.2038h.0315a1.5654,1.5654,0,0,1,1.5654,1.5654v29.219a1.5654,1.5654,0,0,1-1.5654,1.5654h-.0316A1.5654,1.5654,0,0,1,59.83,72.9881V43.7692A1.5655,1.5655,0,0,1,61.3956,42.2038Z"/><path class="c" d="M16.5278,42.2038h.031a1.5655,1.5655,0,0,1,1.5655,1.5655V72.9881a1.5654,1.5654,0,0,1-1.5654,1.5654h-.0315a1.565,1.565,0,0,1-1.565-1.565V43.7692a1.5655,1.5655,0,0,1,1.5655-1.5655Z"/><path class="h" d="M63.0941,72.9546h-.1016v-29.33h.1016c5.5635,0,6.5982,3.8793,6.5982,8.6651v12C69.6923,69.0745,68.6576,72.9546,63.0941,72.9546Z"/><path class="l" d="M63.0941,72.9546h-.1016V58.3786h6.7V64.29C69.6923,69.0745,68.6576,72.9546,63.0941,72.9546Z"/><path class="h" d="M14.86,43.6245h.102v29.33H14.86c-5.563,0-6.5978-3.88-6.5978-8.6651v-12C8.2625,47.5038,9.2973,43.6245,14.86,43.6245Z"/><path class="l" d="M14.86,72.9546h.102V58.3786h-6.7V64.29C8.2625,69.0745,9.2973,72.9546,14.86,72.9546Z"/><rect class="c" x="32.9994" y="42.2038" width="11.9614" height="1.4207"/><rect class="h" x="31.0372" y="39.9062" width="15.8855" height="2.2875" rx="1.1321"/><path class="j" d="M28.1732,41.05h-.0105a.52.52,0,0,0-.5193.52v1.2939H20.8378V41.57a.52.52,0,0,0-.5194-.52h-.0109a.52.52,0,0,0-.5193.52V62.8672a.52.52,0,0,0,.5193.52h.0109a.52.52,0,0,0,.5194-.52V61.8659h6.8056v1.0013a.52.52,0,0,0,.5193.52h.0105a.52.52,0,0,0,.52-.52V41.57A.52.52,0,0,0,28.1732,41.05Zm-.53,2.3333V46.56H20.8378V43.3832Zm-6.8056,10.57V50.7763h6.8056V53.953Zm6.8056.52V57.65H20.8378V54.4728Zm-6.8056-4.2162V47.08h6.8056v3.1768Zm0,11.09V58.1693h6.8056v3.1768Z"/><polygon class="m" points="20.977 85.426 16.753 85.426 14.115 80.423 23.616 80.423 20.977 85.426"/><polygon class="m" points="61.352 85.426 57.128 85.426 54.489 80.423 63.99 80.423 61.352 85.426"/><rect class="j" x="18.6794" y="72.9546" width="40.5606" height="3.453"/><rect class="g" x="5.4685" y="76.4076" width="67.0229" height="2.4244"/><rect class="j" x="12.8324" y="78.832" width="52.2951" height="1.5911"/><path class="n" d="M17.8434,85.426a6.1875,6.1875,0,1,1-6.1874-6.1871A6.1879,6.1879,0,0,1,17.8434,85.426Z"/><path class="j" d="M11.6556,90.169a4.743,4.743,0,1,1,4.743-4.743A4.7484,4.7484,0,0,1,11.6556,90.169Zm0-8.8309a4.0879,4.0879,0,1,0,4.0878,4.0879A4.093,4.093,0,0,0,11.6556,81.3381Z"/><path class="j" d="M13.3817,85.426A1.7259,1.7259,0,1,1,11.656,83.7,1.7264,1.7264,0,0,1,13.3817,85.426Z"/><path class="n" d="M32.4035,85.426a6.1875,6.1875,0,1,1-6.1874-6.1871A6.1879,6.1879,0,0,1,32.4035,85.426Z"/><path class="j" d="M26.2161,90.169a4.743,4.743,0,1,1,4.7425-4.743A4.7485,4.7485,0,0,1,26.2161,90.169Zm0-8.8309a4.0879,4.0879,0,1,0,4.0874,4.0879A4.0931,4.0931,0,0,0,26.2161,81.3381Z"/><path class="j" d="M27.9418,85.426A1.7258,1.7258,0,1,1,26.2161,83.7,1.7264,1.7264,0,0,1,27.9418,85.426Z"/><path class="n" d="M57.9313,85.426a6.1874,6.1874,0,1,1-6.1874-6.1871A6.1879,6.1879,0,0,1,57.9313,85.426Z"/><path class="j" d="M51.7439,90.169a4.743,4.743,0,1,1,4.7426-4.743A4.7484,4.7484,0,0,1,51.7439,90.169Zm0-8.8309a4.0879,4.0879,0,1,0,4.0874,4.0879A4.0931,4.0931,0,0,0,51.7439,81.3381Z"/><path class="j" d="M53.47,85.426A1.7257,1.7257,0,1,1,51.7439,83.7,1.7264,1.7264,0,0,1,53.47,85.426Z"/><path class="n" d="M72.4914,85.426a6.1875,6.1875,0,1,1-6.1875-6.1871A6.1877,6.1877,0,0,1,72.4914,85.426Z"/><path class="j" d="M66.3039,90.169a4.743,4.743,0,1,1,4.7426-4.743A4.7486,4.7486,0,0,1,66.3039,90.169Zm0-8.8309a4.0879,4.0879,0,1,0,4.0876,4.0879A4.0933,4.0933,0,0,0,66.3039,81.3381Z"/><path class="j" d="M68.03,85.426A1.7259,1.7259,0,1,1,66.3039,83.7,1.7266,1.7266,0,0,1,68.03,85.426Z"/><polygon class="j" points="77.96 80.452 74.58 78.459 74.58 76.696 77.96 74.703 77.96 80.452"/><rect class="m" x="72.4914" y="76.6963" width="2.0887" height="1.7048"/><polygon class="j" points="0 74.703 3.38 76.696 3.38 78.459 0 80.452 0 74.703"/><rect class="m" x="3.3799" y="76.7547" width="2.0886" height="1.7039"/><rect class="h" x="4.7021" y="220.9632" width="49.6693" height="58.4712"/><path class="o" d="M9.6789,245.3428h13.128a1.3057,1.3057,0,0,1,1.3057,1.3057v18.754a1.3062,1.3062,0,0,1-1.3062,1.3062H9.679a1.3062,1.3062,0,0,1-1.3062-1.3062V246.649a1.3061,1.3061,0,0,1,1.3061-1.3061Z"/><rect class="i" y="226.6987" width="59.0735" height="1.558"/><rect class="i" y="221.742" width="59.0735" height="0.7793"/><rect class="i" x="55.7584" y="222.5213" width="0.6029" height="4.1774"/><rect class="i" x="46.9177" y="222.5213" width="0.6028" height="4.1774"/><rect class="i" x="38.0761" y="222.5213" width="0.6029" height="4.1774"/><rect class="i" x="29.2354" y="222.5213" width="0.6029" height="4.1774"/><rect class="i" x="20.3947" y="222.5213" width="0.6029" height="4.1774"/><rect class="i" x="11.553" y="222.5213" width="0.6029" height="4.1774"/><rect class="i" x="2.7123" y="222.5213" width="0.6029" height="4.1774"/><rect class="l" x="4.7021" y="228.2567" width="49.6693" height="2.5521"/><rect class="j" x="29.8382" y="226.6987" width="1.0047" height="7.794"/><rect class="j" x="30.8429" y="233.0946" width="6.2285" height="0.3764"/><rect class="j" x="30.8429" y="230.6833" width="6.2285" height="0.3769"/><rect class="j" x="30.8429" y="228.2723" width="6.2285" height="0.3765"/><rect class="j" x="37.0714" y="226.6987" width="1.0047" height="7.794"/><rect class="j" x="28.7335" y="234.4927" width="22.6389" height="1.1387"/><rect class="j" x="28.7335" y="243.3334" width="22.6389" height="1.1387"/><rect class="j" x="28.7335" y="240.7216" width="22.6389" height="0.5694"/><rect class="j" x="28.7335" y="252.1746" width="22.6389" height="1.1387"/><rect class="j" x="28.7335" y="261.0157" width="22.6389" height="1.1383"/><rect class="j" x="28.7335" y="269.8564" width="22.6389" height="1.1388"/><polygon class="j" points="50.703 235.631 49.631 235.631 42.062 243.333 43.134 243.333 50.703 235.631"/><polygon class="j" points="29.536 244.472 30.608 244.472 38.177 252.175 37.105 252.175 29.536 244.472"/><polygon class="j" points="29.536 262.154 30.608 262.154 38.177 269.856 37.105 269.856 29.536 262.154"/><polygon class="j" points="50.703 253.313 49.631 253.313 42.062 261.016 43.134 261.016 50.703 253.313"/><polygon class="j" points="50.703 270.995 49.631 270.995 41.393 279.434 42.464 279.434 50.703 270.995"/><rect class="j" x="2.6123" y="279.4344" width="53.8489" height="2.5114"/><rect class="j" x="50.7866" y="241.2909" width="0.234" height="2.0425"/><rect class="j" x="48.3752" y="241.2909" width="0.234" height="2.0425"/><rect class="j" x="45.9639" y="241.2909" width="0.2339" height="2.0425"/><rect class="j" x="43.5526" y="241.2909" width="0.2349" height="2.0425"/><rect class="j" x="41.1411" y="241.2909" width="0.235" height="2.0425"/><rect class="j" x="38.7298" y="241.2909" width="0.2349" height="2.0425"/><rect class="j" x="36.3194" y="241.2909" width="0.2339" height="2.0425"/><rect class="j" x="33.9081" y="241.2909" width="0.2339" height="2.0425"/><rect class="j" x="31.4967" y="241.2909" width="0.2339" height="2.0425"/><rect class="j" x="29.0853" y="241.2909" width="0.2349" height="2.0425"/><rect class="j" x="28.7335" y="249.5623" width="22.6389" height="0.5694"/><rect class="j" x="50.7866" y="250.1317" width="0.234" height="2.043"/><rect class="j" x="48.3752" y="250.1317" width="0.234" height="2.043"/><rect class="j" x="45.9639" y="250.1317" width="0.2339" height="2.043"/><rect class="j" x="43.5526" y="250.1317" width="0.2349" height="2.043"/><rect class="j" x="41.1411" y="250.1317" width="0.235" height="2.043"/><rect class="j" x="38.7298" y="250.1317" width="0.2349" height="2.043"/><rect class="j" x="36.3194" y="250.1317" width="0.2339" height="2.043"/><rect class="j" x="33.9081" y="250.1317" width="0.2339" height="2.043"/><rect class="j" x="31.4967" y="250.1317" width="0.2339" height="2.043"/><rect class="j" x="29.0853" y="250.1317" width="0.2349" height="2.043"/><rect class="j" x="28.7335" y="258.4035" width="22.6389" height="0.5694"/><rect class="j" x="50.7866" y="258.9728" width="0.234" height="2.0429"/><rect class="j" x="48.3752" y="258.9728" width="0.234" height="2.0429"/><rect class="j" x="45.9639" y="258.9728" width="0.2339" height="2.0429"/><rect class="j" x="43.5526" y="258.9728" width="0.2349" height="2.0429"/><rect class="j" x="41.1411" y="258.9728" width="0.235" height="2.0429"/><rect class="j" x="38.7298" y="258.9728" width="0.2349" height="2.0429"/><rect class="j" x="36.3194" y="258.9728" width="0.2339" height="2.0429"/><rect class="j" x="33.9081" y="258.9728" width="0.2339" height="2.0429"/><rect class="j" x="31.4967" y="258.9728" width="0.2339" height="2.0429"/><rect class="j" x="29.0853" y="258.9728" width="0.2349" height="2.0429"/><rect class="j" x="28.7335" y="267.2446" width="22.6389" height="0.5693"/><rect class="j" x="50.7866" y="267.8139" width="0.234" height="2.0425"/><rect class="j" x="48.3752" y="267.8139" width="0.234" height="2.0425"/><rect class="j" x="45.9639" y="267.8139" width="0.2339" height="2.0425"/><rect class="j" x="43.5526" y="267.8139" width="0.2349" height="2.0425"/><rect class="j" x="41.1411" y="267.8139" width="0.235" height="2.0425"/><rect class="j" x="38.7298" y="267.8139" width="0.2349" height="2.0425"/><rect class="j" x="36.3194" y="267.8139" width="0.2339" height="2.0425"/><rect class="j" x="33.9081" y="267.8139" width="0.2339" height="2.0425"/><rect class="j" x="31.4967" y="267.8139" width="0.2339" height="2.0425"/><rect class="j" x="29.0853" y="267.8139" width="0.2349" height="2.0425"/><rect class="j" x="28.7335" y="231.8804" width="22.6389" height="0.5694"/><rect class="j" x="50.7866" y="232.4498" width="0.234" height="2.043"/><rect class="j" x="48.3752" y="232.4498" width="0.234" height="2.043"/><rect class="j" x="45.9639" y="232.4498" width="0.2339" height="2.043"/><rect class="j" x="43.5526" y="232.4498" width="0.2349" height="2.043"/><rect class="j" x="41.1411" y="232.4498" width="0.235" height="2.043"/><rect class="j" x="38.7298" y="232.4498" width="0.2349" height="2.043"/><rect class="j" x="36.3194" y="232.4498" width="0.2339" height="2.043"/><rect class="j" x="33.9081" y="232.4498" width="0.2339" height="2.043"/><rect class="j" x="31.4967" y="232.4498" width="0.2339" height="2.043"/><rect class="j" x="29.0853" y="232.4498" width="0.2349" height="2.043"/><rect class="p" x="19.7918" y="217.5807" width="21.0976" height="3.4161"/><rect class="o" x="1.3405" y="230.1755" width="3.3616" height="8.8113"/><rect class="o" x="54.3786" y="264.4296" width="3.3624" height="8.8112"/><path class="f" d="M11.9068,249.3877a1.9191,1.9191,0,1,1,3.809,0,1.9236,1.9236,0,1,1-3.809,0Zm2.8373,0c0-.836-.36-1.3379-.9333-1.3379s-.9324.5019-.9324,1.3379c0,.8431.36,1.3767.9324,1.3767S14.7441,250.2308,14.7441,249.3877Z"/><path class="f" d="M16.5044,247.31H17.45v4.1945h-.9458Z"/><path class="f" d="M18.44,247.31h.9449v3.3969h1.66v.7976H18.44Z"/><path class="f" d="M16.4427,264.1866a4.7836,4.7836,0,1,1,4.7834-4.7838A4.7893,4.7893,0,0,1,16.4427,264.1866Z"/><path class="j" d="M16.4731,256.1689s-3.9921,5.8967,0,5.8967Z"/><path class="k" d="M16.4731,256.1689v5.8967C20.4661,262.0656,16.4731,256.1689,16.4731,256.1689Zm1.2226,4.2922c-.1411.0183-.2866-.2072-.3259-.5041s.0446-.5524.1857-.5707.2867.2072.326.5042S17.8368,260.4428,17.6957,260.4611Z"/><path class="d" d="M350.8215,169.9911c-5.0039,0-9.0651-2.03-9.0651-4.5325V124.6654c0-2.502,4.0611-4.5326,9.0651-4.5326s9.0652,2.0306,9.0652,4.5326v40.7932C359.8867,167.9606,355.8255,169.9911,350.8215,169.9911Z"/><path class="b" d="M350.8215,169.9911c-5.0039,0-9.0651-2.03-9.0651-4.5325V124.6654c0-2.502,4.0611-4.5326,9.0651-4.5326Z"/><path class="c" d="M340.85,126.0252a.9066.9066,0,0,1,.9065-.9065h18.13a.9065.9065,0,1,1,0,1.813h-18.13A.9066.9066,0,0,1,340.85,126.0252Z"/><path class="c" d="M340.85,164.0988a.9066.9066,0,0,1,.9065-.9065h18.13a.9065.9065,0,0,1,0,1.813h-18.13A.9066.9066,0,0,1,340.85,164.0988Z"/><rect class="e" x="355.3541" y="167.7249" width="2.7195" height="5.4391"/><rect class="a" x="354.9009" y="173.164" width="4.5326" height="0.9065"/><rect class="e" x="343.5694" y="167.7249" width="2.7195" height="5.4391" transform="translate(689.8584 340.8888) rotate(180)"/><rect class="a" x="342.2096" y="173.164" width="4.5326" height="0.9065" transform="translate(688.9519 347.2344) rotate(180)"/><path class="f" d="M342.6629,135.5436V154.58H358.98V135.5436Zm8.7116,9.5184,6.6992-7.9093v15.8186Zm6.196-8.6119-6.749,7.9592-6.749-7.9592Zm-14.0011.7026,6.6992,7.9093-6.6992,7.9093Zm.5031,16.5212,6.749-7.9638,6.749,7.9638Z"/><polygon class="b" points="89.292 206.705 93.824 197.64 84.759 197.64 89.292 206.705"/><polygon class="d" points="89.292 206.705 93.824 215.77 84.759 215.77 89.292 206.705"/><polygon class="c" points="89.292 197.64 93.824 197.64 89.292 206.705 89.292 197.64"/><polygon class="b" points="89.292 206.705 93.824 215.77 89.292 215.77 89.292 206.705"/><polygon class="e" points="310.482 157.753 303.683 169.538 317.28 169.538 310.482 157.753"/><rect class="b" x="310.255" y="152.0875" width="9.5184" height="5.4391" transform="translate(160.2072 469.8212) rotate(-90)"/><circle class="d" cx="310.4816" cy="159.5662" r="7.2521"/><rect class="b" x="300.9632" y="157.9987" width="9.5184" height="3.135"/><circle class="c" cx="310.4816" cy="159.5662" r="2.7195"/><rect class="a" x="303.2295" y="168.6314" width="14.5042" height="0.9065"/><polygon class="b" points="251.105 57.13 243.853 77.98 258.357 77.98 251.105 57.13"/><polygon class="c" points="251.105 57.13 251.105 77.98 243.853 77.98 251.105 57.13"/><rect class="d" x="244.3059" y="48.9713" width="13.5977" height="13.5977"/><rect class="b" x="244.3059" y="48.9713" width="6.7989" height="13.5977"/><path class="d" d="M287.3654,123.3056c0,5.004-2.0305,9.0652-4.5325,9.0652H246.5722c-2.502,0-4.5325-4.0612-4.5325-9.0652s2.03-9.0652,4.5325-9.0652h36.2607C285.3349,114.24,287.3654,118.3016,287.3654,123.3056Z"/><path class="b" d="M287.3654,123.3056c0,5.004-2.0305,9.0652-4.5325,9.0652H246.5722c-2.5019,0-4.5325-4.0612-4.5325-9.0652Z"/><path class="c" d="M247.932,133.2773a.9066.9066,0,0,1-.9065-.9065V114.24a.9065.9065,0,1,1,1.813,0v18.13A.9066.9066,0,0,1,247.932,133.2773Z"/><path class="c" d="M281.4731,133.2773a.9066.9066,0,0,1-.9065-.9065V114.24a.9065.9065,0,1,1,1.813,0v18.13A.9066.9066,0,0,1,281.4731,133.2773Z"/><rect class="e" x="250.1983" y="130.5577" width="2.7195" height="5.4391"/><rect class="e" x="276.4873" y="130.5577" width="2.7195" height="5.4391"/><rect class="a" x="249.2162" y="135.9968" width="4.5326" height="0.9065"/><rect class="a" x="275.5807" y="135.9968" width="4.5326" height="0.9065"/><rect class="f" x="254.9827" y="121.4926" width="0.9065" height="9.9717"/><path class="q" d="M268.0436,101.7865l-1.6856.1859a1.23,1.23,0,0,0-.3222-.7684.9372.9372,0,0,0-.6755-.2479,1.1438,1.1438,0,0,0-.9331.4957,4.1885,4.1885,0,0,0-.48,2.0636,2.0348,2.0348,0,0,1,1.6174-.7684,2.4726,2.4726,0,0,1,1.8688.83,3.0128,3.0128,0,0,1,.7773,2.1441,3.076,3.076,0,0,1-.818,2.2371,2.98,2.98,0,0,1-4.3626-.2258,5.5036,5.5036,0,0,1-.8862-3.5048,5.6041,5.6041,0,0,1,.9234-3.6,2.9786,2.9786,0,0,1,2.3982-1.1031,2.5445,2.5445,0,0,1,1.7129.579A2.7131,2.7131,0,0,1,268.0436,101.7865Zm-3.9475,3.7987a1.9721,1.9721,0,0,0,.39,1.31,1.1487,1.1487,0,0,0,.8924.4621,1.015,1.015,0,0,0,.8056-.378,1.9035,1.9035,0,0,0,.3222-1.2394,2,2,0,0,0-.347-1.2987,1.1158,1.1158,0,0,0-1.7165-.0177A1.7077,1.7077,0,0,0,264.0961,105.5852Z"/><path class="q" d="M161.9237,106.1491l1.7351-.18a1.4937,1.4937,0,0,0,.44.933,1.1971,1.1971,0,0,0,.8428.3435,1.1713,1.1713,0,0,0,.9233-.4426,2.0163,2.0163,0,0,0,.378-1.3359,1.8239,1.8239,0,0,0-.3753-1.2544,1.2452,1.2452,0,0,0-.9756-.4187,1.7741,1.7741,0,0,0-1.3447.663l-1.4129-.2045.8923-4.7282h4.6043v1.63h-3.2843l-.2727,1.543a2.6621,2.6621,0,0,1,3.1542.5515,3.0338,3.0338,0,0,1,.8056,2.1875,3.28,3.28,0,0,1-.6507,2.0016,2.885,2.885,0,0,1-2.46,1.2022,3.052,3.052,0,0,1-2.0512-.6754A2.7848,2.7848,0,0,1,161.9237,106.1491Z"/><path class="q" d="M383.2542,77.98V76.1517h-3.7176V74.6273l3.9407-5.7693H384.94v5.7631h1.1278v1.5306H384.94V77.98Zm0-3.3587V71.5165l-2.0879,3.1046Z"/><path class="q" d="M234.2068,75.4143l1.6856-.2045a1.5958,1.5958,0,0,0,.4337.9853,1.2267,1.2267,0,0,0,1.763-.0682,1.5855,1.5855,0,0,0,.3688-1.103,1.4778,1.4778,0,0,0-.3533-1.0411,1.1272,1.1272,0,0,0-.8613-.3842,3.0361,3.0361,0,0,0-.7994.13l.1921-1.4191a1.53,1.53,0,0,0,1.0782-.3063,1.094,1.094,0,0,0,.3718-.8649.9384.9384,0,0,0-.9977-1.0039,1.05,1.05,0,0,0-.7622.31,1.4556,1.4556,0,0,0-.3842.9048l-1.605-.2727a3.5741,3.5741,0,0,1,.5051-1.3164,2.28,2.28,0,0,1,.9419-.7755,3.1681,3.1681,0,0,1,1.354-.2815,2.7008,2.7008,0,0,1,2.0574.818,2.0709,2.0709,0,0,1-.6693,3.4206,2.1145,2.1145,0,0,1,1.2487.75,2.1746,2.1746,0,0,1,.4679,1.4067,2.7284,2.7284,0,0,1-.8738,2.0387,3.2637,3.2637,0,0,1-4.22.1337A2.791,2.791,0,0,1,234.2068,75.4143Z"/><path class="q" d="M139.9044,76.3624V77.98h-6.1039a4.2017,4.2017,0,0,1,.5949-1.7387,11.5775,11.5775,0,0,1,1.9582-2.1777,12.3116,12.3116,0,0,0,1.4439-1.4873,1.9165,1.9165,0,0,0,.3594-1.0658,1.2132,1.2132,0,0,0-.313-.8959,1.3305,1.3305,0,0,0-1.732.0159,1.6878,1.6878,0,0,0-.3718,1.0907l-1.7351-.1735a2.8425,2.8425,0,0,1,.9729-2.0636,3.2684,3.2684,0,0,1,2.0449-.6259,2.9559,2.9559,0,0,1,2.1132.725,2.3789,2.3789,0,0,1,.7684,1.8033,3.1462,3.1462,0,0,1-.22,1.1686,4.7473,4.7473,0,0,1-.6971,1.1615,11.178,11.178,0,0,1-1.14,1.1588q-.824.7555-1.0441,1.0039a3.0286,3.0286,0,0,0-.3564.4833Z"/><path class="q" d="M22.0246,35.3736H20.2833V28.8111a6,6,0,0,1-2.25,1.32v-1.58a5.0519,5.0519,0,0,0,1.4811-.8454,3.2216,3.2216,0,0,0,1.0968-1.4536h1.4129Z"/><path class="q" d="M407.5646,101.458V99.8407H413.52v1.2641a9.3791,9.3791,0,0,0-1.5,2.0822,12.1015,12.1015,0,0,0-1.1615,2.8842,10.6543,10.6543,0,0,0-.3939,2.73h-1.6794a11.7,11.7,0,0,1,.7773-3.842,12.822,12.822,0,0,1,1.9617-3.5013Z"/><path class="q" d="M202.7753,142.6788a1.9468,1.9468,0,0,1-1.2889-1.8776,2.1974,2.1974,0,0,1,.71-1.6794,3.39,3.39,0,0,1,4.0279,0,2.1929,2.1929,0,0,1,.7153,1.6794,1.98,1.98,0,0,1-.3284,1.1243,2.0723,2.0723,0,0,1-.9233.7533,2.4322,2.4322,0,0,1,1.149.8862,2.3411,2.3411,0,0,1,.394,1.3447,2.7367,2.7367,0,0,1-.803,2.045,2.9151,2.9151,0,0,1-2.1343.787,3.2281,3.2281,0,0,1-2.0636-.6507,2.5381,2.5381,0,0,1-.9729-2.1069,2.6067,2.6067,0,0,1,.3656-1.3536A2.35,2.35,0,0,1,202.7753,142.6788Zm.1983,2.1379a1.6026,1.6026,0,0,0,.3683,1.1217,1.1989,1.1989,0,0,0,.9207.4028,1.1551,1.1551,0,0,0,.8923-.3878,1.6013,1.6013,0,0,0,.3532-1.1181,1.4474,1.4474,0,0,0-.3594-1.026,1.1913,1.1913,0,0,0-.9109-.3868,1.0882,1.0882,0,0,0-.9508.44A1.6122,1.6122,0,0,0,202.9736,144.8167Zm.1611-3.8916a1.0925,1.0925,0,0,0,.2939.8118,1.0681,1.0681,0,0,0,.7844.2913,1.0808,1.0808,0,0,0,.7932-.294,1.0961,1.0961,0,0,0,.2974-.8153,1.012,1.012,0,0,0-1.072-1.0782,1.08,1.08,0,0,0-.7994.2974A1.0634,1.0634,0,0,0,203.1347,140.9251Z"/><path class="q" d="M300.9649,145.48l1.6856-.1859a1.2226,1.2226,0,0,0,.3222.7622.9546.9546,0,0,0,.6879.2479,1.1232,1.1232,0,0,0,.9171-.4957,4.216,4.216,0,0,0,.4834-2.0574,2.08,2.08,0,0,1-1.6422.7622,2.45,2.45,0,0,1-1.8493-.8277,3.0125,3.0125,0,0,1-.7782-2.153,3.06,3.06,0,0,1,.8207-2.2273,2.9713,2.9713,0,0,1,4.36.2231,5.5219,5.5219,0,0,1,.8862,3.5162,5.5927,5.5927,0,0,1-.9234,3.5942,2.9859,2.9859,0,0,1-2.4043,1.1031,2.5478,2.5478,0,0,1-1.7228-.5666A2.74,2.74,0,0,1,300.9649,145.48Zm3.9413-3.8049a1.9892,1.9892,0,0,0-.3869-1.3075,1.1434,1.1434,0,0,0-.8959-.4648,1,1,0,0,0-.802.3816,1.9376,1.9376,0,0,0-.32,1.2482,1.9871,1.9871,0,0,0,.347,1.2925,1.0885,1.0885,0,0,0,.8676.4116,1.074,1.074,0,0,0,.8454-.3966A1.727,1.727,0,0,0,304.9062,141.6749Z"/><path class="q" d="M461.5767,174.7822h-1.7414V168.22a6.0084,6.0084,0,0,1-2.2494,1.32v-1.58a5.0594,5.0594,0,0,0,1.481-.8455,3.2212,3.2212,0,0,0,1.0969-1.4536h1.4129Z"/><path class="q" d="M467.1229,165.66a2.4831,2.4831,0,0,1,2.0635.9419,8.1528,8.1528,0,0,1-.0062,7.4053,2.4777,2.4777,0,0,1-2.0573.9295,2.6,2.6,0,0,1-2.1379-1.0189,8.3081,8.3081,0,0,1,.08-7.3283A2.478,2.478,0,0,1,467.1229,165.66Zm0,1.4439a.8735.8735,0,0,0-.5639.2009,1.3542,1.3542,0,0,0-.3842.7224,14.7476,14.7476,0,0,0-.0186,4.4706,1.5424,1.5424,0,0,0,.4054.7968.891.891,0,0,0,1.1252-.0036,1.348,1.348,0,0,0,.3842-.7215,14.7151,14.7151,0,0,0,.0186-4.4644,1.5687,1.5687,0,0,0-.4055-.8A.8628.8628,0,0,0,467.1229,167.1043Z"/><path class="q" d="M434.9854,174.9371h-1.7413v-6.5625a6.0018,6.0018,0,0,1-2.25,1.32v-1.58a5.05,5.05,0,0,0,1.4811-.8455,3.2211,3.2211,0,0,0,1.0968-1.4536h1.4129Z"/><path class="q" d="M441.3438,174.9371h-1.7422v-6.5625a6.0044,6.0044,0,0,1-2.2486,1.32v-1.58a5.062,5.062,0,0,0,1.48-.8455,3.2233,3.2233,0,0,0,1.0977-1.4536h1.4129Z"/><path class="q" d="M335.571,114.24H333.83v-6.5625a6.0088,6.0088,0,0,1-2.25,1.32v-1.58a5.061,5.061,0,0,0,1.4811-.8455,3.2211,3.2211,0,0,0,1.0968-1.4536h1.4129Z"/><path class="q" d="M344.0545,112.6231V114.24h-6.1039a4.2156,4.2156,0,0,1,.5949-1.7386,11.5774,11.5774,0,0,1,1.9582-2.1778,12.313,12.313,0,0,0,1.4439-1.4872,1.9132,1.9132,0,0,0,.3594-1.0659,1.2119,1.2119,0,0,0-.3134-.8959,1.33,1.33,0,0,0-1.7316.0159,1.6834,1.6834,0,0,0-.3718,1.0907l-1.7351-.1735a2.8449,2.8449,0,0,1,.9729-2.0636,3.2685,3.2685,0,0,1,2.045-.6259,2.9552,2.9552,0,0,1,2.1131.7251,2.3768,2.3768,0,0,1,.7684,1.8033,3.1533,3.1533,0,0,1-.22,1.1685,4.7771,4.7771,0,0,1-.6976,1.1615,11.1323,11.1323,0,0,1-1.14,1.1588q-.8247.7555-1.0447,1.0039a3.0855,3.0855,0,0,0-.3558.4834Z"/><path class="q" d="M72.0768,256.4085H70.3355V249.846a6.0078,6.0078,0,0,1-2.2495,1.32v-1.58a5.0557,5.0557,0,0,0,1.4811-.8454,3.2224,3.2224,0,0,0,1.0969-1.4536h1.4128Z"/><path class="q" d="M74.6176,253.9979l1.6855-.2045a1.5989,1.5989,0,0,0,.4338.9853,1.1853,1.1853,0,0,0,.8552.3408,1.1729,1.1729,0,0,0,.9074-.409,1.5837,1.5837,0,0,0,.3691-1.103,1.4776,1.4776,0,0,0-.3532-1.0411,1.1268,1.1268,0,0,0-.8614-.3842,3.04,3.04,0,0,0-.7994.13l.1921-1.4191a1.5305,1.5305,0,0,0,1.0783-.3063,1.0939,1.0939,0,0,0,.3718-.8649.9385.9385,0,0,0-.9977-1.0039,1.05,1.05,0,0,0-.7622.31,1.4526,1.4526,0,0,0-.3842.9047l-1.605-.2726a3.58,3.58,0,0,1,.5046-1.3164,2.2872,2.2872,0,0,1,.9419-.7755,3.1717,3.1717,0,0,1,1.3545-.2815,2.7005,2.7005,0,0,1,2.0574.8179,2.0711,2.0711,0,0,1-.6693,3.4207,2.1124,2.1124,0,0,1,1.2482.75,2.173,2.173,0,0,1,.4683,1.4067,2.7284,2.7284,0,0,1-.8737,2.0388,3.2637,3.2637,0,0,1-4.22.1337A2.7923,2.7923,0,0,1,74.6176,253.9979Z"/><path class="q" d="M27.4637,212.1441H25.7224v-6.5625a6.0018,6.0018,0,0,1-2.25,1.32v-1.58a5.0547,5.0547,0,0,0,1.4811-.8455,3.2216,3.2216,0,0,0,1.0968-1.4536h1.4129Z"/><path class="q" d="M33.4809,212.1441V210.316H29.7627v-1.5244l3.9413-5.7693h1.4624v5.7631h1.1279v1.5306H35.1664v1.8281Zm0-3.3587v-3.1046l-2.0884,3.1046Z"/><path class="q" d="M439.4529,82.5124V73.4278h1.8343v9.0846Z"/><path class="q" d="M445.3523,82.5124l-3.2471-9.0846h1.9892l2.299,6.7236,2.2247-6.7236h1.9458l-3.2533,9.0846Z"/><path class="q" d="M102.68,182.2291v-9.0846h1.8343v9.0846Z"/><path class="q" d="M106.2055,182.2291v-9.0846H108.04v9.0846Z"/><path class="q" d="M109.7315,182.2291v-9.0846h1.8343v9.0846Z"/><path class="q" d="M104.4425,219.3962v-9.0846h1.8343v9.0846Z"/><path class="q" d="M107.9685,219.3962v-9.0846h1.8343v9.0846Z"/><path class="q" d="M93.9542,9.0846V0h1.8343V9.0846Z"/></svg>