<svg xmlns="http://www.w3.org/2000/svg" viewBox="0 0 480 369"><defs><style>.a{fill:#07617d;}.b{fill:#d27332;}.c{fill:#b05f1f;}.d{fill:#f78536;}.e{fill:#497285;}.f{fill:#fff;}.g{fill:#3d91a6;}.h{fill:#2b4450;}</style></defs><title>jc_1stage_fit2</title><polygon class="a" points="474 0 474 318 471.6 318 471.6 2.4 91.2 2.4 91.2 23.184 96.984 23.184 90 49.2 83.016 23.184 88.8 23.184 88.8 0 474 0"/><rect class="a" x="88.8" y="75.6" width="2.4" height="124.8"/><polygon class="a" points="246.384 135.384 246.384 129.6 163.2 129.6 163.2 200.4 160.8 200.4 160.8 127.2 246.384 127.2 246.384 121.416 272.4 128.4 246.384 135.384"/><polygon class="a" points="246.384 245.784 246.384 240 181.2 240 181.2 237.6 246.384 237.6 246.384 231.816 272.4 238.8 246.384 245.784"/><polygon class="a" points="409.584 348.984 409.584 343.2 387.6 343.2 387.6 340.8 409.584 340.8 409.584 335.016 435.6 342 409.584 348.984"/><polygon class="a" points="121.427 279.982 128.4 306 135.373 279.982 121.427 279.982"/><polygon class="a" points="224.4 348.973 250.418 342 224.4 335.027 224.4 348.973"/><polygon class="a" points="320.962 316.2 315.179 316.2 315.179 258.216 312.779 258.216 312.779 316.2 306.995 316.2 313.979 342.216 320.962 316.2"/><polygon class="a" points="346.8 340.8 346.8 343.2 127.2 343.2 127.2 243.6 129.6 243.6 129.6 340.8 346.8 340.8"/><polygon class="a" points="465.827 143.182 472.8 117.164 479.773 143.182 465.827 143.182"/><polygon class="a" points="83.027 152.782 90 178.8 96.973 152.782 83.027 152.782"/><polygon class="a" points="45.984 75.384 45.984 69.6 0 69.6 0 67.2 45.984 67.2 45.984 61.416 72 68.4 45.984 75.384"/><polygon class="b" points="90 70.8 70.8 126 109.2 126 90 70.8"/><polygon class="c" points="90 70.8 90 126 70.8 126 90 70.8"/><rect class="d" x="72" y="49.2" width="36" height="36"/><rect class="b" x="72" y="49.2" width="18" height="36"/><polygon class="e" points="460.8 337.2 442.8 368.4 478.8 368.4 460.8 337.2"/><rect class="b" x="460.2" y="322.2" width="25.2" height="14.4" transform="translate(143.4001 802.2001) rotate(-90)"/><circle class="d" cx="460.8" cy="342" r="19.2"/><rect class="b" x="435.6" y="337.85" width="25.2" height="8.3"/><circle class="c" cx="460.8" cy="342" r="7.2"/><rect class="a" x="441.6" y="366" width="38.4" height="2.4"/><path class="d" d="M186,222c0,13.248-5.376,24-12,24H78c-6.624,0-12-10.752-12-24s5.376-24,12-24h96C180.624,198,186,208.752,186,222Z"/><path class="b" d="M186,222c0,13.248-5.376,24-12,24H78c-6.624,0-12-10.752-12-24Z"/><path class="c" d="M81.6,248.4a2.4,2.4,0,0,1-2.4-2.4V198a2.4,2.4,0,0,1,4.8,0v48A2.4,2.4,0,0,1,81.6,248.4Z"/><path class="c" d="M170.4,248.4A2.4,2.4,0,0,1,168,246V198a2.4,2.4,0,0,1,4.8,0v48A2.4,2.4,0,0,1,170.4,248.4Z"/><rect class="e" x="87.6" y="241.2" width="7.2" height="14.4"/><rect class="e" x="157.2" y="241.2" width="7.2" height="14.4"/><rect class="a" x="85" y="255.6" width="12" height="2.4"/><rect class="a" x="154.8" y="255.6" width="12" height="2.4"/><rect class="f" x="100.2667" y="217.2" width="2.4" height="26.4"/><circle class="d" cx="365.9965" cy="342" r="19.2"/><path class="b" d="M385.1965,342a19.2,19.2,0,1,1-38.4,0Z"/><polygon class="e" points="387.6 340.8 387.6 343.2 380.904 343.2 372.816 351.396 371.064 353.172 369.828 351.024 364.608 342 367.392 342 371.58 349.248 377.544 343.2 379.908 340.8 387.6 340.8"/><polygon class="g" points="367.392 342 364.608 342 360.42 334.752 354.456 340.8 352.092 343.2 344.4 343.2 344.4 340.8 351.096 340.8 359.184 332.604 360.936 330.828 367.392 342"/><path class="h" d="M444.6656,308.4v-4.84H434.823v-4.036L445.2563,284.25h3.8718v15.2578h2.986V303.56h-2.986v4.84Zm0-8.8922v-8.2195l-5.5277,8.2195Z"/><path class="h" d="M359.6625,301.6078l4.4625-.5414a4.2268,4.2268,0,0,0,1.1484,2.6086,3.2479,3.2479,0,0,0,4.6676-.18,4.1983,4.1983,0,0,0,.9762-2.92,3.9118,3.9118,0,0,0-.9352-2.7562,2.9842,2.9842,0,0,0-2.28-1.0172,8.0413,8.0413,0,0,0-2.1164.3445l.5086-3.757a4.0516,4.0516,0,0,0,2.8546-.811,2.8962,2.8962,0,0,0,.9844-2.29,2.4848,2.4848,0,0,0-2.6414-2.6578,2.7813,2.7813,0,0,0-2.018.82,3.8538,3.8538,0,0,0-1.0171,2.3953l-4.2493-.7219a9.4632,9.4632,0,0,1,1.3371-3.4851,6.0363,6.0363,0,0,1,2.4938-2.0531,8.3881,8.3881,0,0,1,3.5848-.7454,7.1506,7.1506,0,0,1,5.4468,2.1657,5.653,5.653,0,0,1,1.69,4.0031q0,3.1676-3.4617,5.0531a5.5979,5.5979,0,0,1,3.3058,1.9852,5.7579,5.7579,0,0,1,1.2387,3.7242,7.2235,7.2235,0,0,1-2.3133,5.3976,8.6406,8.6406,0,0,1-11.1726.354A7.3886,7.3886,0,0,1,359.6625,301.6078Z"/><path class="h" d="M133.9969,179.318V183.6h-16.16a11.1269,11.1269,0,0,1,1.575-4.6031,30.6527,30.6527,0,0,1,5.1844-5.7657,32.6021,32.6021,0,0,0,3.8226-3.9375,5.0728,5.0728,0,0,0,.9516-2.8218,3.2127,3.2127,0,0,0-.8285-2.3719,3.5228,3.5228,0,0,0-4.5856.0422,4.469,4.469,0,0,0-.9843,2.8875l-4.5938-.4594q.41-3.8074,2.5758-5.4633a8.6539,8.6539,0,0,1,5.4141-1.657,7.8247,7.8247,0,0,1,5.5945,1.9195,6.2974,6.2974,0,0,1,2.0344,4.7742,8.33,8.33,0,0,1-.5824,3.0938,12.5623,12.5623,0,0,1-1.8458,3.075,29.5691,29.5691,0,0,1-3.0187,3.068q-2.1815,2-2.7645,2.6578a8.0289,8.0289,0,0,0-.9433,1.28Z"/><path class="h" d="M131.51,78H126.9V60.6258a15.887,15.887,0,0,1-5.9555,3.4945V59.9367a13.3725,13.3725,0,0,0,3.9211-2.2383A8.5282,8.5282,0,0,0,127.77,53.85H131.51Z"/><path class="h" d="M271.8516,291.6V267.5484h4.8562V291.6Z"/><path class="h" d="M287.47,291.6l-8.5969-24.0516H284.14l6.0868,17.8008,5.89-17.8008h5.1516L292.6547,291.6Z"/><path class="h" d="M212.9414,224.4V200.3484h4.8563V224.4Z"/><path class="h" d="M222.2766,224.4V200.3484h4.8562V224.4Z"/><path class="h" d="M231.6117,224.4V200.3484h4.8563V224.4Z"/><path class="h" d="M222.2766,114V89.9484h4.8562V114Z"/><path class="h" d="M231.6117,114V89.9484h4.8563V114Z"/><path class="h" d="M14.7437,51.6V27.5484H19.6V51.6Z"/></svg>