<svg xmlns="http://www.w3.org/2000/svg" viewBox="0 0 480 210"><defs><style>.a{fill:#d27332;opacity:0.8;}.b{fill:#f78536;opacity:0.6;}.c{fill:#07617d;}.d{fill:#2b4450;}.e,.f{fill:none;stroke-miterlimit:10;}.e{stroke:#07617d;}.f{stroke:#2b4450;}</style></defs><title>jc_ejector_fit</title><polygon class="a" points="200.87 137.217 108 132 108 118.435 200.87 113.217 200.87 137.217"/><polygon class="b" points="442.957 151.826 307.304 138.261 200.87 138.261 200.87 112.174 307.304 112.174 442.957 98.609 442.957 151.826"/><rect class="c" x="306.2609" y="113.7391" width="1.0435" height="22.9565"/><rect class="c" x="442.4348" y="99.1304" width="1.0435" height="52.1739"/><rect class="c" x="239.4783" y="113.7391" width="1.0435" height="22.9565"/><rect class="c" x="145.0435" y="109.5652" width="1.0435" height="31.3043"/><rect class="d" x="145.0435" y="176.3478" width="1.0435" height="33.3913"/><polygon class="d" points="98.522 185.09 97.524 184.785 114.786 126.999 115.784 127.304 98.522 185.09"/><rect class="d" x="239.4783" y="149.2174" width="1.0435" height="60.5217"/><rect class="d" x="442.4348" y="189.913" width="1.0435" height="19.8261"/><polygon class="c" points="187.826 79.304 187.826 98.087 178.435 98.087 178.435 97.043 186.783 97.043 186.783 92.87 178.435 92.87 178.435 91.826 186.783 91.826 186.783 85.565 178.435 85.565 178.435 84.522 186.783 84.522 186.783 80.348 178.435 80.348 178.435 79.304 187.826 79.304"/><rect class="c" x="161.7391" y="83.4783" width="4.1739" height="1.0435"/><rect class="c" x="104.3478" y="36.5217" width="41.7391" height="1.0435"/><rect class="c" x="161.7391" y="92.8696" width="4.1739" height="1.0435"/><polygon class="c" points="187.826 152.348 187.826 171.13 178.435 171.13 178.435 170.087 186.783 170.087 186.783 165.913 178.435 165.913 178.435 164.87 186.783 164.87 186.783 158.609 178.435 158.609 178.435 157.565 186.783 157.565 186.783 153.391 178.435 153.391 178.435 152.348 187.826 152.348"/><rect class="c" x="161.7391" y="156.5217" width="4.1739" height="1.0435"/><rect class="c" x="161.7391" y="165.913" width="4.1739" height="1.0435"/><rect class="c" x="140.8696" y="116.3478" width="1.0435" height="17.7391"/><rect class="c" x="70.9565" y="108" width="1.0435" height="34.4348"/><rect class="c" x="107.4783" y="116.8696" width="1.0435" height="16.6957"/><rect class="c" x="36.5217" y="88.6957" width="1.0435" height="73.0435"/><path class="c" d="M146.087,91.3043c0,3.3914-10.7479,5.2174-20.87,5.2174s-20.87-1.826-20.87-5.2174h1.0435c0,1.7426,7.5443,4.174,19.8261,4.174s19.8261-2.4314,19.8261-4.174Z"/><polygon class="c" points="443.478 148.915 443.478 186.783 428.87 186.783 428.87 158.922 306.72 146.087 240 146.087 179.478 149.374 179.478 173.217 164.87 173.217 164.87 150.136 162.783 150.24 162.783 173.217 145.043 173.217 145.043 166.957 51.13 166.957 51.13 186.783 36.522 186.783 36.522 158.609 70.957 158.609 70.957 140.744 81.391 138.146 100.174 133.461 108.136 131.478 141.913 133.043 141.913 135.652 109.033 138.783 81.391 145.67 81.391 158.609 145.043 158.609 145.043 139.68 162.783 138.751 221.217 135.683 240 134.609 306.783 134.609 325.565 136.529 428.87 147.381 443.478 148.915"/><polygon class="c" points="443.478 63.652 443.478 101.509 428.87 103.043 325.565 113.906 306.783 115.826 240 115.826 221.217 114.762 162.783 111.704 145.043 110.776 145.043 36.522 193.043 36.522 193.043 51.13 159.652 51.13 159.652 77.217 162.783 77.217 162.783 100.205 164.87 100.32 164.87 77.217 179.478 77.217 179.478 101.082 240 104.348 306.783 104.348 428.87 91.503 428.87 63.652 443.478 63.652"/><polygon class="c" points="141.913 114.783 141.913 117.391 108.136 118.957 100.174 116.974 81.391 112.289 70.957 109.691 70.957 91.826 36.522 91.826 36.522 63.652 51.13 63.652 51.13 83.478 90.783 83.478 90.783 51.13 57.391 51.13 57.391 36.522 105.391 36.522 105.391 91.826 81.391 91.826 81.391 104.765 109.033 111.652 141.913 114.783"/><line class="e" y1="125.2174" x2="22.445" y2="125.2174"/><polygon class="c" points="20.464 128.123 31.304 125.217 20.464 122.312 20.464 128.123"/><line class="e" x1="125.2174" x2="125.2174" y2="22.445"/><polygon class="c" points="122.312 20.464 125.217 31.304 128.123 20.464 122.312 20.464"/><line class="e" x1="448.6956" y1="125.2174" x2="471.1406" y2="125.2174"/><polygon class="c" points="469.159 128.123 480 125.217 469.159 122.312 469.159 128.123"/><line class="f" x1="152.0567" y1="204.5217" x2="234.0303" y2="204.5217"/><polygon class="d" points="154.865 208.225 153.292 204.522 154.865 200.819 146.087 204.522 154.865 208.225"/><polygon class="d" points="231.222 208.225 232.795 204.522 231.222 200.819 240 204.522 231.222 208.225"/><line class="f" x1="245.9697" y1="204.5217" x2="436.4651" y2="204.5217"/><polygon class="d" points="248.778 208.225 247.205 204.522 248.778 200.819 240 204.522 248.778 208.225"/><polygon class="d" points="433.656 208.225 435.23 204.522 433.656 200.819 442.435 204.522 433.656 208.225"/><path class="d" d="M8.999,118.9565V108.4993H11.11v10.4572Z"/><path class="d" d="M135.26,14.6087V4.1515h2.1114V14.6087Z"/><path class="d" d="M139.3186,14.6087V4.1515H141.43V14.6087Z"/><path class="d" d="M454.5642,118.9565V108.4993h2.1114v10.4572Z"/><path class="d" d="M458.623,118.9565V108.4993h2.1114v10.4572Z"/><path class="d" d="M462.6817,118.9565V108.4993h2.1114v10.4572Z"/><path class="d" d="M96.8794,198.2609H94.875v-7.554a6.9164,6.9164,0,0,1-2.5893,1.5193v-1.8189a5.8229,5.8229,0,0,0,1.7048-.9732,3.7086,3.7086,0,0,0,1.2626-1.6732h1.6263Z"/><path class="d" d="M198.694,196.3991v1.8618h-7.0262a4.8521,4.8521,0,0,1,.6848-2.0014,13.3281,13.3281,0,0,1,2.2541-2.5068,14.1806,14.1806,0,0,0,1.662-1.7119,2.2024,2.2024,0,0,0,.4137-1.2269,1.3948,1.3948,0,0,0-.3607-1.0313,1.5308,1.5308,0,0,0-1.9932.0184,1.9365,1.9365,0,0,0-.428,1.2554l-1.9973-.2a3.2746,3.2746,0,0,1,1.12-2.3754,3.7629,3.7629,0,0,1,2.3539-.72,3.4023,3.4023,0,0,1,2.4324.8345,2.7362,2.7362,0,0,1,.8846,2.0758,3.6292,3.6292,0,0,1-.2528,1.3451,5.4937,5.4937,0,0,1-.803,1.337,12.808,12.808,0,0,1-1.3125,1.3339q-.9492.87-1.2024,1.1555a3.5522,3.5522,0,0,0-.41.5564Z"/><path class="d" d="M338.9837,195.3077l1.94-.2353a1.8409,1.8409,0,0,0,.4993,1.1341,1.3644,1.3644,0,0,0,.9844.3923,1.35,1.35,0,0,0,1.0445-.4707,1.8234,1.8234,0,0,0,.4249-1.27,1.7007,1.7007,0,0,0-.4066-1.1984,1.2967,1.2967,0,0,0-.9915-.4423,3.4986,3.4986,0,0,0-.92.15l.2211-1.6335a1.7619,1.7619,0,0,0,1.2412-.3525,1.26,1.26,0,0,0,.4279-.9956,1.08,1.08,0,0,0-1.1484-1.1556,1.2091,1.2091,0,0,0-.8774.3567,1.6724,1.6724,0,0,0-.4422,1.0414l-1.8475-.3139a4.1228,4.1228,0,0,1,.5808-1.5152,2.6339,2.6339,0,0,1,1.0843-.8927,3.6512,3.6512,0,0,1,1.5591-.3241,3.1084,3.1084,0,0,1,2.3682.9416,2.3839,2.3839,0,0,1-.77,3.9375,2.4312,2.4312,0,0,1,1.4368.8631,2.5013,2.5013,0,0,1,.5391,1.6193,3.1409,3.1409,0,0,1-1.0058,2.3468,3.7568,3.7568,0,0,1-4.8577.1538A3.2145,3.2145,0,0,1,338.9837,195.3077Z"/></svg>