<svg xmlns="http://www.w3.org/2000/svg" width="500" height="600" viewBox="0 0 500 600"><defs><style>.a{fill:#bc5f0c;}.b{fill:#c6721e;}.c{fill:#2b4450;}.d{fill:#2b6f7f;}.e{fill:#497285;}.f{fill:#e58010;}.g{fill:#cc6e11;}.h{fill:#ba5a19;}.i{fill:#ce6f30;}.j{fill:#f78536;}.k{fill:#07617d;}.l{fill:#e5e8e9;}.m{fill:#fff;}.n{fill:#dea149;}.o{fill:#da8956;}.p{fill:#d9ddf6;}.q{fill:#719aa8;}.r{fill:#f9a828;}</style></defs><title>under_construction_test1</title><path class="a" d="M218.668,445.0007l-.0624,14.4575c-.0059,2.4962-1.6462,4.9864-4.921,6.8883l-73.56,42.75c-6.594,3.83-17.3187,3.8335-23.9544,0L42.1286,466.35c-3.34-1.9286-5.0072-4.4575-5.0013-6.9864l.0624-14.4426c0,2.52,1.6671,5.0459,4.9983,6.9685l74.0415,42.75c6.6387,3.8306,17.3633,3.8306,23.9574-.0029l73.56-42.7471C217.0217,449.9842,218.6621,447.4939,218.668,445.0007Z"/><path class="b" d="M213.6684,438.014c6.6367,3.8316,6.6717,10.0427.0781,13.8745l-73.5606,42.7487c-6.5935,3.8318-17.3182,3.8329-23.9549.0012L42.1891,451.89c-6.6367-3.8316-6.67-10.0438-.0762-13.8756l73.5606-42.7488c6.5935-3.8318,17.3163-3.8318,23.953,0Z"/><path class="a" d="M184.8984,441.8831c2.9358,1.6949,2.9492,4.4417.0326,6.1366l-51.5194,29.94a11.672,11.672,0,0,1-10.5942.0012L70.9611,448.0214c-2.9358-1.695-2.9512-4.4428-.0346-6.1377l51.5194-29.94a11.6759,11.6759,0,0,1,10.5962,0Z"/><polygon class="c" points="69.367 28.948 69.345 68.823 37.155 87.53 37.176 47.655 69.367 28.948"/><polygon class="d" points="37.176 47.655 37.155 87.53 4.724 68.806 4.745 28.931 37.176 47.655"/><polygon class="e" points="69.367 28.948 37.176 47.655 4.745 28.931 36.936 10.224 69.367 28.948"/><polygon class="f" points="122.446 307.322 123.23 308.289 127.896 305.718 108.962 282.538 121.558 280.942 122.039 280.674 122.833 281.641 127.49 279.07 108.485 255.787 121.643 254.12 122.125 253.852 122.909 254.819 127.575 252.248 108.56 228.964 121.718 227.298 122.2 227.029 122.994 227.997 127.65 225.426 108.645 202.142 121.803 200.476 122.285 200.207 123.069 201.175 127.735 198.604 108.721 175.32 121.879 173.654 122.361 173.385 123.154 174.352 127.811 171.781 108.806 148.498 121.964 146.832 122.446 146.563 123.23 147.53 127.896 144.959 107.597 120.108 102.94 122.67 121.133 144.959 106.7 146.787 102.043 149.358 105.358 148.937 103.318 150.057 121.057 171.781 106.624 173.609 101.958 176.18 105.273 175.759 103.242 176.879 120.972 198.604 106.539 200.431 101.882 203.002 105.198 202.581 103.157 203.701 120.897 225.426 106.463 227.253 101.797 229.824 105.113 229.403 103.082 230.523 120.812 252.248 106.378 254.076 101.722 256.647 105.037 256.226 102.997 257.345 120.736 279.07 106.766 280.844 102.109 283.406 103.243 283.262 102.94 283.429 121.133 305.718 106.7 307.546 102.043 310.117 105.358 309.696 103.318 310.816 121.057 332.54 106.624 334.368 101.958 336.939 105.273 336.518 103.242 337.638 120.972 359.363 106.539 361.19 101.882 363.761 105.198 363.34 103.157 364.46 120.897 386.185 106.463 388.012 101.797 390.584 105.113 390.163 103.082 391.282 120.812 413.007 106.378 414.835 101.722 417.406 105.037 416.985 102.997 418.105 120.736 439.829 106.766 441.603 102.109 444.165 121.558 441.701 122.039 441.433 122.833 442.4 127.49 439.829 108.485 416.546 121.643 414.879 122.125 414.611 122.909 415.578 127.575 413.007 108.56 389.723 121.718 388.057 122.2 387.788 122.994 388.756 127.65 386.185 108.645 362.901 121.803 361.235 122.285 360.966 123.069 361.934 127.735 359.363 108.721 336.079 121.879 334.413 122.361 334.144 123.154 335.112 127.811 332.54 108.806 309.257 121.964 307.591 122.446 307.322"/><polygon class="f" points="150.29 417.405 146.966 416.983 149.013 418.104 131.267 439.83 145.239 441.603 149.9 444.162 130.451 441.699 129.966 441.43 129.173 442.398 124.512 439.83 143.524 416.542 130.368 414.875 129.883 414.606 129.102 415.574 124.43 413.006 143.453 389.727 130.285 388.06 129.812 387.792 129.02 388.759 124.358 386.182 143.358 362.903 130.203 361.236 129.718 360.967 128.937 361.935 124.276 359.367 143.287 336.079 130.132 334.412 129.647 334.143 128.854 335.111 124.193 332.543 143.204 309.255 130.049 307.587 129.564 307.319 128.783 308.287 124.11 305.718 143.05 282.536 130.451 280.945 129.966 280.677 129.173 281.645 124.512 279.067 143.524 255.788 130.368 254.121 129.883 253.853 129.102 254.82 124.43 252.252 143.453 228.964 130.285 227.297 129.812 227.028 129.02 227.996 124.358 225.428 143.358 202.14 130.203 200.472 129.718 200.204 128.937 201.172 124.276 198.604 143.287 175.316 130.132 173.658 129.647 173.389 128.854 174.348 124.193 171.779 143.204 148.501 130.049 146.834 129.564 146.565 128.783 147.533 124.11 144.955 144.411 120.105 149.072 122.674 130.877 144.955 145.31 146.786 149.959 149.354 146.647 148.932 148.693 150.054 130.948 171.779 145.381 173.61 150.054 176.178 146.73 175.757 148.764 176.878 131.031 198.604 145.464 200.434 150.125 203.002 146.812 202.581 148.847 203.702 131.114 225.428 145.547 227.249 150.208 229.827 146.895 229.405 148.93 230.526 131.196 252.252 145.629 254.073 150.29 256.651 146.966 256.229 149.013 257.341 131.267 279.067 145.239 280.84 149.9 283.408 148.776 283.264 149.072 283.427 130.877 305.718 145.31 307.549 149.959 310.117 146.647 309.696 148.693 310.817 130.948 332.543 145.381 334.364 150.054 336.942 146.73 336.52 148.764 337.641 131.031 359.367 145.464 361.188 150.125 363.766 146.812 363.344 148.847 364.456 131.114 386.182 145.547 388.012 150.208 390.58 146.895 390.159 148.93 391.28 131.196 413.006 145.629 414.836 150.29 417.405"/><polygon class="a" points="123.235 308.287 103.324 310.817 123.152 335.111 103.241 337.641 123.069 361.926 103.159 364.465 122.986 388.75 103.076 391.29 122.915 415.574 103.005 418.104 122.832 442.398 102.449 444.986 102.106 444.171 121.555 441.699 101.715 417.405 121.638 414.875 101.798 390.58 121.72 388.06 101.881 363.766 121.803 361.236 101.964 336.942 121.874 334.412 102.047 310.117 121.957 307.587 102.851 284.175 102.449 284.223 102.106 283.408 121.555 280.945 101.715 256.651 121.638 254.121 101.798 229.827 121.72 227.297 101.881 203.002 121.803 200.472 101.964 176.178 121.874 173.648 102.047 149.364 121.957 146.834 102.591 123.105 102.934 122.674 123.235 147.523 103.324 150.063 123.152 174.348 103.241 176.878 123.069 201.172 103.159 203.702 122.986 227.996 103.076 230.526 122.915 254.811 103.005 257.351 122.832 281.635 103.466 284.088 123.235 308.287"/><polygon class="a" points="150.29 417.405 130.451 441.699 149.9 444.171 149.557 444.986 129.173 442.398 149.013 418.104 129.091 415.574 148.93 391.29 129.02 388.75 148.847 364.465 128.937 361.926 148.764 337.641 128.854 335.111 148.682 310.817 128.771 308.287 148.54 284.088 129.173 281.635 149.013 257.351 129.091 254.811 148.93 230.526 129.02 227.996 148.847 203.702 128.937 201.172 148.764 176.878 128.854 174.348 148.682 150.063 128.771 147.523 149.072 122.674 149.427 123.105 130.049 146.834 149.971 149.364 130.132 173.648 150.042 176.178 130.215 200.472 150.125 203.002 130.285 227.297 150.208 229.827 130.368 254.121 150.29 256.651 130.451 280.945 149.9 283.408 149.557 284.223 149.167 284.175 130.049 307.587 149.971 310.117 130.132 334.412 150.042 336.942 130.215 361.236 150.125 363.766 130.285 388.06 150.208 390.58 130.368 414.875 150.29 417.405"/><polygon class="a" points="129.803 118.329 129.803 463.98 125.993 465.818 125.993 120.092 129.803 118.329"/><polygon class="g" points="125.993 120.092 125.993 465.818 122.183 463.98 122.274 118.329 125.993 120.092"/><polygon class="a" points="152.211 107.82 152.211 450.744 148.401 452.508 148.401 109.583 152.211 107.82"/><polygon class="g" points="148.4 109.58 148.4 452.51 144.59 450.74 144.59 107.82 148.4 109.58"/><polygon class="a" points="103.586 109.583 103.586 452.508 99.866 450.744 99.866 107.82 103.586 109.583"/><polygon class="g" points="107.396 107.82 107.396 450.744 103.586 452.508 103.586 109.583 107.396 107.82"/><polygon class="h" points="126.152 101.053 126.126 136.043 165.185 113.344 165.212 78.354 126.152 101.053"/><polygon class="i" points="126.152 101.053 126.126 136.043 86.775 113.324 86.801 78.334 126.152 101.053"/><polygon class="j" points="165.211 78.355 126.152 101.053 86.801 78.334 125.86 55.635 165.211 78.355"/><path class="c" d="M226.7685,175.4805c1.4986-.871,3.5733-.7493,5.8612.5716l259.14,149.6142c4.5649,2.6356,8.2457,9.0108,8.2308,14.235l-.4423,214.2428c-.0073,2.5926-.9235,4.4186-2.4025,5.2783l-10.7976,6.2749c1.4791-.8594,2.3952-2.6854,2.4026-5.2783l.4423-214.2429c.0146-5.2242-3.6661-11.6-8.2311-14.235L221.8319,182.3269c-2.2878-1.3209-4.3625-1.4424-5.8612-.5715Z"/><path class="k" d="M221.832,182.3269c-4.5464-2.6249-8.2512-.5136-8.266,4.7106L213.1238,401.28c-.0148,5.2242,3.6659,11.5995,8.2124,14.2244L480.4755,565.119c4.565,2.6357,8.27.5244,8.2846-4.7l.4422-214.2428c.0148-5.2242-3.666-11.5995-8.231-14.2352Z"/><polygon class="l" points="223.795 213.184 223.429 404.86 478.449 552.095 478.815 360.42 223.795 213.184"/><path class="m" d="M255.1532,213.0449c-2.3349-1.3481-4.236-.2647-4.2436,2.4182a9.2713,9.2713,0,0,0,4.2161,7.2886c2.3228,1.341,4.2237.2717,4.2314-2.4114A9.2919,9.2919,0,0,0,255.1532,213.0449Z"/><path class="m" d="M228.0383,197.3931c-2.3349-1.348-4.236-.2647-4.2435,2.4183a9.27,9.27,0,0,0,4.2161,7.2884c2.3227,1.341,4.2237.2717,4.2313-2.4113A9.2921,9.2921,0,0,0,228.0383,197.3931Z"/><path class="m" d="M241.5958,205.2174c-2.335-1.348-4.2361-.2646-4.2436,2.4183a9.27,9.27,0,0,0,4.2161,7.2884c2.3349,1.3482,4.2237.2717,4.2313-2.4112A9.27,9.27,0,0,0,241.5958,205.2174Z"/><path class="n" d="M285.0325,367.9047l-34.5611-19.9541a6.6138,6.6138,0,0,0-9.92,5.7151l-.0662,34.4973a13.2266,13.2266,0,0,0,6.6136,11.48L281.66,419.5974a6.6133,6.6133,0,0,0,9.9205-5.7151l.0662-34.4974A13.2273,13.2273,0,0,0,285.0325,367.9047Z"/><path class="o" d="M362.6757,412.7322l-34.5612-19.9541a6.614,6.614,0,0,0-9.9206,5.7151l-.0662,34.4975a13.2267,13.2267,0,0,0,6.6137,11.48l34.5611,19.954a6.6133,6.6133,0,0,0,9.9205-5.7151l.0662-34.4973A13.2275,13.2275,0,0,0,362.6757,412.7322Z"/><path class="f" d="M343.7085,298.7126l3.0846,1.7925a6.1236,6.1236,0,0,1,5.0026.32l-3.0846-1.7924A6.1227,6.1227,0,0,0,343.7085,298.7126Z"/><polygon class="g" points="342.141 308.24 342.067 279.484 346.734 276.79 343.649 274.997 338.983 277.691 339.056 306.448 342.141 308.24"/><path class="p" d="M350.1509,310.1123a3.9405,3.9405,0,0,0-1.647-3.6112l-3.0846-1.7926a3.9405,3.9405,0,0,1,1.647,3.6112,12.159,12.159,0,0,1-2.7606,7.0617,11.6572,11.6572,0,0,1,2.3809,2.735A12.5283,12.5283,0,0,0,350.1509,310.1123Z"/><path class="a" d="M354.8035,307.426c-.016-5.6027-3.4383-8.3543-8.01-6.9206l-.06-23.7159-4.6665,2.6941.0739,28.7569,2.333-1.3474c3.1156-1.7987,5.6667-.3607,5.6769,3.2193a12.5248,12.5248,0,0,1-3.4642,8.004,11.7137,11.7137,0,0,1,1.5657,4.1264C352.09,318.3006,354.8178,312.4458,354.8035,307.426Z"/><path class="p" d="M350.974,324.9249l-4.0721,2.3849c-.9888.5819-2.3853.4654-3.8974-.4072a11.8775,11.8775,0,0,1-5.41-9.4821,3.7067,3.7067,0,0,1,1.5707-3.4319l4.072-2.3853a3.708,3.708,0,0,0-1.5706,3.4324,12.09,12.09,0,0,0,5.4681,9.482C348.647,325.39,349.9848,325.5065,350.974,324.9249Z"/><path class="q" d="M423.9645,358.4629l-.1165,51.54c-.0582,2.6178-.9306,4.4793-2.4431,5.2935l-4.0721,2.3852c1.4544-.8146,2.3853-2.6761,2.3853-5.2938l.1743-51.54c0-5.2353-3.6648-11.6343-8.26-14.31L274.493,267.362c-2.2688-1.28-4.3629-1.3961-5.8754-.5234l4.13-2.3852c1.5125-.8728,3.5484-.7563,5.8172.5237l137.1392,79.1755C420.3,346.8285,423.9645,353.2273,423.9645,358.4629Z"/><path class="e" d="M411.6125,346.5572c4.6052,2.6588,8.27,9.05,8.2549,14.299l-.146,51.5114c-.0151,5.2917-3.7036,7.3949-8.3088,4.7359l-137.129-79.1714c-4.5314-2.6163-8.2339-8.9865-8.219-14.2783l.146-51.5115c.0149-5.2493,3.7414-7.3729,8.2728-4.7568ZM343.01,326.9123c3.0459,1.7586,5.4681.2936,5.4779-3.1629a11.8773,11.8773,0,0,0-5.4424-9.3841c-3.0081-1.7367-5.4671-.3777-5.4768,3.08a12.0937,12.0937,0,0,0,5.4413,9.4671"/><path class="g" d="M344.3057,315.3812a10.5469,10.5469,0,0,1-2.8791,2.7073,5.2014,5.2014,0,0,1-2.3348.741l.1122-.1136-3.0847-1.7926-4.3536,4.4111a5.5757,5.5757,0,0,0,2.327,2.8014l3.0847,1.7925a5.5757,5.5757,0,0,1-2.3271-2.8013l3.853-3.9041,1.7795,1.0342a4.01,4.01,0,0,0,4.0281-.3764,9.7246,9.7246,0,0,0,2.1758-1.7646A11.661,11.661,0,0,0,344.3057,315.3812Z"/><path class="a" d="M344.511,319.8812c-2.3333,1.3471-4.4755.8794-5.3069-1.1653l-4.354,4.4111c1.522,3.72,5.4011,4.5684,9.6762,2.1a17.5514,17.5514,0,0,0,3.7262-2.9846,11.7159,11.7159,0,0,0-1.5657-4.1264A9.7377,9.7377,0,0,1,344.511,319.8812Z"/><polygon class="m" points="277.39 300.739 277.198 331.149 411.222 408.528 411.414 378.118 277.39 300.739"/><path class="m" d="M407.7031,356.587c-2.061-1.19-3.7389-.2336-3.7458,2.1346a8.1828,8.1828,0,0,0,3.7215,6.4333c2.05,1.1836,3.7281.24,3.7348-2.1285A8.2012,8.2012,0,0,0,407.7031,356.587Z"/><path class="m" d="M383.77,342.7718c-2.061-1.19-3.739-.2336-3.7458,2.1346a8.1825,8.1825,0,0,0,3.7215,6.4332c2.05,1.1837,3.7281.24,3.7348-2.1284A8.2019,8.2019,0,0,0,383.77,342.7718Z"/><path class="m" d="M395.7363,349.678c-2.061-1.19-3.7389-.2337-3.7457,2.1346a8.1823,8.1823,0,0,0,3.7214,6.4332c2.061,1.19,3.7281.24,3.7349-2.1284A8.1821,8.1821,0,0,0,395.7363,349.678Z"/><polygon class="a" points="357.298 271.721 366.058 266.63 354.741 286.736 345.981 291.826 357.298 271.721"/><polygon class="a" points="349.64 253.417 358.4 248.326 366.058 266.63 357.298 271.721 349.64 253.417"/><polygon class="f" points="330.357 242.283 339.117 237.193 358.4 248.326 349.64 253.417 330.357 242.283"/><polygon class="g" points="349.64 253.417 357.298 271.721 345.981 291.826 333.76 284.771 322.62 251.7 330.357 242.283 349.64 253.417"/><path class="g" d="M347.6869,212.0327c.2331.2388.2331.4663,0,.9325v32.4255a2.04,2.04,0,0,1-.6981,1.3988,4.9582,4.9582,0,0,1-4.4254,0,1.7,1.7,0,0,1-.9326-1.3988V212.2716a1.6855,1.6855,0,0,1,.9326-1.3988,4.9582,4.9582,0,0,1,4.4254,0C347.6869,211.339,347.92,211.5665,347.6869,212.0327Z"/><polygon class="a" points="347.228 206.946 358.4 200.453 358.368 211.894 347.196 218.386 347.228 206.946"/><polygon class="f" points="0.033 6.493 11.205 0 358.4 200.453 347.228 206.946 0.033 6.493"/><polygon class="g" points="347.228 206.946 347.196 218.386 0 17.933 0.033 6.493 347.228 206.946"/><path class="c" d="M393.8608,556.462v14.1228c0,1.3-.8668,2.513-2.513,3.5527L349.24,598.57a13.9477,13.9477,0,0,1-12.3031,0l-42.2816-24.4327c-1.733-1.04-2.5992-2.34-2.5992-3.6394l.0862-14.1228c0,1.3.8667,2.6,2.513,3.6393l42.3683,24.3465a13.494,13.494,0,0,0,12.2165.0867l42.1082-24.52C393.0807,558.975,393.8608,557.7619,393.8608,556.462Z"/><path class="k" d="M391.2853,552.849c3.43,1.98,3.4477,5.174.0952,7.1222L349.282,584.4361a13.5664,13.5664,0,0,1-12.2961-.0318l-42.3187-24.4327c-3.3745-1.9482-3.3926-5.1421-.04-7.09l42.0985-24.4649a13.5494,13.5494,0,0,1,12.241,0Z"/><polygon class="a" points="236 509.68 236 523.67 235.66 523.68 235.65 523.68 223.7 516.78 217.72 513.33 217.72 499.13 236 509.68"/><polygon class="f" points="219.68 510.36 219.68 524.56 190 541.7 190 527.5 219.68 510.36"/><polygon class="b" points="258.6 522.73 258.6 536.93 209.91 538.95 209.91 524.75 235.65 523.68 235.66 523.68 236 523.67 258.6 522.73"/><polygon class="a" points="272.33 530.66 272.33 544.86 258.6 536.93 258.6 522.73 272.33 530.66"/><path class="f" d="M232.56,553.81l31.06-18.08v14.18l-31.06,18.02a13.9175,13.9175,0,0,1-12.3,0L177.98,543.5c-1.74-1.04-2.6-2.34-2.6-3.64l.08-13.84v-.26a3.8094,3.8094,0,0,0,1.2,2.58,6.5989,6.5989,0,0,0,.55.49,8.0243,8.0243,0,0,0,.77.55l18.81,10.81,23.55,13.54A13.4964,13.4964,0,0,0,232.56,553.81Z"/><path class="f" d="M277.18,525.83v14.12c0,1.3-.86,2.51-2.51,3.55l-2.34,1.36v-14.2l2.34-1.37a5.9837,5.9837,0,0,0,1.35-.96q.18-.18.33-.36a3.6828,3.6828,0,0,0,.69-1.2A3.344,3.344,0,0,0,277.18,525.83Z"/><path class="r" d="M274.61,522.21l-42.32-24.43a13.5361,13.5361,0,0,0-12.24,0l-2.33,1.35L236,509.68l-26.09,15.07,48.69-2.02,13.73,7.99,2.37-1.38a6.0455,6.0455,0,0,0,1.32-1.01q.18-.18.33-.36a3.6828,3.6828,0,0,0,.69-1.2,2.6223,2.6223,0,0,0,.14-.72v-.22C277.2,524.53,276.34,523.21,274.61,522.21Z"/><path class="r" d="M252.96,529.57l-55.39,2.3L190,527.5l29.68-17.14-10.67-6.16-31.06,18.05a4.2813,4.2813,0,0,0-2.49,3.51v.26a3.6546,3.6546,0,0,0,1.2,2.32,6.5989,6.5989,0,0,0,.55.49c.24.17.5.35.78.51l18.8,10.85,23.52,13.58a13.5485,13.5485,0,0,0,12.29.03l31.02-18.07Z"/><path class="n" d="M478.6227,461.103l-.1734,90.9924L387.53,499.6032Z"/><path class="e" d="M478.5682,489.6728l-.1189,62.4226L416.077,516.0848Z"/><path class="o" d="M424.7765,465.21l53.8818-22.7731-.021,11.0191-42.8506,18.1107Z"/><path class="n" d="M360.609,484.06l98.9928-41.8392,3.67,2.1189-98.9927,41.8392Z"/></svg>