<svg xmlns="http://www.w3.org/2000/svg" viewBox="0 0 350 375"><defs><style>.a{fill:#07617d;}.b{fill:#d27332;}.c{fill:#b05f1f;}.d{fill:#f78536;}.e{fill:#497285;}.f{fill:#2b4450;}.g{fill:#fff;}.h{fill:#3d91a6;}</style></defs><title>vcu_vhc_1stage_fit</title><polygon class="a" points="133.495 61.07 133.495 56.384 54.44 56.384 54.44 177.903 52.496 177.903 52.496 54.44 133.495 54.44 133.495 49.754 154.571 55.412 133.495 61.07"/><polygon class="a" points="337.518 195.092 343.167 174.014 348.816 195.092 337.518 195.092"/><polygon class="a" points="344.139 0 344.139 335.39 342.195 335.39 342.195 1.944 170.125 1.944 170.125 18.782 174.811 18.782 169.153 39.858 163.495 18.782 168.181 18.782 168.181 0 344.139 0"/><polygon class="a" points="316.919 274.145 316.919 276.089 221.338 276.089 221.338 280.775 200.262 275.117 221.338 269.459 221.338 274.145 316.919 274.145"/><polygon class="a" points="295.843 197.17 295.843 192.485 243.036 192.485 243.036 190.54 295.843 190.54 295.843 185.855 316.919 191.513 295.843 197.17"/><polygon class="a" points="291.954 358.546 291.954 353.861 274.145 353.861 274.145 351.916 291.954 351.916 291.954 347.231 313.031 352.889 291.954 358.546"/><polygon class="a" points="239.148 351.916 239.148 353.861 199.29 353.861 199.29 195.401 201.234 195.401 201.234 351.916 239.148 351.916"/><polygon class="a" points="194.613 224.875 200.262 245.953 205.911 224.875 194.613 224.875"/><polygon class="a" points="174.811 137.383 169.153 158.46 163.495 137.383 168.181 137.383 168.181 100.131 170.125 100.131 170.125 137.383 174.811 137.383"/><polygon class="a" points="295.843 107.733 295.843 103.047 228.454 103.047 228.454 160.404 226.51 160.404 226.51 101.103 295.843 101.103 295.843 96.417 316.919 102.075 295.843 107.733"/><polygon class="b" points="169.153 57.357 153.599 102.075 184.708 102.075 169.153 57.357"/><polygon class="c" points="169.153 57.357 169.153 102.075 153.599 102.075 169.153 57.357"/><rect class="d" x="154.571" y="39.8579" width="29.1643" height="29.1643"/><rect class="b" x="154.571" y="39.8579" width="14.5822" height="29.1643"/><path class="d" d="M53.468,310.1141c-21.4651,0-38.8858-8.71-38.8858-19.4429V115.6852c0-10.7325,17.4208-19.4429,38.8858-19.4429s38.8858,8.71,38.8858,19.4429v174.986C92.3537,301.4037,74.933,310.1141,53.468,310.1141Z"/><path class="b" d="M53.468,310.1141c-21.4651,0-38.8858-8.71-38.8858-19.4429V115.6852c0-10.7324,17.4208-19.4429,38.8858-19.4429Z"/><path class="c" d="M12.6378,127.351a1.9444,1.9444,0,0,1,1.9443-1.9443H63.1894a1.9443,1.9443,0,1,1,0,3.8886H14.5821A1.9444,1.9444,0,0,1,12.6378,127.351Z"/><path class="c" d="M12.6378,175.9582a1.9444,1.9444,0,0,1,1.9443-1.9443H63.1894a1.9443,1.9443,0,1,1,0,3.8886H14.5821A1.9444,1.9444,0,0,1,12.6378,175.9582Z"/><path class="c" d="M12.6378,224.5655a1.9444,1.9444,0,0,1,1.9443-1.9443H63.1894a1.9443,1.9443,0,1,1,0,3.8885H14.5821A1.9444,1.9444,0,0,1,12.6378,224.5655Z"/><path class="c" d="M12.6378,273.1727a1.9444,1.9444,0,0,1,1.9443-1.9443H63.1894a1.9443,1.9443,0,1,1,0,3.8886H14.5821A1.9444,1.9444,0,0,1,12.6378,273.1727Z"/><rect class="e" x="9.7214" y="293.5877" width="87.493" height="48.6072"/><polygon class="f" points="80.688 149.71 80.688 293.588 76.799 293.588 76.799 250.813 67.078 250.813 67.078 246.925 76.799 246.925 76.799 202.206 67.078 202.206 67.078 198.318 76.799 198.318 76.799 153.599 67.078 153.599 67.078 149.71 80.688 149.71"/><rect class="a" y="339.2786" width="106.9359" height="5.8329"/><rect class="a" x="6.805" y="290.6713" width="93.3259" height="5.8329"/><polygon class="e" points="333.446 349 318.864 374.276 348.028 374.276 333.446 349"/><rect class="b" x="332.9596" y="336.8482" width="20.415" height="11.6657" transform="translate(0.4861 685.8483) rotate(-90)"/><circle class="d" cx="333.4457" cy="352.8886" r="15.5543"/><rect class="b" x="313.0306" y="349.5266" width="20.415" height="6.724"/><circle class="c" cx="333.4457" cy="352.8886" r="5.8329"/><rect class="a" x="317.8914" y="372.3315" width="31.1086" height="1.9443"/><path class="d" d="M246.9248,177.9025c0,10.7325-4.3552,19.4429-9.7215,19.4429H159.4318c-5.3663,0-9.7215-8.71-9.7215-19.4429s4.3552-19.4429,9.7215-19.4429h77.7715C242.57,158.46,246.9248,167.17,246.9248,177.9025Z"/><path class="b" d="M246.9248,177.9025c0,10.7325-4.3552,19.4429-9.7215,19.4429H159.4318c-5.3662,0-9.7215-8.71-9.7215-19.4429Z"/><path class="c" d="M162.3482,199.29a1.9444,1.9444,0,0,1-1.9443-1.9443V158.46a1.9443,1.9443,0,0,1,3.8886,0v38.8858A1.9444,1.9444,0,0,1,162.3482,199.29Z"/><path class="c" d="M234.2869,199.29a1.9444,1.9444,0,0,1-1.9443-1.9443V158.46a1.9443,1.9443,0,1,1,3.8886,0v38.8858A1.9444,1.9444,0,0,1,234.2869,199.29Z"/><rect class="e" x="167.2089" y="193.4568" width="5.8329" height="11.6657"/><rect class="e" x="223.5933" y="193.4568" width="5.8329" height="11.6657"/><rect class="a" x="165.1026" y="205.1226" width="9.7214" height="1.9443"/><rect class="a" x="221.649" y="205.1226" width="9.7214" height="1.9443"/><rect class="g" x="177.4704" y="174.0139" width="1.9443" height="21.3872"/><circle class="d" cx="256.6434" cy="352.8886" r="15.5543"/><path class="b" d="M272.1977,352.8886a15.5543,15.5543,0,0,1-31.1086,0Z"/><polygon class="e" points="274.145 351.916 274.145 353.861 268.72 353.861 262.168 360.5 260.749 361.939 259.747 360.199 255.519 352.889 257.774 352.889 261.167 358.76 265.998 353.861 267.913 351.916 274.145 351.916"/><polygon class="h" points="257.774 352.889 255.519 352.889 252.126 347.017 247.294 351.916 245.379 353.861 239.148 353.861 239.148 351.916 244.572 351.916 251.124 345.277 252.544 343.838 257.774 352.889"/><path class="f" d="M320.3749,325.6685v-3.9208h-7.9737v-3.27l8.4522-12.374H323.99v12.3607h2.4189v3.2829H323.99v3.9208Zm0-7.2037V311.806l-4.4781,6.6588Z"/><path class="f" d="M249.5678,320.166l3.6152-.4386a3.4241,3.4241,0,0,0,.93,2.1133,2.6311,2.6311,0,0,0,3.7813-.1462,3.4014,3.4014,0,0,0,.7909-2.3658,3.17,3.17,0,0,0-.7576-2.2329,2.418,2.418,0,0,0-1.8475-.824,6.5136,6.5136,0,0,0-1.7145.2791l.412-3.0437a3.2822,3.2822,0,0,0,2.3126-.6569,2.3465,2.3465,0,0,0,.7975-1.8551,2.0129,2.0129,0,0,0-2.14-2.1531,2.2531,2.2531,0,0,0-1.6348.6645,3.1227,3.1227,0,0,0-.824,1.94l-3.4424-.5848a7.6664,7.6664,0,0,1,1.0832-2.8234,4.8918,4.8918,0,0,1,2.02-1.6633,6.7958,6.7958,0,0,1,2.9041-.6038,5.7929,5.7929,0,0,1,4.4126,1.7545,4.58,4.58,0,0,1,1.369,3.243q0,2.5661-2.8044,4.0936a4.535,4.535,0,0,1,2.6781,1.6082,4.665,4.665,0,0,1,1.0035,3.0171,5.8519,5.8519,0,0,1-1.8741,4.3727,7,7,0,0,1-9.0512.2867A5.986,5.986,0,0,1,249.5678,320.166Z"/><path class="f" d="M204.796,143.3249v3.469H191.7043a9.0159,9.0159,0,0,1,1.2759-3.7291,24.8335,24.8335,0,0,1,4.2-4.6709,26.4181,26.4181,0,0,0,3.0968-3.19,4.11,4.11,0,0,0,.7709-2.2861,2.6023,2.6023,0,0,0-.6712-1.9215,2.8538,2.8538,0,0,0-3.7148.0342,3.62,3.62,0,0,0-.7975,2.3392l-3.7215-.3721a6.0976,6.0976,0,0,1,2.0867-4.4259,7.01,7.01,0,0,1,4.386-1.3424,6.339,6.339,0,0,1,4.5323,1.555,5.1018,5.1018,0,0,1,1.6481,3.8677,6.7473,6.7473,0,0,1-.4718,2.5063,10.1771,10.1771,0,0,1-1.4953,2.4911,23.9683,23.9683,0,0,1-2.4455,2.4855q-1.7673,1.62-2.24,2.1531a6.5047,6.5047,0,0,0-.7642,1.0367Z"/><path class="f" d="M202.7814,65.1337h-3.7347V51.0585a12.872,12.872,0,0,1-4.8247,2.831V50.5a10.8363,10.8363,0,0,0,3.1766-1.8133,6.91,6.91,0,0,0,2.3525-3.1177h3.03Z"/><path class="f" d="M266.1968,263.4513V243.9666h3.9342v19.4847Z"/><path class="f" d="M278.85,263.4513l-6.9645-19.4847h4.2664l4.931,14.4208,4.7715-14.4208h4.1733L283.05,263.4513Z"/><path class="f" d="M268.7506,179.8468V160.3621h3.9341v19.4847Z"/><path class="f" d="M276.3132,179.8468V160.3621h3.9341v19.4847Z"/><path class="f" d="M283.8758,179.8468V160.3621H287.81v19.4847Z"/><path class="f" d="M276.3132,88.4652V68.9805h3.9341V88.4652Z"/><path class="f" d="M283.8758,88.4652V68.9805H287.81V88.4652Z"/><path class="f" d="M96.5208,41.8022V22.3176h3.9342V41.8022Z"/></svg>