<svg xmlns="http://www.w3.org/2000/svg" viewBox="0 0 480 333"><defs><style>.a{fill:#07617d;}.b{fill:#f78536;}.c{fill:#d27332;}.d{fill:#b05f1f;}.e{fill:#497285;}.f{fill:#fff;}.g{fill:#2b4450;}</style></defs><title>vcu_steam_3stage_fit</title><polygon class="a" points="362.195 4.961 362.195 18.366 365.722 18.366 361.463 34.229 357.205 18.366 360.732 18.366 360.732 4.961 245.122 4.961 245.122 18.366 248.649 18.366 244.39 34.229 240.132 18.366 243.659 18.366 243.659 4.961 128.049 4.961 128.049 18.366 131.576 18.366 127.317 34.229 123.059 18.366 126.585 18.366 126.585 3.498 480 3.498 480 4.961 362.195 4.961"/><polygon class="a" points="464.137 116.049 464.137 112.522 413.415 112.522 413.415 155.693 411.951 155.693 411.951 111.059 464.137 111.059 464.137 107.532 480 111.79 464.137 116.049"/><polygon class="a" points="371.941 243.366 371.941 239.839 306.585 239.839 306.585 268.376 305.122 268.376 305.122 238.376 371.941 238.376 371.941 234.849 387.805 239.108 371.941 243.366"/><polygon class="a" points="204.644 319.727 204.644 323.254 270 323.254 270 294.717 271.463 294.717 271.463 324.717 204.644 324.717 204.644 328.244 188.78 323.986 204.644 319.727"/><polygon class="a" points="99.746 44.342 99.746 40.815 40.976 40.815 40.976 146.912 39.512 146.912 39.512 39.351 99.746 39.351 99.746 35.825 115.61 40.083 99.746 44.342"/><rect class="a" x="126.5854" y="79.5953" width="1.4634" height="76.0976"/><polygon class="a" points="262.683 209.108 262.683 268.376 261.22 268.376 261.22 210.571 152.927 210.571 152.927 182.034 154.39 182.034 154.39 209.108 262.683 209.108"/><rect class="a" x="270" y="182.0343" width="1.4634" height="86.3415"/><polygon class="a" points="390 182.034 390 210.571 280.244 210.571 280.244 268.376 278.78 268.376 278.78 209.108 388.537 209.108 388.537 182.034 390 182.034"/><polygon class="a" points="175.017 123.265 179.268 107.4 183.52 123.265 175.017 123.265"/><polygon class="a" points="123.065 109.097 127.317 124.961 131.569 109.097 123.065 109.097"/><polygon class="a" points="216.819 50.195 216.819 46.668 180 46.668 180 155.693 178.537 155.693 178.537 45.205 216.819 45.205 216.819 41.678 232.683 45.937 216.819 50.195"/><rect class="a" x="243.6585" y="79.5953" width="1.4634" height="76.0976"/><polygon class="a" points="291.358 123.265 295.61 107.4 299.861 123.265 291.358 123.265"/><polygon class="a" points="311.474 0 295.61 4.252 311.474 8.503 311.474 0"/><polygon class="a" points="428.548 0 412.683 4.252 428.548 8.503 428.548 0"/><polygon class="a" points="194.401 0 178.537 4.252 194.401 8.503 194.401 0"/><polygon class="a" points="240.139 109.097 244.39 124.961 248.642 109.097 240.139 109.097"/><polygon class="a" points="333.893 50.195 333.893 46.668 296.341 46.668 296.341 155.693 294.878 155.693 294.878 45.205 333.893 45.205 333.893 41.678 349.756 45.937 333.893 50.195"/><rect class="a" x="360.7317" y="79.5953" width="1.4634" height="76.0976"/><polygon class="a" points="357.212 109.097 361.463 124.961 365.715 109.097 357.212 109.097"/><path class="b" d="M320.4878,281.5465c0,8.0781-3.278,14.6342-7.3171,14.6342H254.6341c-4.039,0-7.317-6.5561-7.317-14.6342s3.278-14.6341,7.317-14.6341h58.5366C317.21,266.9124,320.4878,273.4685,320.4878,281.5465Z"/><path class="c" d="M320.4878,281.5465c0,8.0781-3.278,14.6342-7.3171,14.6342H254.6341c-4.0389,0-7.317-6.5561-7.317-14.6342Z"/><path class="d" d="M256.8293,297.6441a1.4634,1.4634,0,0,1-1.4634-1.4634V266.9124a1.4634,1.4634,0,0,1,2.9268,0v29.2683A1.4635,1.4635,0,0,1,256.8293,297.6441Z"/><path class="d" d="M310.9756,297.6441a1.4634,1.4634,0,0,1-1.4634-1.4634V266.9124a1.4634,1.4634,0,0,1,2.9268,0v29.2683A1.4634,1.4634,0,0,1,310.9756,297.6441Z"/><rect class="e" x="260.4878" y="293.2539" width="4.3902" height="8.7805"/><rect class="e" x="302.9268" y="293.2539" width="4.3902" height="8.7805"/><rect class="a" x="258.9024" y="302.0343" width="7.3171" height="1.4634"/><rect class="a" x="301.4634" y="302.0343" width="7.3171" height="1.4634"/><rect class="f" x="282.8455" y="278.6197" width="1.4634" height="16.0976"/><path class="b" d="M40.2439,306.4245c-16.1561,0-29.2683-6.5561-29.2683-14.6341V160.0831c0-8.078,13.1121-14.6341,29.2683-14.6341s29.2682,6.556,29.2682,14.6341V291.79C69.5122,299.8684,56.4,306.4245,40.2439,306.4245Z"/><path class="c" d="M40.2439,306.4245c-16.1561,0-29.2683-6.5561-29.2683-14.6341V160.0831c0-8.078,13.1121-14.6341,29.2683-14.6341Z"/><path class="d" d="M9.5122,168.8636A1.4635,1.4635,0,0,1,10.9756,167.4H47.5609a1.4634,1.4634,0,1,1,0,2.9268H10.9756A1.4634,1.4634,0,0,1,9.5122,168.8636Z"/><path class="d" d="M9.5122,205.449a1.4634,1.4634,0,0,1,1.4634-1.4634H47.5609a1.4634,1.4634,0,1,1,0,2.9268H10.9756A1.4634,1.4634,0,0,1,9.5122,205.449Z"/><path class="d" d="M9.5122,242.0344a1.4635,1.4635,0,0,1,1.4634-1.4635H47.5609a1.4635,1.4635,0,1,1,0,2.9269H10.9756A1.4635,1.4635,0,0,1,9.5122,242.0344Z"/><path class="d" d="M9.5122,278.62a1.4635,1.4635,0,0,1,1.4634-1.4634H47.5609a1.4634,1.4634,0,1,1,0,2.9268H10.9756A1.4634,1.4634,0,0,1,9.5122,278.62Z"/><rect class="e" x="7.3171" y="293.9856" width="65.8537" height="36.5854"/><polygon class="g" points="60.732 185.693 60.732 293.986 57.805 293.986 57.805 261.79 50.488 261.79 50.488 258.864 57.805 258.864 57.805 225.205 50.488 225.205 50.488 222.278 57.805 222.278 57.805 188.62 50.488 188.62 50.488 185.693 60.732 185.693"/><rect class="a" y="328.3758" width="80.4878" height="4.3902"/><rect class="a" x="5.122" y="291.7904" width="70.2439" height="4.3902"/><path class="b" d="M193.1707,168.8636c0,8.0781-3.278,14.6342-7.317,14.6342H112.6829c-4.039,0-7.317-6.5561-7.317-14.6342s3.278-14.6341,7.317-14.6341h73.1708C189.8927,154.23,193.1707,160.7855,193.1707,168.8636Z"/><path class="c" d="M193.1707,168.8636c0,8.0781-3.278,14.6342-7.317,14.6342H112.6829c-4.039,0-7.317-6.5561-7.317-14.6342Z"/><path class="d" d="M122.1951,184.9612a1.4635,1.4635,0,0,1-1.4634-1.4634V154.23a1.4634,1.4634,0,0,1,2.9268,0v29.2683A1.4635,1.4635,0,0,1,122.1951,184.9612Z"/><path class="d" d="M183.6585,184.9612a1.4635,1.4635,0,0,1-1.4634-1.4634V154.23a1.4635,1.4635,0,0,1,2.9269,0v29.2683A1.4636,1.4636,0,0,1,183.6585,184.9612Z"/><rect class="e" x="125.8537" y="180.5709" width="4.3902" height="8.7805"/><rect class="e" x="175.6098" y="180.5709" width="4.3902" height="8.7805"/><rect class="a" x="124.2683" y="189.3514" width="7.3171" height="1.4634"/><rect class="a" x="174.1463" y="189.3514" width="7.3171" height="1.4634"/><path class="b" d="M310.2439,168.8636c0,8.0781-3.278,14.6342-7.3171,14.6342H229.7561c-4.039,0-7.3171-6.5561-7.3171-14.6342s3.2781-14.6341,7.3171-14.6341h73.1707C306.9659,154.23,310.2439,160.7855,310.2439,168.8636Z"/><path class="c" d="M310.2439,168.8636c0,8.0781-3.278,14.6342-7.3171,14.6342H229.7561c-4.039,0-7.3171-6.5561-7.3171-14.6342Z"/><path class="d" d="M239.2683,184.9612a1.4635,1.4635,0,0,1-1.4634-1.4634V154.23a1.4634,1.4634,0,1,1,2.9268,0v29.2683A1.4635,1.4635,0,0,1,239.2683,184.9612Z"/><path class="d" d="M300.7317,184.9612a1.4635,1.4635,0,0,1-1.4634-1.4634V154.23a1.4634,1.4634,0,0,1,2.9268,0v29.2683A1.4635,1.4635,0,0,1,300.7317,184.9612Z"/><rect class="e" x="242.9268" y="180.5709" width="4.3902" height="8.7805"/><rect class="e" x="292.6829" y="180.5709" width="4.3902" height="8.7805"/><rect class="a" x="241.3415" y="189.3514" width="7.3171" height="1.4634"/><rect class="a" x="291.2195" y="189.3514" width="7.3171" height="1.4634"/><path class="b" d="M427.3171,168.8636c0,8.0781-3.2781,14.6342-7.3171,14.6342H346.8293c-4.0391,0-7.3171-6.5561-7.3171-14.6342s3.278-14.6341,7.3171-14.6341H420C424.039,154.23,427.3171,160.7855,427.3171,168.8636Z"/><path class="c" d="M427.3171,168.8636c0,8.0781-3.2781,14.6342-7.3171,14.6342H346.8293c-4.039,0-7.3171-6.5561-7.3171-14.6342Z"/><path class="d" d="M356.3415,184.9612a1.4636,1.4636,0,0,1-1.4635-1.4634V154.23a1.4635,1.4635,0,0,1,2.9269,0v29.2683A1.4635,1.4635,0,0,1,356.3415,184.9612Z"/><path class="d" d="M417.8049,184.9612a1.4635,1.4635,0,0,1-1.4634-1.4634V154.23a1.4634,1.4634,0,0,1,2.9268,0v29.2683A1.4635,1.4635,0,0,1,417.8049,184.9612Z"/><rect class="e" x="360" y="180.5709" width="4.3902" height="8.7805"/><rect class="e" x="409.7561" y="180.5709" width="4.3902" height="8.7805"/><rect class="a" x="358.4146" y="189.3514" width="7.3171" height="1.4634"/><rect class="a" x="408.2927" y="189.3514" width="7.3171" height="1.4634"/><polygon class="c" points="244.39 47.4 232.683 81.059 256.098 81.059 244.39 47.4"/><circle class="b" cx="244.3902" cy="45.9368" r="11.7073"/><polygon class="d" points="244.39 47.4 244.39 81.059 232.683 81.059 244.39 47.4"/><path class="c" d="M244.39,34.23a11.7073,11.7073,0,0,0,0,23.4146Z"/><polygon class="c" points="127.317 47.4 115.61 81.059 139.024 81.059 127.317 47.4"/><circle class="b" cx="127.3171" cy="45.9368" r="11.7073"/><polygon class="d" points="127.317 47.4 127.317 81.059 115.61 81.059 127.317 47.4"/><path class="c" d="M127.3171,34.23a11.7073,11.7073,0,1,0,0,23.4146Z"/><polygon class="c" points="361.463 47.4 349.756 81.059 373.171 81.059 361.463 47.4"/><circle class="b" cx="361.4634" cy="45.9368" r="11.7073"/><polygon class="d" points="361.463 47.4 361.463 81.059 349.756 81.059 361.463 47.4"/><path class="c" d="M361.4634,34.23a11.7073,11.7073,0,1,0,0,23.4146Z"/><path class="g" d="M265.7884,141.1673l2.8011-.29a2.4116,2.4116,0,0,0,.71,1.5063,1.9327,1.9327,0,0,0,1.3606.5545,1.8909,1.8909,0,0,0,1.49-.7145,3.255,3.255,0,0,0,.61-2.1566,2.9441,2.9441,0,0,0-.606-2.025,2.01,2.01,0,0,0-1.5749-.676,2.864,2.864,0,0,0-2.1708,1.07l-2.2809-.33,1.4406-7.6329h7.4328v2.631H269.7l-.44,2.4909a4.297,4.297,0,0,1,5.092.89,4.8976,4.8976,0,0,1,1.3,3.5313,5.2957,5.2957,0,0,1-1.05,3.2312,4.6579,4.6579,0,0,1-3.9716,1.9408,4.9271,4.9271,0,0,1-3.3112-1.09A4.4953,4.4953,0,0,1,265.7884,141.1673Z"/><path class="g" d="M153.3327,145.1989v-2.9511h-6.0016v-2.461l6.3617-9.3135h2.3609v9.3035h1.8207v2.471h-1.8207v2.9511Zm0-5.4221v-5.0119l-3.3706,5.0119Z"/><path class="g" d="M381.0137,49.1123l2.7211-.33a2.5772,2.5772,0,0,0,.7,1.5906,1.98,1.98,0,0,0,2.8461-.11,2.56,2.56,0,0,0,.5952-1.7807,2.3851,2.3851,0,0,0-.57-1.6806,1.82,1.82,0,0,0-1.3905-.62,4.9055,4.9055,0,0,0-1.2905.21l.31-2.2908a2.4709,2.4709,0,0,0,1.7407-.4945,1.7664,1.7664,0,0,0,.6-1.3963,1.5152,1.5152,0,0,0-1.6106-1.6206,1.6959,1.6959,0,0,0-1.2305.5,2.35,2.35,0,0,0-.62,1.4606l-2.591-.44a5.77,5.77,0,0,1,.8153-2.1251,3.6806,3.6806,0,0,1,1.5206-1.2519,5.1143,5.1143,0,0,1,2.1858-.4544,4.36,4.36,0,0,1,3.3213,1.3205,3.3433,3.3433,0,0,1-1.08,5.5221,3.4125,3.4125,0,0,1,2.0157,1.21,3.511,3.511,0,0,1,.7553,2.2709,4.4045,4.4045,0,0,1-1.4105,3.2912,5.2685,5.2685,0,0,1-6.8126.2158A4.5053,4.5053,0,0,1,381.0137,49.1123Z"/><path class="g" d="M272.681,50.6429v2.611h-9.8537a6.7843,6.7843,0,0,1,.96-2.8068,18.6934,18.6934,0,0,1,3.1612-3.5157,19.8751,19.8751,0,0,0,2.3309-2.4009,3.093,3.093,0,0,0,.58-1.7206,1.9591,1.9591,0,0,0-.5051-1.4463,2.1479,2.1479,0,0,0-2.7961.0257,2.7247,2.7247,0,0,0-.6,1.7607l-2.8011-.28a4.59,4.59,0,0,1,1.5706-3.3313,5.2766,5.2766,0,0,1,3.3012-1.01,4.771,4.771,0,0,1,3.4113,1.1705,3.84,3.84,0,0,1,1.24,2.9111,5.0776,5.0776,0,0,1-.3551,1.8864,7.6594,7.6594,0,0,1-1.1254,1.875,18.0346,18.0346,0,0,1-1.8407,1.8707q-1.33,1.22-1.6857,1.6207a4.8927,4.8927,0,0,0-.5752.78Z"/><path class="g" d="M152.6281,53.2539h-2.811V42.66a9.6858,9.6858,0,0,1-3.6314,2.1308V42.24a8.1561,8.1561,0,0,0,2.3909-1.3648,5.2009,5.2009,0,0,0,1.7707-2.3467h2.2808Z"/><path class="g" d="M392.3452,133.8646l-2.7211.3a1.985,1.985,0,0,0-.52-1.24,1.5134,1.5134,0,0,0-1.09-.4,1.8463,1.8463,0,0,0-1.5063.8,6.76,6.76,0,0,0-.7745,3.3312,3.2849,3.2849,0,0,1,2.611-1.24,3.9913,3.9913,0,0,1,3.0168,1.34,4.8635,4.8635,0,0,1,1.2548,3.4613,4.9654,4.9654,0,0,1-1.32,3.6114,4.81,4.81,0,0,1-7.0427-.3645q-1.43-1.7277-1.43-5.6578,0-4.0323,1.49-5.8122a4.8089,4.8089,0,0,1,3.8715-1.7807,4.1082,4.1082,0,0,1,2.7653.9346A4.38,4.38,0,0,1,392.3452,133.8646Zm-6.3724,6.1323a3.1826,3.1826,0,0,0,.63,2.1151,1.8538,1.8538,0,0,0,1.44.746,1.6384,1.6384,0,0,0,1.3-.61,3.0724,3.0724,0,0,0,.52-2.0008,3.2284,3.2284,0,0,0-.56-2.0965,1.8014,1.8014,0,0,0-2.771-.0286A2.7571,2.7571,0,0,0,385.9728,139.9969Z"/><path class="g" d="M327.2118,301.627v-2.6109h9.6137v2.0407a15.1417,15.1417,0,0,0-2.421,3.3613,19.5445,19.5445,0,0,0-1.875,4.6561,17.1987,17.1987,0,0,0-.6359,4.4074h-2.7111a18.89,18.89,0,0,1,1.2548-6.2024,20.7021,20.7021,0,0,1,3.1669-5.6522Z"/><path class="g" d="M210.3973,315.2051V300.54h2.9611v14.6656Z"/><path class="g" d="M219.9209,315.2051l-5.242-14.6656H217.89l3.7115,10.8541,3.5913-10.8541h3.1412l-5.252,14.6656Z"/><path class="g" d="M443.9506,103.01V88.3444h2.9611V103.01Z"/><path class="g" d="M449.6427,103.01V88.3444h2.9611V103.01Z"/><path class="g" d="M455.3349,103.01V88.3444h2.9611V103.01Z"/><path class="g" d="M449.6427,27.7173V13.0517h2.9611V27.7173Z"/><path class="g" d="M455.3349,27.7173V13.0517h2.9611V27.7173Z"/><path class="g" d="M351.7554,262.5221V247.8566h2.9612v14.6655Z"/><path class="g" d="M357.4476,262.5221V247.8566h2.9611v14.6655Z"/><path class="g" d="M363.14,262.5221V247.8566h2.9611v14.6655Z"/><path class="g" d="M72.6486,29.8392V15.1736H75.61V29.8392Z"/></svg>