<svg xmlns="http://www.w3.org/2000/svg" viewBox="0 0 480 373"><defs><style>.a{fill:#07617d;}.b{fill:#d27332;}.c{fill:#b05f1f;}.d{fill:#f78536;}.e{fill:#497285;}.f{fill:#fff;}.g{fill:#3d91a6;}.h{fill:#2b4450;}</style></defs><title>vcu_vhc_hybrid_fit</title><path class="a" d="M267.44,55.0112V52.1864H183.3964a3.6934,3.6934,0,0,0,0-1.1722,4.097,4.097,0,0,0-8.1114,0,3.6856,3.6856,0,0,0,0,1.1722H91.4286V78.56H90.2564V51.0142h83.8447a5.2719,5.2719,0,0,1,10.4791,0h82.86v-2.825L280.1465,51.6Z"/><polygon class="a" points="350.078 55.011 350.078 52.186 313.553 52.186 313.553 162.956 312.381 162.956 312.381 51.014 350.078 51.014 350.078 48.189 362.784 51.6 350.078 55.011"/><polygon class="a" points="318.816 363.29 318.816 360.465 307.692 360.465 307.692 254.384 308.864 254.384 308.864 359.293 318.816 359.293 318.816 356.468 331.522 359.879 318.816 363.29"/><polygon class="a" points="292.935 29.517 289.524 42.223 286.113 29.517 288.938 29.517 288.938 19.366 179.927 19.366 179.927 282.516 178.755 282.516 178.755 18.194 290.11 18.194 290.11 29.517 292.935 29.517"/><polygon class="a" points="477.07 18.194 477.07 267.278 475.897 267.278 475.897 19.366 372.161 19.366 372.161 29.517 374.986 29.517 371.575 42.223 368.164 29.517 370.989 29.517 370.989 18.194 477.07 18.194"/><rect class="a" x="370.989" y="78.56" width="1.1722" height="84.3956"/><polygon class="a" points="292.935 219.407 289.524 232.113 286.113 219.407 288.938 219.407 288.938 184.054 290.11 184.054 290.11 219.407 292.935 219.407"/><rect class="a" x="288.9377" y="78.56" width="1.1722" height="84.3956"/><polygon class="a" points="140.554 317.282 137.143 329.989 133.732 317.282 136.557 317.282 136.557 306.545 137.729 306.545 137.729 317.282 140.554 317.282"/><polygon class="a" points="235.604 353.432 235.604 354.604 91.241 354.604 91.241 357.429 78.535 354.018 91.241 350.607 91.241 353.432 167.033 353.432 167.033 319.838 164.208 319.838 167.619 307.131 171.03 319.838 168.205 319.838 168.205 353.432 235.604 353.432"/><path class="a" d="M219.78,110.7944V331.1607H171.6748a3.6928,3.6928,0,0,0,0-1.1721,4.0971,4.0971,0,0,0-8.1115,0,3.6928,3.6928,0,0,0,0,1.1721H91.2411v2.8248l-12.7063-3.4109,12.7063-3.411v2.825H162.38a5.2719,5.2719,0,0,1,10.4791,0h45.75V111.9666H183.3964a3.6934,3.6934,0,0,0,0-1.1722,4.097,4.097,0,0,0-8.1114,0,3.6856,3.6856,0,0,0,0,1.1722H113.7v-1.1722h60.4015a5.2719,5.2719,0,0,1,10.4791,0Z"/><polygon class="a" points="140.554 278.015 137.143 290.721 133.732 278.015 136.557 278.015 136.557 267.864 55.092 267.864 55.092 266.692 136.557 266.692 136.557 182.296 113.7 182.296 113.7 181.124 137.729 181.124 137.729 278.015 140.554 278.015"/><polygon class="a" points="283.077 254.384 283.077 360.465 271.555 360.465 271.555 363.29 258.848 359.879 271.555 356.468 271.555 359.293 281.905 359.293 281.905 254.384 283.077 254.384"/><polygon class="a" points="447.953 131.202 447.953 128.377 407.326 128.377 407.326 162.956 406.154 162.956 406.154 127.205 447.953 127.205 447.953 124.38 460.659 127.791 447.953 131.202"/><polygon class="a" points="460.659 231.527 460.659 232.699 403.036 232.699 403.036 235.524 390.33 232.113 403.036 228.702 403.036 231.527 460.659 231.527"/><polygon class="a" points="447.953 185.121 447.953 182.296 416.117 182.296 416.117 181.124 447.953 181.124 447.953 178.299 460.659 181.71 447.953 185.121"/><polygon class="a" points="445.609 282.41 445.609 279.586 434.872 279.586 434.872 278.413 445.609 278.413 445.609 275.589 458.315 279 445.609 282.41"/><polygon class="a" points="413.773 278.413 413.773 279.586 389.744 279.586 389.744 184.054 390.916 184.054 390.916 278.413 413.773 278.413"/><polygon class="a" points="447.953 357.429 447.953 354.604 355.165 354.604 355.165 353.432 447.953 353.432 447.953 350.607 460.659 354.018 447.953 357.429"/><polygon class="a" points="129.124 55.006 141.832 51.6 129.124 48.195 129.124 55.006"/><polygon class="a" points="154.725 114.786 142.018 111.38 154.725 107.975 154.725 114.786"/><polygon class="a" points="175.935 228.41 179.341 215.703 182.746 228.41 175.935 228.41"/><polygon class="a" points="215.789 228.41 219.194 215.703 222.6 228.41 215.789 228.41"/><polygon class="a" points="386.924 201.823 390.33 214.531 393.735 201.823 386.924 201.823"/><polygon class="a" points="473.078 158.454 476.484 145.746 479.889 158.454 473.078 158.454"/><polygon class="a" points="304.873 301.457 308.278 314.164 311.684 301.457 304.873 301.457"/><polygon class="a" points="279.085 301.457 282.491 314.164 285.896 301.457 279.085 301.457"/><polygon class="a" points="368.17 113.911 371.575 126.619 374.981 113.911 368.17 113.911"/><polygon class="a" points="286.118 113.911 289.524 126.619 292.929 113.911 286.118 113.911"/><polygon class="a" points="133.737 218.234 137.143 230.941 140.548 218.234 133.737 218.234"/><polygon class="a" points="189.89 333.98 202.597 330.575 189.89 327.169 189.89 333.98"/><polygon class="a" points="89.084 270.683 101.791 267.278 89.084 263.872 89.084 270.683"/><polygon class="b" points="371.575 52.772 362.198 79.732 380.952 79.732 371.575 52.772"/><polygon class="c" points="371.575 52.772 371.575 79.732 362.198 79.732 371.575 52.772"/><rect class="d" x="362.7839" y="42.223" width="17.5824" height="17.5824"/><rect class="b" x="362.7839" y="42.223" width="8.7912" height="17.5824"/><polygon class="e" points="246.74 357.534 255.531 372.772 237.949 372.772 246.74 357.534"/><rect class="b" x="234.4322" y="350.5014" width="12.3077" height="7.033" transform="translate(481.1722 708.0357) rotate(180)"/><circle class="d" cx="246.7399" cy="359.8787" r="9.3773"/><rect class="b" x="246.7399" y="357.8518" width="12.3077" height="4.0537" transform="translate(505.7875 719.7573) rotate(180)"/><circle class="c" cx="246.7399" cy="359.8787" r="3.5165"/><rect class="a" x="237.3626" y="371.6003" width="18.7546" height="1.1722" transform="translate(493.4799 744.3727) rotate(180)"/><polygon class="e" points="470.623 276.655 461.832 291.893 479.414 291.893 470.623 276.655"/><rect class="b" x="470.3297" y="269.3292" width="12.3077" height="7.033" transform="translate(203.6379 749.3293) rotate(-90)"/><circle class="d" cx="470.6227" cy="278.9995" r="9.3773"/><rect class="b" x="458.315" y="276.9727" width="12.3077" height="4.0537"/><circle class="c" cx="470.6227" cy="278.9995" r="3.5165"/><rect class="a" x="461.2454" y="290.7212" width="18.7546" height="1.1722"/><polygon class="e" points="343.443 357.534 334.652 372.772 352.234 372.772 343.443 357.534"/><rect class="b" x="343.4432" y="350.5014" width="12.3077" height="7.033"/><circle class="d" cx="343.4432" cy="359.8787" r="9.3773"/><rect class="b" x="331.1355" y="357.8518" width="12.3077" height="4.0537"/><circle class="c" cx="343.4432" cy="359.8787" r="3.5165"/><rect class="a" x="334.0659" y="371.6003" width="18.7546" height="1.1722"/><path class="d" d="M418.4615,173.505c0,6.47-2.6256,11.7216-5.8608,11.7216H365.7143c-3.2352,0-5.8608-5.2512-5.8608-11.7216s2.6256-11.7216,5.8608-11.7216h46.8864C415.8359,161.7834,418.4615,167.0347,418.4615,173.505Z"/><path class="b" d="M418.4615,173.505c0,6.47-2.6256,11.7216-5.8608,11.7216H365.7143c-3.2352,0-5.8608-5.2512-5.8608-11.7216Z"/><path class="c" d="M367.4725,186.3988a1.1722,1.1722,0,0,1-1.1721-1.1722V161.7834a1.1722,1.1722,0,0,1,2.3443,0v23.4432A1.1722,1.1722,0,0,1,367.4725,186.3988Z"/><path class="c" d="M410.8425,186.3988a1.1722,1.1722,0,0,1-1.1722-1.1722V161.7834a1.1722,1.1722,0,0,1,2.3444,0v23.4432A1.1722,1.1722,0,0,1,410.8425,186.3988Z"/><rect class="e" x="370.4029" y="182.8823" width="3.5165" height="7.033"/><rect class="e" x="404.3956" y="182.8823" width="3.5165" height="7.033"/><rect class="a" x="369.1331" y="189.9153" width="5.8608" height="1.1722"/><rect class="a" x="403.2234" y="189.9153" width="5.8608" height="1.1722"/><rect class="f" x="376.5893" y="171.1607" width="1.1722" height="12.8938"/><path class="d" d="M336.41,243.8347c0,6.47-2.6257,11.7216-5.8608,11.7216H283.663c-3.2352,0-5.8608-5.2512-5.8608-11.7216s2.6256-11.7216,5.8608-11.7216H330.55C333.7846,232.1131,336.41,237.3644,336.41,243.8347Z"/><path class="b" d="M336.41,243.8347c0,6.47-2.6257,11.7216-5.8608,11.7216H283.663c-3.2351,0-5.8608-5.2512-5.8608-11.7216Z"/><path class="c" d="M285.4212,256.7285a1.1722,1.1722,0,0,1-1.1721-1.1722V232.1131a1.1722,1.1722,0,1,1,2.3443,0v23.4432A1.1722,1.1722,0,0,1,285.4212,256.7285Z"/><path class="c" d="M328.7912,256.7285a1.1723,1.1723,0,0,1-1.1722-1.1722V232.1131a1.1722,1.1722,0,1,1,2.3444,0v23.4432A1.1723,1.1723,0,0,1,328.7912,256.7285Z"/><rect class="e" x="288.3516" y="253.212" width="3.5165" height="7.033"/><rect class="e" x="322.3443" y="253.212" width="3.5165" height="7.033"/><rect class="a" x="287.0818" y="260.245" width="5.8608" height="1.1722"/><rect class="a" x="321.1722" y="260.245" width="5.8608" height="1.1722"/><rect class="f" x="294.5381" y="241.4904" width="1.1722" height="12.8938"/><path class="d" d="M153.5531,290.4046v17.0433H134.7985c-3.2351,0-5.8608-3.8212-5.8608-8.5216s2.6257-8.5217,5.8608-8.5217Z"/><path class="d" d="M199.2674,294.8237c0,6.9743-2.6256,12.6242-5.8608,12.6242H151.2088V290.4046L162.93,282.2h30.4762C196.6418,282.2,199.2674,287.8494,199.2674,294.8237Z"/><path class="b" d="M199.2674,294.8237c0,7.0086-2.6256,12.6274-5.8608,12.6274H134.7985c-3.2351,0-5.8608-3.8191-5.8608-8.5248h22.2711l11.7216-4.1026Z"/><path class="c" d="M142.4176,308.3036c-.6473,0-1.1722-.3817-1.1722-.8525v-17.05c0-.4708.5249-.8525,1.1722-.8525s1.1721.3817,1.1721.8525v17.05C143.59,307.9219,143.0649,308.3036,142.4176,308.3036Z"/><rect class="e" x="145.348" y="304.7871" width="3.5165" height="7.033"/><rect class="e" x="185.2015" y="304.7871" width="3.5165" height="7.033"/><rect class="a" x="144.0781" y="311.8201" width="5.8608" height="1.1722"/><rect class="a" x="184.0293" y="311.8201" width="5.8608" height="1.1722"/><path class="d" d="M324.6886,173.505c0,6.47-2.6256,11.7216-5.8608,11.7216H260.22c-3.2352,0-5.8608-5.2512-5.8608-11.7216s2.6256-11.7216,5.8608-11.7216h58.608C322.063,161.7834,324.6886,167.0347,324.6886,173.505Z"/><path class="b" d="M324.6886,173.505c0,6.47-2.6256,11.7216-5.8608,11.7216H260.22c-3.2352,0-5.8608-5.2512-5.8608-11.7216Z"/><path class="c" d="M267.8388,186.3988a1.1722,1.1722,0,0,1-1.1721-1.1722V161.7834a1.1722,1.1722,0,0,1,2.3443,0v23.4432A1.1722,1.1722,0,0,1,267.8388,186.3988Z"/><path class="c" d="M317.07,186.3988a1.1722,1.1722,0,0,1-1.1722-1.1722V161.7834a1.1722,1.1722,0,0,1,2.3444,0v23.4432A1.1722,1.1722,0,0,1,317.07,186.3988Z"/><rect class="e" x="270.7692" y="182.8823" width="3.5165" height="7.033"/><rect class="e" x="310.6227" y="182.8823" width="3.5165" height="7.033"/><rect class="a" x="269.4994" y="189.9153" width="5.8608" height="1.1722"/><rect class="a" x="309.4505" y="189.9153" width="5.8608" height="1.1722"/><circle class="d" cx="424.3206" cy="278.9995" r="9.3773"/><path class="b" d="M433.6979,279a9.3773,9.3773,0,1,1-18.7545,0Z"/><polygon class="e" points="434.872 278.413 434.872 279.586 431.601 279.586 427.651 283.589 426.796 284.456 426.192 283.407 423.643 279 425.002 279 427.048 282.539 429.96 279.586 431.115 278.413 434.872 278.413"/><polygon class="g" points="425.002 279 423.643 279 421.597 275.46 418.684 278.413 417.53 279.586 413.773 279.586 413.773 278.413 417.043 278.413 420.993 274.411 421.849 273.543 425.002 279"/><path class="d" d="M32.2344,291.8932c-12.9407,0-23.4432-5.2512-23.4432-11.7216V174.6772c0-6.47,10.5025-11.7216,23.4432-11.7216s23.4432,5.2512,23.4432,11.7216V280.1716C55.6776,286.642,45.1751,291.8932,32.2344,291.8932Z"/><path class="b" d="M32.2344,291.8932c-12.9407,0-23.4432-5.2512-23.4432-11.7216V174.6772c0-6.47,10.5025-11.7216,23.4432-11.7216Z"/><path class="c" d="M7.619,181.71a1.1723,1.1723,0,0,1,1.1722-1.1722h29.304a1.1722,1.1722,0,1,1,0,2.3443H8.7912A1.1722,1.1722,0,0,1,7.619,181.71Z"/><path class="c" d="M7.619,211.0142a1.1723,1.1723,0,0,1,1.1722-1.1722h29.304a1.1722,1.1722,0,0,1,0,2.3444H8.7912A1.1723,1.1723,0,0,1,7.619,211.0142Z"/><path class="c" d="M7.619,240.3182a1.1722,1.1722,0,0,1,1.1722-1.1721h29.304a1.1722,1.1722,0,1,1,0,2.3443H8.7912A1.1722,1.1722,0,0,1,7.619,240.3182Z"/><path class="c" d="M7.619,269.6223A1.1722,1.1722,0,0,1,8.7912,268.45h29.304a1.1722,1.1722,0,1,1,0,2.3443H8.7912A1.1722,1.1722,0,0,1,7.619,269.6223Z"/><rect class="e" x="5.8608" y="281.9299" width="52.7473" height="29.304"/><polygon class="h" points="48.645 195.19 48.645 281.93 46.3 281.93 46.3 256.142 40.44 256.142 40.44 253.798 46.3 253.798 46.3 226.838 40.44 226.838 40.44 224.494 46.3 224.494 46.3 197.534 40.44 197.534 40.44 195.19 48.645 195.19"/><rect class="a" y="309.4757" width="64.4689" height="3.5165"/><rect class="a" x="4.1026" y="280.1717" width="56.2637" height="3.5165"/><path class="d" d="M90.8425,206.3255c-12.9407,0-23.4432-5.2513-23.4432-11.7216V89.1094c0-6.47,10.5026-11.7216,23.4433-11.7216s23.4432,5.2513,23.4432,11.7216V194.6039C114.2857,201.0742,103.7832,206.3255,90.8425,206.3255Z"/><path class="b" d="M90.8425,206.3255c-12.9407,0-23.4432-5.2513-23.4432-11.7216V89.1094c0-6.47,10.5026-11.7216,23.4433-11.7216Z"/><path class="c" d="M66.2271,96.1424A1.1722,1.1722,0,0,1,67.3992,94.97H96.7033a1.1722,1.1722,0,0,1,0,2.3444H67.3992A1.1722,1.1722,0,0,1,66.2271,96.1424Z"/><path class="c" d="M66.2271,125.4464a1.1721,1.1721,0,0,1,1.1721-1.1721H96.7033a1.1722,1.1722,0,0,1,0,2.3443H67.3992A1.1722,1.1722,0,0,1,66.2271,125.4464Z"/><path class="c" d="M66.2271,154.7505a1.1722,1.1722,0,0,1,1.1721-1.1722H96.7033a1.1722,1.1722,0,0,1,0,2.3443H67.3992A1.1721,1.1721,0,0,1,66.2271,154.7505Z"/><path class="c" d="M66.2271,184.0545a1.1722,1.1722,0,0,1,1.1721-1.1722H96.7033a1.1722,1.1722,0,0,1,0,2.3443H67.3992A1.1722,1.1722,0,0,1,66.2271,184.0545Z"/><rect class="e" x="64.4689" y="196.3622" width="52.7473" height="29.304"/><polygon class="h" points="107.253 109.622 107.253 196.362 104.908 196.362 104.908 170.575 99.048 170.575 99.048 168.23 104.908 168.23 104.908 141.271 99.048 141.271 99.048 138.926 104.908 138.926 104.908 111.967 99.048 111.967 99.048 109.622 107.253 109.622"/><rect class="a" x="58.6081" y="223.908" width="64.4689" height="3.5165"/><rect class="a" x="62.7106" y="194.6039" width="56.2637" height="3.5165"/><polygon class="b" points="289.524 52.772 280.147 79.732 298.901 79.732 289.524 52.772"/><circle class="d" cx="289.5238" cy="51.6003" r="9.3773"/><polygon class="c" points="289.524 52.772 289.524 79.732 280.147 79.732 289.524 52.772"/><path class="b" d="M289.5238,42.223a9.3773,9.3773,0,1,0,0,18.7546Z"/><path class="h" d="M468.5508,310.6479h-2.2516v-8.4856a7.7675,7.7675,0,0,1-2.9086,1.7067v-2.0432a6.54,6.54,0,0,0,1.915-1.0932,4.1652,4.1652,0,0,0,1.4183-1.88h1.8269Z"/><path class="h" d="M479.52,308.5565v2.0914h-7.8927a5.4515,5.4515,0,0,1,.7693-2.2482,14.9678,14.9678,0,0,1,2.532-2.8159,15.9169,15.9169,0,0,0,1.867-1.9231,2.4731,2.4731,0,0,0,.4648-1.3782,1.5666,1.5666,0,0,0-.4053-1.1584,1.72,1.72,0,0,0-2.239.0206,2.176,2.176,0,0,0-.4807,1.41l-2.2436-.2243a3.6784,3.6784,0,0,1,1.258-2.6683,4.2267,4.2267,0,0,1,2.6442-.8093,3.8216,3.8216,0,0,1,2.7324.9375,3.0737,3.0737,0,0,1,.9936,2.3318,4.0772,4.0772,0,0,1-.2839,1.5109,6.174,6.174,0,0,1-.902,1.5019,14.4,14.4,0,0,1-1.4744,1.4984q-1.0662.9769-1.3507,1.298a3.9874,3.9874,0,0,0-.46.625Z"/><path class="h" d="M422.1852,310.6479h-2.2516v-8.4856a7.7675,7.7675,0,0,1-2.9086,1.7067v-2.0432a6.54,6.54,0,0,0,1.915-1.0932,4.1652,4.1652,0,0,0,1.4183-1.88h1.8269Z"/><path class="h" d="M430.4064,310.6479h-2.2516v-8.4856a7.7679,7.7679,0,0,1-2.9087,1.7067v-2.0432a6.54,6.54,0,0,0,1.9151-1.0932,4.1649,4.1649,0,0,0,1.4182-1.88h1.827Z"/><path class="h" d="M386.1081,152.2058h-2.2516V143.72a7.7681,7.7681,0,0,1-2.9087,1.7068v-2.0433a6.54,6.54,0,0,0,1.9151-1.0932,4.1649,4.1649,0,0,0,1.4182-1.88h1.827Z"/><path class="h" d="M393.28,140.4109a3.2106,3.2106,0,0,1,2.6683,1.218q1.1453,1.4423,1.1458,4.7836,0,3.3329-1.1538,4.7917a3.2038,3.2038,0,0,1-2.66,1.2019,3.3622,3.3622,0,0,1-2.7644-1.3175q-1.0491-1.3187-1.05-4.7,0-3.3173,1.1539-4.7756A3.2039,3.2039,0,0,1,393.28,140.4109Zm0,1.867a1.1287,1.1287,0,0,0-.7291.26,1.7513,1.7513,0,0,0-.4968.934,19.0792,19.0792,0,0,0-.0241,5.7807,1.9942,1.9942,0,0,0,.5243,1.03,1.1523,1.1523,0,0,0,1.4549-.0045,1.7431,1.7431,0,0,0,.4968-.933,19.0212,19.0212,0,0,0,.024-5.7726,2.028,2.028,0,0,0-.5242-1.0348A1.1155,1.1155,0,0,0,393.28,142.2779Z"/><path class="h" d="M387.9487,76.8075l2.18-.24a1.5811,1.5811,0,0,0,.4167.9856,1.2346,1.2346,0,0,0,.8894.32,1.4524,1.4524,0,0,0,1.1859-.6411,5.45,5.45,0,0,0,.625-2.66,2.6889,2.6889,0,0,1-2.1234.9856,3.1682,3.1682,0,0,1-2.3913-1.07,3.8957,3.8957,0,0,1-1.0061-2.7839,3.9575,3.9575,0,0,1,1.0611-2.88,3.8423,3.8423,0,0,1,5.6376.2884q1.1453,1.3806,1.1458,4.5467,0,3.2212-1.1939,4.6475a3.8612,3.8612,0,0,1-3.109,1.4262A3.2935,3.2935,0,0,1,389.0385,79,3.5426,3.5426,0,0,1,387.9487,76.8075Zm5.0962-4.92a2.5721,2.5721,0,0,0-.5-1.6907,1.4785,1.4785,0,0,0-1.1584-.601,1.2931,1.2931,0,0,0-1.0371.4934,2.5064,2.5064,0,0,0-.4132,1.614,2.57,2.57,0,0,0,.4487,1.6712,1.4073,1.4073,0,0,0,1.1218.5323A1.3886,1.3886,0,0,0,392.6,73.394,2.2334,2.2334,0,0,0,393.0449,71.8876Z"/><path class="h" d="M341.09,336.9219a2.5172,2.5172,0,0,1-1.6666-2.4279,2.8416,2.8416,0,0,1,.918-2.1714,4.3836,4.3836,0,0,1,5.2084,0,2.8356,2.8356,0,0,1,.9249,2.1714,2.56,2.56,0,0,1-.4247,1.4538,2.68,2.68,0,0,1-1.1939.9741,3.1457,3.1457,0,0,1,1.4858,1.1459,3.0282,3.0282,0,0,1,.5094,1.7387,3.5384,3.5384,0,0,1-1.0383,2.6443,3.7691,3.7691,0,0,1-2.76,1.0176,4.1745,4.1745,0,0,1-2.6683-.8413,3.2822,3.2822,0,0,1-1.258-2.7244,3.371,3.371,0,0,1,.4728-1.75A3.0379,3.0379,0,0,1,341.09,336.9219Zm.2565,2.7645a2.0724,2.0724,0,0,0,.4761,1.45,1.55,1.55,0,0,0,1.1905.5208,1.4935,1.4935,0,0,0,1.1539-.5014,2.0706,2.0706,0,0,0,.4567-1.4457,1.8715,1.8715,0,0,0-.4647-1.3267,1.5408,1.5408,0,0,0-1.1779-.5,1.407,1.407,0,0,0-1.2294.5689A2.0837,2.0837,0,0,0,341.3462,339.6864Zm.2083-5.0321a1.4123,1.4123,0,0,0,.38,1.05,1.3809,1.3809,0,0,0,1.0142.3766,1.3978,1.3978,0,0,0,1.0257-.38,1.4174,1.4174,0,0,0,.3846-1.0542,1.3087,1.3087,0,0,0-1.3862-1.3942,1.3969,1.3969,0,0,0-1.0337.3846A1.375,1.375,0,0,0,341.5545,334.6543Z"/><path class="h" d="M243.5291,333.9732v-2.0913h7.7v1.6346a12.1259,12.1259,0,0,0-1.9391,2.6923,15.65,15.65,0,0,0-1.5018,3.7294,13.7793,13.7793,0,0,0-.5094,3.53h-2.1715a15.1329,15.1329,0,0,1,1.005-4.9679,16.5807,16.5807,0,0,1,2.5367-4.5273Z"/><path class="h" d="M326.6644,216.01l-2.18.24a1.59,1.59,0,0,0-.4167-.9936,1.2122,1.2122,0,0,0-.8734-.3205,1.4791,1.4791,0,0,0-1.2065.641,5.4163,5.4163,0,0,0-.62,2.6683,2.631,2.631,0,0,1,2.0913-.9936,3.1974,3.1974,0,0,1,2.4165,1.0737,3.8962,3.8962,0,0,1,1.005,2.7725,3.9767,3.9767,0,0,1-1.0577,2.8926,3.8526,3.8526,0,0,1-5.641-.2919,7.1166,7.1166,0,0,1-1.1458-4.5318q0-3.23,1.1939-4.6555a3.8517,3.8517,0,0,1,3.1009-1.4263,3.2907,3.2907,0,0,1,2.215.7487A3.5083,3.5083,0,0,1,326.6644,216.01Zm-5.1042,4.9119a2.55,2.55,0,0,0,.5048,1.6941,1.4848,1.4848,0,0,0,1.1539.5975,1.3123,1.3123,0,0,0,1.0416-.4887,2.4609,2.4609,0,0,0,.4167-1.6026,2.5865,2.5865,0,0,0-.4487-1.6793,1.4432,1.4432,0,0,0-2.22-.0229A2.2091,2.2091,0,0,0,321.56,220.9215Z"/><path class="h" d="M267.9819,149.185l2.2436-.2324a1.9317,1.9317,0,0,0,.5689,1.2065,1.5481,1.5481,0,0,0,1.09.4442,1.5148,1.5148,0,0,0,1.1939-.5724,2.6071,2.6071,0,0,0,.4887-1.7273,2.3586,2.3586,0,0,0-.4853-1.6221,1.61,1.61,0,0,0-1.2614-.5414,2.2939,2.2939,0,0,0-1.7388.8574l-1.827-.2644,1.1539-6.1138h5.9535v2.1073h-4.2468l-.3525,1.9952a3.4418,3.4418,0,0,1,4.0785.7132,3.9228,3.9228,0,0,1,1.0417,2.8285,4.2413,4.2413,0,0,1-.8414,2.5881,3.7305,3.7305,0,0,1-3.1811,1.5545,3.9461,3.9461,0,0,1-2.6522-.8734A3.6,3.6,0,0,1,267.9819,149.185Z"/><path class="h" d="M269.3361,79.7321V77.3684H264.529V75.3972l5.0955-7.46h1.8911v7.4519h1.4583v1.9792h-1.4583v2.3637Zm0-4.3429V71.3748l-2.7,4.0144Z"/><path class="h" d="M153.9744,272.1658l2.1794-.2645a2.0652,2.0652,0,0,0,.5609,1.2741,1.5862,1.5862,0,0,0,2.28-.0882,2.0507,2.0507,0,0,0,.4768-1.4263,1.9105,1.9105,0,0,0-.4568-1.3461,1.4577,1.4577,0,0,0-1.1138-.4968,3.9271,3.9271,0,0,0-1.0336.1683l.2484-1.835a1.9784,1.9784,0,0,0,1.3942-.396,1.4149,1.4149,0,0,0,.4808-1.1184,1.2136,1.2136,0,0,0-1.29-1.2981,1.3586,1.3586,0,0,0-.9856.4007,1.8825,1.8825,0,0,0-.4968,1.17l-2.0753-.3525a4.6213,4.6213,0,0,1,.6531-1.7022,2.9481,2.9481,0,0,1,1.2179-1.0027,4.0967,4.0967,0,0,1,1.7508-.364,3.4923,3.4923,0,0,1,2.66,1.0577,2.6778,2.6778,0,0,1-.8654,4.423,2.7345,2.7345,0,0,1,1.6146.97,2.8121,2.8121,0,0,1,.6049,1.8189,3.5281,3.5281,0,0,1-1.13,2.6362,4.22,4.22,0,0,1-5.4567.1729A3.6082,3.6082,0,0,1,153.9744,272.1658Z"/><path class="h" d="M82.4405,69.2273v2.0914H74.5478a5.4342,5.4342,0,0,1,.7693-2.2482,14.9714,14.9714,0,0,1,2.532-2.8159,15.9246,15.9246,0,0,0,1.867-1.9231,2.4773,2.4773,0,0,0,.4648-1.3782,1.5688,1.5688,0,0,0-.4047-1.1584,1.72,1.72,0,0,0-2.24.0206,2.1821,2.1821,0,0,0-.4807,1.41l-2.2436-.2243a3.6762,3.6762,0,0,1,1.258-2.6683,4.2267,4.2267,0,0,1,2.6442-.8093,3.8216,3.8216,0,0,1,2.7324.9375,3.0758,3.0758,0,0,1,.9936,2.3317,4.0662,4.0662,0,0,1-.2845,1.511,6.1342,6.1342,0,0,1-.9014,1.5019A14.4628,14.4628,0,0,1,79.78,67.3043q-1.0654.977-1.35,1.298a3.9247,3.9247,0,0,0-.4608.625Z"/><path class="h" d="M21.9208,155.9226H19.6692V147.437a7.7587,7.7587,0,0,1-2.9087,1.7068v-2.0433a6.5324,6.5324,0,0,0,1.9151-1.0932,4.1659,4.1659,0,0,0,1.4183-1.88h1.8269Z"/><path class="h" d="M428.62,225.08l4.0144-6.13-3.6378-5.617h2.7724l2.3558,3.7741,2.3077-3.7741H439.18l-3.6538,5.7052,4.0144,6.0416H436.68l-2.6042-4.0625-2.6121,4.0625Z"/><path class="h" d="M440.6868,225.08V213.3333h2.3718V225.08Z"/><path class="h" d="M432.1371,174.6772l4.0145-6.13-3.6379-5.617h2.7725l2.3557,3.774,2.3077-3.774h2.7484l-3.6538,5.7051,4.0144,6.0417H440.198l-2.6041-4.0625-2.6122,4.0625Z"/><path class="h" d="M428.7,120.7578V109.011h2.3718v11.7468Z"/><path class="h" d="M432.1371,120.7578l4.0145-6.13-3.6379-5.617h2.7725l2.3557,3.774,2.3077-3.774h2.7484l-3.6538,5.7051,4.0144,6.0417H440.198l-2.6041-4.0625-2.6122,4.0625Z"/><path class="h" d="M422.9373,372.7724l-4.1987-11.7468h2.5721l2.9727,8.694,2.8766-8.694h2.5161l-4.2068,11.7468Z"/><path class="h" d="M430.8139,372.7724V361.0256h2.3718v11.7468Z"/><path class="h" d="M435.3732,372.7724V361.0256h2.3718v11.7468Z"/><path class="h" d="M439.9325,372.7724V361.0256h2.3718v11.7468Z"/><path class="h" d="M101.5179,372.7724l-4.1988-11.7468H99.89l2.9739,8.694,2.8755-8.694h2.516L104.05,372.7724Z"/><path class="h" d="M109.3933,372.7724V361.0256h2.3718v11.7468Z"/><path class="h" d="M113.9538,372.7724V361.0256h2.3717v11.7468Z"/><path class="h" d="M327.3672,43.3951l-4.1987-11.7467h2.5721l2.9728,8.6939,2.8766-8.6939h2.516l-4.2067,11.7467Z"/><path class="h" d="M335.2438,43.3951V31.6484h2.3718V43.3951Z"/><path class="h" d="M231.9151,11.7468,227.7163,0h2.5722l2.9727,8.6939L236.1378,0h2.516l-4.2067,11.7468Z"/><path class="h" d="M98.3585,323.5417V311.7949H100.73v11.7468Z"/><path class="h" d="M105.9867,323.5417l-4.1987-11.7468H104.36l2.9728,8.6939,2.8766-8.6939h2.516l-4.2067,11.7468Z"/><path class="h" d="M68.8824,260.245V248.4982h2.3718V260.245Z"/><path class="h" d="M73.4417,260.245V248.4982h2.3718V260.245Z"/><path class="h" d="M78.001,260.245V248.4982h2.3718V260.245Z"/><path class="h" d="M126.5934,174.6772V162.93h2.3718v11.7468Z"/><path class="h" d="M131.1527,174.6772V162.93h2.3718v11.7468Z"/><path class="h" d="M108.5928,44.5673V32.8205h2.3718V44.5673Z"/></svg>