<svg xmlns="http://www.w3.org/2000/svg" viewBox="0 0 480 375"><defs><style>.a{fill:#07617d;}.b{fill:#d27332;}.c{fill:#b05f1f;}.d{fill:#f78536;}.e{fill:#497285;}.f{fill:#fff;}.g{fill:#3d91a6;}.h{fill:#2b4450;}</style></defs><title>vcu_vhc_2stage_with_absorbtion_fit</title><path class="a" d="M302.36,50.34V46.4775H288.4167a5.0411,5.0411,0,0,0,0-1.6027,5.6018,5.6018,0,0,0-11.0905,0,5.0411,5.0411,0,0,0,0,1.6027H188.3139V197.93h-1.6027V44.8748h88.9964a7.2081,7.2081,0,0,1,14.3277,0H302.36V41.0123l17.373,4.6638Z"/><polygon class="a" points="475.993 0 475.993 340.568 474.391 340.568 474.391 1.603 332.554 1.603 332.554 15.482 336.417 15.482 331.753 32.855 327.089 15.482 330.952 15.482 330.952 0 475.993 0"/><rect class="a" x="330.9516" y="82.5376" width="1.6027" height="115.3923"/><rect class="a" x="138.6311" y="82.5376" width="1.6027" height="115.3923"/><polygon class="a" points="436.183 154.513 436.183 150.651 380.634 150.651 380.634 197.93 379.032 197.93 379.032 149.048 436.183 149.048 436.183 145.186 453.556 149.85 436.183 154.513"/><polygon class="a" points="110.039 50.34 110.039 46.477 44.875 46.477 44.875 146.644 43.272 146.644 43.272 44.875 110.039 44.875 110.039 41.012 127.412 45.676 110.039 50.34"/><polygon class="a" points="453.556 291.686 453.556 293.289 374.769 293.289 374.769 297.151 357.396 292.487 374.769 287.824 374.769 291.686 453.556 291.686"/><polygon class="a" points="436.183 228.236 436.183 224.374 392.654 224.374 392.654 222.771 436.183 222.771 436.183 218.909 453.556 223.573 436.183 228.236"/><polygon class="a" points="432.978 361.258 432.978 357.396 418.297 357.396 418.297 355.793 432.978 355.793 432.978 351.93 450.351 356.594 432.978 361.258"/><polygon class="a" points="389.449 355.793 389.449 357.396 356.594 357.396 356.594 226.778 358.197 226.778 358.197 355.793 389.449 355.793"/><polygon class="a" points="182.856 146.389 187.513 129.015 192.169 146.389 182.856 146.389"/><polygon class="a" points="278.215 146.389 282.871 129.015 287.528 146.389 278.215 146.389"/><polygon class="a" points="352.739 251.073 357.396 268.447 362.052 251.073 352.739 251.073"/><polygon class="a" points="283.673 0 283.673 340.568 282.07 340.568 282.07 1.603 140.234 1.603 140.234 15.482 144.096 15.482 139.432 32.855 134.769 15.482 138.631 15.482 138.631 0 283.673 0"/><polygon class="a" points="261.235 291.686 261.235 293.289 182.448 293.289 182.448 297.151 165.075 292.487 182.448 287.824 182.448 291.686 261.235 291.686"/><polygon class="a" points="243.862 228.236 243.862 224.374 200.334 224.374 200.334 222.771 243.862 222.771 243.862 218.909 261.235 223.573 243.862 228.236"/><polygon class="a" points="240.657 361.258 240.657 357.396 225.977 357.396 225.977 355.793 240.657 355.793 240.657 351.93 258.03 356.594 240.657 361.258"/><polygon class="a" points="197.129 355.793 197.129 357.396 164.274 357.396 164.274 226.778 165.876 226.778 165.876 355.793 197.129 355.793"/><polygon class="a" points="160.419 251.073 165.075 268.447 169.731 251.073 160.419 251.073"/><polygon class="a" points="470.536 191.774 475.192 174.4 479.848 191.774 470.536 191.774"/><polygon class="a" points="327.097 130.873 331.753 148.247 336.409 130.873 327.097 130.873"/><polygon class="a" points="134.776 130.873 139.432 148.247 144.089 130.873 134.776 130.873"/><polygon class="b" points="139.432 47.279 126.611 84.14 152.254 84.14 139.432 47.279"/><polygon class="c" points="139.432 47.279 139.432 84.14 126.611 84.14 139.432 47.279"/><rect class="d" x="127.4124" y="32.8548" width="24.0401" height="24.0401"/><rect class="b" x="127.4124" y="32.8548" width="12.02" height="24.0401"/><polygon class="b" points="331.753 47.279 318.932 84.14 344.574 84.14 331.753 47.279"/><polygon class="c" points="331.753 47.279 331.753 84.14 318.932 84.14 331.753 47.279"/><rect class="d" x="319.7329" y="32.8548" width="24.0401" height="24.0401"/><rect class="b" x="319.7329" y="32.8548" width="12.02" height="24.0401"/><polygon class="e" points="467.179 353.389 455.159 374.224 479.199 374.224 467.179 353.389"/><rect class="b" x="466.778" y="343.3723" width="16.828" height="9.616" transform="translate(127.0118 823.3723) rotate(-90)"/><circle class="d" cx="467.1786" cy="356.5943" r="12.8214"/><rect class="b" x="450.3506" y="353.823" width="16.828" height="5.5426"/><circle class="c" cx="467.1786" cy="356.5943" r="4.808"/><rect class="a" x="454.3573" y="372.621" width="25.6427" height="1.6027"/><path class="d" d="M395.86,212.3539c0,8.8468-3.59,16.0267-8.0134,16.0267H323.74c-4.4234,0-8.0134-7.18-8.0134-16.0267s3.59-16.0267,8.0134-16.0267h64.1068C392.27,196.3272,395.86,203.5071,395.86,212.3539Z"/><path class="b" d="M395.86,212.3539c0,8.8468-3.59,16.0267-8.0134,16.0267H323.74c-4.4234,0-8.0134-7.18-8.0134-16.0267Z"/><path class="c" d="M326.1436,229.9833a1.6028,1.6028,0,0,1-1.6027-1.6027V196.3272a1.6027,1.6027,0,1,1,3.2053,0v32.0534A1.6027,1.6027,0,0,1,326.1436,229.9833Z"/><path class="c" d="M385.4424,229.9833a1.6028,1.6028,0,0,1-1.6027-1.6027V196.3272a1.6027,1.6027,0,1,1,3.2054,0v32.0534A1.6028,1.6028,0,0,1,385.4424,229.9833Z"/><rect class="e" x="330.1503" y="225.1753" width="4.808" height="9.616"/><rect class="e" x="376.6277" y="225.1753" width="4.808" height="9.616"/><rect class="a" x="328.414" y="234.7913" width="8.0134" height="1.6027"/><rect class="a" x="375.025" y="234.7913" width="8.0134" height="1.6027"/><rect class="f" x="338.6088" y="209.1486" width="1.6027" height="17.6294"/><circle class="d" cx="403.8708" cy="356.5943" r="12.8214"/><path class="b" d="M416.6922,356.5943a12.8214,12.8214,0,0,1-25.6428,0Z"/><polygon class="e" points="418.297 355.793 418.297 357.396 413.826 357.396 408.425 362.869 407.255 364.055 406.429 362.62 402.944 356.594 404.803 356.594 407.599 361.434 411.582 357.396 413.161 355.793 418.297 355.793"/><polygon class="g" points="404.803 356.594 402.944 356.594 400.147 351.754 396.164 355.793 394.586 357.396 389.449 357.396 389.449 355.793 393.921 355.793 399.322 350.32 400.492 349.134 404.803 356.594"/><path class="d" d="M44.0735,321.3355c-17.6936,0-32.0535-7.18-32.0535-16.0267v-144.24c0-8.8467,14.36-16.0267,32.0534-16.0267s32.0534,7.18,32.0534,16.0267v144.24C76.1269,314.1555,61.767,321.3355,44.0735,321.3355Z"/><path class="b" d="M44.0735,321.3355c-17.6936,0-32.0535-7.18-32.0535-16.0267v-144.24c0-8.8466,14.36-16.0267,32.0534-16.0267Z"/><path class="c" d="M10.4173,170.6845a1.6028,1.6028,0,0,1,1.6027-1.6027H52.0868a1.6027,1.6027,0,1,1,0,3.2053H12.02A1.6028,1.6028,0,0,1,10.4173,170.6845Z"/><path class="c" d="M10.4173,210.7513a1.6028,1.6028,0,0,1,1.6027-1.6027H52.0868a1.6027,1.6027,0,1,1,0,3.2053H12.02A1.6027,1.6027,0,0,1,10.4173,210.7513Z"/><path class="c" d="M10.4173,250.818a1.6027,1.6027,0,0,1,1.6027-1.6026H52.0868a1.6027,1.6027,0,1,1,0,3.2053H12.02A1.6028,1.6028,0,0,1,10.4173,250.818Z"/><path class="c" d="M10.4173,290.8848a1.6028,1.6028,0,0,1,1.6027-1.6027H52.0868a1.6027,1.6027,0,1,1,0,3.2054H12.02A1.6028,1.6028,0,0,1,10.4173,290.8848Z"/><rect class="e" x="8.0133" y="307.7129" width="72.1202" height="40.0668"/><polygon class="h" points="66.511 189.115 66.511 307.713 63.305 307.713 63.305 272.454 55.292 272.454 55.292 269.249 63.305 269.249 63.305 232.387 55.292 232.387 55.292 229.182 63.305 229.182 63.305 192.321 55.292 192.321 55.292 189.115 66.511 189.115"/><rect class="a" y="345.3756" width="88.1469" height="4.808"/><rect class="a" x="5.6093" y="305.3088" width="76.9282" height="4.808"/><polygon class="e" points="274.858 353.389 262.838 374.224 286.878 374.224 274.858 353.389"/><rect class="b" x="274.4574" y="343.3723" width="16.828" height="9.616" transform="translate(-65.3088 631.0518) rotate(-90)"/><circle class="d" cx="274.8581" cy="356.5943" r="12.8214"/><rect class="b" x="258.0301" y="353.823" width="16.828" height="5.5426"/><circle class="c" cx="274.8581" cy="356.5943" r="4.808"/><rect class="a" x="262.0367" y="372.621" width="25.6427" height="1.6027"/><path class="d" d="M203.5392,212.3539c0,8.8468-3.59,16.0267-8.0133,16.0267H131.419c-4.4234,0-8.0133-7.18-8.0133-16.0267s3.59-16.0267,8.0133-16.0267h64.1069C199.9493,196.3272,203.5392,203.5071,203.5392,212.3539Z"/><path class="b" d="M203.5392,212.3539c0,8.8468-3.59,16.0267-8.0133,16.0267H131.419c-4.4233,0-8.0133-7.18-8.0133-16.0267Z"/><path class="c" d="M133.823,229.9833a1.6027,1.6027,0,0,1-1.6026-1.6027V196.3272a1.6027,1.6027,0,1,1,3.2053,0v32.0534A1.6028,1.6028,0,0,1,133.823,229.9833Z"/><path class="c" d="M193.1219,229.9833a1.6028,1.6028,0,0,1-1.6027-1.6027V196.3272a1.6027,1.6027,0,1,1,3.2053,0v32.0534A1.6027,1.6027,0,0,1,193.1219,229.9833Z"/><rect class="e" x="137.8297" y="225.1753" width="4.808" height="9.616"/><rect class="e" x="184.3072" y="225.1753" width="4.808" height="9.616"/><rect class="a" x="136.0935" y="234.7913" width="8.0134" height="1.6027"/><rect class="a" x="182.7045" y="234.7913" width="8.0134" height="1.6027"/><rect class="f" x="146.2883" y="209.1486" width="1.6027" height="17.6294"/><circle class="d" cx="211.5503" cy="356.5943" r="12.8214"/><path class="b" d="M224.3716,356.5943a12.8214,12.8214,0,1,1-25.6427,0Z"/><polygon class="e" points="225.977 355.793 225.977 357.396 221.505 357.396 216.104 362.869 214.934 364.055 214.109 362.62 210.623 356.594 212.482 356.594 215.279 361.434 219.261 357.396 220.84 355.793 225.977 355.793"/><polygon class="g" points="212.482 356.594 210.623 356.594 207.826 351.754 203.844 355.793 202.265 357.396 197.129 357.396 197.129 355.793 201.6 355.793 207.001 350.32 208.171 349.134 212.482 356.594"/><path class="h" d="M453.5434,325.2061a3.4419,3.4419,0,0,1-2.2788-3.32,3.8853,3.8853,0,0,1,1.2552-2.969,5.9936,5.9936,0,0,1,7.1213,0,3.877,3.877,0,0,1,1.2646,2.969,3.5,3.5,0,0,1-.5807,1.9877,3.664,3.664,0,0,1-1.6324,1.3319,4.3,4.3,0,0,1,2.0315,1.5666,4.14,4.14,0,0,1,.6965,2.3774,4.8382,4.8382,0,0,1-1.42,3.6154,5.1529,5.1529,0,0,1-3.7734,1.3914,5.7074,5.7074,0,0,1-3.6483-1.15,4.4875,4.4875,0,0,1-1.72-3.725,4.6094,4.6094,0,0,1,.6464-2.393A4.1541,4.1541,0,0,1,453.5434,325.2061Zm.3506,3.78a2.8325,2.8325,0,0,0,.6511,1.983,2.12,2.12,0,0,0,1.6277.7121,2.0422,2.0422,0,0,0,1.5776-.6855,2.8312,2.8312,0,0,0,.6245-1.9767,2.5592,2.5592,0,0,0-.6354-1.814,2.1067,2.1067,0,0,0-1.6105-.6839,1.9239,1.9239,0,0,0-1.681.7778A2.85,2.85,0,0,0,453.894,328.9858Zm.2848-6.88a1.9312,1.9312,0,0,0,.52,1.4352,1.8878,1.8878,0,0,0,1.3866.5149,1.9111,1.9111,0,0,0,1.4024-.52,1.9381,1.9381,0,0,0,.5259-1.4415,1.79,1.79,0,0,0-1.8954-1.9063,1.91,1.91,0,0,0-1.4133.5259A1.88,1.88,0,0,0,454.1788,322.1056Z"/><path class="h" d="M260.8519,321.1744v-2.8595H271.38v2.235a16.5842,16.5842,0,0,0-2.6513,3.6811,21.4037,21.4037,0,0,0-2.0534,5.0991,18.8391,18.8391,0,0,0-.6965,4.8268H263.01a20.69,20.69,0,0,1,1.3742-6.7925,22.6688,22.6688,0,0,1,3.4683-6.19Z"/><path class="h" d="M409.78,321.755l-2.98.3287a2.1749,2.1749,0,0,0-.57-1.3585,1.6573,1.6573,0,0,0-1.1942-.4383,2.022,2.022,0,0,0-1.65.8765,7.4054,7.4054,0,0,0-.8483,3.6483,3.5974,3.5974,0,0,1,2.8594-1.3585,4.3714,4.3714,0,0,1,3.304,1.468,5.3265,5.3265,0,0,1,1.3741,3.7907,5.4375,5.4375,0,0,1-1.4461,3.955,5.2676,5.2676,0,0,1-7.7129-.3991q-1.5659-1.8921-1.5666-6.1962,0-4.416,1.6324-6.3653a5.2662,5.2662,0,0,1,4.24-1.95,4.4992,4.4992,0,0,1,3.0285,1.0235A4.7966,4.7966,0,0,1,409.78,321.755Zm-6.9788,6.7159a3.4855,3.4855,0,0,0,.69,2.3163,2.03,2.03,0,0,0,1.5777.817,1.7941,1.7941,0,0,0,1.4242-.6683,3.3648,3.3648,0,0,0,.57-2.1911,3.5356,3.5356,0,0,0-.6135-2.296,1.9729,1.9729,0,0,0-3.0348-.0313A3.02,3.02,0,0,0,402.801,328.4709Z"/><path class="h" d="M206.1389,329.7527l3.0676-.3177a2.6411,2.6411,0,0,0,.7778,1.65,2.1168,2.1168,0,0,0,1.49.6073,2.0707,2.0707,0,0,0,1.6324-.7826,3.5641,3.5641,0,0,0,.6683-2.3617,3.2241,3.2241,0,0,0-.6636-2.2178,2.2007,2.2007,0,0,0-1.7247-.74,3.1365,3.1365,0,0,0-2.3774,1.1723l-2.4979-.3615,1.5776-8.3593h8.14v2.8814h-5.8065l-.4821,2.728a4.7058,4.7058,0,0,1,5.5765.975,5.3636,5.3636,0,0,1,1.4243,3.8674,5.7994,5.7994,0,0,1-1.15,3.5387,5.1009,5.1009,0,0,1-4.3494,2.1254,5.3961,5.3961,0,0,1-3.6264-1.1941A4.9231,4.9231,0,0,1,206.1389,329.7527Z"/><path class="h" d="M357.0388,186.7112v-3.232h-6.5727v-2.6951l6.9671-10.2h2.5856v10.1889h1.9939v2.706h-1.9939v3.232Zm0-5.938v-5.4889l-3.6913,5.4889Z"/><path class="h" d="M159.24,182.1755l2.98-.3615a2.822,2.822,0,0,0,.7669,1.7419,2.1687,2.1687,0,0,0,3.1169-.1205,2.8037,2.8037,0,0,0,.6519-1.95,2.6126,2.6126,0,0,0-.6245-1.8406,1.993,1.993,0,0,0-1.5229-.6792,5.3737,5.3737,0,0,0-1.4133.23l.34-2.5088a2.7059,2.7059,0,0,0,1.9063-.5416,1.9342,1.9342,0,0,0,.6573-1.5291,1.6591,1.6591,0,0,0-1.7639-1.7748,1.8571,1.8571,0,0,0-1.3475.5478,2.5736,2.5736,0,0,0-.6793,1.5995l-2.8375-.482a6.3156,6.3156,0,0,1,.8929-2.3273,4.0306,4.0306,0,0,1,1.6652-1.3711,5.6022,5.6022,0,0,1,2.3939-.4977,4.7753,4.7753,0,0,1,3.6373,1.4462,3.6615,3.6615,0,0,1-1.1832,6.0476,3.7386,3.7386,0,0,1,2.2076,1.3256,3.8451,3.8451,0,0,1,.8271,2.487,4.8236,4.8236,0,0,1-1.5448,3.6044,5.77,5.77,0,0,1-7.4608.2363A4.9338,4.9338,0,0,1,159.24,182.1755Z"/><path class="h" d="M362.7358,50.83v2.86H351.9444a7.4313,7.4313,0,0,1,1.0517-3.0739,20.4714,20.4714,0,0,1,3.4621-3.85,21.7884,21.7884,0,0,0,2.5527-2.6293,3.3884,3.3884,0,0,0,.6354-1.8844,2.145,2.145,0,0,0-.5533-1.5839,2.3522,2.3522,0,0,0-3.0621.0282,2.9834,2.9834,0,0,0-.6574,1.9282l-3.0676-.3068a5.0268,5.0268,0,0,1,1.72-3.6483,5.7791,5.7791,0,0,1,3.6154-1.1065,5.2253,5.2253,0,0,1,3.7359,1.2818,4.2056,4.2056,0,0,1,1.3585,3.1882,5.5616,5.5616,0,0,1-.3889,2.0659,8.3887,8.3887,0,0,1-1.2325,2.0534,19.7565,19.7565,0,0,1-2.0159,2.0487q-1.4568,1.3359-1.846,1.7749a5.357,5.357,0,0,0-.63.8545Z"/><path class="h" d="M167.152,53.69h-3.0785V42.0873a10.61,10.61,0,0,1-3.977,2.3336V41.6272a8.9294,8.9294,0,0,0,2.6184-1.4947,5.6955,5.6955,0,0,0,1.9392-2.57h2.4979Z"/><path class="h" d="M409.315,282.8715,403.5742,266.81h3.5152l4.0662,11.887,3.9315-11.887h3.44l-5.75,16.0612Z"/><path class="h" d="M420.083,282.8715V266.81h3.2429v16.0612Z"/><path class="h" d="M426.3183,282.8715V266.81h3.2429v16.0612Z"/><path class="h" d="M415.5488,213.9566l-5.7408-16.0611h3.5168l4.0646,11.8869,3.9331-11.8869h3.44l-5.7517,16.0611Z"/><path class="h" d="M426.3183,213.9566V197.8955h3.2429v16.0611Z"/><path class="h" d="M229.855,282.8715,224.1141,266.81h3.5168l4.0646,11.887,3.9332-11.887h3.44l-5.7518,16.0612Z"/><path class="h" d="M219.4251,213.9566V197.8955h3.2429v16.0611Z"/><path class="h" d="M229.855,213.9566l-5.7409-16.0611h3.5168l4.0646,11.8869,3.9332-11.8869h3.44l-5.7518,16.0611Z"/><path class="h" d="M413.8507,138.6311V122.57h3.2429v16.0612Z"/><path class="h" d="M420.0845,138.6311V122.57h3.2429v16.0612Z"/><path class="h" d="M426.3183,138.6311V122.57h3.2429v16.0612Z"/><path class="h" d="M229.182,34.4574V18.3963h3.2429V34.4574Z"/><path class="h" d="M235.4158,34.4574V18.3963h3.2429V34.4574Z"/><path class="h" d="M79.5618,34.4574V18.3963h3.2429V34.4574Z"/></svg>