<svg xmlns="http://www.w3.org/2000/svg" viewBox="0 0 480 360"><defs><style>.a{fill:#07617d;}.b{fill:#497285;}.c{fill:#d27332;}.d{fill:#f78536;}.e{fill:#b05f1f;}.f{fill:#fff;}.g{fill:#3d91a6;}.h{fill:#2b4450;}.i{fill:#20485e;}</style></defs><title>vcu_vhc_chiller_fit</title><polygon class="a" points="319.258 66.485 319.258 62.958 264.146 62.958 264.146 91.495 262.683 91.495 262.683 61.495 319.258 61.495 319.258 57.968 335.122 62.227 319.258 66.485"/><polygon class="a" points="459.512 218.08 459.512 219.544 384.644 219.544 384.644 223.07 368.78 218.812 384.644 214.553 384.644 218.08 459.512 218.08"/><polygon class="a" points="443.649 173.314 443.649 169.788 400.976 169.788 400.976 168.324 443.649 168.324 443.649 164.797 459.512 169.056 443.649 173.314"/><polygon class="a" points="443.649 122.095 443.649 118.568 390.732 118.568 390.732 147.105 389.268 147.105 389.268 117.105 443.649 117.105 443.649 113.578 459.512 117.836 443.649 122.095"/><polygon class="a" points="242.795 74.168 238.537 90.031 234.278 74.168 237.805 74.168 237.805 24.178 40.976 24.178 40.976 63.69 39.512 63.69 39.512 22.714 239.268 22.714 239.268 74.168 242.795 74.168"/><polygon class="a" points="242.795 176.607 238.537 192.47 234.278 176.607 237.805 176.607 237.805 117.836 239.268 117.836 239.268 176.607 242.795 176.607"/><polygon class="a" points="350.356 129.778 346.098 145.641 341.839 129.778 345.366 129.778 345.366 95.885 346.829 95.885 346.829 129.778 350.356 129.778"/><polygon class="a" points="397.317 261.983 397.317 263.446 367.317 263.446 367.317 173.446 368.78 173.446 368.78 261.983 397.317 261.983"/><polygon class="a" points="202.683 61.495 202.683 91.495 201.22 91.495 201.22 62.958 104.634 62.958 104.634 291.251 120 291.251 120 292.714 103.171 292.714 103.171 61.495 202.683 61.495"/><polygon class="a" points="476.341 22.714 476.341 248.08 474.878 248.08 474.878 24.178 346.829 24.178 346.829 35.387 350.356 35.387 346.098 51.251 341.839 35.387 345.366 35.387 345.366 22.714 476.341 22.714"/><polygon class="a" points="202.683 117.836 202.683 292.714 185.854 292.714 185.854 291.251 201.22 291.251 201.22 117.836 202.683 117.836"/><polygon class="a" points="123.176 310.758 123.176 312.222 51.234 312.222 51.234 315.748 35.371 311.49 51.234 307.246 51.234 310.758 123.176 310.758"/><polygon class="a" points="242.678 310.758 242.678 312.222 200.005 312.222 200.005 315.748 184.141 311.49 200.005 307.246 200.005 310.758 242.678 310.758"/><polygon class="a" points="259.756 220.275 259.756 355.641 51.234 355.641 51.234 359.168 35.371 354.909 51.234 350.651 51.234 354.178 258.293 354.178 258.293 220.275 259.756 220.275"/><polygon class="a" points="437.063 266.973 437.063 263.446 423.659 263.446 423.659 261.983 437.063 261.983 437.063 258.456 452.927 262.714 437.063 266.973"/><polygon class="a" points="88.038 27.698 103.902 23.446 88.038 19.194 88.038 27.698"/><polygon class="a" points="206.203 171.75 201.951 155.885 197.7 171.75 206.203 171.75"/><polygon class="a" points="479.861 144.178 475.61 128.313 471.358 144.178 479.861 144.178"/><polygon class="a" points="108.154 155.885 103.902 171.75 99.651 155.885 108.154 155.885"/><polygon class="a" points="263.276 278.812 259.024 294.677 254.773 278.812 263.276 278.812"/><polygon class="b" points="468.293 259.788 457.317 278.812 479.268 278.812 468.293 259.788"/><rect class="c" x="467.9268" y="250.6412" width="15.3659" height="8.7805" transform="translate(220.5783 730.6412) rotate(-90)"/><circle class="d" cx="468.2927" cy="262.7144" r="11.7073"/><rect class="c" x="452.9268" y="260.1839" width="15.3659" height="5.061"/><circle class="e" cx="468.2927" cy="262.7144" r="4.3902"/><rect class="a" x="456.5854" y="277.3485" width="23.4146" height="1.4634"/><path class="d" d="M295.61,207.1046c0,8.0781-3.2781,14.6342-7.3171,14.6342H229.7561c-4.039,0-7.3171-6.5561-7.3171-14.6342s3.2781-14.6341,7.3171-14.6341h58.5366C292.3317,192.4705,295.61,199.0265,295.61,207.1046Z"/><path class="c" d="M295.61,207.1046c0,8.0781-3.2781,14.6342-7.3171,14.6342H229.7561c-4.039,0-7.3171-6.5561-7.3171-14.6342Z"/><path class="e" d="M231.9512,223.2022a1.4635,1.4635,0,0,1-1.4634-1.4634V192.4705a1.4634,1.4634,0,0,1,2.9268,0v29.2683A1.4635,1.4635,0,0,1,231.9512,223.2022Z"/><path class="e" d="M286.0976,223.2022a1.4636,1.4636,0,0,1-1.4635-1.4634V192.4705a1.4635,1.4635,0,0,1,2.9269,0v29.2683A1.4635,1.4635,0,0,1,286.0976,223.2022Z"/><rect class="b" x="235.6098" y="218.8119" width="4.3902" height="8.7805"/><rect class="b" x="278.0488" y="218.8119" width="4.3902" height="8.7805"/><rect class="a" x="234.0244" y="227.5924" width="7.3171" height="1.4634"/><rect class="a" x="276.5854" y="227.5924" width="7.3171" height="1.4634"/><rect class="f" x="243.3333" y="204.1778" width="1.4634" height="16.0976"/><path class="d" d="M404.6341,160.2753c0,8.0781-3.278,14.6342-7.317,14.6342H338.7805c-4.0391,0-7.3171-6.5561-7.3171-14.6342s3.278-14.6341,7.3171-14.6341h58.5366C401.3561,145.6412,404.6341,152.1973,404.6341,160.2753Z"/><path class="c" d="M404.6341,160.2753c0,8.0781-3.278,14.6342-7.317,14.6342H338.7805c-4.039,0-7.3171-6.5561-7.3171-14.6342Z"/><path class="e" d="M340.9756,176.3729a1.4634,1.4634,0,0,1-1.4634-1.4634V145.6412a1.4634,1.4634,0,0,1,2.9268,0V174.91A1.4634,1.4634,0,0,1,340.9756,176.3729Z"/><path class="e" d="M395.122,176.3729a1.4635,1.4635,0,0,1-1.4635-1.4634V145.6412a1.4635,1.4635,0,0,1,2.9269,0V174.91A1.4635,1.4635,0,0,1,395.122,176.3729Z"/><rect class="b" x="344.6341" y="171.9827" width="4.3902" height="8.7805"/><rect class="b" x="387.0732" y="171.9827" width="4.3902" height="8.7805"/><rect class="a" x="343.0488" y="180.7631" width="7.3171" height="1.4634"/><rect class="a" x="385.6098" y="180.7631" width="7.3171" height="1.4634"/><rect class="f" x="352.3577" y="157.3485" width="1.4634" height="16.0976"/><circle class="d" cx="410.4857" cy="262.7144" r="11.7073"/><path class="c" d="M422.193,262.7144a11.7073,11.7073,0,1,1-23.4146,0Z"/><polygon class="b" points="423.659 261.983 423.659 263.446 419.576 263.446 414.644 268.444 413.576 269.527 412.822 268.217 409.639 262.714 411.337 262.714 413.89 267.134 417.527 263.446 418.968 261.983 423.659 261.983"/><polygon class="g" points="411.337 262.714 409.639 262.714 407.085 258.295 403.449 261.983 402.007 263.446 397.317 263.446 397.317 261.983 401.4 261.983 406.332 256.985 407.4 255.902 411.337 262.714"/><path class="d" d="M40.2439,223.2021c-16.1561,0-29.2683-6.5561-29.2683-14.6341V76.8607c0-8.0781,13.1121-14.6341,29.2683-14.6341s29.2682,6.556,29.2682,14.6341V208.5679C69.5122,216.646,56.4,223.2021,40.2439,223.2021Z"/><path class="c" d="M40.2439,223.2021c-16.1561,0-29.2683-6.5561-29.2683-14.6341V76.8607c0-8.078,13.1121-14.6341,29.2683-14.6341Z"/><path class="e" d="M9.5122,85.6412a1.4634,1.4634,0,0,1,1.4634-1.4634H47.5609a1.4634,1.4634,0,1,1,0,2.9268H10.9756A1.4634,1.4634,0,0,1,9.5122,85.6412Z"/><path class="e" d="M9.5122,122.2266a1.4634,1.4634,0,0,1,1.4634-1.4634H47.5609a1.4635,1.4635,0,1,1,0,2.9269H10.9756A1.4635,1.4635,0,0,1,9.5122,122.2266Z"/><path class="e" d="M9.5122,158.8119a1.4635,1.4635,0,0,1,1.4634-1.4634H47.5609a1.4634,1.4634,0,1,1,0,2.9268H10.9756A1.4635,1.4635,0,0,1,9.5122,158.8119Z"/><path class="e" d="M9.5122,195.3973a1.4634,1.4634,0,0,1,1.4634-1.4634H47.5609a1.4634,1.4634,0,1,1,0,2.9268H10.9756A1.4634,1.4634,0,0,1,9.5122,195.3973Z"/><rect class="b" x="7.3171" y="210.7631" width="65.8537" height="36.5854"/><polygon class="h" points="60.732 102.47 60.732 210.763 57.805 210.763 57.805 178.568 50.488 178.568 50.488 175.641 57.805 175.641 57.805 141.983 50.488 141.983 50.488 139.056 57.805 139.056 57.805 105.397 50.488 105.397 50.488 102.47 60.732 102.47"/><rect class="a" y="245.1534" width="80.4878" height="4.3902"/><rect class="a" x="5.122" y="208.568" width="70.2439" height="4.3902"/><polygon class="c" points="346.098 64.422 334.39 98.08 357.805 98.08 346.098 64.422"/><polygon class="e" points="346.098 64.422 346.098 98.08 334.39 98.08 346.098 64.422"/><rect class="d" x="335.122" y="51.251" width="21.9512" height="21.9512"/><rect class="c" x="335.122" y="51.251" width="10.9756" height="21.9512"/><path class="d" d="M279.3857,104.6656c0,8.0781-3.278,14.6341-7.3171,14.6341H198.8979c-4.039,0-7.3171-6.556-7.3171-14.6341s3.2781-14.6342,7.3171-14.6342h73.1707C276.1077,90.0314,279.3857,96.5875,279.3857,104.6656Z"/><path class="c" d="M279.3857,104.6656c0,8.0781-3.278,14.6341-7.3171,14.6341H198.8979c-4.039,0-7.3171-6.556-7.3171-14.6341Z"/><path class="e" d="M208.41,120.7631a1.4634,1.4634,0,0,1-1.4634-1.4634V90.0314a1.4634,1.4634,0,0,1,2.9268,0V119.3A1.4634,1.4634,0,0,1,208.41,120.7631Z"/><path class="e" d="M269.8735,120.7631A1.4635,1.4635,0,0,1,268.41,119.3V90.0314a1.4634,1.4634,0,0,1,2.9268,0V119.3A1.4634,1.4634,0,0,1,269.8735,120.7631Z"/><rect class="b" x="212.0686" y="116.3729" width="4.3902" height="8.7805"/><rect class="b" x="261.8247" y="116.3729" width="4.3902" height="8.7805"/><rect class="a" x="210.4833" y="125.1534" width="7.3171" height="1.4634"/><rect class="a" x="260.3613" y="125.1534" width="7.3171" height="1.4634"/><rect class="a" x="119.2683" y="289.0558" width="5.8537" height="5.8537"/><rect class="a" x="180.7317" y="289.0558" width="5.8537" height="5.8537"/><path class="g" d="M173.4146,272.4705v10.2439h-6.8292v-8.5366a.7317.7317,0,0,0-.7317-.7317H153.9024v-6.8293H167.561A5.8536,5.8536,0,0,1,173.4146,272.4705Z"/><path class="b" d="M154.878,265.6412v8.78h-9.756a1.4634,1.4634,0,0,0-1.4635,1.4634v1.9512H134.878v-3.4146a8.7805,8.7805,0,0,1,8.7805-8.78Z"/><rect class="a" x="132.439" y="277.3485" width="13.6585" height="5.3659"/><rect class="a" x="180.7312" y="310.5192" width="3.4146" height="1.9512"/><rect class="a" x="121.7078" y="310.5192" width="3.4146" height="1.9512"/><path class="d" d="M182.1951,291.9827c0,5.3853-2.1853,9.7561-4.878,9.7561H128.5366c-2.6927,0-4.8781-4.3708-4.8781-9.7561s2.1854-9.7561,4.8781-9.7561h48.7805C180.01,282.2266,182.1951,286.5973,182.1951,291.9827Z"/><path class="d" d="M181.22,311.4949c0,3.77-2.1125,6.8292-4.7154,6.8292H129.35c-2.6029,0-4.7155-3.06-4.7155-6.8292s2.1126-6.8293,4.7155-6.8293h47.1545C179.107,304.6656,181.22,307.7251,181.22,311.4949Z"/><path class="c" d="M182.1951,291.9827c0,5.3853-2.1853,9.7561-4.878,9.7561H128.5366c-2.6927,0-4.8781-4.3708-4.8781-9.7561Z"/><path class="c" d="M181.22,311.4949c0,3.77-2.1125,6.8292-4.7154,6.8292H129.35c-2.6029,0-4.7155-3.06-4.7155-6.8292Z"/><path class="e" d="M130.4878,319.3a.9756.9756,0,0,1-.9756-.9756V282.2266a.9756.9756,0,0,1,1.9512,0v36.0975A.9756.9756,0,0,1,130.4878,319.3Z"/><path class="e" d="M175.3659,319.3a.9757.9757,0,0,1-.9757-.9756V282.2266a.9757.9757,0,0,1,1.9513,0v36.0975A.9757.9757,0,0,1,175.3659,319.3Z"/><rect class="b" x="129.1057" y="315.8851" width="2.9268" height="5.8537"/><rect class="b" x="173.9024" y="315.8851" width="2.9268" height="5.8537"/><rect class="a" x="128.0488" y="321.7388" width="4.878" height="0.9756"/><rect class="a" x="172.9268" y="321.7388" width="4.878" height="0.9756"/><path class="i" d="M139.2683,313.4461a3.4145,3.4145,0,0,1-3.4146-3.4147V296.3729a3.4146,3.4146,0,1,1,6.8292,0v13.6585A3.4145,3.4145,0,0,1,139.2683,313.4461Z"/><rect class="b" x="153.4146" y="289.5436" width="18.0488" height="22.9268"/><rect class="i" x="164.6341" y="293.9339" width="2.439" height="2.439"/><rect class="i" x="164.6341" y="298.8119" width="2.439" height="2.439"/><rect class="i" x="164.6341" y="303.69" width="2.439" height="2.439"/><path class="h" d="M150.9531,14.6656V0h2.9611V14.6656Z"/><path class="h" d="M147.6976,53.4461V38.7805h2.9611V53.4461Z"/><path class="h" d="M154.2086,53.4461V38.7805H157.17V53.4461Z"/><path class="h" d="M218.2571,302.7144V288.0488h2.9612v14.6656Z"/><path class="h" d="M224.7682,302.7144V288.0488h2.9611v14.6656Z"/><path class="h" d="M231.2807,302.7144V288.0488h2.9611v14.6656Z"/><path class="h" d="M57.4373,302.7144V288.0488h2.9611v14.6656Z"/><path class="h" d="M67.78,302.7144l-5.242-14.6656H65.749L69.46,298.9029l3.5914-10.8541H76.193l-5.252,14.6656Z"/><path class="h" d="M62.3078,346.129l-5.242-14.6656H60.277l3.7114,10.8541L67.58,331.4634H70.721L65.469,346.129Z"/><path class="h" d="M287.6737,53.4461l-5.242-14.6656h3.2112l3.7114,10.8541,3.5914-10.8541h3.1412l-5.252,14.6656Z"/><path class="h" d="M298.3263,53.4461V38.7805h2.9611V53.4461Z"/><path class="h" d="M421.4241,109.0558,416.1821,94.39h3.2113l3.7114,10.8542L426.6961,94.39h3.1412l-5.252,14.6656Z"/><path class="h" d="M431.2579,109.0558V94.39h2.9611v14.6656Z"/><path class="h" d="M436.95,109.0558V94.39h2.9611v14.6656Z"/><path class="h" d="M415.732,210.0314l-5.242-14.6655h3.2112l3.7114,10.8541,3.5914-10.8541h3.1412l-5.252,14.6655Z"/><path class="h" d="M425.5657,210.0314V195.3659h2.9611v14.6655Z"/><path class="h" d="M431.2579,210.0314V195.3659h2.9611v14.6655Z"/><path class="h" d="M436.95,210.0314V195.3659h2.9611v14.6655Z"/><path class="h" d="M421.9844,160.2753V145.61h2.9611v14.6655Z"/><path class="h" d="M426.276,160.2753l5.0119-7.6529-4.5417-7.0126h3.4613l2.9411,4.7118L436.03,145.61h3.4313l-4.5617,7.1227,5.0119,7.5428H436.34l-3.2512-5.0719-3.2613,5.0719Z"/><path class="h" d="M182.9013,112.0284H180.09v-10.594a9.7,9.7,0,0,1-3.6314,2.1308v-2.551a8.1649,8.1649,0,0,0,2.3909-1.3648,5.2007,5.2007,0,0,0,1.7707-2.3466h2.2808Z"/><path class="h" d="M312.7806,211.8564v2.611h-9.8538a6.8055,6.8055,0,0,1,.96-2.8068,18.69,18.69,0,0,1,3.1612-3.5156,19.8835,19.8835,0,0,0,2.3309-2.4009,3.0876,3.0876,0,0,0,.58-1.7207,1.9559,1.9559,0,0,0-.5059-1.4462,2.1469,2.1469,0,0,0-2.7953.0257,2.7169,2.7169,0,0,0-.6,1.7607l-2.801-.28a4.5919,4.5919,0,0,1,1.5706-3.3313,5.2766,5.2766,0,0,1,3.3012-1.01,4.771,4.771,0,0,1,3.4113,1.17,3.8371,3.8371,0,0,1,1.24,2.9111,5.0919,5.0919,0,0,1-.3544,1.8864,7.7105,7.7105,0,0,1-1.1262,1.875,17.96,17.96,0,0,1-1.8407,1.8707q-1.3312,1.22-1.6863,1.6206a4.9824,4.9824,0,0,0-.5745.78Z"/><path class="h" d="M150.0062,252.7191l2.721-.33a2.5816,2.5816,0,0,0,.7,1.5906,1.9133,1.9133,0,0,0,1.38.55,1.8937,1.8937,0,0,0,1.4649-.66,2.5572,2.5572,0,0,0,.5959-1.7807,2.3855,2.3855,0,0,0-.57-1.6806,1.8186,1.8186,0,0,0-1.3905-.62,4.9019,4.9019,0,0,0-1.29.21l.31-2.2909a2.47,2.47,0,0,0,1.7406-.4945,1.7659,1.7659,0,0,0,.6-1.3962,1.5152,1.5152,0,0,0-1.6106-1.6206,1.6957,1.6957,0,0,0-1.23.5,2.3456,2.3456,0,0,0-.62,1.46l-2.591-.44a5.78,5.78,0,0,1,.8146-2.1251,3.6936,3.6936,0,0,1,1.52-1.2519,5.12,5.12,0,0,1,2.1866-.4545,4.36,4.36,0,0,1,3.3213,1.3205,3.3432,3.3432,0,0,1-1.0805,5.5221,3.4093,3.4093,0,0,1,2.0151,1.21,3.5075,3.5075,0,0,1,.756,2.2708,4.4049,4.4049,0,0,1-1.41,3.2913,5.2688,5.2688,0,0,1-6.8126.2158A4.5081,4.5081,0,0,1,150.0062,252.7191Z"/><path class="h" d="M370.3925,69.5894V66.6382H364.39V64.1773l6.3625-9.3135h2.3609v9.3035h1.8207v2.4709h-1.8207v2.9512Zm0-5.4221V59.1554l-3.3713,5.0119Z"/><path class="h" d="M365.4607,134.3026l2.801-.29a2.4119,2.4119,0,0,0,.71,1.5063,1.9326,1.9326,0,0,0,1.3605.5545,1.891,1.891,0,0,0,1.4906-.7146,3.2547,3.2547,0,0,0,.61-2.1565,2.9444,2.9444,0,0,0-.6059-2.0251,2.01,2.01,0,0,0-1.5749-.676,2.8636,2.8636,0,0,0-2.1708,1.07l-2.2809-.33,1.4405-7.6329h7.4329v2.631h-5.3021l-.44,2.491a4.297,4.297,0,0,1,5.0919.89,4.8974,4.8974,0,0,1,1.3,3.5314,5.2951,5.2951,0,0,1-1.05,3.2312,4.6577,4.6577,0,0,1-3.9715,1.9407,4.9272,4.9272,0,0,1-3.3113-1.09A4.4954,4.4954,0,0,1,365.4607,134.3026Z"/><path class="h" d="M415.1124,287.9754l-2.721.3a1.9855,1.9855,0,0,0-.52-1.24,1.513,1.513,0,0,0-1.09-.4,1.8465,1.8465,0,0,0-1.5063.8,6.7621,6.7621,0,0,0-.7746,3.3313,3.2849,3.2849,0,0,1,2.611-1.24,3.9917,3.9917,0,0,1,3.0169,1.34,4.8638,4.8638,0,0,1,1.2547,3.4613,4.9649,4.9649,0,0,1-1.32,3.6114,4.81,4.81,0,0,1-7.0426-.3644q-1.43-1.7278-1.4306-5.6579,0-4.0322,1.4906-5.8122a4.8088,4.8088,0,0,1,3.8715-1.7807,4.1084,4.1084,0,0,1,2.7653.9347A4.3794,4.3794,0,0,1,415.1124,287.9754Zm-6.3724,6.1324a3.1823,3.1823,0,0,0,.63,2.115,1.8534,1.8534,0,0,0,1.44.746,1.6385,1.6385,0,0,0,1.3005-.61,3.0723,3.0723,0,0,0,.52-2.0007,3.2287,3.2287,0,0,0-.56-2.0966,1.8015,1.8015,0,0,0-2.7711-.0285A2.7571,2.7571,0,0,0,408.74,294.1078Z"/><path class="h" d="M463.9024,287.4452v-2.611h9.6137v2.0408a15.1393,15.1393,0,0,0-2.4209,3.3613,19.54,19.54,0,0,0-1.875,4.656,17.2048,17.2048,0,0,0-.636,4.4074h-2.711a18.89,18.89,0,0,1,1.2548-6.2023,20.6992,20.6992,0,0,1,3.1669-5.6522Z"/></svg>