<svg xmlns="http://www.w3.org/2000/svg" viewBox="0 0 480 388"><defs><style>.a{fill:#07617d;}.b{fill:#d27332;}.c{fill:#b05f1f;}.d{fill:#f78536;}.e{fill:#497285;}.f{fill:#fff;}.g{fill:#3d91a6;}.h{fill:#2b4450;}</style></defs><title>vcu_vhc_2stage_fit</title><polygon class="a" points="475.855 0 475.855 352.332 474.197 352.332 474.197 1.658 327.461 1.658 327.461 16.016 331.457 16.016 326.632 33.99 321.807 16.016 325.803 16.016 325.803 1.658 145.078 1.658 145.078 16.016 149.074 16.016 144.249 33.99 139.424 16.016 143.42 16.016 143.42 0 475.855 0"/><rect class="a" x="325.8031" y="85.3886" width="1.658" height="119.3782"/><rect class="a" x="143.4197" y="85.3886" width="1.658" height="119.3782"/><polygon class="a" points="434.669 159.851 434.669 155.855 377.202 155.855 377.202 204.767 375.544 204.767 375.544 154.197 434.669 154.197 434.669 150.201 452.642 155.026 434.669 159.851"/><polygon class="a" points="113.84 52.079 113.84 48.083 46.425 48.083 46.425 151.71 44.767 151.71 44.767 46.425 113.84 46.425 113.84 42.429 131.813 47.254 113.84 52.079"/><polygon class="a" points="434.669 236.12 434.669 232.124 389.637 232.124 389.637 230.466 434.669 230.466 434.669 226.47 452.642 231.295 434.669 236.12"/><polygon class="a" points="431.353 373.737 431.353 369.741 416.166 369.741 416.166 368.083 431.353 368.083 431.353 364.087 449.326 368.912 431.353 373.737"/><polygon class="a" points="189.173 151.446 193.99 133.472 198.807 151.446 189.173 151.446"/><polygon class="a" points="348.344 292.906 353.161 310.881 357.978 292.906 348.344 292.906"/><polygon class="a" points="262.798 302.591 264.456 302.591 264.456 350.939 268.452 350.939 263.627 368.912 258.802 350.939 262.798 350.939 262.798 302.591"/><polygon class="a" points="252.286 236.12 252.286 232.124 207.254 232.124 207.254 230.466 252.286 230.466 252.286 226.47 270.259 231.295 252.286 236.12"/><polygon class="a" points="386.321 368.083 386.321 369.741 169.948 369.741 169.948 234.611 171.606 234.611 171.606 368.083 352.332 368.083 352.332 234.611 353.99 234.611 353.99 368.083 386.321 368.083"/><polygon class="a" points="165.96 292.906 170.777 310.881 175.594 292.906 165.96 292.906"/><polygon class="a" points="470.209 198.399 475.026 180.424 479.843 198.399 470.209 198.399"/><polygon class="a" points="321.815 135.393 326.632 153.368 331.449 135.393 321.815 135.393"/><polygon class="a" points="139.432 135.393 144.249 153.368 149.066 135.393 139.432 135.393"/><polygon class="a" points="296.224 52.079 296.224 48.083 194.819 48.083 194.819 204.767 193.161 204.767 193.161 46.425 296.224 46.425 296.224 42.429 314.197 47.254 296.224 52.079"/><polygon class="b" points="144.249 48.912 130.984 87.047 157.513 87.047 144.249 48.912"/><polygon class="c" points="144.249 48.912 144.249 87.047 130.984 87.047 144.249 48.912"/><rect class="d" x="131.8135" y="33.9896" width="24.8705" height="24.8705"/><rect class="b" x="131.8135" y="33.9896" width="12.4352" height="24.8705"/><polygon class="b" points="326.632 48.912 313.368 87.047 339.896 87.047 326.632 48.912"/><polygon class="c" points="326.632 48.912 326.632 87.047 313.368 87.047 326.632 48.912"/><rect class="d" x="314.1969" y="33.9896" width="24.8705" height="24.8705"/><rect class="b" x="314.1969" y="33.9896" width="12.4352" height="24.8705"/><polygon class="e" points="466.736 365.596 454.301 387.15 479.171 387.15 466.736 365.596"/><rect class="b" x="466.3212" y="355.2332" width="17.4093" height="9.9482" transform="translate(114.8187 835.2332) rotate(-90)"/><circle class="d" cx="466.7358" cy="368.9119" r="13.2642"/><rect class="b" x="449.3264" y="366.0449" width="17.4093" height="5.734"/><circle class="c" cx="466.7358" cy="368.9119" r="4.9741"/><rect class="a" x="453.4715" y="385.4922" width="26.5285" height="1.658"/><path class="d" d="M392.9534,219.6891c0,9.1524-3.714,16.58-8.29,16.58H318.342c-4.5762,0-8.29-7.4279-8.29-16.58s3.714-16.58,8.29-16.58h66.3212C389.2394,203.1088,392.9534,210.5368,392.9534,219.6891Z"/><path class="b" d="M392.9534,219.6891c0,9.1524-3.714,16.58-8.29,16.58H318.342c-4.5762,0-8.29-7.4279-8.29-16.58Z"/><path class="c" d="M320.829,237.9275a1.6581,1.6581,0,0,1-1.658-1.6581V203.1088a1.658,1.658,0,0,1,3.316,0v33.1606A1.6581,1.6581,0,0,1,320.829,237.9275Z"/><path class="c" d="M382.1762,237.9275a1.6582,1.6582,0,0,1-1.6581-1.6581V203.1088a1.6581,1.6581,0,0,1,3.3161,0v33.1606A1.6581,1.6581,0,0,1,382.1762,237.9275Z"/><rect class="e" x="324.9741" y="232.9534" width="4.9741" height="9.9482"/><rect class="e" x="373.057" y="232.9534" width="4.9741" height="9.9482"/><rect class="a" x="323.1779" y="242.9016" width="8.2902" height="1.658"/><rect class="a" x="371.399" y="242.9016" width="8.2902" height="1.658"/><rect class="f" x="333.7248" y="216.3731" width="1.658" height="18.2383"/><circle class="d" cx="401.2411" cy="368.9119" r="13.2642"/><path class="b" d="M414.5054,368.9119a13.2643,13.2643,0,1,1-26.5285,0Z"/><polygon class="e" points="416.166 368.083 416.166 369.741 411.54 369.741 405.952 375.403 404.742 376.63 403.888 375.146 400.282 368.912 402.205 368.912 405.098 373.919 409.219 369.741 410.852 368.083 416.166 368.083"/><polygon class="g" points="402.205 368.912 400.282 368.912 397.389 363.905 393.268 368.083 391.635 369.741 386.321 369.741 386.321 368.083 390.947 368.083 396.535 362.421 397.745 361.194 402.205 368.912"/><path class="d" d="M45.5959,332.4351c-18.3048,0-33.1607-7.4279-33.1607-16.58V166.6321c0-9.1523,14.8559-16.58,33.1606-16.58s33.1606,7.4279,33.1606,16.58V315.8548C78.7565,325.0072,63.9006,332.4351,45.5959,332.4351Z"/><path class="b" d="M45.5959,332.4351c-18.3048,0-33.1607-7.4279-33.1607-16.58V166.6321c0-9.1522,14.8559-16.58,33.1606-16.58Z"/><path class="c" d="M10.7772,176.58a1.6581,1.6581,0,0,1,1.658-1.658H53.886a1.658,1.658,0,1,1,0,3.316H12.4352A1.6581,1.6581,0,0,1,10.7772,176.58Z"/><path class="c" d="M10.7772,218.0311a1.6581,1.6581,0,0,1,1.658-1.658H53.886a1.658,1.658,0,0,1,0,3.316H12.4352A1.6581,1.6581,0,0,1,10.7772,218.0311Z"/><path class="c" d="M10.7772,259.4819a1.6581,1.6581,0,0,1,1.658-1.6581H53.886a1.6581,1.6581,0,0,1,0,3.3161H12.4352A1.6581,1.6581,0,0,1,10.7772,259.4819Z"/><path class="c" d="M10.7772,300.9327a1.6581,1.6581,0,0,1,1.658-1.6581H53.886a1.6581,1.6581,0,0,1,0,3.3161H12.4352A1.6581,1.6581,0,0,1,10.7772,300.9327Z"/><rect class="e" x="8.2901" y="318.342" width="74.6114" height="41.4508"/><polygon class="h" points="68.808 195.648 68.808 318.342 65.492 318.342 65.492 281.865 57.202 281.865 57.202 278.549 65.492 278.549 65.492 240.415 57.202 240.415 57.202 237.098 65.492 237.098 65.492 198.964 57.202 198.964 57.202 195.648 68.808 195.648"/><rect class="a" y="357.3057" width="91.1917" height="4.9741"/><rect class="a" x="5.8031" y="315.8549" width="79.5855" height="4.9741"/><path class="d" d="M210.57,219.6891c0,9.1524-3.7139,16.58-8.29,16.58H135.9585c-4.5761,0-8.29-7.4279-8.29-16.58s3.714-16.58,8.29-16.58H202.28C206.856,203.1088,210.57,210.5368,210.57,219.6891Z"/><path class="b" d="M210.57,219.6891c0,9.1524-3.7139,16.58-8.29,16.58H135.9585c-4.5761,0-8.29-7.4279-8.29-16.58Z"/><path class="c" d="M138.4456,237.9275a1.6581,1.6581,0,0,1-1.658-1.6581V203.1088a1.658,1.658,0,1,1,3.316,0v33.1606A1.6581,1.6581,0,0,1,138.4456,237.9275Z"/><path class="c" d="M199.7927,237.9275a1.6581,1.6581,0,0,1-1.658-1.6581V203.1088a1.6581,1.6581,0,0,1,3.3161,0v33.1606A1.6582,1.6582,0,0,1,199.7927,237.9275Z"/><rect class="e" x="142.5907" y="232.9534" width="4.9741" height="9.9482"/><rect class="e" x="190.6736" y="232.9534" width="4.9741" height="9.9482"/><rect class="a" x="140.7945" y="242.9016" width="8.2902" height="1.658"/><rect class="a" x="189.0155" y="242.9016" width="8.2902" height="1.658"/><rect class="f" x="151.3414" y="216.3731" width="1.658" height="18.2383"/><path class="h" d="M460.4113,332.8692l-3.0829.34a2.25,2.25,0,0,0-.5894-1.4054,1.7145,1.7145,0,0,0-1.2354-.4534,2.0919,2.0919,0,0,0-1.7066.9067,7.66,7.66,0,0,0-.8776,3.7743,3.7216,3.7216,0,0,1,2.9582-1.4054,4.5226,4.5226,0,0,1,3.4181,1.5188,5.51,5.51,0,0,1,1.4216,3.9216,5.6253,5.6253,0,0,1-1.4961,4.0916,5.4494,5.4494,0,0,1-7.9793-.4129q-1.62-1.9575-1.6208-6.41,0-4.5684,1.6888-6.5851a5.448,5.448,0,0,1,4.3863-2.0175,4.6548,4.6548,0,0,1,3.1331,1.0589A4.9622,4.9622,0,0,1,460.4113,332.8692Zm-7.22,6.9478a3.6061,3.6061,0,0,0,.714,2.3964,2.1,2.1,0,0,0,1.6322.8452,1.8562,1.8562,0,0,0,1.4734-.6914A3.4806,3.4806,0,0,0,457.6,340.1a3.6577,3.6577,0,0,0-.6347-2.3753,2.0412,2.0412,0,0,0-3.14-.0324A3.1238,3.1238,0,0,0,453.1914,339.817Z"/><path class="h" d="M395.6428,341.1431l3.1736-.3287a2.7324,2.7324,0,0,0,.8047,1.7066,2.19,2.19,0,0,0,1.5415.6283,2.1426,2.1426,0,0,0,1.6888-.81,3.6879,3.6879,0,0,0,.6913-2.4433,3.3358,3.3358,0,0,0-.6865-2.2944,2.2768,2.2768,0,0,0-1.7843-.7659,3.2448,3.2448,0,0,0-2.46,1.2128l-2.5842-.374,1.6321-8.648h8.4213v2.9809h-6.0071l-.4987,2.8222a4.8687,4.8687,0,0,1,5.7691,1.0087,5.549,5.549,0,0,1,1.4734,4.001,5.9994,5.9994,0,0,1-1.19,3.6609,5.2768,5.2768,0,0,1-4.5,2.1989,5.5828,5.5828,0,0,1-3.7517-1.2354A5.0936,5.0936,0,0,1,395.6428,341.1431Z"/><path class="h" d="M352.7915,193.1606V189.817h-6.8v-2.7882L353.2,176.4767h2.6749v10.5408h2.0628v2.7995h-2.0628v3.3436Zm0-6.1431v-5.6784l-3.8189,5.6784Z"/><path class="h" d="M164.7409,188.4683l3.0829-.3741a2.9206,2.9206,0,0,0,.7934,1.8022,2.2437,2.2437,0,0,0,3.2246-.1247,2.9007,2.9007,0,0,0,.6744-2.0175,2.7025,2.7025,0,0,0-.6461-1.9041,2.0616,2.0616,0,0,0-1.5754-.7028,5.5559,5.5559,0,0,0-1.4621.2381l.3513-2.5956a2.7991,2.7991,0,0,0,1.9722-.56,2.0008,2.0008,0,0,0,.68-1.5819,1.7166,1.7166,0,0,0-1.8248-1.8362,1.9217,1.9217,0,0,0-1.3941.5667,2.6629,2.6629,0,0,0-.7027,1.6548l-2.9355-.4987a6.536,6.536,0,0,1,.9237-2.4077,4.1709,4.1709,0,0,1,1.7228-1.4184,5.796,5.796,0,0,1,2.4765-.5149,4.94,4.94,0,0,1,3.763,1.4961,3.7879,3.7879,0,0,1-1.2241,6.2565,3.8668,3.8668,0,0,1,2.2838,1.3715,3.9775,3.9775,0,0,1,.8557,2.5728,4.9907,4.9907,0,0,1-1.5981,3.729,5.97,5.97,0,0,1-7.7186.2445A5.1048,5.1048,0,0,1,164.7409,188.4683Z"/><path class="h" d="M358.6852,52.5858V55.544H347.521a7.6891,7.6891,0,0,1,1.0881-3.18,21.1749,21.1749,0,0,1,3.5816-3.9832,22.5175,22.5175,0,0,0,2.6409-2.72,3.5045,3.5045,0,0,0,.6574-1.95,2.22,2.22,0,0,0-.5724-1.6386,2.4337,2.4337,0,0,0-3.1679.0292,3.0871,3.0871,0,0,0-.68,1.9948l-3.1736-.3174a5.2,5.2,0,0,1,1.7794-3.7742,5.9783,5.9783,0,0,1,3.74-1.1448,5.4056,5.4056,0,0,1,3.865,1.3261,4.3507,4.3507,0,0,1,1.4054,3.2983,5.7551,5.7551,0,0,1-.4023,2.1373,8.677,8.677,0,0,1-1.2751,2.1243,20.4368,20.4368,0,0,1-2.0855,2.12q-1.507,1.382-1.91,1.8361a5.5406,5.5406,0,0,0-.6517.8841Z"/><path class="h" d="M172.9258,55.544h-3.1849V43.5411a10.9751,10.9751,0,0,1-4.1143,2.4142v-2.89a9.2373,9.2373,0,0,0,2.7089-1.5463,5.8915,5.8915,0,0,0,2.0061-2.6587h2.5842Z"/><path class="h" d="M243.1833,319.2065l-5.9391-16.6159h3.6382l4.205,12.2976,4.069-12.2976h3.5589l-5.95,16.6159Z"/><path class="h" d="M409.1548,221.3472v-16.616H412.51v16.616Z"/><path class="h" d="M419.9449,221.3472l-5.9391-16.616h3.6383l4.205,12.2976,4.069-12.2976h3.5589l-5.95,16.616Z"/><path class="h" d="M231.0735,221.3472v-16.616h3.3549v16.616Z"/><path class="h" d="M237.5227,221.3472v-16.616h3.3549v16.616Z"/><path class="h" d="M243.9718,221.3472v-16.616h3.3549v16.616Z"/><path class="h" d="M418.0149,145.0777V128.4618H421.37v16.6159Z"/><path class="h" d="M424.4641,145.0777V128.4618h3.3549v16.6159Z"/><path class="h" d="M82.31,35.6477V19.0317h3.3549v16.616Z"/></svg>