<svg xmlns="http://www.w3.org/2000/svg" viewBox="0 0 480 283"><defs><style>.a{fill:#07617d;}.b{fill:#497285;}.c{fill:#d27332;}.d{fill:#f78536;}.e{fill:#b05f1f;}.f{fill:#fff;}.g{fill:#3d91a6;}.h{fill:#2b4450;}</style></defs><title>vcu_vhc_regenerate_fit</title><polygon class="a" points="90.835 58.955 90.835 56.58 71.951 56.58 71.951 55.595 90.835 55.595 90.835 53.219 101.52 56.087 90.835 58.955"/><polygon class="a" points="294.86 58.955 294.86 56.58 273.511 56.58 273.511 86.642 272.526 86.642 272.526 55.595 294.86 55.595 294.86 53.219 305.544 56.087 294.86 58.955"/><polygon class="a" points="469.316 58.955 469.316 56.58 441.068 56.58 441.068 86.642 440.082 86.642 440.082 55.595 469.316 55.595 469.316 53.219 480 56.087 469.316 58.955"/><polygon class="a" points="469.316 269.88 469.316 267.504 395.236 267.504 395.236 266.519 469.316 266.519 469.316 264.143 480 267.011 469.316 269.88"/><polygon class="a" points="480 97.976 480 98.962 461.115 98.962 461.115 101.337 450.431 98.469 461.115 95.601 461.115 97.976 480 97.976"/><polygon class="a" points="230.793 5.727 241.478 2.864 230.793 0 230.793 5.727"/><polygon class="a" points="167.713 219.608 178.398 216.744 167.713 213.881 167.713 219.608"/><polygon class="a" points="172.328 269.875 161.643 267.011 172.328 264.148 172.328 269.875"/><polygon class="a" points="422.677 166.384 411.992 163.521 422.677 160.657 422.677 166.384"/><polygon class="a" points="363.539 166.384 352.854 163.521 363.539 160.657 363.539 166.384"/><polygon class="a" points="29.968 93.384 27.105 82.699 24.241 93.384 29.968 93.384"/><polygon class="a" points="140.851 93.384 137.988 82.699 135.124 93.384 140.851 93.384"/><polygon class="a" points="344.876 93.384 342.012 82.699 339.149 93.384 344.876 93.384"/><polygon class="a" points="180.769 166.321 177.906 155.636 175.042 166.321 180.769 166.321"/><polygon class="a" points="106.354 219.544 103.491 208.859 100.627 219.544 106.354 219.544"/><polygon class="a" points="243.849 166.321 240.986 155.636 238.122 166.321 243.849 166.321"/><polygon class="a" points="393.664 188.004 390.801 177.319 387.937 188.004 393.664 188.004"/><polygon class="a" points="330.091 178.462 327.228 189.147 324.364 178.462 330.091 178.462"/><polygon class="a" points="111.287 109.469 108.419 120.153 105.551 109.469 107.926 109.469 107.926 78.757 108.912 78.757 108.912 109.469 111.287 109.469"/><polygon class="a" points="66.934 73.001 64.066 83.685 61.198 73.001 63.573 73.001 63.573 62.987 64.559 62.987 64.559 73.001 66.934 73.001"/><polygon class="a" points="275.887 178.463 273.018 189.147 270.15 178.463 272.526 178.463 272.526 139.866 273.511 139.866 273.511 178.463 275.887 178.463"/><path class="a" d="M441.0678,139.8656v24.1478H394.2111a3.1016,3.1016,0,0,0,0-.9856,3.4451,3.4451,0,0,0-6.8206,0,3.1016,3.1016,0,0,0,0,.9856H336.5914V138.88h.9856v24.1479h48.8181a4.4329,4.4329,0,0,1,8.8114,0h44.8756V139.8656Z"/><polygon class="a" points="56.181 55.595 56.181 56.58 27.598 56.58 27.598 122.124 26.612 122.124 26.612 55.595 56.181 55.595"/><polygon class="a" points="288.296 207.874 288.296 272.432 257.091 272.432 257.091 274.808 246.407 271.939 257.091 269.071 257.091 271.447 287.31 271.447 287.31 207.874 288.296 207.874"/><polygon class="a" points="226.694 266.519 226.694 267.504 79.678 267.504 79.678 269.88 68.994 267.011 79.678 264.143 79.678 266.519 102.998 266.519 102.998 164.013 72.936 164.013 72.936 163.028 111.533 163.028 111.533 160.652 122.218 163.521 111.533 166.389 111.533 164.013 103.984 164.013 103.984 266.519 226.694 266.519"/><polygon class="a" points="132.232 239.325 132.232 236.95 122.71 236.95 122.71 138.88 123.696 138.88 123.696 235.964 132.232 235.964 132.232 233.589 142.916 236.457 132.232 239.325"/><polygon class="a" points="215.024 239.325 215.024 236.95 205.996 236.95 205.996 235.964 215.024 235.964 215.024 233.589 225.708 236.457 215.024 239.325"/><polygon class="a" points="420.034 130.906 420.034 128.531 410.513 128.531 410.513 3.356 342.505 3.356 342.505 121.139 341.52 121.139 341.52 3.356 138.48 3.356 138.48 121.139 137.495 121.139 137.495 2.371 411.499 2.371 411.499 127.545 420.034 127.545 420.034 125.17 430.719 128.038 420.034 130.906"/><path class="a" d="M391.2936,22.0832V226.6007h-.9856V23.0689H345.4226a3.1022,3.1022,0,0,0,0-.9857,3.4451,3.4451,0,0,0-6.8206,0,3.1022,3.1022,0,0,0,0,.9857H312.9363V37.5181h2.3754l-2.8682,10.6842-2.8681-10.6842h2.3753V22.0832h25.6559a4.4329,4.4329,0,0,1,8.8114,0Z"/><polygon class="a" points="315.312 109.469 312.444 120.153 309.575 109.469 311.951 109.469 311.951 78.757 312.936 78.757 312.936 109.469 315.312 109.469"/><path class="a" d="M252.478,101.3374V98.9621h-8.0821a3.1016,3.1016,0,0,0,0-.9856,3.4451,3.4451,0,0,0-6.8206,0,3.1016,3.1016,0,0,0,0,.9856H178.3984v137.002h9.8562v.9857H177.4127V217.2372H158.6858v9.3635H157.7V216.2516h19.7125V97.9765H236.58a4.4329,4.4329,0,0,1,8.8114,0h7.0867V95.6011l10.6842,2.8682Z"/><path class="a" d="M241.4784,22.0832V226.6007h-.9856V23.0689H141.398a3.1022,3.1022,0,0,0,0-.9857,3.4451,3.4451,0,0,0-6.8206,0,3.1022,3.1022,0,0,0,0,.9857H108.9117V37.5181h2.3753l-2.8681,10.6842-2.8682-10.6842h2.3754V22.0832H133.582a4.4329,4.4329,0,0,1,8.8114,0Z"/><polygon class="a" points="364.839 274.808 364.839 272.432 326.735 272.432 326.735 138.88 327.721 138.88 327.721 235.964 338.07 235.964 338.07 236.95 327.721 236.95 327.721 271.447 364.839 271.447 364.839 269.071 375.524 271.939 364.839 274.808"/><polygon class="a" points="364.839 239.325 364.839 236.95 355.811 236.95 355.811 235.964 364.839 235.964 364.839 233.589 375.524 236.457 364.839 239.325"/><path class="a" d="M310.9651,167.4631H309.98a3.45,3.45,0,1,0-6.8994,0v22.6694h-.9856V167.4631a4.3648,4.3648,0,0,1,.9856-2.7795,4.4308,4.4308,0,0,1,7.885,2.7795Z"/><polygon class="b" points="236.057 269.968 243.45 282.781 228.665 282.781 236.057 269.968"/><rect class="c" x="225.7084" y="264.0545" width="10.3491" height="5.9138" transform="translate(461.7659 534.0227) rotate(180)"/><circle class="d" cx="236.0575" cy="271.9395" r="7.885"/><rect class="c" x="236.0575" y="270.2352" width="10.3491" height="3.4086" transform="translate(482.4641 543.879) rotate(180)"/><circle class="e" cx="236.0575" cy="271.9395" r="2.9569"/><rect class="a" x="228.1725" y="281.7958" width="15.77" height="0.9856" transform="translate(472.115 564.5771) rotate(180)"/><polygon class="b" points="385.873 269.968 378.48 282.781 393.265 282.781 385.873 269.968"/><rect class="c" x="385.8727" y="264.0545" width="10.3491" height="5.9138"/><circle class="d" cx="385.8727" cy="271.9395" r="7.885"/><rect class="c" x="375.5236" y="270.2352" width="10.3491" height="3.4086"/><circle class="e" cx="385.8727" cy="271.9395" r="2.9569"/><rect class="a" x="377.9877" y="281.7958" width="15.77" height="0.9856"/><polygon class="b" points="153.265 234.486 145.873 247.299 160.657 247.299 153.265 234.486"/><rect class="c" x="153.0185" y="228.3255" width="10.3491" height="5.9138" transform="translate(-73.0894 389.4754) rotate(-90)"/><circle class="d" cx="153.2649" cy="236.4569" r="7.885"/><rect class="c" x="142.9158" y="234.7526" width="10.3491" height="3.4086"/><circle class="e" cx="153.2649" cy="236.4569" r="2.9569"/><rect class="a" x="145.3799" y="246.3132" width="15.77" height="0.9856"/><polygon class="b" points="236.057 234.486 228.665 247.299 243.45 247.299 236.057 234.486"/><rect class="c" x="235.8111" y="228.3255" width="10.3491" height="5.9138" transform="translate(9.7032 472.268) rotate(-90)"/><circle class="d" cx="236.0575" cy="236.4569" r="7.885"/><rect class="c" x="225.7084" y="234.7526" width="10.3491" height="3.4086"/><circle class="e" cx="236.0575" cy="236.4569" r="2.9569"/><rect class="a" x="228.1725" y="246.3132" width="15.77" height="0.9856"/><polygon class="b" points="385.873 234.486 378.48 247.299 393.265 247.299 385.873 234.486"/><rect class="c" x="385.6263" y="228.3255" width="10.3491" height="5.9138" transform="translate(159.5184 622.0832) rotate(-90)"/><circle class="d" cx="385.8727" cy="236.4569" r="7.885"/><rect class="c" x="375.5236" y="234.7526" width="10.3491" height="3.4086"/><circle class="e" cx="385.8727" cy="236.4569" r="2.9569"/><rect class="a" x="377.9877" y="246.3132" width="15.77" height="0.9856"/><path class="d" d="M440.575,140.3584c-5.4407,0-9.8563-2.2078-9.8563-4.9281V91.0771c0-2.72,4.4156-4.9281,9.8562-4.9281s9.8563,2.2078,9.8563,4.9281V135.43C450.4312,138.1506,446.0156,140.3584,440.575,140.3584Z"/><path class="c" d="M440.575,140.3584c-5.4407,0-9.8563-2.2078-9.8563-4.9281V91.0771c0-2.72,4.4156-4.9281,9.8562-4.9281Z"/><path class="e" d="M429.7331,92.5555a.9856.9856,0,0,1,.9856-.9856h19.7125a.9857.9857,0,0,1,0,1.9713H430.7187A.9857.9857,0,0,1,429.7331,92.5555Z"/><path class="e" d="M429.7331,133.9518a.9856.9856,0,0,1,.9856-.9856h19.7125a.9856.9856,0,1,1,0,1.9712H430.7187A.9856.9856,0,0,1,429.7331,133.9518Z"/><rect class="b" x="445.5031" y="137.8943" width="2.9569" height="5.9138"/><rect class="a" x="445.0103" y="143.8081" width="4.9281" height="0.9856"/><rect class="b" x="432.69" y="137.8943" width="2.9569" height="5.9138" transform="translate(868.3368 281.7024) rotate(180)"/><rect class="a" x="431.2115" y="143.8081" width="4.9281" height="0.9856" transform="translate(867.3512 288.6018) rotate(180)"/><path class="f" d="M431.7043,102.9046v20.6981h17.7413V102.9046Zm9.4719,10.3491,7.2838-8.6v17.1991Zm6.7367-9.3635-7.338,8.6539L433.237,103.89Zm-15.223.7639,7.2838,8.6-7.2838,8.6Zm.5471,17.963,7.3379-8.6587,7.338,8.6587Z"/><path class="d" d="M273.0185,140.3584c-5.4407,0-9.8563-2.2078-9.8563-4.9281V91.0771c0-2.72,4.4156-4.9281,9.8563-4.9281s9.8562,2.2078,9.8562,4.9281V135.43C282.8747,138.1506,278.4592,140.3584,273.0185,140.3584Z"/><path class="c" d="M273.0185,140.3584c-5.4407,0-9.8563-2.2078-9.8563-4.9281V91.0771c0-2.72,4.4156-4.9281,9.8563-4.9281Z"/><path class="e" d="M262.1766,92.5555a.9856.9856,0,0,1,.9856-.9856h19.7125a.9857.9857,0,1,1,0,1.9713H263.1622A.9857.9857,0,0,1,262.1766,92.5555Z"/><path class="e" d="M262.1766,133.9518a.9856.9856,0,0,1,.9856-.9856h19.7125a.9856.9856,0,1,1,0,1.9712H263.1622A.9856.9856,0,0,1,262.1766,133.9518Z"/><rect class="b" x="277.9466" y="137.8943" width="2.9569" height="5.9138"/><rect class="a" x="277.4538" y="143.8081" width="4.9281" height="0.9856"/><rect class="b" x="265.1335" y="137.8943" width="2.9569" height="5.9138" transform="translate(533.2238 281.7024) rotate(180)"/><rect class="a" x="263.655" y="143.8081" width="4.9281" height="0.9856" transform="translate(532.2382 288.6018) rotate(180)"/><path class="f" d="M264.1478,102.9046v20.6981h17.7413V102.9046Zm9.4719,10.3491,7.2838-8.6v17.1991Zm6.7368-9.3635-7.338,8.6539-7.338-8.6539Zm-15.223.7639,7.2838,8.6-7.2838,8.6Zm.547,17.963,7.338-8.6587,7.338,8.6587Z"/><path class="d" d="M147.8439,130.0093c0,5.4407-2.2078,9.8563-4.9281,9.8563h-39.425c-2.72,0-4.9282-4.4156-4.9282-9.8563s2.2078-9.8563,4.9282-9.8563h39.425C145.6361,120.153,147.8439,124.5686,147.8439,130.0093Z"/><path class="c" d="M147.8439,130.0093c0,5.4407-2.2078,9.8563-4.9281,9.8563h-39.425c-2.72,0-4.9282-4.4156-4.9282-9.8563Z"/><path class="e" d="M104.9692,140.8512a.9856.9856,0,0,1-.9856-.9856V120.153a.9856.9856,0,0,1,1.9712,0v19.7126A.9856.9856,0,0,1,104.9692,140.8512Z"/><path class="e" d="M141.4374,140.8512a.9857.9857,0,0,1-.9857-.9856V120.153a.9857.9857,0,0,1,1.9713,0v19.7126A.9856.9856,0,0,1,141.4374,140.8512Z"/><rect class="b" x="107.4333" y="137.8943" width="2.9569" height="5.9138"/><rect class="b" x="136.0164" y="137.8943" width="2.9569" height="5.9138"/><rect class="a" x="106.3655" y="143.8081" width="4.9281" height="0.9856"/><rect class="a" x="135.0308" y="143.8081" width="4.9281" height="0.9856"/><rect class="f" x="112.6352" y="128.0381" width="0.9856" height="10.8419"/><path class="d" d="M312.4435,199.0031c0,5.4407-2.2078,9.8563-4.9281,9.8563H268.09c-2.72,0-4.9281-4.4156-4.9281-9.8563s2.2078-9.8562,4.9281-9.8562h39.4251C310.2357,189.1469,312.4435,193.5625,312.4435,199.0031Z"/><path class="c" d="M312.4435,199.0031c0,5.4407-2.2078,9.8563-4.9281,9.8563H268.09c-2.72,0-4.9281-4.4156-4.9281-9.8563Z"/><path class="e" d="M269.5688,209.845a.9856.9856,0,0,1-.9856-.9856V189.1469a.9856.9856,0,1,1,1.9712,0v19.7125A.9856.9856,0,0,1,269.5688,209.845Z"/><path class="e" d="M306.037,209.845a.9857.9857,0,0,1-.9857-.9856V189.1469a.9857.9857,0,0,1,1.9713,0v19.7125A.9856.9856,0,0,1,306.037,209.845Z"/><rect class="b" x="272.0329" y="206.8882" width="2.9569" height="5.9138"/><rect class="b" x="300.616" y="206.8882" width="2.9569" height="5.9138"/><rect class="a" x="270.9651" y="212.8019" width="4.9281" height="0.9856"/><rect class="a" x="299.6304" y="212.8019" width="4.9281" height="0.9856"/><rect class="f" x="277.2348" y="197.0319" width="0.9856" height="10.8419"/><path class="d" d="M351.8686,130.0093c0,5.4407-2.2078,9.8563-4.9281,9.8563H307.5154c-2.72,0-4.9281-4.4156-4.9281-9.8563s2.2078-9.8563,4.9281-9.8563h39.4251C349.6608,120.153,351.8686,124.5686,351.8686,130.0093Z"/><path class="c" d="M351.8686,130.0093c0,5.4407-2.2078,9.8563-4.9281,9.8563H307.5154c-2.72,0-4.9281-4.4156-4.9281-9.8563Z"/><path class="e" d="M308.9938,140.8512a.9856.9856,0,0,1-.9856-.9856V120.153a.9857.9857,0,0,1,1.9713,0v19.7126A.9857.9857,0,0,1,308.9938,140.8512Z"/><path class="e" d="M345.462,140.8512a.9856.9856,0,0,1-.9856-.9856V120.153a.9856.9856,0,1,1,1.9712,0v19.7126A.9856.9856,0,0,1,345.462,140.8512Z"/><rect class="b" x="311.4579" y="137.8943" width="2.9569" height="5.9138"/><rect class="b" x="340.0411" y="137.8943" width="2.9569" height="5.9138"/><rect class="a" x="310.3901" y="143.8081" width="4.9281" height="0.9856"/><rect class="a" x="339.0554" y="143.8081" width="4.9281" height="0.9856"/><rect class="f" x="316.6598" y="128.0381" width="0.9856" height="10.8419"/><circle class="d" cx="64.0643" cy="56.0873" r="7.885"/><path class="c" d="M71.9493,56.0873a7.885,7.885,0,1,1-15.77,0Z"/><polygon class="b" points="72.936 55.595 72.936 56.58 70.186 56.58 66.865 59.946 66.145 60.675 65.638 59.793 63.494 56.087 64.637 56.087 66.357 59.064 68.807 56.58 69.777 55.595 72.936 55.595"/><polygon class="g" points="64.637 56.087 63.494 56.087 61.774 53.111 59.325 55.595 58.354 56.58 55.195 56.58 55.195 55.595 57.945 55.595 61.267 52.229 61.986 51.499 64.637 56.087"/><circle class="d" cx="197.1238" cy="236.4569" r="7.885"/><path class="c" d="M205.0088,236.4569a7.885,7.885,0,1,1-15.77,0Z"/><polygon class="b" points="205.996 235.964 205.996 236.95 203.246 236.95 199.924 240.316 199.205 241.045 198.697 240.163 196.554 236.457 197.697 236.457 199.417 239.434 201.866 236.95 202.837 235.964 205.996 235.964"/><polygon class="g" points="197.697 236.457 196.554 236.457 194.834 233.48 192.384 235.964 191.414 236.95 188.255 236.95 188.255 235.964 191.005 235.964 194.326 232.598 195.046 231.869 197.697 236.457"/><path class="d" d="M27.1047,229.5575c-10.8813,0-19.7125-4.4156-19.7125-9.8563V130.9949c0-5.4406,8.8311-9.8562,19.7125-9.8562s19.7125,4.4155,19.7125,9.8562v88.7063C46.8172,225.1419,37.9861,229.5575,27.1047,229.5575Z"/><path class="c" d="M27.1047,229.5575c-10.8813,0-19.7125-4.4156-19.7125-9.8563V130.9949c0-5.4406,8.8311-9.8562,19.7125-9.8562Z"/><path class="e" d="M6.4066,136.9087a.9856.9856,0,0,1,.9856-.9856H32.0328a.9856.9856,0,1,1,0,1.9712H7.3922A.9856.9856,0,0,1,6.4066,136.9087Z"/><path class="e" d="M6.4066,161.5494a.9857.9857,0,0,1,.9856-.9857H32.0328a.9857.9857,0,1,1,0,1.9713H7.3922A.9856.9856,0,0,1,6.4066,161.5494Z"/><path class="e" d="M6.4066,186.19a.9856.9856,0,0,1,.9856-.9856H32.0328a.9856.9856,0,1,1,0,1.9712H7.3922A.9856.9856,0,0,1,6.4066,186.19Z"/><path class="e" d="M6.4066,210.8307a.9857.9857,0,0,1,.9856-.9857H32.0328a.9857.9857,0,1,1,0,1.9713H7.3922A.9856.9856,0,0,1,6.4066,210.8307Z"/><rect class="b" x="4.9281" y="221.1797" width="44.3532" height="24.6407"/><polygon class="h" points="40.903 148.243 40.903 221.18 38.932 221.18 38.932 199.496 34.004 199.496 34.004 197.525 38.932 197.525 38.932 174.855 34.004 174.855 34.004 172.884 38.932 172.884 38.932 150.215 34.004 150.215 34.004 148.243 40.903 148.243"/><rect class="a" y="244.342" width="54.2094" height="2.9569"/><rect class="a" x="3.4497" y="219.7013" width="47.3101" height="2.9569"/><polygon class="c" points="108.419 57.073 100.534 79.742 116.304 79.742 108.419 57.073"/><polygon class="e" points="108.419 57.073 108.419 79.742 100.534 79.742 108.419 57.073"/><rect class="d" x="101.0267" y="48.2023" width="14.7844" height="14.7844"/><rect class="c" x="101.0267" y="48.2023" width="7.3922" height="14.7844"/><polygon class="c" points="312.444 57.073 304.559 79.742 320.329 79.742 312.444 57.073"/><polygon class="e" points="312.444 57.073 312.444 79.742 304.559 79.742 312.444 57.073"/><rect class="d" x="305.0513" y="48.2023" width="14.7844" height="14.7844"/><rect class="c" x="305.0513" y="48.2023" width="7.3922" height="14.7844"/><circle class="d" cx="346.939" cy="236.4569" r="7.885"/><path class="c" d="M354.824,236.4569a7.885,7.885,0,1,1-15.77,0Z"/><polygon class="b" points="355.811 235.964 355.811 236.95 353.061 236.95 349.74 240.316 349.02 241.045 348.513 240.163 346.369 236.457 347.512 236.457 349.232 239.434 351.681 236.95 352.652 235.964 355.811 235.964"/><polygon class="g" points="347.512 236.457 346.369 236.457 344.649 233.48 342.2 235.964 341.229 236.95 338.07 236.95 338.07 235.964 340.82 235.964 344.141 232.598 344.861 231.869 347.512 236.457"/><path class="h" d="M65.6428,42.2886H63.75V35.1534a6.5311,6.5311,0,0,1-2.4458,1.4351V34.87a5.499,5.499,0,0,0,1.61-.9192,3.5023,3.5023,0,0,0,1.1926-1.5805h1.5362Z"/><path class="h" d="M126.883,59.2569v1.7586h-6.6366a4.5839,4.5839,0,0,1,.6468-1.89,12.5859,12.5859,0,0,1,2.1291-2.3678,13.3937,13.3937,0,0,0,1.57-1.6171,2.0794,2.0794,0,0,0,.3908-1.1589,1.3175,1.3175,0,0,0-.3407-.974,1.4459,1.4459,0,0,0-1.8827.0173,1.83,1.83,0,0,0-.4043,1.1858l-1.8865-.1886a3.0926,3.0926,0,0,1,1.0578-2.2437,3.554,3.554,0,0,1,2.2234-.6805,3.2135,3.2135,0,0,1,2.2975.7883,2.5842,2.5842,0,0,1,.8355,1.9607,3.4293,3.4293,0,0,1-.2387,1.27,5.1892,5.1892,0,0,1-.7585,1.2628,12.0852,12.0852,0,0,1-1.24,1.26q-.8966.8216-1.1358,1.0915a3.3535,3.3535,0,0,0-.3869.5255Z"/><path class="h" d="M324.271,58.2261l1.8327-.2224a1.7387,1.7387,0,0,0,.4716,1.0713,1.2888,1.2888,0,0,0,.93.3706,1.275,1.275,0,0,0,.9866-.4447,1.7222,1.7222,0,0,0,.4014-1.1993,1.6061,1.6061,0,0,0-.3841-1.1319,1.2247,1.2247,0,0,0-.9365-.4178,3.3048,3.3048,0,0,0-.8692.1415l.2089-1.5429a1.6642,1.6642,0,0,0,1.1724-.333,1.19,1.19,0,0,0,.4042-.94,1.02,1.02,0,0,0-1.0847-1.0915,1.1425,1.1425,0,0,0-.8288.3368,1.5806,1.5806,0,0,0-.4177.9837l-1.7451-.2964a3.8944,3.8944,0,0,1,.5487-1.4313,2.4889,2.4889,0,0,1,1.0241-.8432,3.4494,3.4494,0,0,1,1.4727-.306,2.936,2.936,0,0,1,2.2369.8893,2.2517,2.2517,0,0,1-.7277,3.7192,2.2962,2.2962,0,0,1,1.3572.8153,2.3626,2.3626,0,0,1,.5091,1.5294,2.9663,2.9663,0,0,1-.95,2.2167,3.5483,3.5483,0,0,1-4.5883.1454A3.037,3.037,0,0,1,324.271,58.2261Z"/><path class="h" d="M148.93,116.2105v-1.9876h-4.0426v-1.6574l4.2851-6.2728h1.59v6.266h1.2263v1.6642h-1.2263v1.9876Zm0-3.6518v-3.3756l-2.2706,3.3756Z"/><path class="h" d="M348.9117,113.502l1.8866-.1954a1.6244,1.6244,0,0,0,.4783,1.0145,1.3018,1.3018,0,0,0,.9164.3735,1.2738,1.2738,0,0,0,1.0039-.4813,2.1923,2.1923,0,0,0,.411-1.4525,1.9831,1.9831,0,0,0-.4081-1.3639,1.3538,1.3538,0,0,0-1.0607-.4552,1.9288,1.9288,0,0,0-1.4621.7209l-1.5362-.2223.97-5.1409h5.0061v1.772h-3.571l-.2964,1.6777a2.894,2.894,0,0,1,3.4295.6,3.2986,3.2986,0,0,1,.8759,2.3784,3.5665,3.5665,0,0,1-.7075,2.1762,3.137,3.137,0,0,1-2.6749,1.3071,3.3178,3.3178,0,0,1-2.23-.7344A3.0271,3.0271,0,0,1,348.9117,113.502Z"/><path class="h" d="M291.1072,176.5917l-1.8326.2021a1.337,1.337,0,0,0-.35-.8354,1.0191,1.0191,0,0,0-.7344-.27,1.2435,1.2435,0,0,0-1.0145.5391,4.5536,4.5536,0,0,0-.5217,2.2436,2.2124,2.2124,0,0,1,1.7586-.8355,2.6881,2.6881,0,0,1,2.0318.9029,3.2757,3.2757,0,0,1,.8451,2.3312,3.344,3.344,0,0,1-.8893,2.4323,3.2395,3.2395,0,0,1-4.7434-.2454,5.9843,5.9843,0,0,1-.9634-3.8107,6.093,6.093,0,0,1,1.0039-3.9145,3.2387,3.2387,0,0,1,2.6075-1.1994,2.7672,2.7672,0,0,1,1.8624.63A2.95,2.95,0,0,1,291.1072,176.5917Zm-4.2919,4.13a2.1435,2.1435,0,0,0,.4245,1.4245,1.2485,1.2485,0,0,0,.97.5025,1.1036,1.1036,0,0,0,.8759-.411,2.0694,2.0694,0,0,0,.35-1.3476,2.1746,2.1746,0,0,0-.3773-1.412,1.2133,1.2133,0,0,0-1.8664-.0192A1.857,1.857,0,0,0,286.8153,180.7219Z"/><path class="h" d="M143.0092,216.6453v-1.7586h6.4749v1.3745a10.2,10.2,0,0,0-1.6305,2.2639,13.1623,13.1623,0,0,0-1.2629,3.1359,11.59,11.59,0,0,0-.4283,2.9684h-1.8259a12.7239,12.7239,0,0,1,.8451-4.1773,13.9389,13.9389,0,0,1,2.133-3.8068Z"/><path class="h" d="M227.9184,219.1247a2.1169,2.1169,0,0,1-1.4015-2.0415,2.3893,2.3893,0,0,1,.772-1.8259,3.6862,3.6862,0,0,1,4.3795,0,2.3844,2.3844,0,0,1,.7777,1.8259,2.1526,2.1526,0,0,1-.3571,1.2224,2.2523,2.2523,0,0,1-1.0039.8191,2.6452,2.6452,0,0,1,1.2493.9635,2.546,2.546,0,0,1,.4284,1.4621,2.9754,2.9754,0,0,1-.873,2.2234,3.17,3.17,0,0,1-2.3207.8557,3.51,3.51,0,0,1-2.2436-.7074,2.76,2.76,0,0,1-1.0579-2.2908,2.8347,2.8347,0,0,1,.3976-1.4717A2.5549,2.5549,0,0,1,227.9184,219.1247Zm.2156,2.3245a1.7424,1.7424,0,0,0,.4,1.22,1.3036,1.3036,0,0,0,1.001.4379,1.2557,1.2557,0,0,0,.97-.4216,1.7408,1.7408,0,0,0,.3841-1.2156,1.5734,1.5734,0,0,0-.3908-1.1156,1.2953,1.2953,0,0,0-.99-.4206,1.1831,1.1831,0,0,0-1.0338.4783A1.7527,1.7527,0,0,0,228.134,221.4492Zm.1752-4.2312a1.1876,1.1876,0,0,0,.32.8826,1.1612,1.1612,0,0,0,.8528.3167,1.1753,1.1753,0,0,0,.8624-.32,1.1919,1.1919,0,0,0,.3235-.8865,1.1005,1.1005,0,0,0-1.1657-1.1723,1.1744,1.1744,0,0,0-.8691.3234A1.1562,1.1562,0,0,0,228.3092,217.218Z"/><path class="h" d="M214.6288,280.3221l1.8326-.2021a1.33,1.33,0,0,0,.35.8287,1.0379,1.0379,0,0,0,.7479.27,1.2215,1.2215,0,0,0,.9972-.539,4.5827,4.5827,0,0,0,.5255-2.2369,2.2609,2.2609,0,0,1-1.7855.8287,2.6638,2.6638,0,0,1-2.0107-.9,3.2756,3.2756,0,0,1-.8461-2.3409,3.3279,3.3279,0,0,1,.8923-2.4217,3.2308,3.2308,0,0,1,4.74.2426,6.0041,6.0041,0,0,1,.9635,3.8231,6.0812,6.0812,0,0,1-1.0039,3.9079,3.2469,3.2469,0,0,1-2.6142,1.1993,2.77,2.77,0,0,1-1.8731-.616A2.9793,2.9793,0,0,1,214.6288,280.3221Zm4.2852-4.1369a2.163,2.163,0,0,0-.4207-1.4217,1.2435,1.2435,0,0,0-.974-.5053,1.0873,1.0873,0,0,0-.8721.4149A2.1067,2.1067,0,0,0,216.3,276.03a2.1607,2.1607,0,0,0,.3773,1.4053,1.1835,1.1835,0,0,0,.9433.4476,1.1676,1.1676,0,0,0,.9192-.4312A1.8778,1.8778,0,0,0,218.914,276.1852Z"/><path class="h" d="M405.2041,242.2023h-1.8933v-7.1352a6.5332,6.5332,0,0,1-2.4458,1.4351v-1.7181a5.499,5.499,0,0,0,1.61-.9192,3.503,3.503,0,0,0,1.1926-1.5805h1.5362Z"/><path class="h" d="M411.2343,232.2844a2.7,2.7,0,0,1,2.2436,1.0241,8.8646,8.8646,0,0,1-.0067,8.0515,2.6941,2.6941,0,0,1-2.2369,1.0107,2.8271,2.8271,0,0,1-2.3245-1.1079,9.0323,9.0323,0,0,1,.0876-7.9678A2.6941,2.6941,0,0,1,411.2343,232.2844Zm0,1.57a.9493.9493,0,0,0-.6132.2185,1.474,1.474,0,0,0-.4177.7854,16.0411,16.0411,0,0,0-.02,4.8607,1.6776,1.6776,0,0,0,.4408.8663.9689.9689,0,0,0,1.2234-.0038,1.4659,1.4659,0,0,0,.4177-.7845,16.0011,16.0011,0,0,0,.02-4.854,1.7055,1.7055,0,0,0-.4409-.87A.9375.9375,0,0,0,411.2343,233.8543Z"/><path class="h" d="M405.2041,282.7814h-1.8933v-7.1352a6.5319,6.5319,0,0,1-2.4458,1.4351v-1.7181a5.499,5.499,0,0,0,1.61-.9192,3.503,3.503,0,0,0,1.1926-1.5805h1.5362Z"/><path class="h" d="M412.1169,282.7814h-1.8933v-7.1352a6.5311,6.5311,0,0,1-2.4458,1.4351v-1.7181a5.5006,5.5006,0,0,0,1.61-.9192,3.5027,3.5027,0,0,0,1.1925-1.5805h1.5362Z"/><path class="h" d="M194.4639,222.6582h-1.8933V215.523a6.5319,6.5319,0,0,1-2.4458,1.4351V215.24a5.499,5.499,0,0,0,1.61-.9192,3.5023,3.5023,0,0,0,1.1926-1.5805h1.5362Z"/><path class="h" d="M203.6878,220.9v1.7586h-6.6367a4.5826,4.5826,0,0,1,.6469-1.89,12.5823,12.5823,0,0,1,2.1291-2.3678,13.39,13.39,0,0,0,1.57-1.6171,2.0791,2.0791,0,0,0,.3908-1.1589,1.3171,1.3171,0,0,0-.3407-.974,1.446,1.446,0,0,0-1.8827.0173,1.83,1.83,0,0,0-.4043,1.1858l-1.8865-.1886a3.0929,3.0929,0,0,1,1.0578-2.2437,3.5542,3.5542,0,0,1,2.2234-.6805,3.2136,3.2136,0,0,1,2.2976.7883,2.5847,2.5847,0,0,1,.8355,1.9607,3.4293,3.4293,0,0,1-.2387,1.2705,5.1946,5.1946,0,0,1-.7585,1.2629,12.1,12.1,0,0,1-1.24,1.26q-.8965.8216-1.1357,1.0915a3.3609,3.3609,0,0,0-.387.5255Z"/><path class="h" d="M344.486,222.49h-1.8933v-7.1352a6.5326,6.5326,0,0,1-2.4458,1.4352v-1.7182a5.4983,5.4983,0,0,0,1.61-.9192,3.503,3.503,0,0,0,1.1925-1.58h1.5362Z"/><path class="h" d="M347.2485,219.8688l1.8326-.2224a1.7382,1.7382,0,0,0,.4716,1.0713,1.2888,1.2888,0,0,0,.93.3706,1.275,1.275,0,0,0,.9866-.4447,1.722,1.722,0,0,0,.4014-1.1993,1.6066,1.6066,0,0,0-.384-1.1319,1.2251,1.2251,0,0,0-.9366-.4178,3.3035,3.3035,0,0,0-.8691.1415l.2088-1.5429a1.6642,1.6642,0,0,0,1.1724-.333,1.19,1.19,0,0,0,.4042-.94,1.02,1.02,0,0,0-1.0847-1.0915,1.1422,1.1422,0,0,0-.8288.3369,1.58,1.58,0,0,0-.4177.9837l-1.745-.2965a3.8933,3.8933,0,0,1,.5486-1.4313,2.488,2.488,0,0,1,1.0241-.8431,3.4482,3.4482,0,0,1,1.4727-.3061,2.936,2.936,0,0,1,2.2369.8893,2.2517,2.2517,0,0,1-.7277,3.7192,2.2967,2.2967,0,0,1,1.3572.8153,2.3622,2.3622,0,0,1,.5092,1.53,2.9667,2.9667,0,0,1-.95,2.2167,3.5485,3.5485,0,0,1-4.5883.1453A3.0365,3.0365,0,0,1,347.2485,219.8688Z"/><path class="h" d="M257.7509,82.6992h-1.8933V75.564a6.5313,6.5313,0,0,1-2.4458,1.4352V75.2811a5.4973,5.4973,0,0,0,1.61-.9193,3.5015,3.5015,0,0,0,1.1926-1.58h1.5362Z"/><path class="h" d="M264.2932,82.6992V80.7116h-4.0426V79.0542l4.2851-6.2728h1.59v6.266h1.2263v1.6642h-1.2263v1.9876Zm0-3.6518V75.6718l-2.2706,3.3756Z"/><path class="h" d="M424.7356,82.5308h-1.8933V75.3956a6.5315,6.5315,0,0,1-2.4457,1.4351V75.1126a5.4992,5.4992,0,0,0,1.61-.9192,3.5027,3.5027,0,0,0,1.1925-1.5805h1.5362Z"/><path class="h" d="M427.5924,79.9907l1.8866-.1954a1.6244,1.6244,0,0,0,.4783,1.0145,1.3018,1.3018,0,0,0,.9164.3735,1.2738,1.2738,0,0,0,1.0039-.4813,2.1921,2.1921,0,0,0,.411-1.4524,1.9833,1.9833,0,0,0-.4081-1.3639A1.3536,1.3536,0,0,0,430.82,77.43a1.9288,1.9288,0,0,0-1.4621.7209l-1.5362-.2223.97-5.1409h5.0061V74.56h-3.571l-.2964,1.6777a2.894,2.894,0,0,1,3.4295.6,3.2986,3.2986,0,0,1,.8759,2.3784,3.5665,3.5665,0,0,1-.7075,2.1762,3.137,3.137,0,0,1-2.6749,1.3071,3.3178,3.3178,0,0,1-2.23-.7344A3.0271,3.0271,0,0,1,427.5924,79.9907Z"/><path class="h" d="M37.342,50.1736V40.2961h1.9943v9.8775Z"/><path class="h" d="M458.0833,50.1736V40.2961h1.9943v9.8775Z"/><path class="h" d="M462.4686,50.1736V40.2961h1.9943v9.8775Z"/><path class="h" d="M465.7464,92.5555V82.6781h1.9944v9.8774Z"/><path class="h" d="M470.1317,92.5555V82.6781h1.9944v9.8774Z"/><path class="h" d="M474.5179,92.5555V82.6781h1.9944v9.8774Z"/><path class="h" d="M455.9951,261.0976V251.22h1.9943v9.8774Z"/><path class="h" d="M462.9609,261.0976,459.43,251.22h2.1628l2.5,7.31,2.4188-7.31h2.1157l-3.5373,9.8774Z"/><path class="h" d="M79.0975,157.6068l-3.5306-9.8774H77.73l2.5,7.31,2.4188-7.31h2.1157l-3.5373,9.8774Z"/><path class="h" d="M79.0975,261.0976,75.5669,251.22H77.73l2.5,7.31,2.4188-7.31h2.1157l-3.5373,9.8774Z"/><path class="h" d="M86.2721,261.0976V251.22h1.9944v9.8774Z"/></svg>