<svg xmlns="http://www.w3.org/2000/svg" viewBox="0 0 110 70"><defs><style>.a{fill:#497285;}</style></defs><title>icon_vhc</title><path class="a" d="M104.9931,12v8h-5V12a6.9569,6.9569,0,0,0-7-7h-76a7.02,7.02,0,0,0-7,7h3.5a.818.818,0,0,1,.7,1.2l-6,10.4a.7694.7694,0,0,1-1.4,0l-6-10.4a.818.818,0,0,1,.7-1.2h3.5v-.6a12.1044,12.1044,0,0,1,3.1-7.4,11.8634,11.8634,0,0,1,9-4h76A11.95,11.95,0,0,1,104.9931,12Z"/><path class="a" d="M108.4931,58h-3.5v.6a12.25,12.25,0,0,1-3,7.4,11.8634,11.8634,0,0,1-9,4h-76a12.0354,12.0354,0,0,1-12-12V50h5v8a6.9569,6.9569,0,0,0,7,7h76a7.02,7.02,0,0,0,7-7h-3.5a.818.818,0,0,1-.7-1.2l6-10.4a.7694.7694,0,0,1,1.4,0l6,10.4A.7854.7854,0,0,1,108.4931,58Z"/><path class="a" d="M39.3241,39.4211Q39.3241,46,32.1393,46H14.0473V23.4355H31.36a7.8272,7.8272,0,0,1,5.1361,1.5293,5.9193,5.9193,0,0,1,2.02,4.8765q0,3.4048-2.5681,4.3571a4.3008,4.3008,0,0,1,2.5392,2.02A5.9765,5.9765,0,0,1,39.3241,39.4211Zm-4.1551-9.58q0-3.3471-3.8088-3.3472H17.3944v6.377H31.36a4.9884,4.9884,0,0,0,2.7123-.5771A2.7132,2.7132,0,0,0,35.169,29.8413Zm.7791,9.6087a3.1968,3.1968,0,0,0-1.0676-2.597,4.0838,4.0838,0,0,0-2.77-.9233H17.3944V42.97H32.11Q35.9482,42.97,35.9481,39.45ZM63.777,26.4941H46.4641V46h-3.376V23.4355H63.777Zm30.9062,23.661h-3.376a16.8771,16.8771,0,0,0-.1154-2.51Q90.8744,46,89.72,46H66.9249V23.4355h3.376V42.97H89.72V23.4355h3.3472V42.97h1.6158Z"/></svg>