<svg width="32" height="32" viewBox="0 0 32 32" fill="none" xmlns="http://www.w3.org/2000/svg">
<path d="M26.0013 12.9981C26.0013 15.8664 25.07 18.516 23.5011 20.6657L31.414 28.5833C32.1953 29.3644 32.1953 30.633 31.414 31.4141C30.6327 32.1953 29.3639 32.1953 28.5826 31.4141L20.6698 23.4966C18.5197 25.0713 15.8695 25.9962 13.0006 25.9962C5.81903 25.9962 0 20.1783 0 12.9981C0 5.8179 5.81903 0 13.0006 0C20.1822 0 26.0013 5.8179 26.0013 12.9981ZM11.5006 18.4973C11.5006 19.3284 12.1693 19.9971 13.0006 19.9971C13.8319 19.9971 14.5007 19.3284 14.5007 18.4973V14.4979H18.5009C19.3322 14.4979 20.001 13.8292 20.001 12.9981C20.001 12.167 19.3322 11.4983 18.5009 11.4983H14.5007V7.4989C14.5007 6.66777 13.8319 5.99912 13.0006 5.99912C12.1693 5.99912 11.5006 6.66777 11.5006 7.4989V11.4983H7.50037C6.66908 11.4983 6.00029 12.167 6.00029 12.9981C6.00029 13.8292 6.66908 14.4979 7.50037 14.4979H11.5006V18.4973Z" fill="#56657D" fill-opacity="0.2"/>
</svg>
