<svg xmlns="http://www.w3.org/2000/svg" viewBox="0 0 80 100"><defs><style>.a,.b{fill:#497285;}.b{opacity:0.5;isolation:isolate;}</style></defs><title>icon_science_GOOD</title><path class="a" d="M79.6869,17.0869a1.3576,1.3576,0,0,1-.3124.25c-.0624,0-.1249.0625-.1873.0625l-6.31,2.499-.6248.25,1.6243,25.8646L72.69,46.45l-.3123-12.12L72.0025,46.7l-.9371.3749L70.6905,34.33l-.3749,12.7449L69.3785,46.7l-.3748-12.37-.3123,12.12-1.1871-.4374,1.5619-24.6776.1249-1.6868v-.6872a1.4768,1.4768,0,0,1-.5623-.5.0612.0612,0,0,0-.0624-.0625,2.7128,2.7128,0,0,1-.1874-3.3736v-.0626a1.8689,1.8689,0,0,0,.25-.6247.0612.0612,0,0,1,.0626-.0625v-.0624c0-.0626.0624-.1875.0624-.25a.23.23,0,0,1,.0625-.1875.3761.3761,0,0,1,.0624-.25v-.8122a.793.793,0,0,0-.0624-.3748.2294.2294,0,0,0-.0625-.1874c0-.0625-.0624-.1249-.0624-.25,0-.0625-.0626-.1874-.0626-.25s0-.0624-.0624-.1249-.0625-.1249-.1249-.1874v-.0625c-.0625-.1249-.125-.1874-.125-.25-.0625-.0624-.125-.1874-.1874-.25l-.0626-.0624c-.0624-.0625-.1249-.125-.1249-.1875q-.1875-.1873-.3748-.3748c-.125-.1249-.3124-.25-.4373-.3748-.125-.0626-.25-.1875-.3749-.25s-.3124-.125-.4373-.1875a1.1575,1.1575,0,0,0-.4374-.1249c-.0624,0-.1874-.0626-.25-.0626-.125,0-.1875-.0624-.3125-.0624H64.88a3.046,3.046,0,0,0-.75.0624l.6248.25,1.0621.4373H65.88l.5623.1875c.0625,0,.0625.0624.125.0624a3.3975,3.3975,0,0,1,1.8118,2.9988,3.3592,3.3592,0,0,1-.5,1.7493,2.9442,2.9442,0,0,0-.3749.9371,1.3754,1.3754,0,0,0-.0625.5v.3124a3.5033,3.5033,0,0,0,.75,2.1242,1.9041,1.9041,0,0,0,.5.5l-.125,2.3115-6.3725,2.5615V15.5875c0-4.0609-11.4954-5.9351-22.1786-5.9351s-22.1787,1.8742-22.1787,5.9351v8.559L.8434,17.3993a1.257,1.257,0,0,1,0-2.374L37.5163.4686a6.7316,6.7316,0,0,1,4.9355,0l18.5551,7.372a6.763,6.763,0,0,1,3.9359-1.312,6.5214,6.5214,0,0,1,6.4349,5.4354l.25.1249.6248.25,6.81,2.6865A1.2714,1.2714,0,0,1,79.6869,17.0869Z"/><path class="a" d="M72.2528,20.1473l.6247-.25Z"/><path class="a" d="M59.6324,31.3943c-1.8118,1.2494-7.4346,2.8738-16.3685,3.1862-1.0621.0625-2.1242.0625-3.3112.0625s-2.2491,0-3.3112-.0625c-8.8714-.3124-14.4942-1.9368-16.3684-3.1862,1.4369-.6873,5.06-1.5619,10.6207-2.0618,2.624-.1873,5.6227-.3748,9.0589-.3748s6.4349.125,9.0589.3748C54.5719,29.8324,58.1955,30.707,59.6324,31.3943Z"/><path class="a" d="M60.3194,15.588V29.7074a25.8191,25.8191,0,0,0-7.497-1.8119,117.5876,117.5876,0,0,0-12.8075-.75,117.5886,117.5886,0,0,0-12.8074.75,25.8183,25.8183,0,0,0-7.497,1.8119V15.588c0-1.3745,7.1847-4.0609,20.3044-4.0609S60.3194,14.2135,60.3194,15.588Z"/><path class="b" d="M68.7541,11.5265c-.0625-.0624-.0625-.1874-.1249-.25C68.6916,11.3391,68.6916,11.4015,68.7541,11.5265Z"/><path class="b" d="M68.8168,14.3374a.0612.0612,0,0,1,.0626-.0625,2.3111,2.3111,0,0,1-.3125.6872A1.8678,1.8678,0,0,0,68.8168,14.3374Z"/><path class="b" d="M71.7525,12.0268l-.3124-.0624Z"/><path class="a" d="M68.2546,10.59l.08.08C68.2546,10.67,68.2546,10.67,68.2546,10.59Z"/><path class="a" d="M20.0589,62.8608a24.3025,24.3025,0,0,1,7.0588-7.0989,23.541,23.541,0,0,1,7.42-3.2085,21.6492,21.6492,0,0,1,2.3261-.4412,23.94,23.94,0,0,1,3.4091-.2407h.04c.4813,0,.9626,0,1.4438.04A23.9533,23.9533,0,0,1,57.0375,58.65,12.3156,12.3156,0,0,1,58.04,59.6925a23.1771,23.1771,0,0,1,2.1256,2.687,17.3476,17.3476,0,0,1,1.2433,2.0455,23.71,23.71,0,0,1,2.9278,11.5107,24.0642,24.0642,0,1,1-44.278-13.0749ZM40.2727,96.39A20.4544,20.4544,0,1,0,19.8182,75.9357,20.4372,20.4372,0,0,0,40.2727,96.39Z"/><path class="a" d="M48.5347,48.623a8.7085,8.7085,0,0,0-3.69.8022c-.6417-.12-1.2834-.2006-1.9251-.2807A9.7248,9.7248,0,0,1,48.5347,47.38a9.8612,9.8612,0,0,1,9.746,8.5428c-.4812-.4412-.9625-.8422-1.4839-1.2433A8.6935,8.6935,0,0,0,48.5347,48.623Z"/><path class="a" d="M63.6952,58.61c.04-.4411.08-.9224.08-1.3636s-.04-.9225-.08-1.3636a3.2142,3.2142,0,0,1-3.008-2.3262,11.8507,11.8507,0,0,0-.9626-2.3263,3.2171,3.2171,0,0,1,.4813-3.77,21.8205,21.8205,0,0,0-1.9252-1.9252,3.2686,3.2686,0,0,1-2.2058.8824,3.135,3.135,0,0,1-1.5642-.4011,11.8459,11.8459,0,0,0-2.3262-.9625,3.2141,3.2141,0,0,1-2.3262-3.008c-.4011-.04-.8824-.04-1.3236-.04s-.9224,0-1.3636.04a3.2142,3.2142,0,0,1-2.3262,3.008,11.8434,11.8434,0,0,0-2.3262.9625,3.4814,3.4814,0,0,1-1.5642.4011,3.1951,3.1951,0,0,1-2.2059-.8824A21.833,21.833,0,0,0,36.8235,47.46a3.49,3.49,0,0,1,.8423,1.7246c-.6818.08-1.3235.16-2.0053.2808a1.2222,1.2222,0,0,0-.321-.6418l-.401-.401a1.2756,1.2756,0,0,1-.12-1.6444A17.79,17.79,0,0,1,38.0668,43.53a1.2884,1.2884,0,0,1,1.6445.12l.401.4011a1.2438,1.2438,0,0,0,.8823.3609,1.1331,1.1331,0,0,0,.6017-.16,15.8244,15.8244,0,0,1,2.6872-1.123,1.2519,1.2519,0,0,0,.8823-1.2033v-.5214a1.2223,1.2223,0,0,1,1.0828-1.2432,16.3614,16.3614,0,0,1,4.5722,0,1.2556,1.2556,0,0,1,1.0829,1.2432v.5616a1.2519,1.2519,0,0,0,.8824,1.2032,15.8312,15.8312,0,0,1,2.6872,1.123,1.1329,1.1329,0,0,0,.6016.16,1.2445,1.2445,0,0,0,.8823-.361l.4011-.4011a1.2442,1.2442,0,0,1,.8823-.3609,1.32,1.32,0,0,1,.762.2406,17.7978,17.7978,0,0,1,3.2488,3.2487,1.2329,1.2329,0,0,1-.12,1.6443l-.4011.4011a1.2175,1.2175,0,0,0-.2,1.484,15.8508,15.8508,0,0,1,1.1229,2.6871,1.2515,1.2515,0,0,0,1.2032.8824h.5214A1.2228,1.2228,0,0,1,65.62,55a13.79,13.79,0,0,1,.16,2.246,14.6226,14.6226,0,0,1-.16,2.2861A1.256,1.256,0,0,1,64.377,60.615h-.5615a1.1971,1.1971,0,0,0-1.0428.6015A12.7937,12.7937,0,0,0,61.57,59.5321,3.2249,3.2249,0,0,1,63.6952,58.61Z"/><path class="a" d="M25.7139,64.9866a1.5779,1.5779,0,0,0,1.1631.5215h.6818a1.553,1.553,0,0,1,1.484,1.0829A18.6864,18.6864,0,0,0,30.4065,69.92a1.523,1.523,0,0,1-.2809,1.8048l-.4812.4813a1.4851,1.4851,0,0,0-.12,2.0054,21.8869,21.8869,0,0,0,3.97,3.9705,1.6068,1.6068,0,0,0,.9225.3209A1.5493,1.5493,0,0,0,35.5,78.0615l.4813-.4812a1.5493,1.5493,0,0,1,1.0829-.4412,1.5015,1.5015,0,0,1,.7219.2005,16.1313,16.1313,0,0,0,3.3289,1.3637,1.5528,1.5528,0,0,1,1.0829,1.4839v.6818a1.52,1.52,0,0,0,1.3235,1.5241,22.0114,22.0114,0,0,0,2.8075.2,21.5,21.5,0,0,0,2.8075-.2A1.55,1.55,0,0,0,50.46,80.869v-.6818a1.5528,1.5528,0,0,1,1.0829-1.4839A18.7013,18.7013,0,0,0,54.8716,77.34a1.6347,1.6347,0,0,1,.7219-.2005,1.55,1.55,0,0,1,1.083.4412l.6016.5213a1.5278,1.5278,0,0,0,1.0427.4412,20.2976,20.2976,0,0,0,.2006-2.246c-.04.04-.08.08-.12.08l-.2006-.2006a3.4924,3.4924,0,0,0-2.4866-1.0428,4.0024,4.0024,0,0,0-1.6844.4011,14.9521,14.9521,0,0,1-2.968,1.2433,3.4905,3.4905,0,0,0-2.5268,3.4091v.2808a19.4284,19.4284,0,0,1-2.1256.12,18.884,18.884,0,0,1-2.1256-.12v-.2808a3.5615,3.5615,0,0,0-2.5268-3.4091,16.0186,16.0186,0,0,1-2.9679-1.2433,3.4816,3.4816,0,0,0-1.6845-.4011,3.36,3.36,0,0,0-2.4867,1.0428l-.2005.2006a19.9171,19.9171,0,0,1-3.0481-3.0482l.2005-.2005a3.4718,3.4718,0,0,0,.6016-4.1711,16.0214,16.0214,0,0,1-1.2433-2.9679,3.49,3.49,0,0,0-3.4091-2.5268h-.2406c0-.12-.04-.2005-.04-.3209A16.1739,16.1739,0,0,0,25.7139,64.9866Z"/><path class="a" d="M34.2165,61.3772a12.1769,12.1769,0,0,0,22.46,6.4973A13.2476,13.2476,0,0,0,55.754,66.23,10.5354,10.5354,0,0,1,35.861,61.337a10.8032,10.8032,0,0,1,.5214-3.2486c-.6017.12-1.2032.3209-1.8049.4812A11.003,11.003,0,0,0,34.2165,61.3772Z"/><path class="a" d="M29.6445,90.7353c.4812.3211.9625.642,1.4839.9629a10.361,10.361,0,0,1,5.5348-1.5646,10.4869,10.4869,0,0,1,7.8609,3.5291,13.163,13.163,0,0,0,1.6845-.4809,12.2711,12.2711,0,0,0-9.5855-4.6524A12.424,12.424,0,0,0,29.6445,90.7353Z"/><path class="a" d="M23.8289,83.7566a17.9541,17.9541,0,0,0,1.4038,2.4065,3.4065,3.4065,0,0,0,2.1257.7219,4.0024,4.0024,0,0,0,1.6844-.4011,12.8,12.8,0,0,1,2.9679-1.2032,3.49,3.49,0,0,0,2.5268-3.4091v-.2807a19.4073,19.4073,0,0,1,2.1257-.12,18.34,18.34,0,0,1,2.1256.12v.2807a3.5613,3.5613,0,0,0,2.5267,3.4091,19.1429,19.1429,0,0,1,2.968,1.2032,3.4816,3.4816,0,0,0,1.6845.4011,3.36,3.36,0,0,0,2.4866-1.0428l.2006-.2006A19.9171,19.9171,0,0,1,51.7033,88.69l-.2006.2006A3.3081,3.3081,0,0,0,50.5,91.0564a17.1377,17.1377,0,0,0,3.2887-2.8479,1.2038,1.2038,0,0,0-.2406-.4411,21.8918,21.8918,0,0,0-3.9706-3.9707,1.6071,1.6071,0,0,0-.9224-.3208,1.55,1.55,0,0,0-1.0829.4412l-.4813.4813a1.55,1.55,0,0,1-1.0829.4411,1.1624,1.1624,0,0,1-.7219-.2005,16.1255,16.1255,0,0,0-3.3289-1.3636,1.5529,1.5529,0,0,1-1.0829-1.484V81.11a1.52,1.52,0,0,0-1.3235-1.524,19.7563,19.7563,0,0,0-5.615,0,1.55,1.55,0,0,0-1.3235,1.524v.6819a1.553,1.553,0,0,1-1.0829,1.484,18.705,18.705,0,0,0-3.3289,1.3636,1.6327,1.6327,0,0,1-.7219.2005,1.55,1.55,0,0,1-1.0829-.4411l-.4813-.4813a1.6243,1.6243,0,0,0-1.0829-.4412A1.9943,1.9943,0,0,0,23.8289,83.7566Z"/><path class="a" d="M5.5,46.2568a4.8548,4.8548,0,0,0,1.484,3.5294l11.07,11.0695a26.4181,26.4181,0,0,1,7.0588-7.0989L14.0829,42.7274a5.0107,5.0107,0,0,0-7.0989,0A4.8546,4.8546,0,0,0,5.5,46.2568Z"/></svg>