<svg xmlns="http://www.w3.org/2000/svg" viewBox="0 0 110 70"><defs><style>.a{fill:#497285;}</style></defs><title>icon_jc</title><path class="a" d="M105,50V60A10.0294,10.0294,0,0,1,95,70H15A10.0294,10.0294,0,0,1,5,60V50h5V60a4.9514,4.9514,0,0,0,5,5H29.2a42.6639,42.6639,0,0,0,9.9-15h5.3A46.303,46.303,0,0,1,36,65H52.5V50h5V65H74a48.2319,48.2319,0,0,1-8.4-15h5.3a41.784,41.784,0,0,0,9.9,15H95a4.9514,4.9514,0,0,0,5-5V50Z"/><path class="a" d="M105,10V20h-5V10a4.9514,4.9514,0,0,0-5-5H80.8a42.6639,42.6639,0,0,0-9.9,15H65.6A46.303,46.303,0,0,1,74,5H57.5V20h-5V5H36a48.2319,48.2319,0,0,1,8.4,15H39.1A41.784,41.784,0,0,0,29.2,5H15a4.9514,4.9514,0,0,0-5,5V20H5V10A10.0294,10.0294,0,0,1,15,0H95A10.0294,10.0294,0,0,1,105,10Z"/><path class="a" d="M100,29v3.5h8v5h-8V41a.8179.8179,0,0,1-1.2.7l-10.4-6a.7694.7694,0,0,1,0-1.4l10.4-6A.8179.8179,0,0,1,100,29Z"/><path class="a" d="M10,29v3.5H2v5h8V41a.818.818,0,0,0,1.2.7l10.4-6a.7694.7694,0,0,0,0-1.4l-10.4-6A.818.818,0,0,0,10,29Z"/><path class="a" d="M52.6619,38.1515q0,4.184-1.6159,6.06a6.5852,6.5852,0,0,1-4.4437,1.9621q-1.2118.1443-6.6077.1443a33.327,33.327,0,0,1-7.9062-.6348A5.5206,5.5206,0,0,1,28.2507,42.48q-1.0387-2.3372-1.0388-7.7331t1.0388-7.7908a5.6129,5.6129,0,0,1,3.8377-3.2029,33.55,33.55,0,0,1,7.9062-.6348q5.4536,0,6.6077.1443a6.66,6.66,0,0,1,4.4437,1.9333q1.6158,1.8755,1.6159,6.0883H49.2858q0-3.7223-1.5581-4.4725-1.2985-.6636-7.7331-.6636a36.6124,36.6124,0,0,0-6.2038.3174,3.4117,3.4117,0,0,0-2.6546,2.2218,21.838,21.838,0,0,0-.5483,6.06,20.5009,20.5009,0,0,0,.5771,6.0018A3.4246,3.4246,0,0,0,33.8485,42.97a35.7689,35.7689,0,0,0,6.1461.3174q6.377,0,7.7042-.6348,1.587-.779,1.587-4.5013ZM83.73,46H78.161L63.243,35.6123H59.867V46H56.52V23.4355H59.867v9.1182h3.376l13.6483-9.1182h5.8L66.85,34.0541Z"/></svg>