<svg xmlns="http://www.w3.org/2000/svg" viewBox="0 0 180 180"><defs><style>.a{fill:#90ebdb;}.b{fill:#6abed8;}.c{fill:#0e8cb4;}.d{fill:#497285;}</style></defs><title>icon_vacuum_Монтажная область 1</title><path class="a" d="M133.82,94.1991l1.09.26c6.3841-14.43,2.8029-35.0878-10.07-49.31L119.598,53.35C129.46,61.6028,136.7267,75.0981,133.82,94.1991Z"/><path class="b" d="M54.6649,41.9308l16.8172,9.5505c5.6058-4.8272,13.34-7.9934,22.7863-8.1491a37.2562,37.2562,0,0,1,15.26,3.5815l6.0729-9.7063a51.4238,51.4238,0,0,0-27.7173-8.201C75.894,28.7988,63.8521,33.626,54.6649,41.9308Z"/><path class="c" d="M40.4949,94.6144l24.3434-7.111A27.7084,27.7084,0,0,1,61.1012,72.399L44.5434,54.388C38.1072,65.5475,35.7715,79.5619,40.4949,94.6144Z"/><path class="d" d="M49.6821,49.6127l32.7,35.7626a10.11,10.11,0,0,0,1.8685,2.0762,9.04,9.04,0,0,0,14.7411-7.0591,8.9528,8.9528,0,0,0-3.4777-7.111A10.2889,10.2889,0,0,0,93.0747,71.88L50.98,48.0037A1.0484,1.0484,0,0,0,49.6821,49.6127ZM85.2889,80.3405A4.6715,4.6715,0,1,1,89.96,85.012,4.652,4.652,0,0,1,85.2889,80.3405Z"/><path class="d" d="M128.8889,150.879H51.0314a4.671,4.671,0,1,1,0-9.342h77.8575a4.671,4.671,0,1,1,0,9.342Z"/><path class="d" d="M97.4866,120.1H93.0747V137.384H86.8461V120.1H82.4342a1.0358,1.0358,0,0,1-.8824-1.5572l7.5262-13.0282a1.0683,1.0683,0,0,1,1.8167,0l7.5262,13.0282A1.0588,1.0588,0,0,1,97.4866,120.1Z"/><path class="d" d="M68.9388,127.3664h-4.412V137.384H58.2982V127.3664H53.8863a1.0357,1.0357,0,0,1-.8824-1.5571L60.53,112.7811a1.0683,1.0683,0,0,1,1.8167,0l7.5263,13.0282A1.0588,1.0588,0,0,1,68.9388,127.3664Z"/><path class="d" d="M126.0345,127.3664h-4.412V137.384h-6.2286V127.3664H110.982a1.0357,1.0357,0,0,1-.8824-1.5571l7.5263-13.0282a1.0682,1.0682,0,0,1,1.8166,0l7.5263,13.0282A1.0588,1.0588,0,0,1,126.0345,127.3664Z"/></svg>