<svg xmlns="http://www.w3.org/2000/svg" viewBox="0 0 110 70"><defs><style>.a{fill:#497285;}</style></defs><title>icon_jau_en</title><path class="a" d="M105,50V60A10.0294,10.0294,0,0,1,95,70H15A10.0294,10.0294,0,0,1,5,60V50h5V60a4.9514,4.9514,0,0,0,5,5H95a4.9514,4.9514,0,0,0,5-5V50Z"/><path class="a" d="M105,10V20h-5V10a4.9514,4.9514,0,0,0-5-5H15a4.9514,4.9514,0,0,0-5,5V20H5V10A10.0294,10.0294,0,0,1,15,0H95A10.0294,10.0294,0,0,1,105,10Z"/><path class="a" d="M25,19a2.5,2.5,0,1,0-2.5-2.5A2.5,2.5,0,0,0,25,19Z"/><path class="a" d="M35,19a2.5,2.5,0,1,0-2.5-2.5A2.5,2.5,0,0,0,35,19Z"/><path class="a" d="M45,19a2.5,2.5,0,1,0-2.5-2.5A2.5,2.5,0,0,0,45,19Z"/><path class="a" d="M55,19a2.5,2.5,0,1,0-2.5-2.5A2.5,2.5,0,0,0,55,19Z"/><path class="a" d="M65,19a2.5,2.5,0,1,0-2.5-2.5A2.5,2.5,0,0,0,65,19Z"/><path class="a" d="M75,19a2.5,2.5,0,1,0-2.5-2.5A2.5,2.5,0,0,0,75,19Z"/><path class="a" d="M85,19a2.5,2.5,0,1,0-2.5-2.5A2.5,2.5,0,0,0,85,19Z"/><path class="a" d="M30,14a2,2,0,1,0-2-2A2,2,0,0,0,30,14Z"/><path class="a" d="M40,14a2,2,0,1,0-2-2A2,2,0,0,0,40,14Z"/><path class="a" d="M50,14a2,2,0,1,0-2-2A2,2,0,0,0,50,14Z"/><path class="a" d="M60,14a2,2,0,1,0-2-2A2,2,0,0,0,60,14Z"/><path class="a" d="M70,14a2,2,0,1,0-2-2A2,2,0,0,0,70,14Z"/><path class="a" d="M80,14a2,2,0,1,0-2-2A2,2,0,0,0,80,14Z"/><path class="a" d="M35,10a1.5,1.5,0,1,0-1.5-1.5A1.5,1.5,0,0,0,35,10Z"/><path class="a" d="M45,10a1.5,1.5,0,1,0-1.5-1.5A1.5,1.5,0,0,0,45,10Z"/><path class="a" d="M55,10a1.5,1.5,0,1,0-1.5-1.5A1.5,1.5,0,0,0,55,10Z"/><path class="a" d="M65,10a1.5,1.5,0,1,0-1.5-1.5A1.5,1.5,0,0,0,65,10Z"/><path class="a" d="M75,10a1.5,1.5,0,1,0-1.5-1.5A1.5,1.5,0,0,0,75,10Z"/><path class="a" d="M25,56a2.5,2.5,0,1,0-2.5-2.5A2.5,2.5,0,0,0,25,56Z"/><path class="a" d="M35,56a2.5,2.5,0,1,0-2.5-2.5A2.5,2.5,0,0,0,35,56Z"/><path class="a" d="M45,56a2.5,2.5,0,1,0-2.5-2.5A2.5,2.5,0,0,0,45,56Z"/><path class="a" d="M55,56a2.5,2.5,0,1,0-2.5-2.5A2.5,2.5,0,0,0,55,56Z"/><path class="a" d="M65,56a2.5,2.5,0,1,0-2.5-2.5A2.5,2.5,0,0,0,65,56Z"/><path class="a" d="M75,56a2.5,2.5,0,1,0-2.5-2.5A2.5,2.5,0,0,0,75,56Z"/><path class="a" d="M85,56a2.5,2.5,0,1,0-2.5-2.5A2.5,2.5,0,0,0,85,56Z"/><path class="a" d="M30,60a2,2,0,1,0-2-2A2,2,0,0,0,30,60Z"/><path class="a" d="M40,60a2,2,0,1,0-2-2A2,2,0,0,0,40,60Z"/><path class="a" d="M50,60a2,2,0,1,0-2-2A2,2,0,0,0,50,60Z"/><path class="a" d="M60,60a2,2,0,1,0-2-2A2,2,0,0,0,60,60Z"/><path class="a" d="M70,60a2,2,0,1,0-2-2A2,2,0,0,0,70,60Z"/><path class="a" d="M80,60a2,2,0,1,0-2-2A2,2,0,0,0,80,60Z"/><path class="a" d="M35,63a1.5,1.5,0,1,0-1.5-1.5A1.5,1.5,0,0,0,35,63Z"/><path class="a" d="M45,63a1.5,1.5,0,1,0-1.5-1.5A1.5,1.5,0,0,0,45,63Z"/><path class="a" d="M55,63a1.5,1.5,0,1,0-1.5-1.5A1.5,1.5,0,0,0,55,63Z"/><path class="a" d="M65,63a1.5,1.5,0,1,0-1.5-1.5A1.5,1.5,0,0,0,65,63Z"/><path class="a" d="M75,63a1.5,1.5,0,1,0-1.5-1.5A1.5,1.5,0,0,0,75,63Z"/><path class="a" d="M34.7087,37.5744q0,6.06-2.1064,7.5311-1.7311,1.2119-8.9161,1.2119-6.9828,0-8.8873-1.4139-2.164-1.5582-2.1641-7.3291h3.376a8.6344,8.6344,0,0,0,.7214,4.1839,3.3009,3.3009,0,0,0,2.4815,1.4139q.8079.1155,4.5014.1154,3.6645,0,4.4725-.1154a3.24,3.24,0,0,0,2.4526-1.385,8.9261,8.9261,0,0,0,.7214-4.2128V23.4355h3.3471ZM66.8549,46H63.0461l-2.6546-5.0207H44.2905L41.6358,46H37.827L49.7152,23.4355h5.2227ZM58.92,38.0072,52.7738,26.119H51.937L45.7909,38.0072ZM94.4624,39.45q0,3.78-1.8179,5.3958a7.3,7.3,0,0,1-4.6167,1.5005q.577-.029-6.2038-.0289-6.8675,0-6.2038.0289a7.5092,7.5092,0,0,1-4.6168-1.4716q-1.8178-1.6159-1.8178-5.4247V23.4355h3.376V39.45a3.3507,3.3507,0,0,0,1.6158,3.174,7.5091,7.5091,0,0,0,3.6646.75q-7.7043-.0866,3.982-.0866t4.0108.0866a7.6164,7.6164,0,0,0,3.6646-.75,3.3507,3.3507,0,0,0,1.6158-3.174V23.4355h3.3472Z"/></svg>