<svg xmlns="http://www.w3.org/2000/svg" viewBox="0 0 180 180"><defs><style>.a{fill:#497285;}.b{fill:#2b4450;}.c{fill:#385664;}</style></defs><title>icon_absorb</title><path class="a" d="M40.07,76.5707V72.136H30V65.8751H40.07V61.4925a1.0411,1.0411,0,0,1,1.5652-.887L54.73,68.1708a1.0736,1.0736,0,0,1,0,1.826L41.6348,77.51A1.054,1.054,0,0,1,40.07,76.5707Z"/><path class="a" d="M48.0523,41.9272l1.513-4.1739L40.1218,34.362l2.1392-5.8957L51.7044,31.91l1.5131-4.1739a1.0421,1.0421,0,0,1,1.7739-.3131l9.7043,11.5827a1.0669,1.0669,0,0,1-.626,1.7217L49.2,43.3359A1.0333,1.0333,0,0,1,48.0523,41.9272Z"/><path class="a" d="M46.9567,110.3272l-1.513-4.1739L36,109.5967l-2.1391-5.8956,9.4435-3.4435-1.5131-4.1739a1.0742,1.0742,0,0,1,1.1478-1.4087l14.87,2.6087a1.067,1.067,0,0,1,.6261,1.7217L48.7306,110.588A1.0168,1.0168,0,0,1,46.9567,110.3272Z"/><path class="a" d="M139.983,76.5707V72.1359H150V65.875H139.931V61.4924a1.0416,1.0416,0,0,0-1.566-.8869L125.27,68.1707a1.0737,1.0737,0,0,0,0,1.8261L138.365,77.562A1.1372,1.1372,0,0,0,139.983,76.5707Z"/><path class="a" d="M131.948,41.9272l-1.513-4.1739,9.443-3.4434-2.139-5.8957-9.4434,3.4435-1.513-4.1739a1.042,1.042,0,0,0-1.7739-.3131l-9.7044,11.5826a1.067,1.067,0,0,0,.6261,1.7218l14.87,2.6087A.99.99,0,0,0,131.948,41.9272Z"/><path class="a" d="M133.044,110.3272l1.513-4.1739L144,109.5967l2.139-5.8956-9.443-3.4435,1.513-4.1739a1.0741,1.0741,0,0,0-1.148-1.4087l-14.87,2.6087a1.067,1.067,0,0,0-.6261,1.7217L131.27,110.588A1.0169,1.0169,0,0,0,133.044,110.3272Z"/><path class="a" d="M111.965,86.4837c0,13.0435-10.1739,21.1826-22.6435,21.1826-10.9043,0-17.3739-5.5826-20.6609-12.6783a18.1171,18.1171,0,0,0,1.5131,1.9827,15.2035,15.2035,0,0,0,11.53,5.27A14.3588,14.3588,0,0,0,90.73,99.0054a12.7929,12.7929,0,0,0,4.487-10.1217c0-5.3217-2.2435-9.0261-4.5913-12.9391-.887-1.5131-1.8261-3.0783-2.7131-4.8-.2609-.5218-.5739-1.0957-.9391-1.7739-.5218-.9913-1.1478-2.1392-1.7739-3.4435A29.3621,29.3621,0,0,1,81.4954,54.71a23.8958,23.8958,0,0,1-.1565-2.7652c0-7.1479,2.2957-11.3739,4.5391-14.087a19.1412,19.1412,0,0,1,5.4261-4.5391c.1565-.1044.47-.2609.47-.2609s-2.8174,5.0087-2.8174,9.0261c0,6.0522,3.2348,10.5391,7.4087,15.5478.9913,1.2,2.087,2.4522,3.1826,3.7566C105.4433,68.4837,111.965,77.0924,111.965,86.4837Z"/><path class="b" d="M85.4608,72.3446c-1.3044-2.6608-4.8522-8.4-6.1044-14.4521C73.2,66.1359,68.0347,73.2316,68.0347,82.7272c0,10.8522,6.4174,16.8,13.6174,16.8,5.0087,0,10.8-3.3391,10.8-10.6434C92.4521,82.4664,88.6434,78.71,85.4608,72.3446ZM77.9477,95.04c-1.67,0-3.6522-.9392-5.53-4.5913-1.6174-3.13-1.7739-6.1044-1.8783-9.4957,3.5478,8.9739,5.5826,9.5478,7.3044,10.8522C79.93,93.3707,79.1477,95.04,77.9477,95.04Z"/><path class="b" d="M150,135.997c0,10.591-26.87,19.148-60,19.148s-60-8.557-60-19.148c0-6.313,9.6-11.9481,24.4174-15.3915-6.6261,2.5565-10.5913,5.8956-10.5913,9.4955,0,8.191,20.6609,14.87,46.1739,14.87s46.174-6.679,46.174-14.87c0-3.6-3.965-6.8868-10.5914-9.4955C140.4,124.1011,150,129.684,150,135.997Z"/><path class="c" d="M129.9651,128.171c0,6.991-17.8956,12.626-39.9652,12.626s-39.9652-5.635-39.9652-12.626c0-4.1743,6.4174-7.8786,16.2782-10.1743-4.4348,1.7217-7.0956,3.8609-7.0956,6.2609,0,5.4264,13.7739,9.8084,30.7826,9.8084s30.7826-4.382,30.7826-9.8084c0-2.4-2.6609-4.5392-7.0957-6.2609C123.5477,120.2924,129.9651,123.9967,129.9651,128.171Z"/><path class="a" d="M113.5827,123.84c0,4.1217-10.5913,7.4607-23.5826,7.4607-13.0435,0-23.5826-3.339-23.5826-7.4607,0-2.4522,3.7565-4.6435,9.6-6-2.6087.9913-4.1218,2.2956-4.1218,3.7043,0,3.2348,8.1392,5.7914,18.1566,5.7914s18.1565-2.6088,18.1565-5.7914c0-1.4087-1.5652-2.713-4.1218-3.7043C109.8262,119.1968,113.5827,121.3881,113.5827,123.84Z"/></svg>