<svg xmlns="http://www.w3.org/2000/svg" viewBox="0 0 100 100"><defs><style>.a{fill:#497285;}</style></defs><title>icon_notebook</title><path class="a" d="M99.3385,90.0441c-.0308-.1246-.0692-.2491-.1077-.3737L89.4154,59.8649A3.9094,3.9094,0,0,0,85.8154,57H14.2a3.9094,3.9094,0,0,0-3.6,2.8649L.7615,89.7505l-.0462.16c0,.0089,0,.0089-.0077.0178A7.778,7.778,0,0,0,0,93.1848C0,96.9483,2.6384,100,5.8922,100H94.1a5.5257,5.5257,0,0,0,4.1691-1.993A7.3759,7.3759,0,0,0,100,93.1848,7.6708,7.6708,0,0,0,99.3385,90.0441Zm-5.9847,1.7972H6.6a2.896,2.896,0,0,1-2.5693-3.95l8.4153-25.615a3.6083,3.6083,0,0,1,3.3616-2.4645H84.2154a3.5988,3.5988,0,0,1,3.3539,2.4645l8.4,25.5438A2.9515,2.9515,0,0,1,93.3538,91.8413Z"/><polygon class="a" points="24.723 61.716 24.177 64.438 17.677 64.438 18.462 61.716 24.723 61.716"/><polygon class="a" points="32.885 61.716 32.554 64.438 25.754 64.438 26.3 61.716 32.885 61.716"/><polygon class="a" points="41.092 61.716 40.923 64.438 34.108 64.438 34.438 61.716 41.092 61.716"/><polygon class="a" points="49.231 61.716 49.231 64.438 42.469 64.438 42.638 61.716 49.231 61.716"/><polygon class="a" points="57.531 64.438 50.769 64.438 50.769 61.716 57.362 61.716 57.531 64.438"/><polygon class="a" points="65.892 64.438 59.077 64.438 58.908 61.716 65.561 61.716 65.892 64.438"/><polygon class="a" points="74.246 64.438 67.446 64.438 67.115 61.716 73.7 61.716 74.246 64.438"/><polygon class="a" points="82.323 64.438 75.823 64.438 75.277 61.716 81.538 61.716 82.323 64.438"/><polygon class="a" points="83.346 67.997 76.531 67.997 76 65.328 82.577 65.328 83.346 67.997"/><polygon class="a" points="74.954 67.997 67.877 67.997 67.554 65.328 74.423 65.328 74.954 67.997"/><polygon class="a" points="86.923 80.4 79.008 80.4 78.308 76.894 85.915 76.894 86.923 80.4"/><polygon class="a" points="77.431 80.4 69.385 80.4 68.954 76.894 76.731 76.894 77.431 80.4"/><polygon class="a" points="67.831 80.4 60.038 80.4 59.823 76.894 67.4 76.894 67.831 80.4"/><polygon class="a" points="58.492 80.4 50.769 80.4 50.769 76.894 58.277 76.894 58.492 80.4"/><polygon class="a" points="49.231 76.894 49.231 80.4 41.508 80.4 41.723 76.894 49.231 76.894"/><polygon class="a" points="40.177 76.894 39.962 80.4 32.169 80.4 32.6 76.894 40.177 76.894"/><polygon class="a" points="31.046 76.894 30.615 80.4 22.569 80.4 23.269 76.894 31.046 76.894"/><polygon class="a" points="21.692 76.894 20.992 80.4 13.077 80.4 14.085 76.894 21.692 76.894"/><polygon class="a" points="22.577 72.445 21.869 76.004 14.346 76.004 15.369 72.445 22.577 72.445"/><polygon class="a" points="31.585 72.445 31.154 76.004 23.446 76.004 24.161 72.445 31.585 72.445"/><polygon class="a" points="40.446 72.445 40.231 76.004 32.708 76.004 33.138 72.445 40.446 72.445"/><polygon class="a" points="49.231 72.445 49.231 76.004 41.777 76.004 41.992 72.445 49.231 72.445"/><polygon class="a" points="58.223 76.004 50.769 76.004 50.769 72.445 58.008 72.445 58.223 76.004"/><polygon class="a" points="67.292 76.004 59.769 76.004 59.554 72.445 66.861 72.445 67.292 76.004"/><polygon class="a" points="76.554 76.004 68.846 76.004 68.415 72.445 75.839 72.445 76.554 76.004"/><polygon class="a" points="85.654 76.004 78.131 76.004 77.423 72.445 84.631 72.445 85.654 76.004"/><polygon class="a" points="84.377 71.556 77.246 71.556 76.708 68.887 83.608 68.887 84.377 71.556"/><polygon class="a" points="75.662 71.556 68.308 71.556 67.985 68.887 75.131 68.887 75.662 71.556"/><polygon class="a" points="66.754 71.556 59.5 71.556 59.338 68.887 66.431 68.887 66.754 71.556"/><polygon class="a" points="57.954 71.556 50.769 71.556 50.769 68.887 57.792 68.887 57.954 71.556"/><polygon class="a" points="49.231 68.887 49.231 71.556 42.046 71.556 42.208 68.887 49.231 68.887"/><polygon class="a" points="40.662 68.887 40.5 71.556 33.246 71.556 33.569 68.887 40.662 68.887"/><polygon class="a" points="32.015 68.887 31.692 71.556 24.338 71.556 24.869 68.887 32.015 68.887"/><polygon class="a" points="23.292 68.887 22.754 71.556 15.623 71.556 16.392 68.887 23.292 68.887"/><polygon class="a" points="24 65.328 23.469 67.997 16.654 67.997 17.423 65.328 24 65.328"/><polygon class="a" points="32.446 65.328 32.123 67.997 25.046 67.997 25.577 65.328 32.446 65.328"/><polygon class="a" points="40.869 65.328 40.715 67.997 33.677 67.997 34 65.328 40.869 65.328"/><polygon class="a" points="49.231 65.328 49.231 67.997 42.262 67.997 42.415 65.328 49.231 65.328"/><polygon class="a" points="57.738 67.997 50.769 67.997 50.769 65.328 57.585 65.328 57.738 67.997"/><polygon class="a" points="66.323 67.997 59.285 67.997 59.131 65.328 66 65.328 66.323 67.997"/><polygon class="a" points="60.385 89.4 39.615 89.4 40.385 82.282 59.615 82.282 60.385 89.4"/><path class="a" d="M80.5,3a5.0057,5.0057,0,0,1,5,5V49a5.0057,5.0057,0,0,1-5,5h-61a5.0057,5.0057,0,0,1-5-5V8a5.0057,5.0057,0,0,1,5-5h61m0-3h-61a8,8,0,0,0-8,8V49a8,8,0,0,0,8,8h61a8,8,0,0,0,8-8V8a8,8,0,0,0-8-8Z"/><path class="a" d="M49.96,29.7879a2.6353,2.6353,0,0,1,0-4.18L48,22.2279a2.0917,2.0917,0,0,1-.51.08,1.6406,1.6406,0,0,1-1.6-1.31h-5.6a.9787.9787,0,0,1-.92.65c-.07,0-.13-.01-.19-.01l-2.8,4.84a1.6089,1.6089,0,0,1,.56,1.23,1.6357,1.6357,0,0,1-.56,1.22l2.82,4.87a.8726.8726,0,0,1,.17-.02.9676.9676,0,0,1,.91.63h5.95a1.2885,1.2885,0,0,1,1.26-.98,1.3934,1.3934,0,0,1,.35.04l2.13-3.68Zm-9.18-8.14h4.58v.66H40.78Zm4.9,12.1H41.1v-.65h4.58Z"/><path class="a" d="M62.65,33.5079l-2.8-4.84c-.07,0-.13.01-.2.01a.9653.9653,0,0,1-.92-.65H54.14a2.6318,2.6318,0,0,1-2.6,2.29,2.3588,2.3588,0,0,1-1-.21h-.02l-2.12,3.68v.01a1.2928,1.2928,0,0,1,0,1.87l2.64,4.57a1.4143,1.4143,0,0,1,.5-.08,1.65,1.65,0,0,1,1.6,1.28h5.24a1.3086,1.3086,0,0,1,1.27-.98,1.18,1.18,0,0,1,.37.05l2.63-4.55a1.6392,1.6392,0,0,1,0-2.45Zm-4.61,7.27H53.47v-.65h4.57Zm3.08-7.15-2.29-3.96.57-.33,2.28,3.97Z"/><path class="a" d="M81.96,10.3679a4.982,4.982,0,0,0-4.96-4.4H23a4.9911,4.9911,0,0,0-4.96,4.42,3.6852,3.6852,0,0,0-.04.58v35a3.8129,3.8129,0,0,0,.04.59,4.99,4.99,0,0,0,4.96,4.41H77a4.9881,4.9881,0,0,0,4.96-4.39,4.0775,4.0775,0,0,0,.04-.61v-35A4.0323,4.0323,0,0,0,81.96,10.3679Zm-18.23,12.92a2.6951,2.6951,0,0,1-1.02-.21l-2.31,4a.9929.9929,0,0,1,.23.63.9073.9073,0,0,1-.23.61l2.81,4.86a1.7681,1.7681,0,0,1,.52-.08,1.635,1.635,0,1,1,0,3.27,1.496,1.496,0,0,1-.52-.09l-2.63,4.56a1.3505,1.3505,0,0,1,.38.93,1.3113,1.3113,0,0,1-2.58.32H53.14a1.6217,1.6217,0,0,1-1.6,1.34,1.6312,1.6312,0,0,1-1.07-2.87l-2.63-4.56a1.3425,1.3425,0,0,1-.35.04,1.2885,1.2885,0,0,1-1.26-.98H40.3a.9788.9788,0,0,1-.93.68.6771.6771,0,0,1-.2-.02l-2.79,4.85a1.6293,1.6293,0,1,1-1.08-.41,1.6984,1.6984,0,0,1,.51.08l2.8-4.86a.9783.9783,0,0,1,.02-1.26l-2.81-4.87a1.496,1.496,0,0,1-.52.09,1.635,1.635,0,0,1,0-3.27,1.7681,1.7681,0,0,1,.52.08l2.8-4.84a.9867.9867,0,0,1,.75-1.62.9653.9653,0,0,1,.92.65h5.6a1.6319,1.6319,0,0,1,1.6-1.3,1.7015,1.7015,0,0,1,.51.08l2.8-4.85a.9293.9293,0,0,1-.24-.63.98.98,0,1,1,.98.98c-.06,0-.12-.01-.17-.01l-2.8,4.83a1.641,1.641,0,0,1,.56,1.23,1.6245,1.6245,0,0,1-.56,1.23l1.95,3.39a2.65,2.65,0,0,1,1.02-.2,2.6231,2.6231,0,0,1,2.6,2.28h4.59a.9654.9654,0,0,1,.92-.65,1.342,1.342,0,0,1,.2.02l2.29-3.99a2.61,2.61,0,1,1,1.59.54Z"/></svg>