<svg xmlns="http://www.w3.org/2000/svg" viewBox="0 0 110 70"><defs><style>.a{fill:#497285;}</style></defs><title>icon_jc_en</title><path class="a" d="M105,50V60A10.0294,10.0294,0,0,1,95,70H15A10.0294,10.0294,0,0,1,5,60V50h5V60a4.9514,4.9514,0,0,0,5,5H29.2a42.6639,42.6639,0,0,0,9.9-15h5.3A46.303,46.303,0,0,1,36,65H52.5V50h5V65H74a48.2319,48.2319,0,0,1-8.4-15h5.3a41.784,41.784,0,0,0,9.9,15H95a4.9514,4.9514,0,0,0,5-5V50Z"/><path class="a" d="M105,10V20h-5V10a4.9514,4.9514,0,0,0-5-5H80.8a42.6639,42.6639,0,0,0-9.9,15H65.6A46.303,46.303,0,0,1,74,5H57.5V20h-5V5H36a48.2319,48.2319,0,0,1,8.4,15H39.1A41.784,41.784,0,0,0,29.2,5H15a4.9514,4.9514,0,0,0-5,5V20H5V10A10.0294,10.0294,0,0,1,15,0H95A10.0294,10.0294,0,0,1,105,10Z"/><path class="a" d="M100,29v3.5h8v5h-8V41a.8179.8179,0,0,1-1.2.7l-10.4-6a.7694.7694,0,0,1,0-1.4l10.4-6A.8179.8179,0,0,1,100,29Z"/><path class="a" d="M10,29v3.5H2v5h8V41a.818.818,0,0,0,1.2.7l10.4-6a.7694.7694,0,0,0,0-1.4l-10.4-6A.818.818,0,0,0,10,29Z"/><path class="a" d="M50.7087,37.5744q0,6.06-2.1064,7.5311-1.7311,1.2119-8.9161,1.2119-6.9828,0-8.8873-1.4139-2.164-1.5582-2.1641-7.3291h3.376a8.6344,8.6344,0,0,0,.7214,4.1839,3.3009,3.3009,0,0,0,2.4815,1.4139q.8079.1155,4.5014.1154,3.6645,0,4.4725-.1154a3.24,3.24,0,0,0,2.4526-1.385,8.9261,8.9261,0,0,0,.7214-4.2128V23.4355h3.3471Zm30.1264.5771q0,4.184-1.6159,6.06a6.5847,6.5847,0,0,1-4.4436,1.9621q-1.2118.1443-6.6078.1443a33.3282,33.3282,0,0,1-7.9062-.6348A5.6084,5.6084,0,0,1,56.3951,42.48q-1.01-2.3372-1.01-7.7331t1.0388-7.7908a5.6131,5.6131,0,0,1,3.8377-3.2029,33.55,33.55,0,0,1,7.9062-.6348q5.4248,0,6.6078.1443a6.6592,6.6592,0,0,1,4.4436,1.9333q1.6159,1.8755,1.6159,6.0883h-3.376q0-3.7223-1.5582-4.4725-1.2984-.6636-7.7331-.6636a36.2959,36.2959,0,0,0-6.2038.3174,3.4119,3.4119,0,0,0-2.6546,2.2218,21.8392,21.8392,0,0,0-.5482,6.06,20.4974,20.4974,0,0,0,.5771,6.0018A3.4114,3.4114,0,0,0,61.9929,42.97a36.347,36.347,0,0,0,6.1749.3174q6.3769,0,7.7043-.6348,1.587-.779,1.587-4.5013Z"/></svg>