<svg width="112" height="95" viewBox="0 0 112 95" fill="none" xmlns="http://www.w3.org/2000/svg">
<path d="M55.8468 28.1386C55.1584 27.6223 54.7282 26.7618 54.7282 25.8153C54.7282 24.8687 55.1584 24.0082 55.8468 23.4919L53.6956 19.7057C53.5235 19.7057 53.3514 19.7917 53.0932 19.7917C52.2327 19.7917 51.4582 19.1894 51.2861 18.3289H45.0044C44.8323 18.7591 44.4881 19.1033 43.9718 19.1033C43.8858 19.1033 43.7997 19.1033 43.7997 19.1033L40.7019 24.5245C41.0461 24.8687 41.3043 25.385 41.3043 25.9013C41.3043 26.4176 41.0461 26.9339 40.7019 27.2781L43.8858 32.6993C43.9718 32.6993 44.0579 32.6993 44.0579 32.6993C44.5742 32.6993 44.9184 32.9575 45.0905 33.3877H51.7164C51.8885 32.7854 52.4048 32.2691 53.0932 32.2691C53.2653 32.2691 53.3514 32.2691 53.4374 32.3551L55.8468 28.1386ZM45.6068 19.0173H50.7698V19.7917H45.6068V19.0173ZM51.114 32.6133H45.951V31.8388H51.114V32.6133Z" fill="#497285"/>
<path d="M70.0452 32.269L66.9474 26.8478C66.8614 26.8478 66.7753 26.8478 66.6893 26.8478C66.173 26.8478 65.8287 26.5897 65.6566 26.1594H60.4936C60.3215 27.6223 59.1168 28.7409 57.5679 28.7409C57.1376 28.7409 56.7934 28.6549 56.4492 28.4828L54.0398 32.6132C54.2979 32.8714 54.47 33.2156 54.47 33.6458C54.47 34.0761 54.2979 34.4203 54.0398 34.6784L56.9655 39.7554C57.1376 39.6694 57.3097 39.6694 57.5679 39.6694C58.4284 39.6694 59.2028 40.2717 59.3749 41.1322H65.2264C65.3985 40.5299 66.0008 40.0136 66.6893 40.0136C66.8614 40.0136 66.9474 40.0136 67.1195 40.0996L70.0452 35.0226C69.701 34.6784 69.4429 34.1621 69.4429 33.6458C69.4429 33.1295 69.701 32.6132 70.0452 32.269ZM64.8822 40.4438H59.8052V39.6694H64.8822V40.4438ZM68.3242 32.4411L65.7427 27.9665L66.3451 27.6223L68.9266 32.0969L68.3242 32.4411Z" fill="#497285"/>
<path d="M88.6322 5.16309H23.2337C20.8243 5.16309 18.9312 7.0562 18.9312 9.46562V43.8859C18.9312 46.2953 20.8243 48.1884 23.2337 48.1884H88.6322C91.0417 48.1884 92.9348 46.2953 92.9348 43.8859V9.46562C92.9348 7.0562 91.0417 5.16309 88.6322 5.16309ZM71.25 20.9104C70.8197 20.9104 70.4755 20.8243 70.1313 20.6522L67.5498 25.1269C67.7219 25.299 67.808 25.5571 67.808 25.8153C67.808 26.0734 67.7219 26.3316 67.5498 26.5037L70.6476 31.9249C70.8197 31.8388 70.9918 31.8388 71.25 31.8388C72.2826 31.8388 73.1431 32.6993 73.1431 33.6459C73.1431 34.6785 72.3687 35.4529 71.336 35.4529C71.1639 35.4529 70.9058 35.4529 70.7337 35.3669L67.808 40.4439C68.0661 40.702 68.2382 41.0462 68.2382 41.4765C68.2382 42.2509 67.5498 42.9394 66.7754 42.9394C66.0869 42.9394 65.4846 42.5091 65.3125 41.8207H59.461C59.2889 42.6812 58.6005 43.2836 57.654 43.2836C56.6214 43.2836 55.8469 42.423 55.8469 41.4765C55.8469 40.9602 56.1051 40.4439 56.4493 40.0997L53.5235 35.0227C53.4375 35.0227 53.2654 35.1087 53.0933 35.1087C52.4049 35.1087 51.8025 34.6785 51.7165 33.9901H45.0906C44.9185 34.4203 44.4882 34.7645 44.058 34.7645C43.9719 34.7645 43.8859 34.7645 43.7998 34.7645L40.702 40.1857C41.0462 40.5299 41.3043 41.0462 41.3043 41.5625C41.3043 42.5951 40.5299 43.3696 39.4973 43.3696C38.4647 43.3696 37.6902 42.5091 37.6902 41.5625C37.6902 40.5299 38.4647 39.7555 39.4973 39.7555C39.6694 39.7555 39.9275 39.7555 40.0996 39.8415L43.1975 34.4203C43.0254 34.2482 42.9393 33.9901 42.9393 33.7319C42.9393 33.4738 43.0254 33.2156 43.1975 33.0435L40.0996 27.5363C39.9275 27.6223 39.7554 27.6223 39.4973 27.6223C38.4647 27.6223 37.6902 26.7618 37.6902 25.8153C37.6902 24.7826 38.4647 24.0082 39.4973 24.0082C39.6694 24.0082 39.9275 24.0082 40.0996 24.0942L43.1975 18.673C43.0254 18.5009 42.9393 18.2428 42.9393 17.9846C42.9393 17.3823 43.4556 16.866 44.058 16.866C44.5743 16.866 44.9185 17.2102 45.0906 17.6404H51.3723C51.5444 16.7799 52.2328 16.1776 53.1793 16.1776C53.3514 16.1776 53.5235 16.1776 53.7817 16.2636L56.8795 10.8424C56.7074 10.6703 56.6214 10.4122 56.6214 10.154C56.6214 9.55167 57.1377 9.03537 57.74 9.03537C58.3424 9.03537 58.8587 9.55167 58.8587 10.154C58.8587 10.7564 58.3424 11.2727 57.74 11.2727C57.654 11.2727 57.5679 11.2727 57.5679 11.2727L54.4701 16.6939C54.9004 17.0381 55.0725 17.5544 55.0725 18.0707C55.0725 18.587 54.8143 19.1033 54.4701 19.4475L56.6214 23.2337C56.9656 23.0616 57.3958 22.9756 57.74 22.9756C59.2029 22.9756 60.4937 24.0942 60.6658 25.5571H65.8288C66.0009 25.1269 66.3451 24.7826 66.8614 24.7826C66.9475 24.7826 67.0335 24.7826 67.1196 24.7826L69.7011 20.308C69.0127 19.7917 68.5824 18.9312 68.5824 17.9846C68.5824 16.3497 69.8732 15.0589 71.5081 15.0589C73.1431 15.0589 74.4339 16.3497 74.4339 17.9846C74.1757 19.5336 72.885 20.9104 71.25 20.9104Z" fill="#497285"/>
<path d="M92.0742 2.58152C94.4837 2.58152 96.3768 4.47464 96.3768 6.88406V46.4674C96.3768 48.8768 94.4837 50.7699 92.0742 50.7699H19.7916C17.3822 50.7699 15.4891 48.8768 15.4891 46.4674V6.88406C15.4891 4.47464 17.3822 2.58152 19.7916 2.58152H92.0742ZM92.0742 0H19.7916C16.0054 0 12.9076 3.09783 12.9076 6.88406V46.4674C12.9076 50.2536 16.0054 53.3514 19.7916 53.3514H92.0742C95.8605 53.3514 98.9583 50.2536 98.9583 46.4674V6.88406C98.9583 3.09783 95.8605 0 92.0742 0Z" fill="#497285"/>
<path d="M111.091 85.2763C111.091 85.1902 111.005 85.0181 111.005 84.9321L99.9909 56.1051C99.3886 54.4701 97.7536 53.3514 95.9465 53.3514H15.9194C14.1123 53.3514 12.5634 54.4701 11.875 56.1051L0.860507 85.0181C0.860507 85.1042 0.860507 85.1042 0.774456 85.1902C0.258152 86.1368 0 87.1694 0 88.3741C0 91.9882 2.92572 95 6.62591 95H105.326C107.133 95 108.768 94.2255 109.973 93.1069C111.178 91.9022 111.952 90.2672 111.952 88.4601C111.866 87.2554 111.608 86.2228 111.091 85.2763ZM104.466 87.0833H7.40036C5.24909 87.0833 3.78623 85.1042 4.56069 83.2971L13.9402 58.5145C14.5426 57.0516 16.0054 56.1051 17.7264 56.1051H94.2255C95.8605 56.1051 97.4094 57.0516 98.0118 58.5145L107.391 83.211C108.166 85.0181 106.617 87.0833 104.466 87.0833Z" fill="#497285"/>
<path d="M27.6224 57.9121L27.0201 60.5797H19.7918L20.6523 57.9121H27.6224Z" fill="#497285"/>
<path d="M36.7436 57.9121L36.3994 60.5797H28.8269L29.4293 57.9121H36.7436Z" fill="#497285"/>
<path d="M45.9512 57.9121L45.7791 60.5797H38.1206L38.5509 57.9121H45.9512Z" fill="#497285"/>
<path d="M55.0725 57.9121V60.5797H47.5L47.6721 57.9121H55.0725Z" fill="#497285"/>
<path d="M64.3659 60.5797H56.7934V57.9121H64.1938L64.3659 60.5797Z" fill="#497285"/>
<path d="M73.7454 60.5797H66.0869L65.9148 57.9121H73.3152L73.7454 60.5797Z" fill="#497285"/>
<path d="M83.039 60.5797H75.4665L75.0363 57.9121H82.4366L83.039 60.5797Z" fill="#497285"/>
<path d="M92.0743 60.5797H84.846L84.2437 57.9121H91.2138L92.0743 60.5797Z" fill="#497285"/>
<path d="M93.1929 64.0217H85.6205L85.0181 61.4402H92.3324L93.1929 64.0217Z" fill="#497285"/>
<path d="M83.8134 64.0217H75.8967L75.5525 61.4402H83.211L83.8134 64.0217Z" fill="#497285"/>
<path d="M97.2372 75.9827H88.3739L87.5995 72.6267H96.1185L97.2372 75.9827Z" fill="#497285"/>
<path d="M86.6531 75.9827H77.6178L77.1015 72.6267H85.7926L86.6531 75.9827Z" fill="#497285"/>
<path d="M75.8968 75.9827H67.2057L66.9475 72.6267H75.3805L75.8968 75.9827Z" fill="#497285"/>
<path d="M65.3985 75.9827H56.7934V72.6267H65.2264L65.3985 75.9827Z" fill="#497285"/>
<path d="M55.0725 72.6267V75.9827H46.4674L46.6395 72.6267H55.0725Z" fill="#497285"/>
<path d="M44.9186 72.6267L44.6604 75.9827H35.9693L36.4856 72.6267H44.9186Z" fill="#497285"/>
<path d="M34.7646 72.6267L34.2483 75.9827H25.213L25.9875 72.6267H34.7646Z" fill="#497285"/>
<path d="M24.2663 72.6267L23.4918 75.9827H14.6286L15.7473 72.6267H24.2663Z" fill="#497285"/>
<path d="M25.213 68.3243L24.4385 71.7664H16.0056L17.2103 68.3243H25.213Z" fill="#497285"/>
<path d="M35.367 68.3243L34.8507 71.7664H26.2456L27.0201 68.3243H35.367Z" fill="#497285"/>
<path d="M45.2628 68.3243L45.0046 71.7664H36.5717L37.088 68.3243H45.2628Z" fill="#497285"/>
<path d="M55.0726 68.3243V71.7664H46.7256L46.9838 68.3243H55.0726Z" fill="#497285"/>
<path d="M65.1403 71.7664H56.7934V68.3243H64.8822L65.1403 71.7664Z" fill="#497285"/>
<path d="M75.2943 71.7664H66.8613L66.6031 68.3243H74.778L75.2943 71.7664Z" fill="#497285"/>
<path d="M85.6205 71.7664H77.0154L76.4991 68.3243H84.8461L85.6205 71.7664Z" fill="#497285"/>
<path d="M95.7743 71.7664H87.4274L86.5669 68.3243H94.6557L95.7743 71.7664Z" fill="#497285"/>
<path d="M94.3977 67.4637H86.395L85.7926 64.8821H93.5372L94.3977 67.4637Z" fill="#497285"/>
<path d="M84.674 67.4637H76.4131L76.0689 64.8821H84.0716L84.674 67.4637Z" fill="#497285"/>
<path d="M74.6921 67.4637H66.5173L66.3452 64.8821H74.3479L74.6921 67.4637Z" fill="#497285"/>
<path d="M64.7961 67.4637H56.7934V64.8821H64.624L64.7961 67.4637Z" fill="#497285"/>
<path d="M55.0724 64.8821V67.4637H47.0697L47.2418 64.8821H55.0724Z" fill="#497285"/>
<path d="M45.5209 64.8821L45.2627 67.4637H37.174L37.5182 64.8821H45.5209Z" fill="#497285"/>
<path d="M35.797 64.8821L35.4528 67.4637H27.192L27.7943 64.8821H35.797Z" fill="#497285"/>
<path d="M26.0733 64.8821L25.4709 67.4637H17.4682L18.3287 64.8821H26.0733Z" fill="#497285"/>
<path d="M26.8477 61.4402L26.2454 64.0217H18.5869L19.4474 61.4402H26.8477Z" fill="#497285"/>
<path d="M36.3134 61.4402L35.9692 64.0217H28.0526L28.5689 61.4402H36.3134Z" fill="#497285"/>
<path d="M45.693 61.4402L45.5209 64.0217H37.6903L38.0345 61.4402H45.693Z" fill="#497285"/>
<path d="M55.0723 61.4402V64.0217H47.2417L47.4138 61.4402H55.0723Z" fill="#497285"/>
<path d="M64.624 64.0217H56.7934V61.4402H64.4519L64.624 64.0217Z" fill="#497285"/>
<path d="M74.1757 64.0217H66.3451L66.173 61.4402H73.8316L74.1757 64.0217Z" fill="#497285"/>
<path d="M67.5498 84.6739H44.3161L45.1766 77.7898H66.6893L67.5498 84.6739Z" fill="#497285"/>
</svg>
