<svg xmlns="http://www.w3.org/2000/svg" viewBox="0 0 110 70"><defs><style>.a{fill:#497285;}</style></defs><title>icon_vhc_en</title><path class="a" d="M104.9931,12v8h-5V12a6.9569,6.9569,0,0,0-7-7h-76a7.02,7.02,0,0,0-7,7h3.5a.818.818,0,0,1,.7,1.2l-6,10.4a.7694.7694,0,0,1-1.4,0l-6-10.4a.818.818,0,0,1,.7-1.2h3.5v-.6a12.1044,12.1044,0,0,1,3.1-7.4,11.8634,11.8634,0,0,1,9-4h76A11.95,11.95,0,0,1,104.9931,12Z"/><path class="a" d="M108.4931,58h-3.5v.6a12.25,12.25,0,0,1-3,7.4,11.8634,11.8634,0,0,1-9,4h-76a12.0353,12.0353,0,0,1-12-12V50h5v8a6.9569,6.9569,0,0,0,7,7h76a7.02,7.02,0,0,0,7-7h-3.5a.818.818,0,0,1-.7-1.2l6-10.4a.7694.7694,0,0,1,1.4,0l6,10.4A.7854.7854,0,0,1,108.4931,58Z"/><path class="a" d="M39.921,23.4355,27.5712,46H23.56L11.3259,23.4355h3.4626L25.3205,42.97h.4905L36.3142,23.4355ZM67.2981,46h-3.376V36.0451H44.5028V46H41.1556V23.4355h3.3472v9.58H63.9221v-9.58h3.376Zm30.3531-7.8485q0,4.184-1.6159,6.06a6.5847,6.5847,0,0,1-4.4436,1.9621q-1.2118.1443-6.6078.1443a33.3282,33.3282,0,0,1-7.9062-.6348A5.6084,5.6084,0,0,1,73.2112,42.48q-1.01-2.3372-1.01-7.7331T73.24,26.9558a5.6131,5.6131,0,0,1,3.8377-3.2029,33.55,33.55,0,0,1,7.9062-.6348q5.4247,0,6.6078.1443a6.6592,6.6592,0,0,1,4.4436,1.9333q1.6159,1.8755,1.6159,6.0883h-3.376q0-3.7223-1.5582-4.4725-1.2984-.6636-7.7331-.6636a36.2959,36.2959,0,0,0-6.2038.3174,3.4119,3.4119,0,0,0-2.6546,2.2218,21.8392,21.8392,0,0,0-.5482,6.06,20.4974,20.4974,0,0,0,.5771,6.0018A3.4114,3.4114,0,0,0,78.809,42.97a36.347,36.347,0,0,0,6.1749.3174q6.3769,0,7.7043-.6348,1.587-.779,1.587-4.5013Z"/></svg>