<svg xmlns="http://www.w3.org/2000/svg" viewBox="0 0 110 70"><defs><style>.a{fill:#497285;}</style></defs><title>icon_jau</title><path class="a" d="M105,50V60A10.0294,10.0294,0,0,1,95,70H15A10.0294,10.0294,0,0,1,5,60V50h5V60a4.9514,4.9514,0,0,0,5,5H95a4.9514,4.9514,0,0,0,5-5V50Z"/><path class="a" d="M105,10V20h-5V10a4.9514,4.9514,0,0,0-5-5H15a4.9514,4.9514,0,0,0-5,5V20H5V10A10.0294,10.0294,0,0,1,15,0H95A10.0294,10.0294,0,0,1,105,10Z"/><path class="a" d="M25,19a2.5,2.5,0,1,0-2.5-2.5A2.5,2.5,0,0,0,25,19Z"/><path class="a" d="M35,19a2.5,2.5,0,1,0-2.5-2.5A2.5,2.5,0,0,0,35,19Z"/><path class="a" d="M45,19a2.5,2.5,0,1,0-2.5-2.5A2.5,2.5,0,0,0,45,19Z"/><path class="a" d="M55,19a2.5,2.5,0,1,0-2.5-2.5A2.5,2.5,0,0,0,55,19Z"/><path class="a" d="M65,19a2.5,2.5,0,1,0-2.5-2.5A2.5,2.5,0,0,0,65,19Z"/><path class="a" d="M75,19a2.5,2.5,0,1,0-2.5-2.5A2.5,2.5,0,0,0,75,19Z"/><path class="a" d="M85,19a2.5,2.5,0,1,0-2.5-2.5A2.5,2.5,0,0,0,85,19Z"/><path class="a" d="M30,14a2,2,0,1,0-2-2A2,2,0,0,0,30,14Z"/><path class="a" d="M40,14a2,2,0,1,0-2-2A2,2,0,0,0,40,14Z"/><path class="a" d="M50,14a2,2,0,1,0-2-2A2,2,0,0,0,50,14Z"/><path class="a" d="M60,14a2,2,0,1,0-2-2A2,2,0,0,0,60,14Z"/><path class="a" d="M70,14a2,2,0,1,0-2-2A2,2,0,0,0,70,14Z"/><path class="a" d="M80,14a2,2,0,1,0-2-2A2,2,0,0,0,80,14Z"/><path class="a" d="M35,10a1.5,1.5,0,1,0-1.5-1.5A1.5,1.5,0,0,0,35,10Z"/><path class="a" d="M45,10a1.5,1.5,0,1,0-1.5-1.5A1.5,1.5,0,0,0,45,10Z"/><path class="a" d="M55,10a1.5,1.5,0,1,0-1.5-1.5A1.5,1.5,0,0,0,55,10Z"/><path class="a" d="M65,10a1.5,1.5,0,1,0-1.5-1.5A1.5,1.5,0,0,0,65,10Z"/><path class="a" d="M75,10a1.5,1.5,0,1,0-1.5-1.5A1.5,1.5,0,0,0,75,10Z"/><path class="a" d="M25,56a2.5,2.5,0,1,0-2.5-2.5A2.5,2.5,0,0,0,25,56Z"/><path class="a" d="M35,56a2.5,2.5,0,1,0-2.5-2.5A2.5,2.5,0,0,0,35,56Z"/><path class="a" d="M45,56a2.5,2.5,0,1,0-2.5-2.5A2.5,2.5,0,0,0,45,56Z"/><path class="a" d="M55,56a2.5,2.5,0,1,0-2.5-2.5A2.5,2.5,0,0,0,55,56Z"/><path class="a" d="M65,56a2.5,2.5,0,1,0-2.5-2.5A2.5,2.5,0,0,0,65,56Z"/><path class="a" d="M75,56a2.5,2.5,0,1,0-2.5-2.5A2.5,2.5,0,0,0,75,56Z"/><path class="a" d="M85,56a2.5,2.5,0,1,0-2.5-2.5A2.5,2.5,0,0,0,85,56Z"/><path class="a" d="M30,60a2,2,0,1,0-2-2A2,2,0,0,0,30,60Z"/><path class="a" d="M40,60a2,2,0,1,0-2-2A2,2,0,0,0,40,60Z"/><path class="a" d="M50,60a2,2,0,1,0-2-2A2,2,0,0,0,50,60Z"/><path class="a" d="M60,60a2,2,0,1,0-2-2A2,2,0,0,0,60,60Z"/><path class="a" d="M70,60a2,2,0,1,0-2-2A2,2,0,0,0,70,60Z"/><path class="a" d="M80,60a2,2,0,1,0-2-2A2,2,0,0,0,80,60Z"/><path class="a" d="M35,63a1.5,1.5,0,1,0-1.5-1.5A1.5,1.5,0,0,0,35,63Z"/><path class="a" d="M45,63a1.5,1.5,0,1,0-1.5-1.5A1.5,1.5,0,0,0,45,63Z"/><path class="a" d="M55,63a1.5,1.5,0,1,0-1.5-1.5A1.5,1.5,0,0,0,55,63Z"/><path class="a" d="M65,63a1.5,1.5,0,1,0-1.5-1.5A1.5,1.5,0,0,0,65,63Z"/><path class="a" d="M75,63a1.5,1.5,0,1,0-1.5-1.5A1.5,1.5,0,0,0,75,63Z"/><path class="a" d="M36.6619,38.1515q0,4.184-1.6159,6.06a6.5852,6.5852,0,0,1-4.4437,1.9621q-1.2118.1443-6.6077.1443a33.327,33.327,0,0,1-7.9062-.6348A5.5206,5.5206,0,0,1,12.2507,42.48q-1.0388-2.3372-1.0388-7.7331t1.0388-7.7908a5.6129,5.6129,0,0,1,3.8377-3.2029,33.55,33.55,0,0,1,7.9062-.6348q5.4536,0,6.6077.1443a6.66,6.66,0,0,1,4.4437,1.9333q1.6158,1.8755,1.6159,6.0883H33.2858q0-3.7223-1.5581-4.4725-1.2985-.6636-7.7331-.6636a36.6124,36.6124,0,0,0-6.2038.3174,3.4117,3.4117,0,0,0-2.6546,2.2218,21.838,21.838,0,0,0-.5483,6.06,20.5009,20.5009,0,0,0,.5771,6.0018A3.4246,3.4246,0,0,0,17.8485,42.97a35.7689,35.7689,0,0,0,6.1461.3174q6.377,0,7.7042-.6348,1.587-.779,1.587-4.5013ZM67.73,46H63.9211l-2.6546-5.0207H45.1655L42.5108,46H38.702L50.59,23.4355h5.2227Zm-7.935-7.9928L53.6488,26.119H52.812L46.6659,38.0072Zm40.3324-14.5717L89.48,41.9892Q87.2,46,81.92,46h-7.358V42.97h7.5023q2.8276,0,3.8088-1.8467L69.4546,23.4355h4.6168L87.72,38.44l8.57-15.0045Z"/></svg>