<svg width="16" height="16" viewBox="0 0 16 16" fill="none" xmlns="http://www.w3.org/2000/svg">
<path fill-rule="evenodd" clip-rule="evenodd" d="M0 12.7865V13.7143C0 14.9767 1.02335 16 2.28571 16H3.29284L1.62359 14.3307L3.2075 12.7468L6.46068 16H8C8.50918 16 9.00725 15.9524 9.49001 15.8615L4.79142 11.1629L6.37534 9.57898L11.8246 15.0283C14.3122 13.6717 16 11.033 16 8C16 4.96446 14.3093 2.3238 11.8183 0.96827L0 12.7865ZM9.48174 0.136955C9.00157 0.0470283 8.50628 0 8 0H6.45074L0 6.45074V9.6187L9.48174 0.136955ZM2.28571 0H3.2829L0 3.2829V2.28571C0 1.02335 1.02335 0 2.28571 0Z" fill="#94ADB9"/>
</svg>
