<svg xmlns="http://www.w3.org/2000/svg" viewBox="0 0 110 70"><defs><style>.a{fill:#497285;}</style></defs><title>icon_steam</title><path class="a" d="M105,0V20h-5V6.9L60,20H55V10a4.9514,4.9514,0,0,0-5-5H15a4.9514,4.9514,0,0,0-5,5V20H5V10A10.0294,10.0294,0,0,1,15,0H50A10.0294,10.0294,0,0,1,60,10v4.8Z"/><path class="a" d="M105,50V70L60,55.3V60A10.0294,10.0294,0,0,1,50,70H15A10.0294,10.0294,0,0,1,5,60V50h5V60a4.9514,4.9514,0,0,0,5,5H50a4.9514,4.9514,0,0,0,5-5V50h5l40,13.1V50Z"/><path class="a" d="M38.7872,47h-3.376V27.4941h-19.39V47H12.6736V24.4355H38.7872Zm31.88,0H66.8586L64.204,41.9793H48.103L45.4483,47H41.64L53.5277,24.4355H58.75Zm-7.935-7.9928L56.5863,27.119H55.75L49.6034,39.0072Zm35.0231-7.358a7.68,7.68,0,0,1-1.587,5.165,6.1615,6.1615,0,0,1-4.963,1.9622H76.3164V47H72.94V24.4355H91.35Q97.7555,24.4355,97.7555,31.6492Zm-3.376,0q0-4.155-3.2029-4.1551h-14.86v8.2525H91.2055Q94.38,35.7466,94.38,31.6492Z"/></svg>