<svg width="101" height="100" viewBox="0 0 101 100" fill="none" xmlns="http://www.w3.org/2000/svg">
<path d="M52.9222 16.1594C63.2642 16.1594 71.6402 24.5354 71.6402 34.8774C71.6402 45.2195 63.2642 53.5954 52.9222 53.5954C42.5801 53.5954 34.2041 45.2195 34.2041 34.8774C34.2041 24.5354 42.5801 16.1594 52.9222 16.1594ZM52.9222 14.5435C41.6913 14.5435 32.5882 23.6735 32.5882 34.8774C32.5882 46.0813 41.7183 55.2114 52.9222 55.2114C64.126 55.2114 73.2561 46.0813 73.2561 34.8774C73.2561 23.6735 64.153 14.5435 52.9222 14.5435Z" fill="#497285"/>
<path d="M87.9343 34.8775C87.9343 36.4395 87.8266 38.0016 87.638 39.5098C87.4764 40.7757 86.3722 41.6914 85.1064 41.6914H83.9752C82.8441 41.6914 81.8745 42.4185 81.5513 43.4958C80.9588 45.408 80.2047 47.2394 79.289 48.9631C78.7503 49.9596 78.9389 51.1716 79.7199 51.9526L80.5279 52.7606C81.4166 53.6493 81.5244 55.0768 80.7703 56.1002C78.885 58.551 76.6765 60.7595 74.1988 62.6717C73.7409 63.0218 73.2023 63.1834 72.6636 63.1834C72.0172 63.1834 71.3439 62.941 70.8591 62.4293L70.0512 61.6213C69.5664 61.1366 68.92 60.8942 68.2736 60.8942C67.8696 60.8942 67.4387 61.0019 67.0617 61.1904C66.2537 61.6213 65.4188 62.0253 64.557 62.3754C63.4527 61.7021 62.2677 61.1635 61.0288 60.8134C62.6717 60.3016 64.2876 59.6283 65.7958 58.8204C66.55 58.4164 67.4118 58.2009 68.2736 58.2009C69.6741 58.2009 70.9669 58.7396 71.9634 59.7361L72.6905 60.4632C74.8721 58.7665 76.8381 56.8004 78.5618 54.592L77.8346 53.8917C76.1918 52.2489 75.8416 49.7711 76.9459 47.7242C77.7808 46.1352 78.481 44.4654 78.9927 42.7417C79.666 40.5063 81.686 39.025 84.0022 39.025H85.0256C85.1872 37.6515 85.2949 36.2779 85.2949 34.8775C85.2949 33.5039 85.2141 32.1034 85.0256 30.7299H84.0022C81.686 30.7299 79.666 29.2217 78.9927 27.0132C78.481 25.2895 77.7808 23.6197 76.9459 22.0307C75.8416 19.9838 76.2187 17.5061 77.8346 15.8632L78.5618 15.136C76.8651 12.9545 74.899 10.9615 72.6905 9.26475L71.9634 9.99192C70.9669 10.9884 69.6741 11.5271 68.2736 11.5271C67.4118 11.5271 66.55 11.3116 65.7958 10.9076C64.2068 10.0458 62.537 9.37248 60.8134 8.83383C58.578 8.16052 57.0967 6.14059 57.0967 3.8244V2.8279C55.7231 2.66631 54.3496 2.55858 52.9491 2.55858C51.5486 2.55858 50.1751 2.63938 48.8015 2.8279V3.85133C48.8015 6.16752 47.2933 8.18745 45.0848 8.86076C43.3612 9.37248 41.6913 10.0727 40.1023 10.9346C39.3482 11.3385 38.4864 11.554 37.6246 11.554C36.2241 11.554 34.9313 11.0154 33.9348 10.0189L33.2076 9.29168C31.0261 10.9884 29.06 12.9545 27.3364 15.1629L28.0635 15.8901C29.7064 17.533 30.0565 20.0108 28.9523 22.0576C28.1174 23.6466 27.4172 25.3165 26.9055 27.0401C26.2321 29.2755 24.2122 30.7568 21.896 30.7568H20.8726C20.711 32.1304 20.6033 33.5039 20.6033 34.9044C20.6033 36.2779 20.6841 37.6784 20.8726 39.052H21.896C24.2122 39.052 26.2321 40.5602 26.9055 42.7687C27.4172 44.4923 28.1174 46.1621 28.9523 47.7511C29.9219 49.5826 29.7603 51.7371 28.5483 53.3262C27.7673 53.2454 26.9863 53.1915 26.1783 53.1915H24.9933C25.0741 53.0568 25.1818 52.9222 25.3164 52.8144L26.1244 52.0065C26.9055 51.2254 27.094 49.9865 26.5553 49.017C25.6396 47.2933 24.8586 45.4619 24.293 43.5497C23.9698 42.4724 23.0003 41.7452 21.8691 41.7452H20.7379C19.4721 41.7452 18.3679 40.8026 18.2063 39.5637C18.0178 38.0555 17.91 36.4934 17.91 34.9313C17.91 33.3423 18.0178 31.8072 18.2063 30.299C18.3679 29.0331 19.4721 28.1174 20.7379 28.1174H21.8691C23.0003 28.1174 23.9698 27.3903 24.293 26.313C24.8855 24.4008 25.6396 22.5694 26.5553 20.8457C27.094 19.8492 26.9055 18.6372 26.1244 17.8562L25.3164 17.0482C24.4277 16.1594 24.3199 14.732 25.0741 13.7086C26.9593 11.2308 29.1678 9.02235 31.6456 7.13709C32.1034 6.78696 32.6421 6.62537 33.1807 6.62537C33.8271 6.62537 34.5004 6.89469 34.9852 7.37948L35.7931 8.18745C36.2779 8.67223 36.9243 8.94156 37.5707 8.94156C37.9747 8.94156 38.4056 8.83383 38.7826 8.6453C40.5063 7.70267 42.3377 6.94856 44.2499 6.38298C45.3272 6.05979 46.0544 5.09022 46.0544 3.95906V2.8279C46.0544 1.56208 46.997 0.484783 48.2359 0.296256C49.7441 0.10773 51.3062 0 52.8683 0C54.4304 0 55.9925 0.10773 57.5007 0.296256C58.7665 0.457851 59.6822 1.53515 59.6822 2.8279V3.95906C59.6822 5.09022 60.4094 6.05979 61.4867 6.38298C63.3989 6.94856 65.2303 7.7296 66.9539 8.6453C67.331 8.86076 67.7619 8.94156 68.1659 8.94156C68.8123 8.94156 69.4587 8.69917 69.9434 8.18745L70.7514 7.37948C71.2362 6.89469 71.9095 6.62537 72.5559 6.62537C73.0945 6.62537 73.6332 6.78696 74.091 7.13709C76.5688 9.02235 78.7773 11.2308 80.6625 13.7086C81.4436 14.7051 81.3358 16.1325 80.4201 17.0482L79.6122 17.8562C78.8311 18.6372 78.6426 19.8492 79.1813 20.8457C80.097 22.5694 80.878 24.4008 81.4436 26.313C81.7668 27.3903 82.7363 28.1174 83.8675 28.1174H84.9986C86.2645 28.1174 87.3687 29.0601 87.5303 30.299C87.8266 31.7533 87.9343 33.2884 87.9343 34.8775Z" fill="#497285"/>
<path d="M54.5381 27.3902V34.9313C54.5381 35.443 54.3227 35.8739 53.9456 36.1702L49.2863 40.8295C48.9631 41.1526 48.5591 41.3142 48.1551 41.3142C47.7512 41.3142 47.3202 41.1526 46.9971 40.8295C46.3776 40.21 46.3776 39.1866 46.9971 38.5402L51.2793 34.231V27.3633C51.2793 26.4745 52.0065 25.7473 52.8952 25.7473C53.784 25.7473 54.5381 26.4745 54.5381 27.3902Z" fill="#497285"/>
<path d="M53.7301 21.6805H52.1142C51.3601 21.6805 50.7676 21.088 50.7676 20.3339C50.7676 19.5798 51.3601 18.9873 52.1142 18.9873H53.7301C54.4842 18.9873 55.0768 19.5798 55.0768 20.3339C55.0768 21.088 54.4842 21.6805 53.7301 21.6805Z" fill="#497285"/>
<path d="M42.0684 26.5015C41.7183 26.5015 41.3682 26.3668 41.1258 26.0975C40.5871 25.5588 40.5871 24.7239 41.1258 24.1853L42.2569 23.0541C42.7956 22.5155 43.6305 22.5155 44.1692 23.0541C44.7078 23.5928 44.7078 24.4277 44.1692 24.9663L43.038 26.0975C42.7687 26.3668 42.4185 26.5015 42.0684 26.5015Z" fill="#497285"/>
<path d="M38.3787 37.0321C37.6246 37.0321 37.032 36.4396 37.032 35.6855V34.0695C37.032 33.3154 37.6246 32.7229 38.3787 32.7229C39.1328 32.7229 39.7253 33.3154 39.7253 34.0695V35.6855C39.7253 36.4396 39.1328 37.0321 38.3787 37.0321Z" fill="#497285"/>
<path d="M43.1996 47.0779C42.8495 47.0779 42.4993 46.9432 42.2569 46.6739L41.1258 45.5428C40.5871 45.0041 40.5871 44.1692 41.1258 43.6305C41.6644 43.0919 42.4993 43.0919 43.038 43.6305L44.1692 44.7617C44.7078 45.3004 44.7078 46.1353 44.1692 46.6739C43.8998 46.9432 43.5497 47.0779 43.1996 47.0779Z" fill="#497285"/>
<path d="M53.7301 50.7676H52.1142C51.3601 50.7676 50.7676 50.1751 50.7676 49.421C50.7676 48.6669 51.3601 48.0743 52.1142 48.0743H53.7301C54.4842 48.0743 55.0768 48.6669 55.0768 49.421C55.0768 50.1751 54.4842 50.7676 53.7301 50.7676Z" fill="#497285"/>
<path d="M62.6448 47.0779C62.2947 47.0779 61.9445 46.9432 61.7021 46.6739C61.1635 46.1353 61.1635 45.3004 61.7021 44.7617L62.8333 43.6305C63.372 43.0919 64.2069 43.0919 64.7455 43.6305C65.2841 44.1692 65.2841 45.0041 64.7455 45.5428L63.6143 46.6739C63.3181 46.9432 62.968 47.0779 62.6448 47.0779Z" fill="#497285"/>
<path d="M67.4657 37.0321C66.7116 37.0321 66.1191 36.4396 66.1191 35.6855V34.0695C66.1191 33.3154 66.7116 32.7229 67.4657 32.7229C68.2198 32.7229 68.8123 33.3154 68.8123 34.0695V35.6855C68.8123 36.4396 68.2198 37.0321 67.4657 37.0321Z" fill="#497285"/>
<path d="M63.7759 26.5015C63.4258 26.5015 63.0757 26.3668 62.8333 26.0975L61.7021 24.9663C61.1635 24.4277 61.1635 23.5928 61.7021 23.0541C62.2408 22.5155 63.0757 22.5155 63.6143 23.0541L64.7455 24.1853C65.2841 24.7239 65.2841 25.5588 64.7455 26.0975C64.4762 26.3668 64.1261 26.5015 63.7759 26.5015Z" fill="#497285"/>
<path d="M93.1861 70.1589C93.0515 70.1589 92.9437 70.1589 92.8091 70.1589C91.7856 70.2127 89.7657 70.3743 87.7458 70.5359C87.2341 70.5898 86.8301 70.6167 86.6415 70.6167C81.9284 70.9668 78.5888 71.0476 75.0606 71.1284C73.0676 71.1823 71.0207 71.2362 68.5968 71.3169C67.8697 69.297 66.6308 67.4926 65.0418 66.0921C62.7794 64.0721 59.8169 62.8602 56.558 62.8602H41.2335C39.3482 60.6248 36.9513 58.7934 34.2311 57.5814C31.7802 56.4772 29.0601 55.8578 26.2052 55.8578H16.1594V55.0498C16.1594 54.161 15.4323 53.4338 14.5435 53.4338H1.61594C0.727175 53.4338 0 54.161 0 55.0498V87.3687C0 88.2574 0.727175 88.9846 1.61594 88.9846H14.5435C15.4323 88.9846 16.1594 88.2574 16.1594 87.3687V86.5607L39.1597 98.1686L39.2136 98.1955C41.826 99.4074 44.627 100 47.428 100C49.6634 100 51.9257 99.6229 54.0803 98.8419L54.188 98.8149L65.7689 92.7551C71.0207 90.1966 76.5419 88.1766 82.1977 86.7223L94.5866 83.9752H94.6135C97.7916 83.3557 100.189 80.5278 100.189 77.1613C100.189 73.283 97.0375 70.1589 93.1861 70.1589ZM93.9133 80.851L88.2306 82.1168L81.4975 83.5981H81.4436C75.5723 85.1063 69.8088 87.2071 64.3415 89.8734L52.8952 95.8524C48.8554 97.2529 44.4654 97.0643 40.5871 95.2868L16.1594 82.9517V59.1166H26.2052C30.1912 59.1166 33.8271 60.544 36.655 62.8871C37.7862 63.8297 38.7827 64.907 39.6445 66.119H56.558C61.3789 66.119 65.3919 69.701 66.0383 74.3603H41.0719C40.237 74.3603 39.5906 75.1144 39.7522 75.9763C39.8869 76.6226 40.4794 77.0536 41.1258 77.0536H68.0312C68.7584 77.0536 69.3779 76.461 69.3779 75.7339V75.6531C69.3779 75.276 69.3509 74.899 69.324 74.5219C71.4786 74.4411 73.3369 74.3872 75.1683 74.3603C78.7234 74.2795 82.09 74.1987 86.9109 73.8486C86.9378 73.8486 86.9917 73.8486 87.0455 73.8486C87.261 73.8217 87.6111 73.7947 88.042 73.7678C89.4694 73.6331 92.4859 73.3907 93.2131 73.3907C95.2868 73.3907 96.9836 75.0875 96.9836 77.1613C96.9567 78.9927 95.637 80.5278 93.9133 80.851Z" fill="#497285"/>
</svg>
