<svg width="16" height="16" viewBox="0 0 16 16" fill="none" xmlns="http://www.w3.org/2000/svg">
<path d="M8 0C3.58065 0 0 3.58065 0 8C0 12.4194 3.58065 16 8 16C12.4194 16 16 12.4194 16 8C16 3.58065 12.4194 0 8 0ZM11.7097 5.44194C11.5903 6.70645 11.0677 9.77742 10.8032 11.1935C10.6903 11.7935 10.471 11.9935 10.2581 12.0129C9.79355 12.0548 9.44194 11.7065 8.99032 11.4097C8.2871 10.9484 7.8871 10.6613 7.20645 10.2097C6.41613 9.69032 6.92903 9.40323 7.37742 8.93548C7.49677 8.8129 9.54193 6.95161 9.58064 6.78387C9.5871 6.76129 9.59032 6.68387 9.54193 6.64193C9.49355 6.6 9.42581 6.61613 9.37742 6.62581C9.30645 6.64086 8.18172 7.38387 6.00323 8.85484C5.68495 9.07419 5.3957 9.18064 5.13548 9.17419C4.84839 9.16774 4.3 9.0129 3.89032 8.88064C3.39032 8.71935 2.99032 8.63226 3.02581 8.35484C3.04301 8.21075 3.24194 8.06344 3.62258 7.9129C5.95376 6.89785 7.5086 6.22796 8.2871 5.90323C10.5097 4.98065 10.971 4.81935 11.271 4.8129C11.3387 4.8129 11.4839 4.82903 11.5806 4.90645C11.6438 4.96198 11.6841 5.03902 11.6935 5.12258C11.711 5.22808 11.7164 5.33522 11.7097 5.44194Z" fill="#94ADB9"/>
</svg>
