<svg width="88" height="110" viewBox="0 0 88 110" fill="none" xmlns="http://www.w3.org/2000/svg">
<path d="M87.6556 18.7956C87.5869 18.8643 87.4495 19.0018 87.312 19.0705C87.2433 19.0705 87.1746 19.1392 87.1059 19.1392L80.1649 21.8881L79.4776 22.163L81.2644 50.6141L79.9587 51.0952L79.6151 37.763L79.2028 51.37L78.1719 51.7824L77.7596 37.763L77.3472 51.7824L76.3164 51.37L75.9041 37.763L75.5605 51.0952L74.2547 50.6141L75.9728 23.4687L76.1102 21.6132V21.2696V20.8573C75.8354 20.7198 75.6292 20.5137 75.4917 20.3075C75.4917 20.3075 75.4917 20.2388 75.423 20.2388C74.942 19.689 74.6671 19.0018 74.6671 18.2458C74.6671 17.6273 74.8732 17.0088 75.2169 16.5278V16.459C75.3543 16.2529 75.423 16.0467 75.4917 15.7718C75.4917 15.7718 75.4917 15.7031 75.5605 15.7031V15.6344C75.5605 15.5656 75.6292 15.4282 75.6292 15.3595C75.6292 15.2907 75.6292 15.222 75.6979 15.1533C75.6979 15.0846 75.6979 14.9471 75.7666 14.8784C75.7666 14.741 75.7666 14.5348 75.7666 14.3974C75.7666 14.3286 75.7666 14.2599 75.7666 14.1912C75.7666 14.1225 75.7666 14.0537 75.7666 13.985C75.7666 13.8476 75.7666 13.7101 75.6979 13.5727C75.6979 13.504 75.6979 13.4352 75.6292 13.3665C75.6292 13.2978 75.5605 13.2291 75.5605 13.0916C75.5605 13.0229 75.4917 12.8855 75.4917 12.8167C75.4917 12.748 75.4917 12.748 75.423 12.6793C75.3543 12.6106 75.3543 12.5419 75.2856 12.4731V12.4044C75.2169 12.267 75.1481 12.1982 75.1481 12.1295C75.0794 12.0608 75.0107 11.9233 74.942 11.8546L74.8732 11.7859C74.8045 11.7172 74.7358 11.6485 74.7358 11.5797C74.5983 11.4423 74.4609 11.3048 74.3235 11.1674C74.186 11.03 73.9798 10.8925 73.8424 10.7551C73.705 10.6863 73.5675 10.5489 73.4301 10.4802C73.2926 10.4115 73.0864 10.3427 72.949 10.274C72.8116 10.2053 72.6054 10.1366 72.4679 10.1366C72.3992 10.1366 72.2618 10.0678 72.1931 10.0678C72.0556 10.0678 71.9869 9.99912 71.8494 9.99912C71.712 9.99912 71.5746 9.99912 71.3684 9.99912C71.0935 9.99912 70.8186 9.99912 70.5437 10.0678L71.2309 10.3427L72.3992 10.8238C72.3992 10.8238 72.3992 10.8238 72.4679 10.8238L73.0864 11.03C73.1552 11.03 73.1552 11.0987 73.2239 11.0987C74.3922 11.7172 75.2169 12.9542 75.2169 14.3974C75.2169 15.0846 75.0107 15.7718 74.6671 16.3216C74.4609 16.6652 74.3235 17.0088 74.2547 17.3524C74.186 17.5586 74.186 17.696 74.186 17.9022C74.186 18.0396 74.186 18.1084 74.186 18.2458C74.186 19.1392 74.5296 19.9639 75.0107 20.5824C75.1481 20.7885 75.3543 20.9947 75.5605 21.1322L75.423 23.6749L68.4133 26.4925V17.1463C68.4133 12.6793 55.7684 10.6176 44.0168 10.6176C32.2652 10.6176 19.6203 12.6793 19.6203 17.1463V26.5612L0.927755 19.1392C-0.309252 18.6581 -0.309252 17.0088 0.927755 16.5278L41.2679 0.515419C43.0547 -0.171806 44.9789 -0.171806 46.697 0.515419L67.1076 8.62467C68.3446 7.73128 69.8565 7.1815 71.4371 7.1815C75.0107 7.1815 77.9658 9.79295 78.5155 13.1604L78.7904 13.2978L79.4776 13.5727L86.9684 16.5278C88.068 16.8714 88.2741 18.1084 87.6556 18.7956Z" fill="#497285"/>
<path d="M79.4781 22.162L80.1653 21.8871L79.4781 22.162Z" fill="#497285"/>
<path d="M65.5956 34.5337C63.6027 35.9081 57.4176 37.6949 47.5903 38.0385C46.422 38.1073 45.2537 38.1073 43.948 38.1073C42.6423 38.1073 41.474 38.1073 40.3057 38.0385C30.5471 37.6949 24.362 35.9081 22.3004 34.5337C23.881 33.7777 27.8669 32.8156 33.9832 32.2658C36.8696 32.0597 40.1682 31.8535 43.948 31.8535C47.7277 31.8535 51.0264 31.991 53.9128 32.2658C60.0291 32.8156 64.015 33.7777 65.5956 34.5337Z" fill="#497285"/>
<path d="M66.3513 17.1468V32.6781C64.4271 31.716 61.3345 31.0975 58.1046 30.6851C52.057 29.9292 45.3909 29.8605 44.0164 29.8605C42.642 29.8605 35.9759 29.9292 29.9283 30.6851C26.6983 31.0975 23.6058 31.716 21.6816 32.6781V17.1468C21.6816 15.6349 29.5847 12.6798 44.0164 12.6798C58.4482 12.6798 66.3513 15.6349 66.3513 17.1468Z" fill="#497285"/>
<path opacity="0.5" d="M75.6295 12.6792C75.5608 12.6105 75.5608 12.473 75.4921 12.4043C75.5608 12.473 75.5608 12.5417 75.6295 12.6792Z" fill="#497285"/>
<path opacity="0.5" d="M75.6985 15.7711C75.6985 15.7711 75.6985 15.7024 75.7673 15.7024C75.6985 15.9773 75.5611 16.2522 75.4236 16.4583C75.5611 16.2522 75.6298 16.046 75.6985 15.7711Z" fill="#497285"/>
<path opacity="0.5" d="M78.9277 13.2295L78.5841 13.1608L78.9277 13.2295Z" fill="#497285"/>
<path d="M75.0801 11.6486L75.1682 11.7367C75.0801 11.7367 75.0801 11.7367 75.0801 11.6486Z" fill="#497285"/>
<path d="M22.0648 69.1469C24.0942 66.0146 26.7412 63.3675 29.8295 61.3381C32.3 59.7058 35.0795 58.5146 37.9912 57.8087C38.8295 57.5881 39.6677 57.4558 40.55 57.3234C41.7853 57.147 43.0206 57.0587 44.3 57.0587H44.3442C44.8736 57.0587 45.403 57.0587 45.9324 57.1028C52.4618 57.4999 58.3295 60.2352 62.7412 64.5146C63.1383 64.8675 63.4912 65.2646 63.8442 65.6617C64.6824 66.5881 65.4765 67.5587 66.1824 68.6175C66.6677 69.3234 67.153 70.0734 67.55 70.8675C69.6236 74.6175 70.7706 78.9411 70.7706 83.5293C70.7706 98.1322 58.903 110 44.3 110C29.6971 110 17.8295 98.1322 17.8295 83.5293C17.8295 78.2352 19.4177 73.294 22.0648 69.1469ZM44.3 106.029C56.7412 106.029 66.8 95.9705 66.8 83.5293C66.8 71.0881 56.7412 61.0293 44.3 61.0293C31.8589 61.0293 21.8 71.0881 21.8 83.5293C21.8 95.9705 31.903 106.029 44.3 106.029Z" fill="#497285"/>
<path d="M53.3882 53.4853C51.9324 53.4853 50.5647 53.7941 49.3294 54.3677C48.6235 54.2353 47.9177 54.1471 47.2118 54.0589C48.9765 52.8236 51.0941 52.1177 53.3882 52.1177C58.8588 52.1177 63.4029 56.2206 64.1088 61.5147C63.5794 61.0294 63.05 60.5883 62.4765 60.1471C61.2412 56.3089 57.6677 53.4853 53.3882 53.4853Z" fill="#497285"/>
<path d="M70.0647 64.4706C70.1088 63.9853 70.1529 63.4559 70.1529 62.9706C70.1529 62.4853 70.1088 61.9559 70.0647 61.4706C68.5206 61.4265 67.1971 60.4118 66.7559 58.9118C66.4912 58.0294 66.1382 57.1471 65.6971 56.3529C64.9471 54.9853 65.1676 53.3529 66.2265 52.2059C65.5647 51.4559 64.8588 50.75 64.1088 50.0882C63.4471 50.7059 62.5647 51.0588 61.6824 51.0588C61.1088 51.0588 60.4912 50.9265 59.9618 50.6176C59.1676 50.1765 58.2853 49.8235 57.4029 49.5588C55.9029 49.1176 54.8882 47.7941 54.8441 46.25C54.4029 46.2059 53.8735 46.2059 53.3882 46.2059C52.9029 46.2059 52.3735 46.2059 51.8882 46.25C51.8441 47.7941 50.8294 49.1176 49.3294 49.5588C48.4471 49.8235 47.5647 50.1765 46.7706 50.6176C46.2412 50.8824 45.6676 51.0588 45.05 51.0588C44.1235 51.0588 43.2853 50.7059 42.6235 50.0882C41.8735 50.75 41.1677 51.4559 40.5059 52.2059C40.9912 52.7353 41.3 53.3971 41.4324 54.1029C40.6824 54.1912 39.9765 54.2794 39.2265 54.4118C39.1824 54.1471 39.05 53.8824 38.8735 53.7059L38.4324 53.2647C37.9471 52.7794 37.9029 52.0294 38.3 51.4559C39.3147 50.1324 40.5059 48.9412 41.8735 47.8824C42.0941 47.7059 42.4029 47.6176 42.7118 47.6176C43.0647 47.6176 43.4176 47.75 43.6824 48.0147L44.1235 48.4559C44.3882 48.7206 44.7412 48.8529 45.0941 48.8529C45.3147 48.8529 45.5353 48.8088 45.7559 48.6765C46.6824 48.1912 47.6971 47.75 48.7118 47.4412C49.2853 47.2647 49.6824 46.7353 49.6824 46.1176V45.5441C49.6824 44.8382 50.1676 44.2647 50.8735 44.1765C51.7118 44.0441 52.55 44 53.3882 44C54.2265 44 55.0647 44.0441 55.9029 44.1765C56.5647 44.2647 57.0941 44.8382 57.0941 45.5441V46.1618C57.0941 46.7794 57.4912 47.3088 58.0647 47.4853C59.0794 47.7941 60.0941 48.2353 61.0206 48.7206C61.2412 48.8529 61.4618 48.8971 61.6824 48.8971C62.0353 48.8971 62.3882 48.7647 62.6529 48.5L63.0941 48.0588C63.3588 47.7941 63.7118 47.6618 64.0647 47.6618C64.3735 47.6618 64.6382 47.75 64.9029 47.9265C66.2265 48.9412 67.4176 50.1324 68.4765 51.5C68.9176 52.0294 68.8294 52.8235 68.3441 53.3088L67.9029 53.75C67.4618 54.1912 67.3735 54.8529 67.6824 55.3824C68.1676 56.3088 68.6088 57.3235 68.9176 58.3382C69.0941 58.9118 69.6235 59.3088 70.2412 59.3088H70.8147C71.5206 59.3088 72.0941 59.7941 72.1824 60.5C72.3147 61.2941 72.3588 62.1324 72.3588 62.9706C72.3588 63.8088 72.3147 64.6471 72.1824 65.4853C72.0941 66.1471 71.5206 66.6765 70.8147 66.6765H70.1971C69.7118 66.6765 69.2706 66.9412 69.05 67.3382C68.6529 66.6765 68.2118 66.0588 67.7265 65.4853C68.3441 64.8676 69.1824 64.5147 70.0647 64.4706Z" fill="#497285"/>
<path d="M28.2853 71.4853C28.5941 71.8383 29.0794 72.0589 29.5647 72.0589H30.3147C31.0647 72.0589 31.7265 72.5442 31.9471 73.2501C32.3441 74.5295 32.8294 75.7648 33.4471 76.9118C33.8 77.5736 33.6677 78.3677 33.1382 78.8971L32.6088 79.4265C31.9912 80.0442 31.9471 80.9706 32.4765 81.6324C33.7559 83.2648 35.2118 84.7648 36.8441 86C37.1529 86.2206 37.5059 86.353 37.8588 86.353C38.3 86.353 38.7412 86.1765 39.05 85.8677L39.5794 85.3383C39.8882 85.0295 40.3294 84.853 40.7706 84.853C41.0353 84.853 41.3441 84.9412 41.5647 85.0736C42.7118 85.6912 43.9471 86.2206 45.2265 86.5736C45.9324 86.7942 46.4177 87.4559 46.4177 88.2059V88.9559C46.4177 89.7942 47.0353 90.5442 47.8735 90.6324C48.8882 90.7648 49.9471 90.853 50.9618 90.853C52.0206 90.853 53.0353 90.7648 54.05 90.6324C54.8882 90.5 55.5059 89.7942 55.5059 88.9559V88.2059C55.5059 87.4559 55.9912 86.7942 56.6971 86.5736C57.9765 86.1765 59.2118 85.6912 60.3588 85.0736C60.6235 84.9412 60.8882 84.853 61.1529 84.853C61.5941 84.853 62.0353 85.0295 62.3441 85.3383L63.0059 85.9118C63.3147 86.2206 63.7559 86.3971 64.1529 86.3971C64.2853 85.603 64.3294 84.7648 64.3735 83.9265C64.3294 83.9706 64.2853 84.0148 64.2412 84.0148L64.0206 83.7942C63.2706 83.0442 62.3 82.6471 61.2853 82.6471C60.6235 82.6471 60.0059 82.8236 59.4324 83.0883C58.4177 83.6618 57.3147 84.103 56.1677 84.4559C54.4912 84.9412 53.3882 86.4412 53.3882 88.2059V88.5148C52.5941 88.603 51.8 88.6471 51.05 88.6471C50.3 88.6471 49.4618 88.603 48.7118 88.5148V88.2059C48.7118 86.4853 47.6088 84.9853 45.9324 84.4559C44.7853 84.103 43.7265 83.6618 42.6677 83.0883C42.0941 82.7795 41.4765 82.6471 40.8147 82.6471C39.7559 82.6471 38.7853 83.0442 38.0794 83.7942L37.8588 84.0148C36.6235 83.0442 35.5206 81.8971 34.5059 80.6618L34.7265 80.4412C35.9618 79.2059 36.2265 77.353 35.3882 75.853C34.8147 74.7942 34.3735 73.7353 34.0206 72.5883C33.5353 70.9118 32.0353 69.8089 30.2706 69.8089H30.0059C30.0059 69.6765 29.9618 69.5883 29.9618 69.4559C29.3441 70.1177 28.7706 70.7795 28.2853 71.4853Z" fill="#497285"/>
<path d="M37.6382 67.5149C37.6382 74.8825 43.6824 80.8825 51.05 80.8825C55.8147 80.8825 59.9618 78.4119 62.3441 74.6619C62.0353 74.0443 61.7265 73.4266 61.3294 72.8531C59.3882 76.559 55.5059 79.1178 51.05 79.1178C44.6529 79.1178 39.4471 73.9119 39.4471 67.4707C39.4471 66.2355 39.6676 65.0002 40.0206 63.8972C39.3588 64.0296 38.6971 64.2502 38.0353 64.4266C37.7706 65.4413 37.6382 66.456 37.6382 67.5149Z" fill="#497285"/>
<path d="M32.6089 99.8088C33.1383 100.162 33.6677 100.515 34.2412 100.868C36.0059 99.7647 38.0795 99.147 40.3295 99.147C43.7706 99.147 46.8589 100.647 48.9765 103.029C49.5942 102.897 50.2118 102.721 50.8295 102.5C48.3589 99.4117 44.5648 97.3823 40.2854 97.3823C37.4618 97.3823 34.8148 98.3088 32.6089 99.8088Z" fill="#497285"/>
<path d="M26.2118 92.1323C26.653 93.0588 27.1824 93.9411 27.756 94.7794C28.4177 95.3088 29.256 95.5735 30.0942 95.5735C30.756 95.5735 31.3736 95.397 31.9471 95.1323C32.9618 94.5588 34.0648 94.1176 35.2118 93.8088C36.8883 93.3235 37.9913 91.8235 37.9913 90.0588V89.75C38.7854 89.6617 39.5795 89.6176 40.3295 89.6176C41.1236 89.6176 41.9177 89.6617 42.6677 89.75V90.0588C42.6677 91.7794 43.7707 93.2794 45.4471 93.8088C46.5942 94.1617 47.653 94.6029 48.7118 95.1323C49.2854 95.4411 49.903 95.5735 50.5648 95.5735C51.6236 95.5735 52.5942 95.1764 53.3001 94.4264L53.5207 94.2058C54.756 95.1764 55.8589 96.3235 56.8736 97.5588L56.653 97.7794C55.9913 98.4411 55.5942 99.2794 55.5501 100.162C56.8736 99.2794 58.1089 98.2205 59.1677 97.0294C59.1236 96.8529 59.0354 96.7205 58.903 96.5441C57.6236 94.9117 56.1677 93.4117 54.5354 92.1764C54.2265 91.9558 53.8736 91.8235 53.5207 91.8235C53.0795 91.8235 52.6383 92 52.3295 92.3088L51.8001 92.8382C51.4913 93.147 51.0501 93.3235 50.6089 93.3235C50.3442 93.3235 50.0354 93.2794 49.8148 93.1029C48.6677 92.4853 47.4324 91.9558 46.153 91.6029C45.4471 91.3823 44.9618 90.7205 44.9618 89.9705V89.2205C44.9618 88.3823 44.3442 87.6323 43.506 87.5441C42.4913 87.4117 41.4324 87.3235 40.4177 87.3235C39.403 87.3235 38.3442 87.4117 37.3295 87.5441C36.4913 87.6764 35.8736 88.3823 35.8736 89.2205V89.9705C35.8736 90.7205 35.3883 91.3823 34.6824 91.6029C33.403 92 32.1677 92.4853 31.0207 93.1029C30.756 93.2353 30.4913 93.3235 30.2266 93.3235C29.7854 93.3235 29.3442 93.147 29.0354 92.8382L28.506 92.3088C28.153 92 27.756 91.8235 27.3148 91.8235C26.7854 91.8676 26.4766 91.9558 26.2118 92.1323Z" fill="#497285"/>
<path d="M6.05001 50.8825C6.05001 52.2942 6.57942 53.706 7.68236 54.7648L19.8588 66.9413C21.9324 63.8531 24.5794 61.206 27.6235 59.1325L15.4912 47.0001C13.3294 44.8383 9.84413 44.8383 7.68236 47.0001C6.57942 48.0589 6.05001 49.4707 6.05001 50.8825Z" fill="#497285"/>
</svg>
