<svg xmlns="http://www.w3.org/2000/svg" viewBox="0 0 100 100"><defs><style>.a{fill:#497285;}</style></defs><title>icon_experience_GOOD</title><path class="a" d="M52.8224,16.1594A18.718,18.718,0,1,1,34.14,34.8774,18.6948,18.6948,0,0,1,52.8224,16.1594Zm0-1.6159A20.334,20.334,0,1,0,73.1179,34.8774,20.3312,20.3312,0,0,0,52.8224,14.5435Z"/><path class="a" d="M87.7684,34.8775a37.5874,37.5874,0,0,1-.2957,4.6323,2.5279,2.5279,0,0,1-2.5269,2.1816h-1.129a2.5086,2.5086,0,0,0-2.4193,1.8044,31.58,31.58,0,0,1-2.2581,5.4673,2.5287,2.5287,0,0,0,.43,2.9895l.8065.808a2.58,2.58,0,0,1,.2419,3.34,36.1109,36.1109,0,0,1-6.5591,6.5715,2.5378,2.5378,0,0,1-3.3334-.2424l-.8063-.808a2.5,2.5,0,0,0-1.7743-.7271,2.7634,2.7634,0,0,0-1.21.2962,26.591,26.591,0,0,1-2.5,1.185,14.2039,14.2039,0,0,0-3.5215-1.562,27.351,27.351,0,0,0,4.758-1.993,5.2619,5.2619,0,0,1,2.4731-.62,5.1381,5.1381,0,0,1,3.6828,1.5352l.7258.7271a33.6167,33.6167,0,0,0,5.86-5.8712l-.7258-.7a5.1892,5.1892,0,0,1-.8871-6.1675,27.7093,27.7093,0,0,0,2.043-4.9825,5.1867,5.1867,0,0,1,5-3.7167h1.0215a35.42,35.42,0,0,0,.2688-4.1475,30.6948,30.6948,0,0,0-.2688-4.1476H83.8437a5.2193,5.2193,0,0,1-5-3.7167,27.7093,27.7093,0,0,0-2.043-4.9825,5.2294,5.2294,0,0,1,.8871-6.1675l.7258-.7272a32.717,32.717,0,0,0-5.86-5.8713l-.7258.7272a5.1381,5.1381,0,0,1-3.6828,1.5352,5.2619,5.2619,0,0,1-2.4731-.62,27.7224,27.7224,0,0,0-4.973-2.0738,5.194,5.194,0,0,1-3.71-5.0094V2.8279a35.2243,35.2243,0,0,0-4.14-.2693,30.2543,30.2543,0,0,0-4.14.2693V3.8513A5.2267,5.2267,0,0,1,45,8.8608a25.8855,25.8855,0,0,0-4.9731,2.0738,5.262,5.262,0,0,1-2.473.6194,5.1382,5.1382,0,0,1-3.6828-1.5351l-.7258-.7272a33.6167,33.6167,0,0,0-5.86,5.8712l.7258.7272a5.1892,5.1892,0,0,1,.8871,6.1675,27.7269,27.7269,0,0,0-2.043,4.9825,5.1867,5.1867,0,0,1-5,3.7167H20.8332a35.4218,35.4218,0,0,0-.2688,4.1476,30.7132,30.7132,0,0,0,.2688,4.1476h1.0215a5.2193,5.2193,0,0,1,5,3.7167,27.7259,27.7259,0,0,0,2.043,4.9824,5.1669,5.1669,0,0,1-.4033,5.5751,22.7776,22.7776,0,0,0-2.3655-.1347H24.9462a1.4177,1.4177,0,0,1,.3224-.3771l.8065-.8079a2.5345,2.5345,0,0,0,.43-2.9895,29.6014,29.6014,0,0,1-2.258-5.4673,2.5088,2.5088,0,0,0-2.4194-1.8045h-1.129a2.5512,2.5512,0,0,1-2.5268-2.1815,36.42,36.42,0,0,1,0-9.2647,2.5279,2.5279,0,0,1,2.5268-2.1816h1.129a2.5087,2.5087,0,0,0,2.4194-1.8044,31.58,31.58,0,0,1,2.258-5.4673,2.5286,2.5286,0,0,0-.43-2.9895l-.8065-.808a2.58,2.58,0,0,1-.2418-3.34,34.48,34.48,0,0,1,6.5591-6.5715,2.4986,2.4986,0,0,1,1.5322-.5117,2.59,2.59,0,0,1,1.8011.7541l.8064.808A2.5279,2.5279,0,0,0,37.5,8.9416a2.7628,2.7628,0,0,0,1.21-.2963,27.7549,27.7549,0,0,1,5.457-2.2623,2.5123,2.5123,0,0,0,1.8011-2.4239V2.8279A2.5737,2.5737,0,0,1,48.1449.2963a36.2233,36.2233,0,0,1,9.2473,0A2.51,2.51,0,0,1,59.57,2.8279V3.9591A2.5123,2.5123,0,0,0,61.3707,6.383a29.4853,29.4853,0,0,1,5.4569,2.2623,2.52,2.52,0,0,0,2.9839-.4578l.8064-.808a2.59,2.59,0,0,1,1.8011-.7541,2.4986,2.4986,0,0,1,1.5322.5117A34.4768,34.4768,0,0,1,80.51,13.7086a2.5224,2.5224,0,0,1-.2419,3.34l-.8064.808a2.5286,2.5286,0,0,0-.43,2.9895A29.6086,29.6086,0,0,1,81.29,26.313a2.5085,2.5085,0,0,0,2.4193,1.8044h1.1289a2.5514,2.5514,0,0,1,2.527,2.1816A23.0336,23.0336,0,0,1,87.7684,34.8775Z"/><path class="a" d="M54.4352,27.39v7.5411a1.5333,1.5333,0,0,1-.5914,1.2389L49.1933,40.83a1.591,1.591,0,0,1-1.129.4847,1.6294,1.6294,0,0,1-1.1559-2.774l4.2742-4.3092V27.3633a1.6192,1.6192,0,0,1,1.6128-1.616A1.6479,1.6479,0,0,1,54.4352,27.39Z"/><path class="a" d="M53.6287,21.6805H52.0159a1.3466,1.3466,0,0,1,0-2.6932h1.6128a1.3466,1.3466,0,0,1,0,2.6932Z"/><path class="a" d="M41.989,26.5015a1.26,1.26,0,0,1-.9408-.404,1.335,1.335,0,0,1,0-1.9122l1.129-1.1312a1.3509,1.3509,0,1,1,1.9087,1.9122l-1.1291,1.1312A1.3631,1.3631,0,0,1,41.989,26.5015Z"/><path class="a" d="M38.3063,37.0321a1.3324,1.3324,0,0,1-1.3442-1.3466V34.07a1.3442,1.3442,0,1,1,2.6883,0v1.616A1.3323,1.3323,0,0,1,38.3063,37.0321Z"/><path class="a" d="M43.1181,47.0779a1.26,1.26,0,0,1-.9409-.404l-1.129-1.1311a1.3509,1.3509,0,1,1,1.9086-1.9123l1.1291,1.1312a1.3352,1.3352,0,0,1,0,1.9122A1.3634,1.3634,0,0,1,43.1181,47.0779Z"/><path class="a" d="M53.6287,50.7676H52.0159a1.3467,1.3467,0,0,1,0-2.6933h1.6128a1.3467,1.3467,0,0,1,0,2.6933Z"/><path class="a" d="M62.5266,47.0779a1.26,1.26,0,0,1-.9409-.404,1.3352,1.3352,0,0,1,0-1.9122l1.1291-1.1312a1.3509,1.3509,0,0,1,1.9086,1.9123l-1.1291,1.1311A1.46,1.46,0,0,1,62.5266,47.0779Z"/><path class="a" d="M67.3384,37.0321a1.3323,1.3323,0,0,1-1.344-1.3466V34.07a1.3441,1.3441,0,1,1,2.6881,0v1.616A1.3323,1.3323,0,0,1,67.3384,37.0321Z"/><path class="a" d="M63.6556,26.5015a1.26,1.26,0,0,1-.9408-.404l-1.1291-1.1312a1.3509,1.3509,0,0,1,1.9086-1.9122l1.1291,1.1312a1.3354,1.3354,0,0,1,0,1.9122A1.3631,1.3631,0,0,1,63.6556,26.5015Z"/><path class="a" d="M93.01,70.1589H92.634c-1.0216.0538-3.0376.2154-5.0537.377-.5108.0539-.914.0808-1.1022.0808-4.7043.35-8.0376.4309-11.5591.5117-1.9892.0539-4.0323.1078-6.4516.1885A12.8317,12.8317,0,0,0,56.4513,62.86H41.1557a19.6351,19.6351,0,0,0-6.9892-5.2788,19.4365,19.4365,0,0,0-8.0107-1.7236H16.1289V55.05a1.6191,1.6191,0,0,0-1.6128-1.616H1.6129A1.6192,1.6192,0,0,0,0,55.05V87.3687a1.6192,1.6192,0,0,0,1.6129,1.6159H14.5161a1.6191,1.6191,0,0,0,1.6128-1.6159v-.808L39.0858,98.1686l.0538.0269a19.5659,19.5659,0,0,0,14.8387.6464l.1075-.027,11.559-6.06a86.7879,86.7879,0,0,1,16.3978-6.0328l12.3656-2.7471h.0268A6.9807,6.9807,0,0,0,93.01,70.1589Zm.7258,10.6921-5.6719,1.2658-6.72,1.4813H81.29a90.15,90.15,0,0,0-17.07,6.2753l-11.4247,5.979a16.44,16.44,0,0,1-12.2849-.5656L16.1289,82.9517V59.1166H26.1558a16.2722,16.2722,0,0,1,10.43,3.77A17.0324,17.0324,0,0,1,39.57,66.119H56.4513A9.5693,9.5693,0,0,1,65.9137,74.36H40.9944a1.3479,1.3479,0,0,0-1.3172,1.616,1.3847,1.3847,0,0,0,1.371,1.0773H67.9029a1.3439,1.3439,0,0,0,1.3441-1.32v-.0808c0-.3771-.0269-.7541-.0538-1.1312,2.1506-.0808,4.0054-.1347,5.8333-.1616,3.5484-.0808,6.9086-.1616,11.72-.5117h.1344c.2151-.0269.5645-.0539.9946-.0808,1.4247-.1347,4.4355-.3771,5.1614-.3771a3.7628,3.7628,0,0,1,.6988,7.46Z"/></svg>