<svg xmlns="http://www.w3.org/2000/svg" viewBox="0 0 110 70"><defs><style>.a{fill:#497285;}</style></defs><title>icon_steam_en</title><path class="a" d="M105.5352,0V20h-5V6.9l-40,13.1h-5V10a4.9514,4.9514,0,0,0-5-5h-35a4.9514,4.9514,0,0,0-5,5V20h-5V10a10.0294,10.0294,0,0,1,10-10h35a10.0294,10.0294,0,0,1,10,10v4.8Z"/><path class="a" d="M105.5352,50V70l-45-14.7V60a10.0294,10.0294,0,0,1-10,10h-35a10.0294,10.0294,0,0,1-10-10V50h5V60a4.9514,4.9514,0,0,0,5,5h35a4.9514,4.9514,0,0,0,5-5V50h5l40,13.1V50Z"/><path class="a" d="M19.1626,39.7962q0,4.0974-2.28,5.4247-1.8067,1.0677-7.57,1.0676-6.1724,0-7.9145-1.8178Q0,43.028,0,38.44H2.5163q0,3.1452,1.0753,4.0109,1.0109.8079,5.7424.8079,4.7745,0,5.8713-.5482a2.9255,2.9255,0,0,0,1.4625-2.9144q0-2.2506-1.0108-2.8855-.8388-.5482-5.7639-.5482-5.8713,0-7.8069-1.8756-1.527-1.5-1.527-5.1361,0-3.9531,1.8066-5.165Q4.0863,23.06,9.8931,23.06q5.7209,0,7.42,1.789,1.3765,1.4717,1.3764,5.6844H16.2377q0-2.8278-1.0969-3.6645Q14.13,26.09,9.8931,26.09a30.9846,30.9846,0,0,0-4.3658.1731A2.793,2.793,0,0,0,3.054,29.3508a3.4843,3.4843,0,0,0,1.3549,3.1451q1.2474.8369,6.366.8657,5.14.0288,6.4951.8945Q19.1626,35.468,19.1626,39.7962ZM38.83,26.4941H31.3021V46H28.7858V26.4941H21.2584V23.4355H38.83ZM57.022,46H40.9133V23.4355H57.022v3.0586H43.43v6.55H56.5273v3.03H43.43V42.97H57.022Zm24.3791,0H78.562l-1.9781-5.0207H64.5829L62.6043,46h-2.839l8.8608-22.5645h3.8928Zm-5.9144-7.9928L70.9058,26.119h-.6237L65.7012,38.0072ZM110,46h-2.4947V26.4941h-.4941L97.5907,46h-1.57l-9.42-19.5059h-.4725V46H83.6326V23.4355h4.4736l8.71,18.5248,8.7109-18.5248H110Z"/></svg>