<svg xmlns="http://www.w3.org/2000/svg" viewBox="0 0 180 180"><defs><style>.a{fill:#fbdb89;}.b{fill:#f4b459;}.c{fill:#e2574c;}.d{fill:#497285;}</style></defs><title>icon_pressure</title><path class="a" d="M46.13,94.2245l-1.0385.26c-6.3868-14.4352-2.8039-35.1014,10.0735-49.3289l5.2444,8.2042C50.5432,61.6155,43.2217,75.116,46.13,94.2245Z"/><path class="b" d="M125.3675,41.9358,108.5437,51.49c-5.6079-4.829-13.3447-7.9964-22.7951-8.1522a37.2716,37.2716,0,0,0-15.266,3.5828l-6.1272-9.71a51.5814,51.5814,0,0,1,27.728-8.2042C104.13,28.7987,116.1248,33.6278,125.3675,41.9358Z"/><path class="c" d="M139.4911,94.64l-24.3529-7.1137a27.7185,27.7185,0,0,0,3.7386-15.11L135.441,54.3978C141.9316,65.5617,144.2168,79.5815,139.4911,94.64Z"/><path class="d" d="M129.0539,48.0111,86.8387,71.8447a7.66,7.66,0,0,0-2.44,1.402,9.0625,9.0625,0,0,0,5.6079,16.2007,8.7786,8.7786,0,0,0,5.66-2.0251,8.93,8.93,0,0,0,1.8693-2.077l32.7129-35.7765A.9877.9877,0,0,0,129.0539,48.0111ZM90.0061,85.0337a4.6733,4.6733,0,1,1,4.6733-4.6732A4.6538,4.6538,0,0,1,90.0061,85.0337Z"/><path class="d" d="M128.95,150.927H51.0624a4.6735,4.6735,0,0,1,0-9.347H128.95a4.6735,4.6735,0,0,1,0,9.347Z"/><path class="d" d="M97.5354,122.316H93.1218V105.0249H86.8907V122.316H82.4771a1.0361,1.0361,0,0,0-.8827,1.5577l7.5291,13.0333a1.0687,1.0687,0,0,0,1.8174,0L98.47,123.8737A1.0664,1.0664,0,0,0,97.5354,122.316Z"/><path class="d" d="M68.9767,122.316H64.5631V112.2944H58.332V122.316H53.9184a1.0362,1.0362,0,0,0-.8827,1.5578l7.5291,13.0332a1.0687,1.0687,0,0,0,1.8174,0l7.5291-13.0332A1.0664,1.0664,0,0,0,68.9767,122.316Z"/><path class="d" d="M126.0944,122.316h-4.4137V112.2944H115.45V122.316h-4.4136a1.0362,1.0362,0,0,0-.8828,1.5578l7.5292,13.0332a1.0687,1.0687,0,0,0,1.8174,0l7.5291-13.0332A1.0664,1.0664,0,0,0,126.0944,122.316Z"/></svg>