<svg width="10" height="12" viewBox="0 0 10 12" fill="none" xmlns="http://www.w3.org/2000/svg">
<path d="M5.06858 11.7304C6.27405 10.2218 9.02335 6.56543 9.02335 4.51168C9.02335 2.02085 7.0025 0 4.51167 0C2.02085 0 0 2.02085 0 4.51168C0 6.56543 2.7493 10.2218 3.95477 11.7304C4.24379 12.0899 4.77956 12.0899 5.06858 11.7304ZM4.51167 3.00778C4.91053 3.00778 5.29305 3.16623 5.57509 3.44826C5.85712 3.7303 6.01557 4.11282 6.01557 4.51168C6.01557 4.91053 5.85712 5.29305 5.57509 5.57509C5.29305 5.85712 4.91053 6.01557 4.51167 6.01557C4.11282 6.01557 3.7303 5.85712 3.44826 5.57509C3.16623 5.29305 3.00778 4.91053 3.00778 4.51168C3.00778 4.11282 3.16623 3.7303 3.44826 3.44826C3.7303 3.16623 4.11282 3.00778 4.51167 3.00778Z" fill="#ECECEB"/>
</svg>
