<svg xmlns="http://www.w3.org/2000/svg" viewBox="0 0 130 110"><defs><style>.a{fill:#497285;}</style></defs><title>Logos_modern</title><path class="a" d="M64.9375,32.6105a3.4041,3.4041,0,0,1,0-5.4138l-2.55-4.3868a2.4035,2.4035,0,0,1-.66.1,2.1221,2.1221,0,0,1-2.08-1.695h-7.28a1.27,1.27,0,0,1-1.2.8475,1.9449,1.9449,0,0,1-.24-.02l-3.64,6.2811a2.0846,2.0846,0,0,1,.72,1.5853,2.1161,2.1161,0,0,1-.72,1.5852l3.66,6.3111a1.6367,1.6367,0,0,1,.22-.02,1.2689,1.2689,0,0,1,1.19.8076h7.73a1.6988,1.6988,0,0,1,2.09-1.2063h.01l2.76-4.7757Zm-11.93-10.5484h5.95V22.91h-5.95Zm6.37,15.683h-5.95v-.8475h5.95Z"/><path class="a" d="M81.4375,37.436l-3.64-6.2811a2.3,2.3,0,0,1-.26.02,1.2562,1.2562,0,0,1-1.2-.8475h-5.97a3.399,3.399,0,0,1-3.37,2.9711,3.1746,3.1746,0,0,1-1.31-.2692h-.02l-2.76,4.7657.01.01a1.6936,1.6936,0,0,1,0,2.4227l3.43,5.9223a1.974,1.974,0,0,1,.65-.1,2.1214,2.1214,0,0,1,2.07,1.655h6.82a1.7062,1.7062,0,0,1,1.65-1.2662,1.5981,1.5981,0,0,1,.48.07l3.42-5.9023a2.1052,2.1052,0,0,1,0-3.17Zm-5.99,9.4218h-5.95V46.01h5.95Zm4-9.2722-2.98-5.1346.74-.4287,2.97,5.1445Z"/><path class="a" d="M102.9976,5.98h-76a4.9943,4.9943,0,0,0-5,4.985v39.88a4.9943,4.9943,0,0,0,5,4.985h76a4.9944,4.9944,0,0,0,5-4.985v-39.88A4.9944,4.9944,0,0,0,102.9976,5.98Zm-20.16,18.2054a3.4315,3.4315,0,0,1-1.32-.2692l-3,5.1844a1.2662,1.2662,0,0,1,.29.8076,1.2056,1.2056,0,0,1-.29.7976l3.65,6.3011a2.1445,2.1445,0,0,1,.67-.11,2.1187,2.1187,0,1,1,0,4.2373,1.89,1.89,0,0,1-.67-.11l-3.42,5.9123a1.7,1.7,0,1,1-2.86,1.6152h-6.81a2.1216,2.1216,0,1,1-3.47-1.9841l-3.42-5.9123a1.762,1.762,0,0,1-.46.06,1.6834,1.6834,0,0,1-1.64-1.2761h-7.7a1.2819,1.2819,0,0,1-1.22.8874,1.0086,1.0086,0,0,1-.25-.03l-3.63,6.2812a2.127,2.127,0,1,1-1.4-.5284,2.0818,2.0818,0,0,1,.66.11l3.64-6.3011a1.2647,1.2647,0,0,1,.02-1.6351l-3.65-6.311a2.1473,2.1473,0,0,1-.67.11,2.1187,2.1187,0,1,1,0-4.2373,2.1443,2.1443,0,0,1,.67.11l3.64-6.2811a1.272,1.272,0,1,1,2.17-1.2463h7.28a2.1221,2.1221,0,0,1,2.08-1.6949,2.0829,2.0829,0,0,1,.66.11l3.64-6.2811a1.2709,1.2709,0,1,1,.97.4487,1.64,1.64,0,0,1-.23-.02l-3.64,6.2712a2.0973,2.0973,0,0,1,0,3.18l2.54,4.3968a3.438,3.438,0,0,1,1.33-.2593,3.39,3.39,0,0,1,3.37,2.9612h5.97a1.2562,1.2562,0,0,1,1.2-.8475,1.1592,1.1592,0,0,1,.26.03l2.98-5.1744a3.3972,3.3972,0,1,1,2.06.6979Z"/><path class="a" d="M107,2.991a4.9982,4.9982,0,0,1,5,4.9851V53.8385a4.9983,4.9983,0,0,1-5,4.9851H23a4.9983,4.9983,0,0,1-5-4.9851V7.9761A4.9982,4.9982,0,0,1,23,2.991h84M107,0H23a7.988,7.988,0,0,0-8,7.9761V53.8385a7.988,7.988,0,0,0,8,7.9761h84a7.9881,7.9881,0,0,0,8-7.9761V7.9761A7.9881,7.9881,0,0,0,107,0Z"/><path class="a" d="M129.14,98.8435c-.04-.14-.09-.2792-.14-.4188l-12.76-33.4a5.0039,5.0039,0,0,0-4.68-3.21H18.46a5.0039,5.0039,0,0,0-4.68,3.21L.99,98.5145l-.06.1794c0,.01,0,.01-.01.02A7.6492,7.6492,0,0,0,7.66,110H122.33a7.636,7.636,0,0,0,6.81-11.1565Zm-7.78,2.0139H8.58a3.31,3.31,0,0,1-3.34-4.4267L16.18,67.7268a4.68,4.68,0,0,1,4.37-2.7617h88.93a4.6656,4.6656,0,0,1,4.36,2.7617L124.76,96.351A3.3733,3.3733,0,0,1,121.36,100.8574Z"/><polygon class="a" points="32.14 67.099 31.43 70.15 22.98 70.15 24 67.099 32.14 67.099"/><polygon class="a" points="42.75 67.099 42.32 70.15 33.48 70.15 34.19 67.099 42.75 67.099"/><polygon class="a" points="53.42 67.099 53.2 70.15 44.34 70.15 44.77 67.099 53.42 67.099"/><polygon class="a" points="64 67.099 64 70.15 55.21 70.15 55.43 67.099 64 67.099"/><polygon class="a" points="74.79 70.15 66 70.15 66 67.099 74.57 67.099 74.79 70.15"/><polygon class="a" points="85.66 70.15 76.8 70.15 76.58 67.099 85.23 67.099 85.66 70.15"/><polygon class="a" points="96.52 70.15 87.68 70.15 87.25 67.099 95.81 67.099 96.52 70.15"/><polygon class="a" points="107.02 70.15 98.57 70.15 97.86 67.099 106 67.099 107.02 70.15"/><polygon class="a" points="108.35 74.138 99.49 74.138 98.8 71.147 107.35 71.147 108.35 74.138"/><polygon class="a" points="97.44 74.138 88.24 74.138 87.82 71.147 96.75 71.147 97.44 74.138"/><polygon class="a" points="113 88.036 102.71 88.036 101.8 84.108 111.69 84.108 113 88.036"/><polygon class="a" points="100.66 88.036 90.2 88.036 89.64 84.108 99.75 84.108 100.66 88.036"/><polygon class="a" points="88.18 88.036 78.05 88.036 77.77 84.108 87.62 84.108 88.18 88.036"/><polygon class="a" points="76.04 88.036 66 88.036 66 84.108 75.76 84.108 76.04 88.036"/><polygon class="a" points="64 84.108 64 88.036 53.96 88.036 54.24 84.108 64 84.108"/><polygon class="a" points="52.23 84.108 51.95 88.036 41.82 88.036 42.38 84.108 52.23 84.108"/><polygon class="a" points="40.36 84.108 39.8 88.036 29.34 88.036 30.25 84.108 40.36 84.108"/><polygon class="a" points="28.2 84.108 27.29 88.036 17 88.036 18.31 84.108 28.2 84.108"/><polygon class="a" points="29.35 79.123 28.43 83.111 18.65 83.111 19.98 79.123 29.35 79.123"/><polygon class="a" points="41.06 79.123 40.5 83.111 30.48 83.111 31.41 79.123 41.06 79.123"/><polygon class="a" points="52.58 79.123 52.3 83.111 42.52 83.111 43.08 79.123 52.58 79.123"/><polygon class="a" points="64 79.123 64 83.111 54.31 83.111 54.59 79.123 64 79.123"/><polygon class="a" points="75.69 83.111 66 83.111 66 79.123 75.41 79.123 75.69 83.111"/><polygon class="a" points="87.48 83.111 77.7 83.111 77.42 79.123 86.92 79.123 87.48 83.111"/><polygon class="a" points="99.52 83.111 89.5 83.111 88.94 79.123 98.59 79.123 99.52 83.111"/><polygon class="a" points="111.35 83.111 101.57 83.111 100.65 79.123 110.02 79.123 111.35 83.111"/><polygon class="a" points="109.69 78.126 100.42 78.126 99.72 75.135 108.69 75.135 109.69 78.126"/><polygon class="a" points="98.36 78.126 88.8 78.126 88.38 75.135 97.67 75.135 98.36 78.126"/><polygon class="a" points="86.78 78.126 77.35 78.126 77.14 75.135 86.36 75.135 86.78 78.126"/><polygon class="a" points="75.34 78.126 66 78.126 66 75.135 75.13 75.135 75.34 78.126"/><polygon class="a" points="64 75.135 64 78.126 54.66 78.126 54.87 75.135 64 75.135"/><polygon class="a" points="52.86 75.135 52.65 78.126 43.22 78.126 43.64 75.135 52.86 75.135"/><polygon class="a" points="41.62 75.135 41.2 78.126 31.64 78.126 32.33 75.135 41.62 75.135"/><polygon class="a" points="30.28 75.135 29.58 78.126 20.31 78.126 21.31 75.135 30.28 75.135"/><polygon class="a" points="31.2 71.147 30.51 74.138 21.65 74.138 22.65 71.147 31.2 71.147"/><polygon class="a" points="42.18 71.147 41.76 74.138 32.56 74.138 33.25 71.147 42.18 71.147"/><polygon class="a" points="53.13 71.147 52.93 74.138 43.78 74.138 44.2 71.147 53.13 71.147"/><polygon class="a" points="64 71.147 64 74.138 54.94 74.138 55.14 71.147 64 71.147"/><polygon class="a" points="75.06 74.138 66 74.138 66 71.147 74.86 71.147 75.06 74.138"/><polygon class="a" points="86.22 74.138 77.07 74.138 76.87 71.147 85.8 71.147 86.22 74.138"/><polygon class="a" points="78.5 98.121 51.5 98.121 52.5 90.145 77.5 90.145 78.5 98.121"/></svg>