<svg xmlns="http://www.w3.org/2000/svg" viewBox="0 0 200 250"><defs><style>.a{fill:#009aa4;}</style></defs><title>Card_schekinoazot</title><rect class="a" x="101.5489" y="86.7283" width="14.835" height="45.4939"/><polygon class="a" points="99.571 86.728 99.571 111.453 78.614 111.453 99.571 86.728"/><polygon class="a" points="141 105.519 118.362 132.222 118.362 105.519 141 105.519"/><polygon class="a" points="99.68 113.431 83.747 132.222 61 132.222 76.933 113.431 99.68 113.431"/><path class="a" d="M36.4109,141.3645v11.0362h5.22V141.3645H44.72v11.0362h2.03v4.8931H43.6609v-2.8963H25v-13.033h3.0891v11.0362h5.2326V141.3645Z"/><path class="a" d="M50.8021,152.4007h6.47v1.9968H47.9345v-13.033h9.3374v1.9968h-6.47v3.37H56.6v1.9968H50.8021Z"/><path class="a" d="M59.2874,154.3975v-13.033H62.19v5.9321h.0473l5.9821-5.9321H71.82l-6.61,6.4581,7.1548,6.5749H68.6455l-6.4086-5.8834H62.19v5.8834Z"/><path class="a" d="M92.2378,146.55h6.4937v-5.1859h2.94v13.033h-2.94v-5.5509H92.2378v5.5509H89.2107v-13.033h3.0271Z"/><path class="a" d="M118.8571,147.881a7.2235,7.2235,0,0,1-.5022,2.7323,5.9049,5.9049,0,0,1-1.4662,2.138,6.7143,6.7143,0,0,1-2.3668,1.393,10.5065,10.5065,0,0,1-6.3845,0,6.7147,6.7147,0,0,1-2.3667-1.393,5.9049,5.9049,0,0,1-1.4662-2.138,7.6824,7.6824,0,0,1,0-5.4646,5.9049,5.9049,0,0,1,1.4662-2.138,6.7147,6.7147,0,0,1,2.3667-1.393,10.5065,10.5065,0,0,1,6.3845,0,6.7143,6.7143,0,0,1,2.3668,1.393,5.9049,5.9049,0,0,1,1.4662,2.138A7.2239,7.2239,0,0,1,118.8571,147.881Zm-2.9209,0a5.7221,5.7221,0,0,0-.3463-2.08,4.1094,4.1094,0,0,0-.9583-1.4855,3.8891,3.8891,0,0,0-1.4547-.8864,5.9848,5.9848,0,0,0-3.6944,0,3.8891,3.8891,0,0,0-1.4547.8864,4.1068,4.1068,0,0,0-.9583,1.4855,6.4174,6.4174,0,0,0,0,4.1592,4.0608,4.0608,0,0,0,.9583,1.4806,3.9718,3.9718,0,0,0,1.4547.8864,5.891,5.891,0,0,0,3.6944,0,3.9718,3.9718,0,0,0,1.4547-.8864,4.0634,4.0634,0,0,0,.9583-1.4806A5.7221,5.7221,0,0,0,115.9362,147.881Z"/><path class="a" d="M163.9813,147.881a7.2235,7.2235,0,0,1-.5022,2.7323,5.9049,5.9049,0,0,1-1.4662,2.138,6.7143,6.7143,0,0,1-2.3668,1.393,10.5062,10.5062,0,0,1-6.3844,0,6.7143,6.7143,0,0,1-2.3668-1.393,5.9049,5.9049,0,0,1-1.4662-2.138,7.6824,7.6824,0,0,1,0-5.4646,5.9049,5.9049,0,0,1,1.4662-2.138,6.7143,6.7143,0,0,1,2.3668-1.393,10.5062,10.5062,0,0,1,6.3844,0,6.7143,6.7143,0,0,1,2.3668,1.393,5.9049,5.9049,0,0,1,1.4662,2.138A7.2239,7.2239,0,0,1,163.9813,147.881Zm-2.9209,0a5.7221,5.7221,0,0,0-.3463-2.08,4.1081,4.1081,0,0,0-.9583-1.4855,3.8891,3.8891,0,0,0-1.4547-.8864,5.9848,5.9848,0,0,0-3.6944,0,3.8891,3.8891,0,0,0-1.4547.8864,4.1081,4.1081,0,0,0-.9583,1.4855,6.4174,6.4174,0,0,0,0,4.1592,4.0621,4.0621,0,0,0,.9583,1.4806,3.9718,3.9718,0,0,0,1.4547.8864,5.891,5.891,0,0,0,3.6944,0,3.9718,3.9718,0,0,0,1.4547-.8864,4.0621,4.0621,0,0,0,.9583-1.4806A5.7221,5.7221,0,0,0,161.06,147.881Z"/><path class="a" d="M130.7512,151.0759H124.533l-1.6171,3.3216h-3.2207l6.2549-13.033h3.3664l6.2479,13.033h-3.1961Zm-3.1338-7.1853c-.5775,1.3632-2.4154,5.1885-2.4154,5.1885h4.8764s-1.8292-3.8331-2.4116-5.1885Z"/><path class="a" d="M137.1266,141.9684a11.82,11.82,0,0,1,4.5029-.8474,8.6834,8.6834,0,0,1,2.171.2483,4.8941,4.8941,0,0,1,1.6242.7209,3.2208,3.2208,0,0,1,1.0185,1.1591,3.3638,3.3638,0,0,1,.3538,1.5634,3.0306,3.0306,0,0,1-.1447.9546,2.7363,2.7363,0,0,1-.4128.7938,3.0449,3.0449,0,0,1-.6325.6234,3.52,3.52,0,0,1-.8148.4432v.039a3.3921,3.3921,0,0,1,1.7689.9984,2.6669,2.6669,0,0,1,.654,1.8556,3.6655,3.6655,0,0,1-.3538,1.5926,3.583,3.583,0,0,1-1.0935,1.31,5.6239,5.6239,0,0,1-1.8816.8912,9.96,9.96,0,0,1-2.7177.3263,10.9315,10.9315,0,0,1-2.4123-.2435,9.9307,9.9307,0,0,1-1.9083-.6234v-2.026a10.4682,10.4682,0,0,0,1.9673.6575,9.9711,9.9711,0,0,0,2.171.2191,6.639,6.639,0,0,0,1.49-.151,3.6747,3.6747,0,0,0,1.1043-.4286,1.9985,1.9985,0,0,0,.6861-.6721,1.7491,1.7491,0,0,0,.1019-1.5487,1.43,1.43,0,0,0-.44-.56,2.3327,2.3327,0,0,0-.8148-.39,4.632,4.632,0,0,0-1.26-.1462H138.908v-1.9968h2.6571a4.37,4.37,0,0,0,1.1847-.1364,2.1142,2.1142,0,0,0,.7719-.38,1.4324,1.4324,0,0,0,.4289-.58,1.9644,1.9644,0,0,0,.134-.7355,1.4862,1.4862,0,0,0-.6755-1.3,3.9225,3.9225,0,0,0-2.1656-.4627,10.4656,10.4656,0,0,0-2.01.2143,13.4472,13.4472,0,0,0-2.1067.5942Z"/><path class="a" d="M172.1751,154.3975h-2.7428V143.3613h-4.8361v-1.9968H177v1.9968h-4.8249Z"/><polygon class="a" points="73.318 154.398 73.318 141.364 76.32 141.364 76.32 151.295 83.074 141.364 86.731 141.364 86.731 154.398 83.711 154.398 83.741 144.479 76.978 154.398 73.318 154.398"/></svg>