<svg xmlns="http://www.w3.org/2000/svg" xmlns:xlink="http://www.w3.org/1999/xlink" viewBox="0 0 200 250"><defs><style>.a{fill:#ea4f28;opacity:0.6;}.b{fill:url(#a);}.c{fill:url(#b);}</style><radialGradient id="a" cx="36.84" cy="250.0613" r="50.9467" gradientTransform="scale(0.4482 0.4482)" gradientUnits="userSpaceOnUse"><stop offset="0" stop-color="#fff"/><stop offset="0.0221" stop-color="#f7f7f7"/><stop offset="0.2372" stop-color="#adadad"/><stop offset="0.4392" stop-color="#707070"/><stop offset="0.6221" stop-color="#3f3f3f"/><stop offset="0.7823" stop-color="#1d1d1d"/><stop offset="0.9138" stop-color="#080808"/><stop offset="1"/></radialGradient><radialGradient id="b" cx="47.82" cy="265.1395" r="46.0067" gradientTransform="scale(0.4482 0.4482)" gradientUnits="userSpaceOnUse"><stop offset="0" stop-color="#fed661"/><stop offset="0.15" stop-color="#f9cc47"/><stop offset="0.4285" stop-color="#f1bb1c"/><stop offset="0.5707" stop-color="#eeb40c"/><stop offset="0.6128" stop-color="#e4ac0b"/><stop offset="0.7764" stop-color="#c29308"/><stop offset="0.9113" stop-color="#ad8307"/><stop offset="1" stop-color="#a57d06"/></radialGradient></defs><title>Card_neftehimservis</title><path d="M53.78,114.86h2.5225v13.4454H53.78v-5.1667H49.8617v5.1667H47.3389V114.86h2.5228v5.1672H53.78Z"/><path d="M64.8179,120.0372H60.2031v1.6442H62.577v2.4892H60.2031v1.6442h4.6148v2.4892H57.6471V117.5477h7.1708Z"/><path d="M93.0532,120.0386H88.4384v1.6442h2.3739v2.4891H88.4384v1.6442h4.6148v2.4892H85.8824V117.549h7.1708Z"/><path d="M142.8011,120.0386h-4.6148v1.6442H140.56v2.4891h-2.3739v1.6442h4.6148v2.4892H135.63V117.549h7.1708Z"/><path d="M66.1625,118.8922H70.124V117.1h2.3854v1.7927h3.9612v8.0163H72.5094v1.8437H70.124v-1.8437H66.1625Zm2.3858,6.1612H70.124v-4.3172H68.5483Zm3.9611,0h1.5757v-4.3172H72.5094Z"/><path d="M77.3669,117.5477H84.986v2.69h-2.48v8.0659H79.8577v-8.0659H77.3669Z"/><path d="M103.81,114.8586l-2.381,6.7227,2.381,6.7227h-2.8716l-1.8343-5.4935h-.8963l-1.849,5.4935H93.5014l2.3811-6.7227-2.3811-6.7227h2.8569l1.849,5.0261h.8963l1.8343-5.0261Z"/><path d="M110.4009,117.5477h2.3722V128.304h-2.4188v-6.8814l-3.7365,6.8814h-2.36V117.5477h2.8672v5.97Z"/><path d="M168.216,117.5477h2.3722V128.304H168.17v-6.8814l-3.7366,6.8814h-2.36V117.5477H164.94v5.97Z"/><path d="M121.2449,117.5477h2.7327V128.304h-2.73v-6.4179l-2.2,4.0105-2.2-4.0105v6.4179h-2.73V117.5477H116.85l2.1972,4.2155Z"/><path d="M134.2819,118.8477h-2.6853v-1.3446h-3.3044v8.1375h3.3044v-1.3443l2.6853,0v4.0078h-8.96V114.8586h8.96Z"/><path d="M180,121.1871l-2.7316,0v-1.0758h-2.3618v5.6137h2.3618V124.65H180v3.6544h-7.619V117.5477H180Z"/><path d="M144.1457,117.5477h7.619v7.5193h-4.9593v3.237h-2.66Zm5.4077,5.4783v-2.9888h-2.748v2.9888Z"/><path d="M160.7283,117.5477v4.1337l-1.22,1.2445,1.22,1.2294v4.1487h-7.6191V117.5477Zm-2.3151,2.2422h-2.9886v2.0924h2.1484l.84-1.0477Zm0,6.126V124.84l-.8287-1.0166h-2.16v2.0924Z"/><path class="a" d="M43.3053,124.2717c0,3.9977-3.1686,9.21-8.0717,11.0073a19.4012,19.4012,0,0,0,.2286-2.344,11.2165,11.2165,0,0,0-.3944-3.3972,6.4014,6.4014,0,0,0-1.9093-3.0611,12.8139,12.8139,0,0,0-2.9624-1.7927c-1.9944-1.0263-4.1726-1.564-5.7681-2.7519a5.5912,5.5912,0,0,1-1.82-2.3619,9.9923,9.9923,0,0,1-.623-2.12,20.1222,20.1222,0,0,1,3.2135-4.4369c3.5092-3.666,6.0549-5.9474,12.1053-8.0134-2.1423,2.2409-1.99,2.9132-1.99,3.7108C35.3143,111.5837,43.3053,114.9361,43.3053,124.2717Z"/><path class="a" d="M34.9647,135.3775a10.5548,10.5548,0,0,1-3.312.5469,10.7091,10.7091,0,0,1-2.1737-.22,10.3719,10.3719,0,0,0-.2689-3.3478,5.6618,5.6618,0,0,0-1.3132-2.4158,9.2386,9.2386,0,0,0-2.1781-1.573,12.96,12.96,0,0,1-3.9619-2.7967,8.2959,8.2959,0,0,1-1.4656-3.8588v-.0046a11.1507,11.1507,0,0,1,.7619-2.2363c0-.0089,0-.0135.0045-.0179.1838-.4705.3944-.95.6364-1.4343a8.4025,8.4025,0,0,0,.2017,1.7838,5.9365,5.9365,0,0,0,1.7524,3.0431,11.19,11.19,0,0,0,2.9176,1.86c1.0084.4887,1.981.8964,2.9446,1.385a14.0377,14.0377,0,0,1,2.68,1.5328,5.5176,5.5176,0,0,1,1.7075,2.3216,13.2568,13.2568,0,0,1,.78,3.0386C34.8078,133.7732,34.8885,134.5709,34.9647,135.3775Z"/><path class="a" d="M29.0353,135.6062A11.8222,11.8222,0,0,1,20,124.2717c0-.0851,0-.1748.0045-.26a.2.2,0,0,1,.0045-.0492q.0134-.558.0806-1.1025c.0135.2285.0359.4615.0628.69a6.1732,6.1732,0,0,0,.8964,2.5186,7.0062,7.0062,0,0,0,1.9092,1.9183c.7305.511,1.479.9143,2.205,1.3535a8.54,8.54,0,0,1,1.972,1.349,5.0863,5.0863,0,0,1,1.2325,1.9406A13.638,13.638,0,0,1,29.0353,135.6062Z"/><path class="b" d="M43.3053,124.2717c0,3.9977-3.1686,9.21-8.0717,11.0073a19.4012,19.4012,0,0,0,.2286-2.344,11.2165,11.2165,0,0,0-.3944-3.3972,6.4014,6.4014,0,0,0-1.9093-3.0611,12.8139,12.8139,0,0,0-2.9624-1.7927c-1.9944-1.0263-4.1726-1.564-5.7681-2.7519a5.5912,5.5912,0,0,1-1.82-2.3619,9.9923,9.9923,0,0,1-.623-2.12,20.1222,20.1222,0,0,1,3.2135-4.4369c3.5092-3.666,6.0549-5.9474,12.1053-8.0134-2.1423,2.2409-1.99,2.9132-1.99,3.7108C35.3143,111.5837,43.3053,114.9361,43.3053,124.2717Z"/><path class="c" d="M34.9647,135.3775a10.5548,10.5548,0,0,1-3.312.5469,10.7091,10.7091,0,0,1-2.1737-.22,10.3719,10.3719,0,0,0-.2689-3.3478,5.6618,5.6618,0,0,0-1.3132-2.4158,9.2386,9.2386,0,0,0-2.1781-1.573,12.96,12.96,0,0,1-3.9619-2.7967,8.2959,8.2959,0,0,1-1.4656-3.8588v-.0046a11.1507,11.1507,0,0,1,.7619-2.2363c0-.0089,0-.0135.0045-.0179.1838-.4705.3944-.95.6364-1.4343a8.4025,8.4025,0,0,0,.2017,1.7838,5.9365,5.9365,0,0,0,1.7524,3.0431,11.19,11.19,0,0,0,2.9176,1.86c1.0084.4887,1.981.8964,2.9446,1.385a14.0377,14.0377,0,0,1,2.68,1.5328,5.5176,5.5176,0,0,1,1.7075,2.3216,13.2568,13.2568,0,0,1,.78,3.0386C34.8078,133.7732,34.8885,134.5709,34.9647,135.3775ZM28.3675,132.63A5.0863,5.0863,0,0,0,27.135,130.69a8.54,8.54,0,0,0-1.972-1.349c-.726-.4392-1.4745-.8425-2.205-1.3535a7.0062,7.0062,0,0,1-1.9092-1.9183,6.1732,6.1732,0,0,1-.8964-2.5186c-.0269-.2287-.0493-.4617-.0628-.69q-.0672.5445-.0806,1.1025a.2.2,0,0,0-.0045.0492c-.0045.0852-.0045.1749-.0045.26a11.8222,11.8222,0,0,0,9.0353,11.3345A13.638,13.638,0,0,0,28.3675,132.63Z"/><path d="M49.1176,134.3435v-.5865a4.2465,4.2465,0,0,0,.6465-.0372.607.607,0,0,0,.3265-.2.59.59,0,0,0,.1541-.4158.62.62,0,0,0-.2018-.4845.7545.7545,0,0,0-.5222-.1807.92.92,0,0,0-.8854.7444l-.7112-.1164a1.6965,1.6965,0,0,1,2.7132-.8569,1.2389,1.2389,0,0,1,.4013.9235.9719.9719,0,0,1-.5239.86,1.1761,1.1761,0,0,1,.6653,1.11,1.2081,1.2081,0,0,1-.4325.9646,1.8034,1.8034,0,0,1-1.21.37,1.5526,1.5526,0,0,1-1.75-1.3428l.7025-.15a1.119,1.119,0,0,0,.3891.6565,1.0484,1.0484,0,0,0,.6714.2329.9354.9354,0,0,0,.63-.2141.7186.7186,0,0,0,.0936-.9957.6737.6737,0,0,0-.337-.2389,2.9053,2.9053,0,0,0-.6486-.0482C49.2634,134.3391,49.2065,134.3409,49.1176,134.3435Z"/><path d="M54.8324,135.7948a2.7929,2.7929,0,0,1-.8.499,2.3192,2.3192,0,0,1-.8251.1453,1.6065,1.6065,0,0,1-1.1187-.3554,1.1746,1.1746,0,0,1-.3908-.9086,1.2081,1.2081,0,0,1,.1475-.5926,1.2219,1.2219,0,0,1,.3869-.43,1.8219,1.8219,0,0,1,.5383-.2455,5.391,5.391,0,0,1,.6653-.1121,6.8645,6.8645,0,0,0,1.3349-.2577q.0039-.1538.004-.1957a.8244.8244,0,0,0-.2123-.6442,1.2519,1.2519,0,0,0-.8522-.2539,1.325,1.325,0,0,0-.7795.1851,1.1286,1.1286,0,0,0-.372.6552l-.7318-.1a1.8145,1.8145,0,0,1,.3283-.7589,1.4423,1.4423,0,0,1,.6609-.4451,2.9557,2.9557,0,0,1,1.0022-.1558,2.6533,2.6533,0,0,1,.9192.133,1.213,1.213,0,0,1,.52.3349,1.1765,1.1765,0,0,1,.2328.5094,4.2086,4.2086,0,0,1,.0372.69v.9979a10.5409,10.5409,0,0,0,.0482,1.3205,1.6592,1.6592,0,0,0,.189.53h-.7816A1.5947,1.5947,0,0,1,54.8324,135.7948Zm-.0622-1.6719a5.4647,5.4647,0,0,1-1.2228.2827,2.8647,2.8647,0,0,0-.6526.15.6562.6562,0,0,0-.2954.2434.6615.6615,0,0,0,.1229.8543.9745.9745,0,0,0,.6631.2,1.5408,1.5408,0,0,0,.7694-.1891,1.1672,1.1672,0,0,0,.4946-.5173,1.8059,1.8059,0,0,0,.1208-.7484Z"/><path d="M56.5892,131.9236h.7484v1.9087a.7209.7209,0,0,0,.5012-.1374,2.9991,2.9991,0,0,0,.4219-.7984,3.173,3.173,0,0,1,.3576-.69.6847.6847,0,0,1,.316-.2245,2.0191,2.0191,0,0,1,.5738-.0582h.15v.6193l-.2079-.0039a.5564.5564,0,0,0-.3785.0871,2.2293,2.2293,0,0,0-.2662.5449,2.2689,2.2689,0,0,1-.3116.5987,1.26,1.26,0,0,1-.4368.3033,1.8061,1.8061,0,0,1,.948.8981l.8194,1.3682h-.8233l-.7983-1.3682a1.8629,1.8629,0,0,0-.4285-.5423.7279.7279,0,0,0-.4364-.1308v2.0413h-.7484Z"/><path d="M60.225,138.0313v-6.1077h.6819v.5738a1.6812,1.6812,0,0,1,.5449-.5051,1.4934,1.4934,0,0,1,.7357-.1685,1.7453,1.7453,0,0,1,.9979.291,1.7867,1.7867,0,0,1,.653.8211,2.9972,2.9972,0,0,1,.2206,1.1625,2.9562,2.9562,0,0,1-.2433,1.22,1.8366,1.8366,0,0,1-.7069.8316,1.8164,1.8164,0,0,1-.9751.2889,1.4049,1.4049,0,0,1-.6714-.158,1.5372,1.5372,0,0,1-.4889-.3992v2.1494Zm.6779-3.8751a1.92,1.92,0,0,0,.3453,1.26,1.0574,1.0574,0,0,0,.8356.4075,1.0811,1.0811,0,0,0,.8543-.4219,2.0016,2.0016,0,0,0,.3558-1.3078,1.95,1.95,0,0,0-.3475-1.264,1.0448,1.0448,0,0,0-.8294-.42,1.0778,1.0778,0,0,0-.846.4473A1.9985,1.9985,0,0,0,60.9029,134.1562Z"/><path d="M64.8836,131.9236h.7484v1.7257h.948a2.4281,2.4281,0,0,1,1.4286.3594,1.154,1.154,0,0,1,.5007.9917,1.2523,1.2523,0,0,1-.4176.9459,1.9066,1.9066,0,0,1-1.3366.393H64.8836Zm.7484,3.8h.7861a2.1569,2.1569,0,0,0,1.0145-.1746.5851.5851,0,0,0,.3037-.5449.7052.7052,0,0,0-.2249-.5112,1.4912,1.4912,0,0,0-.9935-.2246H65.632Zm3.4388-3.8h.7484v4.4157h-.7484Z"/><path d="M70.4906,131.9236h3.5885v.6193H72.6567v3.7964h-.7441v-3.7964h-1.422Z"/><path d="M74.3264,134.1317a2.2756,2.2756,0,0,1,.6819-1.8173,2.0556,2.0556,0,0,1,1.3888-.4906,1.9823,1.9823,0,0,1,1.4885.5965,2.2715,2.2715,0,0,1,.5777,1.6488,2.9188,2.9188,0,0,1-.2556,1.341,1.8068,1.8068,0,0,1-.744.7585,2.1677,2.1677,0,0,1-1.0666.27,1.9865,1.9865,0,0,1-1.4991-.5944A2.3753,2.3753,0,0,1,74.3264,134.1317Zm.7695,0a1.88,1.88,0,0,0,.37,1.27,1.2325,1.2325,0,0,0,1.8588-.0022,1.9274,1.9274,0,0,0,.37-1.2933,1.826,1.826,0,0,0-.372-1.2408,1.2334,1.2334,0,0,0-1.8566-.0022A1.8722,1.8722,0,0,0,75.0959,134.1317Z"/><path d="M82.27,134.9173l.7734.0958a1.8894,1.8894,0,0,1-.6776,1.0518,2.2965,2.2965,0,0,1-2.8006-.2224,2.3327,2.3327,0,0,1-.5677-1.6736,2.44,2.44,0,0,1,.5742-1.73,1.942,1.942,0,0,1,1.4881-.6154,1.8869,1.8869,0,0,1,1.447.6027,2.3947,2.3947,0,0,1,.5615,1.6964q0,.0669-.0039.2H79.7711a1.6941,1.6941,0,0,0,.4114,1.1143,1.2244,1.2244,0,0,0,.9231.3869,1.145,1.145,0,0,0,.7024-.2162A1.4333,1.4333,0,0,0,82.27,134.9173Zm-2.4576-1.21h2.4659a1.4954,1.4954,0,0,0-.2827-.8355,1.147,1.147,0,0,0-.927-.4324,1.1885,1.1885,0,0,0-.8671.3453A1.3652,1.3652,0,0,0,79.8122,133.7071Z"/><path d="M89.0428,135.7948a2.79,2.79,0,0,1-.8.499,2.3187,2.3187,0,0,1-.825.1453,1.6061,1.6061,0,0,1-1.1187-.3554,1.1747,1.1747,0,0,1-.3909-.9086,1.2092,1.2092,0,0,1,.1475-.5926,1.2219,1.2219,0,0,1,.3869-.43,1.8225,1.8225,0,0,1,.5384-.2455,5.3852,5.3852,0,0,1,.6652-.1121,6.8642,6.8642,0,0,0,1.335-.2577q.0039-.1538.0039-.1957a.8244.8244,0,0,0-.2123-.6442,1.2517,1.2517,0,0,0-.8521-.2539,1.3248,1.3248,0,0,0-.7795.1851,1.1281,1.1281,0,0,0-.3721.6552l-.7317-.1a1.8144,1.8144,0,0,1,.3282-.7589,1.4423,1.4423,0,0,1,.6609-.4451,2.9563,2.9563,0,0,1,1.0023-.1558,2.6531,2.6531,0,0,1,.9191.133,1.2118,1.2118,0,0,1,.5195.3349,1.1778,1.1778,0,0,1,.2329.5094,4.22,4.22,0,0,1,.0372.69v.9979a10.57,10.57,0,0,0,.0481,1.3205,1.6594,1.6594,0,0,0,.1891.53h-.7817A1.5947,1.5947,0,0,1,89.0428,135.7948Zm-.0621-1.6719a5.4644,5.4644,0,0,1-1.2229.2827,2.866,2.866,0,0,0-.6526.15.6573.6573,0,0,0-.2954.2434.6617.6617,0,0,0,.123.8543.9743.9743,0,0,0,.6631.2,1.5411,1.5411,0,0,0,.7694-.1891,1.1672,1.1672,0,0,0,.4946-.5173,1.8076,1.8076,0,0,0,.1208-.7484Z"/><path d="M90.8,131.9236h.7485v1.9087a.7208.7208,0,0,0,.5011-.1374,2.9991,2.9991,0,0,0,.4219-.7984,3.1776,3.1776,0,0,1,.3576-.69.6852.6852,0,0,1,.316-.2245,2.0191,2.0191,0,0,1,.5738-.0582h.15v.6193l-.2079-.0039a.5568.5568,0,0,0-.3786.0871,2.2305,2.2305,0,0,0-.2661.5449,2.2719,2.2719,0,0,1-.3116.5987,1.2608,1.2608,0,0,1-.4368.3033,1.8068,1.8068,0,0,1,.948.8981l.8193,1.3682h-.8233l-.7983-1.3682a1.8629,1.8629,0,0,0-.4285-.5423.7278.7278,0,0,0-.4363-.1308v2.0413H90.8Z"/><path d="M94.4481,131.9236h.7484v3.8h2.0707v-3.8h.7484v3.8h.4823v1.8671h-.6154v-1.2517H94.4481Z"/><path d="M99.2188,131.9236h.7484v3.3679l2.075-3.3679h.8066v4.4157H102.1v-3.3474l-2.0746,3.3474h-.807Z"/><path d="M103.6034,134.1317a2.2753,2.2753,0,0,1,.6819-1.8173,2.0555,2.0555,0,0,1,1.3887-.4906,1.9823,1.9823,0,0,1,1.4886.5965,2.2715,2.2715,0,0,1,.5777,1.6488,2.9188,2.9188,0,0,1-.2556,1.341,1.807,1.807,0,0,1-.7441.7585,2.1672,2.1672,0,0,1-1.0666.27,1.9863,1.9863,0,0,1-1.499-.5944A2.3753,2.3753,0,0,1,103.6034,134.1317Zm.7694,0a1.88,1.88,0,0,0,.37,1.27,1.2326,1.2326,0,0,0,1.8589-.0022,1.9274,1.9274,0,0,0,.37-1.2933,1.826,1.826,0,0,0-.372-1.2408,1.2335,1.2335,0,0,0-1.8567-.0022A1.8727,1.8727,0,0,0,104.3728,134.1317Z"/><path d="M108.5285,131.9236h.7485v1.8378h2.0745v-1.8378H112.1v4.4157h-.7485v-1.9582H109.277v1.9582h-.7485Z"/><path d="M116.1559,134.9173l.7734.0958a1.8893,1.8893,0,0,1-.6775,1.0518,2.2967,2.2967,0,0,1-2.8007-.2224,2.3327,2.3327,0,0,1-.5677-1.6736,2.44,2.44,0,0,1,.5742-1.73,1.9422,1.9422,0,0,1,1.4881-.6154,1.8869,1.8869,0,0,1,1.447.6027,2.3947,2.3947,0,0,1,.5615,1.6964q0,.0669-.0039.2h-3.2931a1.6941,1.6941,0,0,0,.4114,1.1143,1.2245,1.2245,0,0,0,.9231.3869,1.1453,1.1453,0,0,0,.7025-.2162A1.4339,1.4339,0,0,0,116.1559,134.9173Zm-2.4575-1.21h2.4658a1.4939,1.4939,0,0,0-.2827-.8355,1.147,1.147,0,0,0-.927-.4324,1.1885,1.1885,0,0,0-.8671.3453A1.3651,1.3651,0,0,0,113.6984,133.7071Z"/><path d="M117.7753,138.0313v-6.1077h.6819v.5738a1.6822,1.6822,0,0,1,.5449-.5051,1.4934,1.4934,0,0,1,.7357-.1685,1.7453,1.7453,0,0,1,.9979.291,1.786,1.786,0,0,1,.653.8211,2.9972,2.9972,0,0,1,.2206,1.1625,2.9562,2.9562,0,0,1-.2433,1.22,1.8366,1.8366,0,0,1-.7069.8316,1.8164,1.8164,0,0,1-.9751.2889,1.4049,1.4049,0,0,1-.6714-.158,1.5372,1.5372,0,0,1-.4889-.3992v2.1494Zm.678-3.8751a1.92,1.92,0,0,0,.3453,1.26,1.0573,1.0573,0,0,0,.8355.4075,1.081,1.081,0,0,0,.8543-.4219,2.001,2.001,0,0,0,.3559-1.3078,1.9506,1.9506,0,0,0-.3475-1.264,1.0449,1.0449,0,0,0-.8294-.42,1.0778,1.0778,0,0,0-.8461.4473A1.9985,1.9985,0,0,0,118.4533,134.1562Z"/><path d="M122.4217,131.9236h.7484v1.8378h2.0746v-1.8378h.7484v4.4157h-.7484v-1.9582H123.17v1.9582h-.7484Z"/><path d="M126.7481,134.1317a2.2753,2.2753,0,0,1,.6819-1.8173,2.0555,2.0555,0,0,1,1.3887-.4906,1.982,1.982,0,0,1,1.4885.5965,2.2712,2.2712,0,0,1,.5778,1.6488,2.9188,2.9188,0,0,1-.2556,1.341,1.807,1.807,0,0,1-.7441.7585,2.1672,2.1672,0,0,1-1.0666.27,1.9863,1.9863,0,0,1-1.499-.5944A2.3753,2.3753,0,0,1,126.7481,134.1317Zm.7694,0a1.88,1.88,0,0,0,.37,1.27,1.2325,1.2325,0,0,0,1.8588-.0022,1.9268,1.9268,0,0,0,.37-1.2933,1.826,1.826,0,0,0-.372-1.2408,1.2335,1.2335,0,0,0-1.8567-.0022A1.8727,1.8727,0,0,0,127.5175,134.1317Z"/><path d="M134.6914,134.9173l.7734.0958a1.8888,1.8888,0,0,1-.6775,1.0518,2.2967,2.2967,0,0,1-2.8007-.2224,2.3332,2.3332,0,0,1-.5677-1.6736,2.44,2.44,0,0,1,.5743-1.73,1.942,1.942,0,0,1,1.4881-.6154,1.8868,1.8868,0,0,1,1.4469.6027,2.3942,2.3942,0,0,1,.5616,1.6964q0,.0669-.004.2h-3.293a1.6931,1.6931,0,0,0,.4114,1.1143,1.2242,1.2242,0,0,0,.923.3869,1.1453,1.1453,0,0,0,.7025-.2162A1.4339,1.4339,0,0,0,134.6914,134.9173Zm-2.4575-1.21H134.7a1.4946,1.4946,0,0,0-.2828-.8355,1.1468,1.1468,0,0,0-.927-.4324,1.1881,1.1881,0,0,0-.867.3453A1.3652,1.3652,0,0,0,132.2339,133.7071Z"/><path d="M138.3044,134.1317a2.2756,2.2756,0,0,1,.6819-1.8173,2.0558,2.0558,0,0,1,1.3888-.4906,1.9821,1.9821,0,0,1,1.4885.5965,2.2712,2.2712,0,0,1,.5778,1.6488,2.9187,2.9187,0,0,1-.2557,1.341,1.8068,1.8068,0,0,1-.744.7585,2.1677,2.1677,0,0,1-1.0666.27,1.9863,1.9863,0,0,1-1.499-.5944A2.3749,2.3749,0,0,1,138.3044,134.1317Zm.77,0a1.88,1.88,0,0,0,.37,1.27,1.2325,1.2325,0,0,0,1.8588-.0022,1.9274,1.9274,0,0,0,.37-1.2933,1.8255,1.8255,0,0,0-.3721-1.2408,1.2334,1.2334,0,0,0-1.8566-.0022A1.8727,1.8727,0,0,0,139.0739,134.1317Z"/><path d="M146.4605,130.098l.6609.0088a1.1458,1.1458,0,0,1-.1974.6193.69.69,0,0,1-.3908.2245,5.5951,5.5951,0,0,1-.9375.05,3.0222,3.0222,0,0,0-1.264.1786,1.0254,1.0254,0,0,0-.4845.572,3.16,3.16,0,0,0-.1642,1.0124,1.9334,1.9334,0,0,1,.6609-.63,1.7259,1.7259,0,0,1,.8526-.21,1.9045,1.9045,0,0,1,1.4382.5965,2.2421,2.2421,0,0,1,.57,1.6155,2.4974,2.4974,0,0,1-.2871,1.2679,2.3058,2.3058,0,0,1-.68.7651,2.2551,2.2551,0,0,1-2.2929-.0893,2.32,2.32,0,0,1-.67-.9209,5.6864,5.6864,0,0,1-.2328-1.9542,3.4432,3.4432,0,0,1,.5926-2.3577,2.4478,2.4478,0,0,1,1.8233-.6067,7.3493,7.3493,0,0,0,.8693-.0253A.17.17,0,0,0,146.4605,130.098Zm-.0376,4.017a1.85,1.85,0,0,0-.3265-1.1309,1.0783,1.0783,0,0,0-.9209-.4412,1.11,1.11,0,0,0-.9563.4657,2.0792,2.0792,0,0,0-.3366,1.2434,1.6865,1.6865,0,0,0,.372,1.1769,1.1927,1.1927,0,0,0,.9165.4071,1.0737,1.0737,0,0,0,.9047-.4719A2.0608,2.0608,0,0,0,146.4229,134.115Z"/><path d="M148.034,131.9236h.7484v3.8h1.7043v-3.8h.7484v3.8h1.7091v-3.8h.7445v3.8h.4946v1.8671h-.62v-1.2517h-5.53Z"/><path d="M157.8484,134.9173l.7734.0958a1.8894,1.8894,0,0,1-.6776,1.0518,2.2965,2.2965,0,0,1-2.8006-.2224,2.3327,2.3327,0,0,1-.5677-1.6736,2.44,2.44,0,0,1,.5742-1.73,1.9422,1.9422,0,0,1,1.4881-.6154,1.8869,1.8869,0,0,1,1.447.6027,2.3947,2.3947,0,0,1,.5615,1.6964q0,.0669-.0039.2H155.35a1.6941,1.6941,0,0,0,.4114,1.1143,1.2245,1.2245,0,0,0,.9231.3869,1.1448,1.1448,0,0,0,.7024-.2162A1.4333,1.4333,0,0,0,157.8484,134.9173Zm-2.4576-1.21h2.4659a1.4954,1.4954,0,0,0-.2827-.8355,1.147,1.147,0,0,0-.927-.4324,1.1885,1.1885,0,0,0-.8671.3453A1.3652,1.3652,0,0,0,155.3908,133.7071Z"/><path d="M162.3494,134.7216l.7362.0959a1.9117,1.9117,0,0,1-.6176,1.1913,1.8,1.8,0,0,1-1.2206.43,1.8948,1.8948,0,0,1-1.457-.5926,2.4015,2.4015,0,0,1-.5511-1.6982,3.0673,3.0673,0,0,1,.2372-1.2518,1.6492,1.6492,0,0,1,.7213-.8044,2.1366,2.1366,0,0,1,1.054-.2683,1.831,1.831,0,0,1,1.1764.3637,1.6678,1.6678,0,0,1,.5865,1.0334l-.7274.1124a1.2105,1.2105,0,0,0-.3681-.67.9537.9537,0,0,0-.6386-.2245,1.1615,1.1615,0,0,0-.9186.4053,1.9258,1.9258,0,0,0-.3532,1.2828,1.99,1.99,0,0,0,.34,1.2929,1.11,1.11,0,0,0,.89.4035,1.048,1.048,0,0,0,.7357-.27A1.3373,1.3373,0,0,0,162.3494,134.7216Z"/><path d="M163.2287,131.9236h3.5885v.6193h-1.4224v3.7964h-.7441v-3.7964h-1.422Z"/><path d="M167.4427,131.9236h1.7253a3.136,3.136,0,0,1,.9462.1059,1.145,1.145,0,0,1,.5322.3891,1.0629,1.0629,0,0,1,.2224.6775,1.1162,1.1162,0,0,1-.1309.551,1.0654,1.0654,0,0,1-.393.3926,1.0356,1.0356,0,0,1,.5178.3891,1.1245,1.1245,0,0,1,.2057.6754,1.1893,1.1893,0,0,1-.4491.9313,1.9605,1.9605,0,0,1-1.1852.3038h-1.9914Zm.7484,1.8588h.7983a2.8556,2.8556,0,0,0,.657-.05.6878.6878,0,0,0,.32-.2018.5148.5148,0,0,0,.1418-.3637.5085.5085,0,0,0-.2477-.4867,1.8724,1.8724,0,0,0-.846-.1374h-.8233Zm0,1.9415h.9856a1.795,1.795,0,0,0,.8728-.1475.5756.5756,0,0,0,.2494-.5094.6372.6372,0,0,0-.137-.3931.594.594,0,0,0-.3575-.2284,3.6937,3.6937,0,0,0-.7069-.0477h-.9064Z"/><path d="M171.4942,134.1317a2.2756,2.2756,0,0,1,.6819-1.8173,2.0556,2.0556,0,0,1,1.3888-.4906,1.9823,1.9823,0,0,1,1.4885.5965,2.2711,2.2711,0,0,1,.5777,1.6488,2.9188,2.9188,0,0,1-.2556,1.341,1.8068,1.8068,0,0,1-.744.7585,2.1677,2.1677,0,0,1-1.0666.27,1.9865,1.9865,0,0,1-1.4991-.5944A2.3753,2.3753,0,0,1,171.4942,134.1317Zm.7695,0a1.88,1.88,0,0,0,.37,1.27,1.2325,1.2325,0,0,0,1.8588-.0022,1.9274,1.9274,0,0,0,.37-1.2933,1.826,1.826,0,0,0-.372-1.2408,1.2334,1.2334,0,0,0-1.8566-.0022A1.8722,1.8722,0,0,0,172.2637,134.1317Z"/></svg>