<svg xmlns="http://www.w3.org/2000/svg" viewBox="0 0 200 250"><defs><style>.a{fill:#2a1670;}.b{fill:#647db4;}.c{fill:#fff;}.d{fill:#232323;}</style></defs><title>Card_TNGIZT</title><rect class="a" x="51.7638" y="36" width="93.6258" height="142.1106"/><polygon class="b" points="145.39 178.111 51.764 178.111 51.764 165.293 106.936 165.293 145.39 151.082 145.39 178.111"/><rect class="b" x="52.5998" y="185.6341" width="41.7972" height="2.7865"/><rect class="b" x="102.7564" y="185.6341" width="41.7972" height="2.7865"/><path class="b" d="M98.8526,195.9162a5.8535,5.8535,0,0,1-8.914-4.9878c.0251-3.28,2.3212-6.8186,5.8516-12.8178,1.1481,1.9756,2.1846,3.7032,3.054,5.25-1.73,3.0763-2.7586,5.3807-2.7753,7.5681A5.79,5.79,0,0,0,98.8526,195.9162Z"/><path class="a" d="M107.7721,190.9284a5.8578,5.8578,0,0,1-8.9195,4.9878,5.8473,5.8473,0,0,0,2.7893-4.9878c0-2.1484-1.0728-4.5-2.7977-7.5681.8638-1.5326,1.9-3.2546,3.0763-5.25C105.3423,183.9984,107.7721,187.6961,107.7721,190.9284Z"/><rect class="c" x="66.2535" y="47.9819" width="6.6876" height="8.9167"/><rect class="c" x="66.2535" y="57.4559" width="6.6876" height="8.3594"/><rect class="c" x="66.2535" y="66.3727" width="6.6876" height="8.3594"/><rect class="c" x="66.2535" y="75.2894" width="6.6876" height="8.3594"/><rect class="c" x="66.2535" y="84.2061" width="6.6876" height="8.3594"/><rect class="c" x="66.2535" y="93.1229" width="6.6876" height="8.3594"/><path class="c" d="M132.8505,74.7321v90.0034h-72.17V112.9069h5.5729V102.04h6.6876v10.8673h5.573v39.2894h25.0783V98.1385a2.2292,2.2292,0,1,1,4.4584,0v63.2532h1.1146V92.8442h5.0156V79.1905h4.4584v82.2012h1.3932v-86.66c0-3.5389,2.87-5.0157,6.4089-5.0157a7.9111,7.9111,0,0,1,4.5309,1.1816A4.4144,4.4144,0,0,1,132.8505,74.7321Z"/><path class="b" d="M74.613,51.6043H64.5816a.5573.5573,0,0,1,0-1.1146H74.613a.5573.5573,0,1,1,0,1.1146Z"/><path class="b" d="M74.613,99.2531H64.5816a.5573.5573,0,0,1,0-1.1146H74.613a.5573.5573,0,1,1,0,1.1146Z"/><path class="b" d="M125.6056,91.869h-8.0808a.418.418,0,1,1,0-.836h8.0808a.418.418,0,1,1,0,.836Z"/><path class="b" d="M137.03,98.5565h-5.2943V87.4106h4.4583a.418.418,0,1,0,0-.836h-4.4583V79.7478h4.4583a.5573.5573,0,0,0,0-1.1146h-4.4583V65.2581a1.6732,1.6732,0,0,0-1.6719-1.6719h-3.0652a1.6732,1.6732,0,0,0-1.6719,1.6719v5.0156h1.9506v-3.901a.8348.8348,0,0,1,.8359-.836h.836a.8348.8348,0,0,1,.8359.836v5.8516h-10.31a.5573.5573,0,0,0,0,1.1146h10.31v5.2943h-16.44a.5573.5573,0,0,0,0,1.1146h16.44V98.5565H117.2462a.3027.3027,0,0,0-.0725.0083.034.034,0,0,0-.0167.0029.0255.0255,0,0,0-.0139.0027.2085.2085,0,0,0-.0586.02.1753.1753,0,0,0-.039.0194.1719.1719,0,0,0-.0306.0168.1539.1539,0,0,0-.0223.0167l-5.18,3.9456v-9.187a.4173.4173,0,0,0-.418-.4179h-5.0463V86.5273a.8348.8348,0,0,1,.836-.8359h13.6537v-.836H107.1842a1.6732,1.6732,0,0,0-1.6719,1.6719v6.4563h-5.2637a.4173.4173,0,0,0-.418.4179v40.5433H82.6938v-2.09h1.3626a1.6733,1.6733,0,0,0,1.6719-1.6719v-6.5482a1.6732,1.6732,0,0,0-1.6719-1.6719H82.6938v-2.9258a1.1143,1.1143,0,0,0-1.1146-1.1146H78.5141v.8359H81.03a.5482.5482,0,0,1,.5489.5489v2.6556H76.1455V110.3991a.4173.4173,0,0,0-.4179-.418H63.7457a.4174.4174,0,0,0-.418.418v18.6694H55.3862v2.2292h7.9415v3.9011H60.6806v.8359h2.6471v6.13H60.6806v.8359h2.6471v6.13H60.6806v.8359h2.6471v6.13H60.6806v.8359h2.6471v6.4089a.418.418,0,1,0,.836,0v-6.4089H75.31v6.4089a.418.418,0,1,0,.8359,0v-6.4089h2.3686v-.8359H76.1455v-6.13h2.3686v-.8359H76.1455v-1.3933h5.4337v3.9011h1.1146v-3.9011h4.18v1.8112a1.6732,1.6732,0,0,0,1.6719,1.6719H99.8306v9.0561a.418.418,0,1,0,.836,0v-8.22h10.31v8.22a.418.418,0,1,0,.8359,0V152.67l5.0157,3.104v4.503a.418.418,0,1,0,.8359,0V147.5986h12.1212V155.54h1.9506v-7.9415h4.8763v4.3191a.418.418,0,0,0,.8359,0V98.9745A.4173.4173,0,0,0,137.03,98.5565ZM82.6938,122.7989h1.3626a.8348.8348,0,0,1,.8359.836v6.5482a.8348.8348,0,0,1-.8359.8359H82.6938ZM70.1546,111.4245l4.581,4.6869h-4.581Zm0,6.13,4.3079,4.4082H70.1546Zm0,5.8516,4.7175,4.8262H70.1546ZM64.1637,110.817h4.5809l-4.5809,4.6869Zm5.155.6075v4.6869h-4.581Zm-5.155,5.5228h4.5809l-4.5809,4.6868Zm5.155.6075v4.4082H65.0108Zm-5.155,5.2747.0306-.0306h4.55l-4.5809,4.6868Zm5.155.5769v4.8262H64.6011Zm5.9909,32.691H64.1637v-6.13H75.31Zm0-6.9662H64.1637v-6.13H75.31Zm0-6.9662H64.1637v-6.13H75.31Zm0-6.9662H64.1637v-3.9011h7.1055v-2.2292h4.04Zm0-7.7131-4.581-4.6868h4.55l.0307.0306Zm0-5.8516-4.581-4.6868H75.31Zm0-6.13-4.581-4.6869H75.31Zm.8359,20.5308h2.3686v6.13H76.1455Zm5.4337,10.8673H76.1455v-3.9011h2.3686v2.6472h3.0651Zm0-2.09H79.6286V134.7808h1.9506Zm0-10.8673H79.6286v-1.2539a.8348.8348,0,0,1,.836-.8359h1.1146Zm0-2.9258H80.1859a1.6732,1.6732,0,0,0-1.6718,1.6719v2.5079H76.1455v-12.4h5.4337Zm5.2943,15.883h-4.18v-1.2539h3.3438a.8348.8348,0,0,1,.8359.8359Zm12.9571,3.4831H88.5454a.8349.8349,0,0,1-.836-.836v-1.8112H99.8306Zm0-3.4831H87.7094v-.418a1.6732,1.6732,0,0,0-1.6718-1.6719H82.6938V134.7808H99.8306Zm11.146,4.319h-10.31v-6.9662h10.31Zm0-7.8021h-10.31V136.174h10.31Zm0-8.0808h-10.31v-7.2449h10.31Zm0-8.0808h-10.31v-7.2449h10.31Zm0-8.0808h-10.31v-7.2449h10.31Zm0-8.0808h-10.31v-7.2449h10.31Zm0-8.0808h-10.31V93.82h4.8457v2.7391h.8359V93.82h4.6284Zm5.8516,43.692-4.698-2.9062,4.698-3.578ZM112.13,135.72l4.698-3.578v6.4842Zm0-8.0808,4.698-3.578v6.4842Zm0-8.0808,4.698-3.578v6.4842Zm0-8.0808,4.698-3.578v6.4842Zm4.698-11.6588v6.4842l-4.698-2.9062Zm-5.0157,4.3666,4.698,2.9062-4.698,3.5778Zm0,8.0808,4.698,2.9062-4.698,3.5778Zm0,8.0808,4.698,2.9062-4.698,3.5778Zm0,8.0808,4.698,2.9062-4.698,3.5778Zm0,8.0808,4.698,2.9062-4.698,3.5778Zm0,8.0808,4.4946,2.7809-4.4946,3.4244Zm.117,7.1667,4.8987-3.7311v6.7628Zm17.8558-4.9933H117.6641v-6.9662h12.1212Zm0-7.8022H117.6641v-7.2448h12.1212Zm0-8.0808H117.6641v-7.2448h12.1212Zm0-8.0808H117.6641v-7.2448h12.1212Zm0-8.0808H117.6641v-7.2448h12.1212Zm0-8.0808H117.6641V99.3925h12.1212Zm6.8269,40.1254h-4.8763v-6.9662h4.8763Zm0-7.8022h-4.8763v-7.2448h4.8763Zm0-8.0808h-4.8763v-7.2448h4.8763Zm0-8.0808h-4.8763v-7.2448h4.8763Zm0-8.0808h-4.8763v-7.2448h4.8763Zm0-8.0808h-4.8763V99.3925h4.8763Z"/><path class="b" d="M127.5561,90.8937a1.6719,1.6719,0,1,1,1.6719-1.6719A1.6738,1.6738,0,0,1,127.5561,90.8937Zm0-2.7865a1.1146,1.1146,0,1,0,1.1146,1.1146A1.1157,1.1157,0,0,0,127.5561,88.1072Z"/><rect class="b" x="67.5074" y="59.8244" width="1.3932" height="5.573" transform="translate(5.5932 130.815) rotate(-90)"/><rect class="b" x="67.5074" y="70.6917" width="1.3932" height="5.573" transform="translate(-5.2741 141.6823) rotate(-90)"/><rect class="b" x="67.5074" y="83.2309" width="1.3932" height="5.573" transform="translate(-17.8133 154.2214) rotate(-90)"/><path class="c" d="M35.7175,164.2023c5.8671.2168,5.8671.2168,14.8388-.6744,20.9709-2.0829,21.7346-4.5047,34.1809-5.2013,10.5249-.5891,17.6787.1238,22.6634,1.6719a30.5081,30.5081,0,0,1,7.8021-4.9228c3.53-1.7184,7.3507-2.8852,14.49-4.3656,10.0778-2.09,20.8058-2.6316,33.0663-6.0373-.91,1.4424-4.5844,4.8547-10.3483,7.3411-7.895,3.4057-8.7236,2.1949-17.2379,5.4767-2.7887,1.0749-6.6256,2.7091-8.8548,4.9383,2.914.8054,3.4212.5108,6.75,1.5325a40.688,40.688,0,0,1-12.7559,5.3254c-4.8011,1.3047-7.3295,1.6581-14.3968,2.0433-15.3266.8355-16.4712.2168-20.5736,1.223a12.7555,12.7555,0,0,1,6.5173-4.2571c-4.4119-1.92-17.0312-.4748-34.5524-.5883C42.562,167.6122,38.3957,164.7441,35.7175,164.2023Z"/><path class="a" d="M83.7085,173.5273l1.2191-1.3481a14.3339,14.3339,0,0,1,5.115-3.8477c-3.25-.6651-8.8966-.5105-16.2577-.3094-4.845.1325-10.3374.28-16.4827.243-11.6186-.0754-16.6821-1.845-19.7078-2.9024-.8047-.2814-3.0472-1.12-3.5944-1.231h0c5.8024-.063,7.567-.2714,16.5015-1.1585a158.8584,158.8584,0,0,0,20.91-3.26A72.3725,72.3725,0,0,1,84.7061,157.77c9.7478-.5448,17.1379-.0191,22.5751,1.6093l.0621-.05a30.4041,30.4041,0,0,1,7.6157-4.7544c3.5947-1.75,7.5572-2.9457,14.62-4.4105,3.8793-.8044,7.8033-1.3731,11.9577-1.975a162.9329,162.9329,0,0,0,21.0725-4.0535L164,143.75l-.77,1.2207c-.9995,1.5846-4.761,5.0369-10.5987,7.5554a45.014,45.014,0,0,1-8.8046,2.892,56.1267,56.1267,0,0,0-8.4536,2.593,30.404,30.404,0,0,0-7.9127,4.1368c.759.179,1.3416.2772,1.91.3733a26.2654,26.2654,0,0,1,3.86.9081l1.141.35-1.0011.65a40.0662,40.0662,0,0,1-12.3367,5.24l-.5764.1551c-4.8118,1.3075-7.3891,1.6738-14.5128,2.0618-6.3912.3486-10.3829.446-13.0244.51a30.1819,30.1819,0,0,0-7.4465.6975Zm-1.1072-6.791c4.3636,0,7.6048.233,9.4792,1.0485l1.391.6052-1.5568.4708a11.4036,11.4036,0,0,0-4.882,2.7761,44.1119,44.1119,0,0,1,5.86-.3543c2.6349-.0645,6.6163-.1616,12.9909-.5091,7.0271-.3829,9.563-.7424,14.2813-2.0243l.58-.1562a39.674,39.674,0,0,0,10.9688-4.4418,24.6551,24.6551,0,0,0-2.5288-.5317,26.6447,26.6447,0,0,1-3.0156-.6533l-.9222-.2547.6765-.6765c2.2741-2.2741,6.03-3.9011,9.0482-5.0644a57.095,57.095,0,0,1,8.5992-2.6379,44.0881,44.0881,0,0,0,8.6187-2.83,29.7161,29.7161,0,0,0,8.9941-5.8293,173.9246,173.9246,0,0,1-19.4872,3.6194c-4.137.6-8.0449,1.1658-11.891,1.9631-6.9637,1.4444-10.8555,2.6156-14.3588,4.3212a29.5541,29.5541,0,0,0-7.4048,4.6211l-.5236.4207-.283-.0879c-5.3335-1.6564-12.6829-2.1962-22.4674-1.6477a71.4486,71.4486,0,0,0-13.1188,1.9187,159.91,159.91,0,0,1-21.0379,3.2807,95,95,0,0,1-10.9767.7943c3.1248,1.0008,8.1529,2.212,17.6746,2.2738,6.1267.0387,11.6088-.11,16.4451-.2424C77.06,166.8174,80.0265,166.7363,82.6013,166.7363Z"/><path class="b" d="M66.2535,198.1733v3.0651H62.02v10.31H57.1382v-10.31h-4.26v-3.0651Z"/><path class="c" d="M65.6962,198.7306v1.9528H61.4633v10.3077H57.6952V200.6834h-4.26v-1.9528Z"/><path class="d" d="M65.1389,199.2878v.8383H60.906v10.3077H58.2525V200.1261H53.993v-.8383Z"/><path class="b" d="M144.8323,198.1733v3.0651h-4.2331v10.31H135.717v-10.31h-4.26v-3.0651Z"/><path class="c" d="M144.275,198.7306v1.9528h-4.2329v10.3077H136.274V200.6834h-4.26v-1.9528Z"/><path class="d" d="M143.7177,199.2878v.8383h-4.2329v10.3077h-2.6535V200.1261h-4.26v-.8383Z"/><path class="b" d="M131.4572,202.0743l-7.6841,6.9662h7.9628v2.5079h-14.49v-2.2292l8.3594-7.5235h-7.8022v-3.6224h13.6538Z"/><path class="c" d="M130.9,201.517l-8.7987,8.0808h9.0774v1.3933H117.8034v-1.1146l9.4741-8.6381h-8.9168v-2.5078H130.9Z"/><path class="d" d="M130.3426,201.2384l-9.9133,8.9167h10.192v.5573H118.3607v-.5573l10.31-9.474H118.918v-1.3933h11.4246Z"/><path class="b" d="M72.1047,211.5484H67.2288V198.1733h5.155l7.8026,7.2573v-7.2573h5.1545v13.3751H80.5077l-8.403-8.0937Z"/><path class="c" d="M71.5474,210.9911H67.7861v-12.26h4.319l8.6386,8.0933v-8.0933h4.04v12.26H81.0219l-9.4745-8.93Z"/><path class="d" d="M70.99,210.4338H68.3434v-11.146h3.4831l9.4745,8.9293v-8.9293h2.9253v11.146H81.3005l-10.31-9.7656Z"/><path class="b" d="M110.8377,198.1733h5.1545v13.3751h-5.155Z"/><path class="c" d="M111.395,198.7306h4.04v12.26h-4.04Z"/><path class="d" d="M111.9523,208.2171v-8.9293h2.9253v11.146h-2.9258Z"/><path class="b" d="M109.7226,205.14a4.6131,4.6131,0,0,1-.7718,2.5078c-1.6719,2.6081-5.8739,4.4584-10.7921,4.4584-6.3866,0-11.5639-3.1181-11.5639-6.9662s5.1773-6.9662,11.5639-6.9662c5.4309,0,9.9868,2.2542,11.2268,5.2943h-5.1439c-1.0533-1.3905-3.38-2.3574-6.0829-2.3574-3.692,0-6.6875,1.8057-6.6875,4.0293s2.9955,4.0292,6.6875,4.0292a8.8271,8.8271,0,0,0,5.23-1.5214H94.1184v-3.0651h15.568A4.1256,4.1256,0,0,1,109.7226,205.14Z"/><path class="c" d="M108.8867,205.14c0,3.57-4.8039,6.4618-10.728,6.4618S87.4308,208.709,87.4308,205.14s4.8039-6.4619,10.7279-6.4619c4.6228,0,8.5629,1.761,10.07,4.2327h-3.6809a9.05,9.05,0,0,0-6.3895-2.2181c-4.0794,0-7.3841,1.99-7.3841,4.4473s3.3047,4.4472,7.3841,4.4472c2.9147,0,5.4365-1.0171,6.6347-2.494H94.6756V205.14Z"/><path class="d" d="M108.1483,205.6968c-.4681,3.0762-4.7621,5.4865-9.99,5.4865-5.5395,0-10.0313-2.7056-10.0313-6.0438s4.4918-6.0439,10.0313-6.0439c3.8705,0,7.231,1.3207,8.9029,3.2574h-2.2794a10.3608,10.3608,0,0,0-6.6235-2.0816c-4.4639,0-8.0807,2.1791-8.0807,4.8681s3.6168,4.8679,8.0807,4.8679c3.6587,0,6.7489-1.4629,7.7409-3.472H95.2329v-.8386Z"/></svg>