<svg xmlns="http://www.w3.org/2000/svg" xmlns:xlink="http://www.w3.org/1999/xlink" viewBox="0 0 200 250"><defs><style>.a{fill:url(#a);}.b{fill:url(#b);}.c{fill:url(#c);}.d{fill:#636163;}</style><linearGradient id="a" x1="346.2293" y1="186.7979" x2="334.1346" y2="156.9033" gradientTransform="matrix(1, 0, 0, -1, -234.3066, 267.3285)" gradientUnits="userSpaceOnUse"><stop offset="0" stop-color="#db2f7b"/><stop offset="1" stop-color="#9b2978"/></linearGradient><radialGradient id="b" cx="604.312" cy="252.0321" r="36.8739" gradientTransform="matrix(1.1401, -1.0302, -0.6598, -0.7302, -423.3878, 918.2099)" gradientUnits="userSpaceOnUse"><stop offset="0" stop-color="#fcfefa"/><stop offset="1" stop-color="#d6d7d6"/></radialGradient><radialGradient id="c" cx="773.176" cy="-106.429" r="40.0815" gradientTransform="matrix(-0.9717, -0.0113, -0.0089, 0.7683, 848.8024, 208.0673)" gradientUnits="userSpaceOnUse"><stop offset="0" stop-color="#7bb631"/><stop offset="1" stop-color="#027e40"/></radialGradient></defs><title>Card_bashneft</title><circle class="a" cx="100" cy="110" r="40"/><path class="b" d="M77.7712,76.74A40.6542,40.6542,0,0,0,66.3974,88.2921L100,117v22l39.7558-33.4448a39.7776,39.7776,0,0,0-5.8947-16.8746L100,116.8V96Z"/><path class="c" d="M66.3974,88.2921A40.0028,40.0028,0,1,0,140,110.4517a44.3,44.3,0,0,0-.2442-4.8965L100,138V117Z"/><path class="d" d="M32.9836,177.8729a4.4247,4.4247,0,0,0,2.2866-.4477,1.5784,1.5784,0,0,0,.7579-1.4127A1.5376,1.5376,0,0,0,35.27,174.63a4.3819,4.3819,0,0,0-2.2866-.4477h-2.953v3.6909Zm.3658,2.6066H25V165.626H39.752v2.8951H30.0306v2.7658h3.3188a12.0664,12.0664,0,0,1,5.8015,1.164,4.0415,4.0415,0,0,1,0,6.8646A12.0664,12.0664,0,0,1,33.3494,180.48Z"/><path class="d" d="M54.5783,177.5448H47.5046l-1.1163,2.706H41.841l6.4979-14.8534h5.3933L60.23,180.2508H55.6828Zm-5.9457-2.7558h4.8059l-2.3971-5.91Z"/><path class="d" d="M74.9422,177.5844H80.229V165.626h4.079V180.48H61.4973V165.626h4.079v11.9584h5.2868V165.626h4.0791Z"/><path class="d" d="M87.7764,165.626H92.48v5.6609h6.9388V165.626h4.7031V180.48H99.4183v-6.2976H92.48V180.48H87.7764Z"/><path class="d" d="M106.4354,165.626h12.7931v2.8951h-8.0526v2.7658h7.5724v2.895h-7.5724v3.4025h8.3234V180.48H106.4354Z"/><path class="d" d="M125.6888,172.994a3.2549,3.2549,0,0,0,.9257,2.5909,5.1907,5.1907,0,0,0,2.9573.9672v-7.1282a5.13,5.13,0,0,0-2.9573.9791A3.2551,3.2551,0,0,0,125.6888,172.994Zm12.3942,0a3.2316,3.2316,0,0,0-.9377-2.591,5.0663,5.0663,0,0,0-2.9452-.9791v7.1282a5.1257,5.1257,0,0,0,2.9452-.9672A3.2313,3.2313,0,0,0,138.083,172.994Zm-8.5112-8.74H134.2v1.7671q4.4118.3582,6.5277,1.9939a6.8892,6.8892,0,0,1,0,9.9579q-2.1159,1.6239-6.5277,1.982V182.08h-4.6283v-2.1253q-4.4119-.3582-6.54-1.982a6.8888,6.8888,0,0,1,0-9.9578q2.1277-1.6359,6.54-1.994Z"/><path class="d" d="M142.2714,165.626h15.1631v2.8951H151.98V180.48h-4.2425V168.5211h-5.4658Z"/><path class="d" d="M167.27,177.8729a4.0846,4.0846,0,0,0,2.189-.4477,1.5971,1.5971,0,0,0,.7254-1.4127,1.5543,1.5543,0,0,0-.7255-1.3828,4.0448,4.0448,0,0,0-2.1889-.4477H164.443v3.6909Zm7.73-1.98a3.6491,3.6491,0,0,1-1.8262,3.4224,11.1358,11.1358,0,0,1-5.5537,1.164h-7.9927V165.626h4.8157v5.6609h3.177a11.1358,11.1358,0,0,1,5.5537,1.164A3.667,3.667,0,0,1,175,175.8931Z"/></svg>