<svg xmlns="http://www.w3.org/2000/svg" viewBox="0 0 200 250"><defs><style>.a,.c{fill:#2a2a2a;}.b{fill:#fed500;}.c{fill-rule:evenodd;}</style></defs><title>Card_rosneft</title><rect class="a" x="88.4691" y="79.9176" width="5.6603" height="30.3597"/><rect class="a" x="95.6731" y="74" width="5.6603" height="30.3597"/><rect class="b" x="95.6731" y="105.9034" width="5.6603" height="35.2481"/><rect class="a" x="102.8771" y="79.9176" width="5.6603" height="30.3597"/><rect class="b" x="88.4691" y="111.821" width="5.6603" height="29.3306"/><rect class="b" x="102.8771" y="111.821" width="5.6603" height="29.3306"/><polygon class="c" points="115.741 115.166 110.081 120.826 110.081 87.122 115.741 87.122 115.741 115.166"/><polygon class="c" points="122.945 107.962 117.285 113.622 117.285 94.068 122.945 94.068 122.945 107.962"/><polygon class="c" points="86.925 120.826 81.265 115.166 81.265 87.122 86.925 87.122 86.925 120.826"/><polygon class="c" points="79.721 113.622 74.061 107.962 74.061 94.068 79.721 94.068 79.721 113.622"/><path class="a" d="M37.7236,157.6357a4.7324,4.7324,0,0,1-1.07,3.2979,4.27,4.27,0,0,1-3.3446,1.253h-7.976v5.251H21V153.03H33.4066Q37.7235,153.03,37.7236,157.6357Zm-4.1571-.0168q0-1.5544-2.0068-1.5546H25.3334v3.0874h6.2445Q33.5664,159.1517,33.5665,157.6189Z"/><path class="a" d="M57.0807,160.1232a20.4138,20.4138,0,0,1-.3119,4.5417q-.5718,2.0067-3.466,2.5538a30.0782,30.0782,0,0,1-4.5752.2189,30.7179,30.7179,0,0,1-4.5752-.2189q-2.9112-.5654-3.4832-2.5355a20.3853,20.3853,0,0,1-.3121-4.56,20.6935,20.6935,0,0,1,.3121-4.56q.5718-2.0062,3.466-2.5536a28.5449,28.5449,0,0,1,4.5924-.2372,30.4931,30.4931,0,0,1,4.5752.2189q2.8941.5657,3.466,2.5537A20.67,20.67,0,0,1,57.0807,160.1232Zm-4.2451-.0044q0-3.0075-.5174-3.5343-.5626-.596-3.5992-.5962a18.8818,18.8818,0,0,0-2.61.097,1.4739,1.4739,0,0,0-1.2092.9841,10.33,10.33,0,0,0-.2979,3.0494,9.766,9.766,0,0,0,.3092,3.0076,1.53,1.53,0,0,0,1.2205.9981,18.73,18.73,0,0,0,2.5869.097,21.42,21.42,0,0,0,2.5869-.0833,1.53,1.53,0,0,0,1.22-.9909A9.8248,9.8248,0,0,0,52.8356,160.1188Z"/><path class="a" d="M72.08,163.147a1.5256,1.5256,0,0,1-1.22.99,21.0326,21.0326,0,0,1-2.5883.0849,18.7055,18.7055,0,0,1-2.5857-.0977,1.5372,1.5372,0,0,1-1.2221-.9983,9.78,9.78,0,0,1-.3087-3.0077,10.3415,10.3415,0,0,1,.2984-3.0488,1.4775,1.4775,0,0,1,1.2093-.9854,19.066,19.066,0,0,1,2.6088-.0952q3.0374,0,3.6.5943a3.3882,3.3882,0,0,1,.4631,1.85h4.2786a13.58,13.58,0,0,0-.2907-2.8893q-.5712-1.9875-3.4656-2.5523a30.4091,30.4091,0,0,0-4.5746-.2187,28.6512,28.6512,0,0,0-4.5925.2367q-2.8945.5479-3.4682,2.5523a20.8683,20.8683,0,0,0-.3114,4.5617,20.5305,20.5305,0,0,0,.3114,4.5591q.575,1.9721,3.4836,2.5368a30.9968,30.9968,0,0,0,4.5771.2187,30.33,30.33,0,0,0,4.5746-.2187q2.8944-.5479,3.4656-2.5548a13.44,13.44,0,0,0,.2907-2.8868H72.33A5.29,5.29,0,0,1,72.08,163.147Z"/><path class="a" d="M95.9377,167.4376H91.72v-5.6794H83.432v5.6794H79.2141V152.7723H83.432v5.7116H91.72v-5.7116h4.2178Z"/><path class="a" d="M143.225,159.9173a6.734,6.734,0,0,1-1.073,4.2572q-1.2376,1.5-4.3122,1.5h-5.243v1.7629h-4.2151v-1.7629h-5.5q-3.0949,0-4.3122-1.4815a6.7221,6.7221,0,0,1-1.0728-4.2759q0-3.3566,1.4443-4.5382a6.2956,6.2956,0,0,1,3.9407-.9378h5.5v-1.669h4.2151v1.669h5.243a6.4414,6.4414,0,0,1,3.9615.9189Q143.225,156.5419,143.225,159.9173ZM128.4007,161.73v-3.3447H124.22a2.3138,2.3138,0,0,0-1.65.44,1.6089,1.6089,0,0,0-.3437,1.1723,1.8,1.8,0,0,0,.3437,1.2155,2.13,2.13,0,0,0,1.65.5172Zm10.3709-1.7327a1.6264,1.6264,0,0,0-.3437-1.1723,2.3446,2.3446,0,0,0-1.65-.44h-4.1808V161.73h4.1808a2.1508,2.1508,0,0,0,1.6639-.5172A1.83,1.83,0,0,0,138.7716,159.9977Z"/><path class="a" d="M160.2408,156.0466h-6.3926v11.391h-4.1958v-11.391h-6.1352v-3.2743h16.7236Z"/><path class="a" d="M179,162.7492q0,4.6885-4.3222,4.6884H162.2764V152.7723h4.0787v5.3635h8.2316Q179,158.1358,179,162.7492Zm-4.4117.0082a1.476,1.476,0,0,0-1.6954-1.6431h-6.5378v3.3447h6.5225A1.5081,1.5081,0,0,0,174.5883,162.7574Z"/><path class="a" d="M103.047,157.07a5.6957,5.6957,0,0,0-.247,1.4279h12.4269v3.2161H102.8025a5.5877,5.5877,0,0,0,.2547,1.4125,1.5373,1.5373,0,0,0,1.2222.9983,18.5628,18.5628,0,0,0,2.5754.0977h8.3721v3.2161h-8.3721a30.7325,30.7325,0,0,1-4.5566-.2187q-2.91-.5673-3.4836-2.5368a20.5391,20.5391,0,0,1-.3113-4.5591,20.8771,20.8771,0,0,1,.3113-4.5617q.5751-2.0029,3.4682-2.5523a28.4083,28.4083,0,0,1,4.572-.2367h8.3721v3.2161h-8.3721a18.9241,18.9241,0,0,0-2.5986.0952A1.4774,1.4774,0,0,0,103.047,157.07Z"/></svg>