<svg xmlns="http://www.w3.org/2000/svg" viewBox="0 0 200 250"><defs><style>.a{fill:#ef3d42;}.b{fill:#00b274;}</style></defs><title>Card_tatneft</title><path class="a" d="M38.0168,102.1734c2.8267,7.1729-1.7822,11.7771-6.3731,16.3888-4.2727,4.7119-8.0363,9.61-.4666,18.4242-2.8276-7.1721,1.7822-11.7772,6.3693-16.3842,4.2764-4.7222,8.04-9.6135.47-18.4288"/><path class="b" d="M31.1771,93c2.8315,7.1759-1.7755,11.7771-6.37,16.386-4.2717,4.7156-8.0344,9.6135-.4618,18.4279-2.83-7.1777,1.7793-11.7781,6.3693-16.387,4.2745-4.7165,8.0334-9.6124.4627-18.4269"/><path class="b" d="M147.3422,121.4078v14.6615h6.4213v-5.3672h7.0559v-3.2093h-7.0559V124.617H167.76v11.4523h6.4221V124.617H180v-3.2092H147.3422"/><path class="b" d="M133.5647,132.8875V130.346h8.3734v-3.212h-8.3734v-2.517H144.32v-3.2092H127.1435v14.6615h17.3087v-3.1818H133.5647"/><path class="a" d="M65.8381,121.4078H48.0439v3.2092H53.73v11.4523h6.4213V124.617H65.838v-3.2092"/><path class="a" d="M70.7,130.5141l2.9712-5.6751,2.8437,5.6751Zm7.8162-9.1063H71.6331l-8.0145,14.6614h4.1735l1.3175-2.5169h8.9995l1.3138,2.5169h7.1116l-8.0183-14.6614"/><path class="b" d="M119.264,121.4078v7.33l-10.27-7.33H104.01v14.6615h4.3954v-8.0665l10.5457,8.0665h4.707V121.4078h-4.3944"/><path class="a" d="M101.8287,121.4078H84.4076v3.2092h5.6855v11.4523h6.4222V124.617h5.3134v-3.2092"/></svg>