<svg xmlns="http://www.w3.org/2000/svg" viewBox="0 0 200 250"><defs><style>.a{fill:#f57f35;}.b{fill:#ef4138;}.c{fill:#373536;}</style></defs><title>Company_essar</title><path class="a" d="M161.3258,94.66c2.0839-2.313,4.3335-4.4651,6.5393-6.6595.0065,4.6373.0179,9.2762,0,13.9135-2.2659-.0276-4.5333-.0455-6.7992-.0406-.0162-2.24-.0227-4.4781-.0309-6.7164C161.0042,94.9405,161.2153,94.8138,161.3258,94.66Z"/><path class="a" d="M169.3513,103.27c4.55.052,9.0991.0341,13.6487.0536q-2.88,2.9067-5.7629,5.8117c-.4077.3817-.8446.8624-1.4553.8316-2.1766.0471-4.3531.0178-6.528.0016C169.2343,107.7348,169.1824,105.4982,169.3513,103.27Z"/><path class="b" d="M152.7253,103.31c4.7055.0049,9.4094-.0113,14.1149.0033-2.1376,2.2171-4.3758,4.3352-6.463,6.6026-4.7834.1121-9.5685.0715-14.352.0536Q149.2462,106.515,152.7253,103.31Z"/><path class="b" d="M161.0074,111.1377c2.2383-2.3422,4.5431-4.6194,6.8366-6.9064.0373,4.7331.0292,9.4662.0536,14.1993-2.2626,2.3-4.5236,4.6032-6.8333,6.8561C161.04,120.57,161.074,115.8545,161.0074,111.1377Z"/><path class="c" d="M23.02,116.6q11.456.0074,22.9086.0325c.0244,1.4764.0407,2.9529-.0016,4.4277-5.3958.0016-10.7916.0146-16.1874.0114-.0033,1.2945-.013,2.5907-.0179,3.8852q8.123.0049,16.2459.0017c.0082,1.39-.0227,2.7823-.0162,4.1743-5.4039.0114-10.8079.0017-16.21.0049-.0049,1.3351-.0227,2.67-.0227,4.0054,5.4169.0179,10.8338.0179,16.2508.0342q0,2.2463,0,4.4927-11.4852,0-22.9688,0Q23.0243,127.135,23.02,116.6Z"/><path class="c" d="M53.0977,117.0338a17.6488,17.6488,0,0,1,4.4326-.43q7.2507.0049,14.5014.0163c.0049,1.4829,0,2.9643.0033,4.4472-4.241.01-8.48-.0016-12.7213.0049a3.5757,3.5757,0,0,0-2.2739.549,1.8785,1.8785,0,0,0,.968,3.0845c3.7293.4158,7.5317-.3249,11.2253.5a4.8123,4.8123,0,0,1,2.732,1.6356,7.1169,7.1169,0,0,1,1.39,5.235,5.9009,5.9009,0,0,1-2.0661,4.1354,9.109,9.109,0,0,1-5.31,1.4569q-8.1327.0049-16.2638.0228c.0017-1.5333-.02-3.0666-.01-4.6,4.9378-.0195,9.8772.08,14.8117-.0829a1.8175,1.8175,0,0,0,1.3416-2.2756,1.6724,1.6724,0,0,0-1.4894-1.4c-3.4191-.3833-6.882.1917-10.29-.3622a5.751,5.751,0,0,1-2.7239-.9876,5.9477,5.9477,0,0,1-2.2463-4.2344,6.7955,6.7955,0,0,1,1.4537-5.1993A5.0489,5.0489,0,0,1,53.0977,117.0338Z"/><path class="c" d="M76.81,117.8427a9.0329,9.0329,0,0,1,5.084-1.2118c5.23,0,10.4619-.0422,15.692-.0129-.0292,1.4829-.0049,2.9675-.0146,4.4521-4.6893.01-9.38-.06-14.0678.0747-1.7266.0779-2.0059,3.0179-.3427,3.4418,3.9843.739,8.1376-.4272,12.06.7894a4.6482,4.6482,0,0,1,2.94,2.5907,8.1379,8.1379,0,0,1,.5068,4.79A5.182,5.182,0,0,1,97.02,135.97a8.249,8.249,0,0,1-5.23,1.686c-5.5436.0243-11.0889.0682-16.6325-.0309.0406-1.4862.0276-2.9724-.026-4.457,4.7429-.2047,9.4939.0439,14.2384-.1348a2.2172,2.2172,0,0,0,1.2312-.2583,1.9986,1.9986,0,0,0-.307-3.3151,14.456,14.456,0,0,0-3.0423-.2712c-3.1478-.05-6.4028.3719-9.4418-.6709a5.1641,5.1641,0,0,1-3.1625-4.3075,9.4176,9.4176,0,0,1,.3785-4.0607A4.2809,4.2809,0,0,1,76.81,117.8427Z"/><path class="c" d="M108.44,116.6358c3.2842-.0357,6.5669.0016,9.8512-.0243.6107-.0585.8105.6188,1.0281,1.0541q4.4222,10.0112,8.8669,20.0126c-2.5647-.0179-5.13.0016-7.6942-.026-.5019-1.3238-1.0541-2.6281-1.6259-3.9226q-5.3868,0-10.7721-.0114c-.6513,1.2848-1.1922,2.6216-1.7493,3.9486-2.4121.0179-4.8241.0081-7.2361-.0081q4.7022-10.4935,9.3314-21.0229m4.9995,4.098c-1.1858,2.7256-2.2854,5.4868-3.4808,8.2075q3.462.0292,6.9226,0Q115.1731,124.831,113.4392,120.7338Z"/><path class="c" d="M130.2016,116.6212c5.9854-.0179,11.9725-.0292,17.9579.0455a7.1241,7.1241,0,0,1,5.2512,2.0173c1.0168,1.1549,1.1045,2.7743,1.1825,4.2377a5.9247,5.9247,0,0,1-2.5387,5.4023c-.2875.091.0016.2632.1218.32a4.2962,4.2962,0,0,1,2.0336,2.6931c.549,2.079.2111,4.2409.2729,6.359-2.3276-.0082-4.6568-.0017-6.9844-.0049-.1819-1.7526.3021-3.53-.0942-5.2659a2.1839,2.1839,0,0,0-1.3563-1.6779c-2.9707-.5376-5.9968-.2274-8.9935-.2274-.05,2.3893-.0065,4.7819-.0228,7.1728-2.2772-.013-4.5528-.0114-6.83-.013q0-10.5276,0-21.0586m6.908,4.4148a38.6936,38.6936,0,0,0-.0162,4.91c2.9707-.1787,5.9756.27,8.9237-.2761,1.9913-.5149,1.941-3.9129-.0341-4.4131C143.04,120.8622,140.0658,121.174,137.11,121.036Z"/></svg>