<svg xmlns="http://www.w3.org/2000/svg" viewBox="0 0 200 250"><defs><style>.a{fill:#c30022;}.a,.b{fill-rule:evenodd;}.b{fill:#505456;}</style></defs><title>Card_orlen</title><path class="a" d="M134,135.3715H24V104.7847H134ZM40.8343,109.2738a10.9024,10.9024,0,0,1,10.664,10.9446,10.8052,10.8052,0,0,1-21.6086,0,10.9569,10.9569,0,0,1,10.9446-10.9446m0,6.7338a4.1337,4.1337,0,0,1,4.2085,4.2108,4.315,4.315,0,0,1-4.2085,4.2086,4.3784,4.3784,0,0,1-4.4891-4.2086,4.2066,4.2066,0,0,1,4.4891-4.2108M71.7018,130.319l-5.331-8.4172c2.2446-.28,3.9281-2.2445,3.9281-5.0525,0-4.4892-2.8057-7.0143-8.1366-7.0143H53.7429v20.484h6.4532v-6.7337l3.3691,6.7337ZM60.1961,119.0939v-4.2086h1.1222c1.6857,0,2.5252.8439,2.5252,2.2446,0,1.4028-.84,2.2468-2.5252,2.2468H60.1961Zm44.62,11.2251v-5.6114h-8.7v-2.5252h4.2086v-4.77H96.116v-2.5274h7.8561v-5.05H89.6628v20.484Zm21.6063,0V109.835h-6.4532V117.13c0,.8417.2806,1.964.2806,3.3691l-7.0188-10.664h-6.1725v20.484h6.4553v-7.5754a12.4768,12.4768,0,0,0-.2828-3.0863L120.25,130.319Zm-39.004,0v-5.6114H80.9629V109.835H73.6657v20.484Zm19.6422-30.4577a9.0759,9.0759,0,0,0,0-12.7861L93.1121,73.129a15.0722,15.0722,0,0,0-10.6706-4.4781H81.1231a9.032,9.032,0,0,0-9.0295,9.034,9.2791,9.2791,0,0,0,1.5721,5.1016,4.5014,4.5014,0,0,1,4.4024-5.1105h4.3155a6.1132,6.1132,0,0,1,4.2419,1.748ZM98.71,75.2377a4.3529,4.3529,0,0,0,3.7409-6.5868H94.967A4.3589,4.3589,0,0,0,98.71,75.2377M117.5887,63.761h0l-.7816-.7749a16.6424,16.6424,0,0,0-11.7239-4.87l-11.9444.0089a10.5389,10.5389,0,0,0-10.4213,9.0206h22.3746a7.4508,7.4508,0,0,1,5.2841,2.1912l7.3751,7.3728a9.0545,9.0545,0,0,0,12.6191-.16Z"/><path class="b" d="M25,178.6794V147.2863h8.5348V171.313h10.64v7.3664Z"/><path class="b" d="M47.3838,156.99h7.6568v21.6878H47.3838Zm-.35-6.7944A4.1993,4.1993,0,0,1,51.232,146a4.0992,4.0992,0,0,1,3.01,1.2057,4.0477,4.0477,0,0,1,1.21,2.99,4.154,4.154,0,0,1-1.2343,3.0341,4.0378,4.0378,0,0,1-2.9858,1.2476,3.997,3.997,0,0,1-2.9571-1.27,4.16,4.16,0,0,1-1.241-3.0121"/><path class="b" d="M74.8222,165.0586a4.5847,4.5847,0,0,0-1.4038-2.9286,4.1454,4.1454,0,0,0-2.9285-1.1045,4.23,4.23,0,0,0-2.97,1.0077,5.2082,5.2082,0,0,0-1.47,3.0254Zm7.5424,4.3257H65.8781a5.4947,5.4947,0,0,0,1.2872,3.85,4.6626,4.6626,0,0,0,3.582,1.3532,6.0357,6.0357,0,0,0,2.9285-.6491,4.2352,4.2352,0,0,0,1.813-1.923l5.7647,2.2948a7.4765,7.4765,0,0,1-3.6458,3.8373,13.8732,13.8732,0,0,1-6.4138,1.3509,12.9107,12.9107,0,0,1-9.0848-3.1375,10.6966,10.6966,0,0,1-3.4214-8.2774,11.24,11.24,0,0,1,3.4214-8.3939,11.8674,11.8674,0,0,1,8.6514-3.3422,10.9611,10.9611,0,0,1,8.493,3.3884q3.1089,3.3861,3.1111,9.2828Z"/><path class="b" d="M87.0661,178.6794v-16.31H83.8516v-5.3774h3.2145v-6.4908h7.5425v6.4908h3.2146v5.3774H94.6086v16.31Z"/><path class="b" d="M123.1084,156.9907v11.076a18.5363,18.5363,0,0,1-.59,5.4369,7.8669,7.8669,0,0,1-1.9824,3.1419,8.9178,8.9178,0,0,1-3.5842,2.1453,16.1386,16.1386,0,0,1-5.0386.7062,15.9732,15.9732,0,0,1-5.0077-.7062,9.4624,9.4624,0,0,1-3.6349-2.1453,7.3771,7.3771,0,0,1-1.9736-3.12,19.016,19.016,0,0,1-.5786-5.4589v-11.076h7.307V168.56a6.7415,6.7415,0,0,0,.8955,3.9385,4.1249,4.1249,0,0,0,5.82.022,6.81,6.81,0,0,0,.8845-3.9605V156.9907Z"/><path class="b" d="M134.9078,178.6794l-9.745-21.6878h8.1608l3.6832,9.5777c.0418.099.0924.2222.15.3652a15.891,15.891,0,0,1,.8779,3.0253,13.6747,13.6747,0,0,1,.8361-2.8119c.099-.2574.1716-.4488.2112-.5786l3.6854-9.5777H150.71l-9.8285,21.6878Z"/><path class="b" d="M168.2848,167.8269a5.6626,5.6626,0,0,0-1.3531-3.9868,5.3673,5.3673,0,0,0-7.3687-.011,5.6824,5.6824,0,0,0-1.34,3.9978,5.5851,5.5851,0,0,0,1.3509,3.9671,5.3981,5.3981,0,0,0,7.3577,0,5.586,5.586,0,0,0,1.3531-3.9671M175,156.9907v21.6879h-7.0144v-3.538a10.0849,10.0849,0,0,1-3.3774,3.3069,8.89,8.89,0,0,1-4.4071,1.05,8.5053,8.5053,0,0,1-6.9264-3.1573,12.9378,12.9378,0,0,1-2.5941-8.471,12.3663,12.3663,0,0,1,2.7107-8.4049,9.1939,9.1939,0,0,1,7.3027-3.1156,8.1905,8.1905,0,0,1,4.2135,1.0385,8.6714,8.6714,0,0,1,3.0341,3.2036v-3.6Z"/></svg>