<svg xmlns="http://www.w3.org/2000/svg" viewBox="0 0 200 250"><defs><style>.a{fill:#2d4f9e;}.a,.b,.c{fill-rule:evenodd;}.b{fill:#ecb731;}.c{fill:#33a457;}</style></defs><title>Card_hyundai</title><path class="a" d="M66.9732,120.0113v9.05H71.19V108.88H66.9732v7.6454H59.1038V108.88H54.8869v20.1814h4.2169v-9.05Zm17.8208,1.4894L91.54,108.88H86.7613L82.77,117.65l-4.1878-8.77H73.6072l6.9708,12.5642v7.6172h4.216ZM110.231,108.88h-4.3v13.2952c0,2.4462-1.1808,3.8509-4.0776,3.8509-1.9665,0-3.5979-1.2363-3.5979-4.0475V108.88H93.9552v13.379a7.3518,7.3518,0,0,0,1.574,4.8905,8.6252,8.6252,0,0,0,6.4091,2.45c5.0872,0,8.2909-2.2814,8.2909-7.5935V108.88Zm16.4443,14.0536h-.0574l-8.01-14.0536h-4.4418v20.1813h3.9347V114.67h.0564l8.2363,14.3914H130.61V108.88h-3.9346v14.0536Zm7.9822,6.1278h8.7415c6.6622,0,8.3765-6.24,8.3765-10.5687,0-3.8227-1.4047-9.6127-8.208-9.6127h-8.91Zm4.1323-16.6956h4.0466c1.8,0,4.6393.478,4.6393,6.4364,0,3.3166-1.1543,6.7742-4.5819,6.7742H138.79Zm19.31,12.536h7.4488l1.2927,4.16h4.582L164.3115,108.88H159.45l-7.1956,20.1814h4.4417l1.4038-4.16Zm3.7107-11.4681h.0556l2.5017,7.9822h-5.1436l2.5864-7.9822ZM178,108.88h-4.216v20.1814H178ZM60.3729,134.8606H54.734v7.6682h5.821v-1.3556H56.3044v-1.9874h3.738V137.83h-3.738v-1.6132h4.0685v-1.3565Zm5.8829,5.34H66.234l-3.0434-5.34h-1.687v7.6682h1.4949V137.061h.0209l3.13,5.4678h1.6023v-7.6682H66.2558Zm6.3527-.5125h1.7834a1.8972,1.8972,0,0,1-1.8581,1.6878c-1.09,0-2.2322-.5444-2.2322-2.6374,0-1.9655,1.0569-2.7557,2.2-2.7557a1.6842,1.6842,0,0,1,1.6769,1.2609H75.78c-.0847-1.057-1.0142-2.5846-3.3639-2.5846-2.5846-.0109-3.749,1.9646-3.749,4.0585,0,2.6911,1.677,4.0175,3.5241,4.0175A2.8237,2.8237,0,0,0,74.584,141.57l.16.96h1.0679v-4.1322H72.6076v1.29Zm5.9038-4.8278H76.91v7.6682h1.6023Zm5.8929,5.34h-.0218l-3.0434-5.34H79.653v7.6682h1.4949V137.061h.0209l3.13,5.4678H85.9v-7.6682H84.4052v5.34Zm8.3929-5.34h-5.64v7.6682h5.821v-1.3556H88.7286v-1.9874h3.7381V137.83H88.7286v-1.6132h4.07v-1.3565Zm6.8433,0H94.0025v7.6682h5.82v-1.3556H95.572v-1.9874H99.31V137.83H95.572v-1.6132h4.0694v-1.3565Zm1.2054,7.6682h1.57v-3.0007h1.6551c1.1844,0,1.2481.4052,1.2481,1.453a5.0974,5.0974,0,0,0,.1721,1.5477h1.7725v-.2031c-.3414-.1283-.3414-.4051-.3414-1.5276,0-1.43-.3432-1.666-.9723-1.9437a1.8324,1.8324,0,0,0,1.1862-1.8262,2.1609,2.1609,0,0,0-2.4143-2.1685h-3.8764v7.6691Zm1.57-4.2934v-2.05h1.9964c.9405,0,1.1216.5981,1.1216,1.0042,0,.7583-.4069,1.046-1.239,1.046Zm7.3349-3.3748H108.149v7.6682h1.6022Zm5.893,5.34h-.0219l-3.0434-5.34H110.891v7.6682h1.4958V137.061h.0209l3.13,5.4678h1.6014v-7.6682h-1.4948v5.34Zm6.3526-.5125H123.78a1.8966,1.8966,0,0,1-1.8581,1.6878c-1.09,0-2.2332-.5444-2.2332-2.6374,0-1.9655,1.0579-2.7557,2.2013-2.7557a1.6851,1.6851,0,0,1,1.6769,1.2609H125.17c-.0856-1.057-1.0151-2.5846-3.3639-2.5846-2.5855-.0109-3.75,1.9646-3.75,4.0585,0,2.6911,1.6769,4.0175,3.5259,4.0175a2.8247,2.8247,0,0,0,2.3916-1.1653l.16.96h1.0688v-4.1322h-3.2046v1.29Zm13.8925-2.3179a3.05,3.05,0,0,0-3.3111-2.712c-1.9755,0-3.5241,1.3665-3.5241,4.0476,0,2.6483,1.463,4.0284,3.5032,4.0284a3.1938,3.1938,0,0,0,3.332-2.8322H134.287a1.6368,1.6368,0,0,1-1.6979,1.4421c-1.3564,0-1.9008-1.2382-1.9008-2.6165,0-2.1685,1.1325-2.68,1.9008-2.68a1.5581,1.5581,0,0,1,1.6979,1.3237h1.6023v-.0009Zm1.0223,1.3246c0,3.5988,2.6711,4.0394,3.6862,4.0394,1.0132,0,3.6843-.44,3.6843-4.0394s-2.6711-4.0375-3.6843-4.0375C139.5827,134.6576,136.9116,135.0955,136.9116,138.6951Zm1.6023,0c0-2.1467,1.2181-2.68,2.0839-2.68.8639,0,2.082.5334,2.082,2.68s-1.2181,2.68-2.082,2.68C139.732,141.3753,138.5139,140.8409,138.5139,138.6951ZM147.29,140.97h-1.6014v1.5586H147.29Zm3.5441,0h-1.6022v1.5586h.8976a1.16,1.16,0,0,1-.8976,1.2308v.5663h.0109a1.8226,1.8226,0,0,0,1.5913-2.01Zm6.4283-6.11H155.66v7.6682h5.4141v-1.3875h-3.8118v-6.2807Zm7.9012,1.3565h2.3169v-1.3565h-6.237v1.3565h2.3187v6.3117h1.6014Zm3.4139,6.3117h3.3211c2.5318,0,3.1845-2.3707,3.1845-4.0148,0-1.453-.5353-3.6534-3.1208-3.6534h-3.3857v7.6682Zm1.5705-6.3436h1.5376c.6846,0,1.7643.1812,1.7643,2.4462,0,1.26-.4388,2.5737-1.7425,2.5737H170.148Zm7.0144,4.785H175.56v1.5586h1.6022Z"/><path class="b" d="M18,129.42,31.4628,105l14.2438,24.42Z"/><path class="c" d="M21.444,129.42,34.9058,105l14.2457,24.42Z"/></svg>