<svg xmlns="http://www.w3.org/2000/svg" xmlns:xlink="http://www.w3.org/1999/xlink" viewBox="0 0 200 250"><defs><style>.a{fill:url(#a);}.b{fill:url(#b);}.c{fill:url(#c);}.d{fill:#191919;}</style><linearGradient id="a" x1="114.9845" y1="60" x2="114.9845" y2="115.2984" gradientUnits="userSpaceOnUse"><stop offset="0" stop-color="#e66102"/><stop offset="0.4475" stop-color="#f29d01"/><stop offset="0.8139" stop-color="#fbc901"/><stop offset="1" stop-color="#fed901"/></linearGradient><radialGradient id="b" cx="63.293" cy="112.7789" r="68.1492" gradientTransform="translate(3.7659 2.2596) scale(0.9623 0.9623)" gradientUnits="userSpaceOnUse"><stop offset="0" stop-color="#bebebe"/><stop offset="0.1904" stop-color="#9a9a9a"/><stop offset="0.5777" stop-color="#555"/><stop offset="0.8578" stop-color="#2a2a2a"/><stop offset="1" stop-color="#191919"/></radialGradient><linearGradient id="c" x1="87.7136" y1="135.6769" x2="117.14" y2="135.6769" xlink:href="#a"/></defs><title>Card_slavyansk-eco</title><path d="M65.6958,185.5842H62.9044l-1.2622-2.854H55.9027l-1.2011,2.854H52.0608l5.6036-12.5848h2.08Zm-5.0639-5.1507-1.9278-4.3827-1.8382,4.3827Z"/><path d="M50.6435,172.9589V185.54H48.1746v-10.12h-4.4v5.6174a4.5024,4.5024,0,0,1-4.5025,4.5024h-.45v-2.512h.3354a2.1551,2.1551,0,0,0,2.1551-2.1551v-7.9143Z"/><path d="M130.0787,185.5428h-3.2632l-4.1632-5.301L121.1,181.6689v3.8739h-2.7088V172.958H121.1v5.2673l5.42-5.2673h3.3163l-5.49,5.1678Z"/><path d="M163.0937,185.5428h-3.2632l-4.1632-5.301-1.5519,1.4271v3.8739h-2.7088V172.958h2.7088v5.2673l5.42-5.2673h3.3163l-5.49,5.1678Z"/><path d="M102.8339,185.5413h-2.7887v-4.9494H94.9v4.9494h-2.78V172.9564H94.9v4.6809h5.1449v-4.6809h2.7887Z"/><path d="M114.4788,181.7825l1.8991,1.8993a6.574,6.574,0,1,1,0-8.8628l-1.8991,1.8991a3.8958,3.8958,0,1,0,0,5.0644Z"/><path d="M148.7267,179.2529a6.5693,6.5693,0,0,1-11.426,4.4287l1.9019-1.9019a3.8909,3.8909,0,0,0,6.61-1.1845h-5.6987v-2.2394h5.8279a3.8858,3.8858,0,0,0-6.7394-1.6362l-1.9019-1.9019a6.5737,6.5737,0,0,1,11.426,4.4352Z"/><path d="M35.53,181.7825l1.8992,1.8993a6.574,6.574,0,1,1,0-8.8628L35.53,176.7181a3.8958,3.8958,0,1,0,0,5.0644Z"/><path d="M75.0459,178.9158v-.0718a2.8234,2.8234,0,0,0-.28-5.4186,7.6876,7.6876,0,0,0-2.7776-.4665h-5.146V185.54h5.1963a7.885,7.885,0,0,0,2.7273-.4377,3.4984,3.4984,0,0,0,2.5766-3.359A2.8758,2.8758,0,0,0,75.0459,178.9158Zm-1.2417-2.0024c0,.8039-.5454,1.3853-1.9952,1.4571h-2.9v-2.8638H71.486C73.0291,175.5067,73.8042,175.9587,73.8042,176.9134Zm-1.5359,6.4881c-.0861.0071-.1722.0071-.2655.0071-.079,0-.1507-.0071-.23-.0071H68.9022v-2.8063h3.0144c1.7154,0,2.5121.3588,2.5121,1.3853C74.4287,182.9638,73.56,183.3584,72.2683,183.4015Z"/><path d="M84.0891,172.9589a7.9142,7.9142,0,0,0-1.988.2366,5.2,5.2,0,0,0-.6173.2011,3.4623,3.4623,0,0,0-1.256.8541,4.5588,4.5588,0,0,0-1.2129,3.079,3.9615,3.9615,0,0,0,2.713,3.8686l-2.8924,4.342h2.8062l2.9-4.2919h1.7225V185.54h2.7991V172.9589Zm-.1,6.1651a4.9,4.9,0,0,1-.84-.0645,1.4823,1.4823,0,0,1-1.3421-1.7011,1.6789,1.6789,0,0,1,1.8732-1.816c.079-.007.1508-.007.2369-.007.0646,0,.1292.007.1938.007h2.1531v3.5816Z"/><path d="M169.4257,172.6789A6.5742,6.5742,0,1,0,176,179.2529,6.5779,6.5779,0,0,0,169.4257,172.6789Zm0,10.4644a3.8937,3.8937,0,1,1,3.8972-3.89A3.8933,3.8933,0,0,1,169.4257,183.1433Z"/><path class="a" d="M134.6164,116.2663c-2.3828-9.6247-12.4739-18.0074-16.4931-21.3521-1.1268-.9329-2.3039-1.8231-3.6675-2.8492A123.0808,123.0808,0,0,1,103.31,82.7775c-5.8924-5.5336-7.17-8.5622-7.6437-10.8015a17.0637,17.0637,0,0,1,.445-8.1963c1.0622-1.1772,2.1029-2.2751,3.1077-3.2658a1.769,1.769,0,0,1,2.5766.0792C112.1232,72.0117,124.2311,89.79,130.59,104.187A56.2639,56.2639,0,0,1,134.6164,116.2663Z"/><path class="b" d="M100.5464,153.9751a34.45,34.45,0,0,1-34.45-34.45c0-7.0552,4.2776-17.4621,10.22-27.9121.0287.2155.0646.4377.1.6532,1.0694,5.9212,6.9978,11.4979,10.9237,15.187.3373.3228.66.6242.9617.9116,1.12,1.0692,2.1173,2.0024,3.0288,2.8347a9.35,9.35,0,0,1,1.1484,1.3566,6.0236,6.0236,0,0,1,.9186,2.0239,7.61,7.61,0,0,1,.1723,1.3779,10.3278,10.3278,0,0,1-2.1963,6.5313,15.3274,15.3274,0,0,0-1.4425,1.945,14.7134,14.7134,0,0,0,27.2014,7.4141c-.2225-6.33-6.2513-11.9713-10.6222-16.163-2.4546-2.3827-8.469-8.0025-11.6485-10.9883-.6962-.66-1.256-1.1842-1.6077-1.5287-.3086-.2944-.646-.6027-.9976-.94a72.5261,72.5261,0,0,1-5.3183-5.4043c-1.7153-1.9954-3.1365-4.0767-3.4594-5.8349-.2943-1.6223-1.1484-6.3449,1.6866-13.3283A145.2516,145.2516,0,0,1,96.1109,63.78a17.0637,17.0637,0,0,0-.445,8.1963c.4737,2.2393,1.7513,5.2679,7.6437,10.8015a123.0808,123.0808,0,0,0,11.1462,9.2875c1.3636,1.0261,2.5407,1.9163,3.6675,2.8492,4.0192,3.3447,14.11,11.7274,16.4931,21.3521a23.2126,23.2126,0,0,1,.38,3.2584C135.815,140.7188,119.5731,153.9751,100.5464,153.9751Z"/><path class="c" d="M117.14,132.2067a14.7132,14.7132,0,1,1-27.2086-7.7729,14.7134,14.7134,0,0,0,27.2014,7.4141C117.14,131.9628,117.14,132.0848,117.14,132.2067Z"/><path class="d" d="M125.1856,127.1039c0,13.7372-9.0217,25.0626-20.6631,26.6774-1.0909.1076-2.1962.1721-3.3158.1868h-.1436c-12.7035-.3662-22.91-12.2516-22.91-26.8642a28.5467,28.5467,0,0,1,8.29-20.4911c.3087.2874.61.5671.8972.84.3373.3228.66.6242.9617.9116,1.12,1.0692,2.1173,2.0024,3.0288,2.8347a9.35,9.35,0,0,1,1.1484,1.3566,6.0236,6.0236,0,0,1,.9186,2.0239,7.61,7.61,0,0,1,.1723,1.3779,10.3278,10.3278,0,0,1-2.1963,6.5313,15.3274,15.3274,0,0,0-1.4425,1.945,14.7143,14.7143,0,1,0,27.2086,7.7729c0-.1219,0-.2439-.0072-.3588-.2225-6.33-6.2513-11.9713-10.6222-16.163-2.4546-2.3827-8.469-8.0025-11.6485-10.9883-.6962-.66-1.256-1.1842-1.6077-1.5287-.2584-.2439-.5383-.5025-.8326-.7822-.05-.05-.1076-.1006-.165-.158a72.5261,72.5261,0,0,1-5.3183-5.4043c-1.7153-1.9954-3.1365-4.0767-3.4594-5.8349a20.4658,20.4658,0,0,1-.2871-2.1318A24.3,24.3,0,0,1,85.1657,77.66c1.0981-1.5644,2.2106-3.1,3.3231-4.5789-1.2776,3.768-1.8876,8.0526,1.12,12.4882a53.6527,53.6527,0,0,0,6.0073,6.3087A174.2993,174.2993,0,0,0,111.97,105.29c4.6085,3.3158,6.209,3.8315,10.2133,9.71C124.0542,117.7468,125.1856,122.0224,125.1856,127.1039Z"/></svg>