<svg xmlns="http://www.w3.org/2000/svg" viewBox="0 0 200 250"><defs><style>.a{fill:#ef3340;}.b{fill:#509e2f;}.c{fill:#00b5e2;}.d{fill:#0c0c0c;}</style></defs><title>Card_socar</title><path class="a" d="M94.0984,67.3172c0,27.4539-23.0121,32.5917-23.0121,58.98,0,10.3017,6.4962,19.2229,14.164,20.2889a17.0661,17.0661,0,0,1-.7432-5.3562c0-19.0482,30.6361-24.9549,30.6361-57.4417,0-15.5357-10.964-28.6684-23.7552-31.7878,0,0,2.7016,8.4319,2.7016,15.3085Z"/><path class="b" d="M92.1574,142.3829c0,5.3912,3.8207,11.1318,8.8043,13.0017a7.709,7.709,0,0,1-.3847-2.665c0-10.6163,31.423-13.9978,31.423-41.74a28.6892,28.6892,0,0,0-9.565-21.46C118.1333,121.0541,92.1574,125.3968,92.1574,142.3829Z"/><path class="c" d="M75.694,60.8076a13.372,13.372,0,0,1,1.5126,5.7494C77.2066,76.3,68,80.0131,68,89.9129a12.5754,12.5754,0,0,0,6.1377,10.7387,12.0137,12.0137,0,0,1,.4022-2.3068c2.1508-6.8766,12.24-14.4871,12.24-25.2782A12.5653,12.5653,0,0,0,75.694,60.8076Z"/><path class="d" d="M40.2664,185.6671c2.2345,2.0146,4.3542,3.1992,7.4124,3.1992,1.6964,0,4.7873-.7153,4.7873-2.9466,0-1.29-.9712-1.9425-2.8711-2.2641l-5.332-.8662c-4.7447-.7514-7.34-3.2714-7.34-7.0481,0-6.1819,5.0039-8.7413,10.4738-8.7413a15.1889,15.1889,0,0,1,11.2973,4.9284l-4.8595,3.488a8.8614,8.8614,0,0,0-6.8742-3.2419c-1.4668,0-3.6324.9352-3.6324,2.5922,0,1.365,1.1189,2.0508,3.56,2.4478l2.4544.3938c5.1056.8269,9.3187,2.4084,9.3187,7.2975,0,7.7011-6.95,9.1449-11.73,9.1449A15.438,15.438,0,0,1,35,188.8335Zm34.148,8.3868c-8.1736,0-12.9577-6.3361-12.9577-13.5351,0-7.186,4.7841-13.5188,12.9577-13.5188,8.1638,0,12.9446,6.3328,12.9446,13.5188,0,7.1958-4.7841,13.5351-12.9446,13.5351Zm0-21.6628c-3.7472,0-6.5494,2.3789-6.5494,8.1277,0,3.7472,1.5127,8.1375,6.5494,8.1375,4.7447,0,6.5461-4.1771,6.5461-8.1375C80.9605,176.4927,79.1591,172.3911,74.4144,172.3911Zm33.8888,3.8555a5.835,5.835,0,0,0-5.3353-3.8588c-3.5175,0-6.32,2.3855-6.32,8.1342,0,3.744,1.5094,8.1343,6.5494,8.1343a6.2433,6.2433,0,0,0,5.25-3.6l5.0728,2.4479a11.89,11.89,0,0,1-10.3228,6.5461c-8.1736,0-12.961-6.3329-12.961-13.5287,0-7.1859,4.4658-13.5187,12.4524-13.5187,5.0334,0,8.3409,2.4445,10.72,6.6839Zm15.1857-8.5214h6.6183l9.68,25.6036h-6.8776l-1.2928-4.0261H122.16l-1.2994,4.0261h-6.8283Zm6.5789,16.8262-3.16-10.5722h-.0689l-3.17,10.5722Zm12.2587-16.8295h12.8068c5.7586,0,9.2892,2.6644,9.2892,8.4131a7.0774,7.0774,0,0,1-5.2959,6.9071L165,193.3288h-7.1663l-5.0367-9.2072h-4.0622v9.2072h-6.4083Zm6.4083,11.6419h5.8636c2.0508-.03,3.4191-1.0664,3.4191-3.4454a3.1165,3.1165,0,0,0-3.4191-3.4551h-5.8636Z"/></svg>