<svg xmlns="http://www.w3.org/2000/svg" viewBox="0 0 200 250"><defs><style>.a{fill:#ed1a3a;}.b{fill:#fff;}</style></defs><title>Card_lukoil</title><path class="a" d="M153,59H47V165H153Z"/><path class="b" d="M135.8809,69.56a5.84,5.84,0,0,0-5.2,3.5582L117.3344,95.0911a16.1349,16.1349,0,0,0-1.6011,5.8264,8.69,8.69,0,0,0,.68,3.6433l14.4377,34.4907H74.7864a4,4,0,0,1-3.6838-3.8984V75.7405a6.1788,6.1788,0,1,0-12.3549.2552l.255,63.0558a12.1284,12.1284,0,0,0,12.1,12.3475h76.439L128.91,103.7244a6.1843,6.1843,0,0,1,.51-5.5l12.3266-20.0452a13.3978,13.3978,0,0,0,.425-2.6935A6.09,6.09,0,0,0,135.8809,69.56Zm-30.2639.0283a5.8652,5.8652,0,0,0-5.9932,6.1525V118.255c0,6.1736-8.3028,5.6656-8.3028,0V75.7405c0-8.1222-12.0148-8.1222-12.0148,0v42.8547c0,9.8007,7.3181,16.3169,16.0529,16.3169,8.9726,0,16.2654-6.5162,16.2654-16.3169V75.7405A5.806,5.806,0,0,0,105.617,69.588Z"/><path d="M49.523,173.1794v10.6544c0,2.663-.2712,4.1435-2.4407,4.1435A2.7638,2.7638,0,0,1,46,187.8307v4.5857a5.1327,5.1327,0,0,0,2.0327.2981c6.098,0,6.3691-4.5882,6.3691-7.2536v-7.6934h3.523v14.6489h4.8765v-19.237H49.523"/><path d="M64.4284,173.1794l6.64,13.911-2.4382,5.326h5.2844l7.8595-19.237H76.49l-2.8462,8.138-3.3886-8.138H64.4284"/><path d="M83.2647,192.4164h4.8789v-8.287l5.0133,8.287h6.2323L92.48,182.5023l6.7748-9.3229H93.428l-5.2844,8.138v-8.138H83.2647v19.237"/><path d="M107.3855,193.01c6.5036,0,9.4842-5.0328,9.4842-10.2122,0-5.03-2.9806-10.0632-9.4842-10.0632-6.3692,0-9.35,5.0328-9.35,10.0632C98.0357,187.9773,101.0163,193.01,107.3855,193.01Zm0-4.5882c-2.1695,0-4.3365-1.9251-4.3365-5.624s2.167-5.475,4.3365-5.475c2.3039,0,4.4709,1.7761,4.4709,5.475s-2.167,5.624-4.4709,5.624"/><path d="M119.31,173.1794v19.237h4.7421l6.7747-11.5412v11.5412h4.7445v-19.237h-4.7445l-6.7747,11.5437V173.1794Zm8.2651-1.0359a5.0515,5.0515,0,0,0,5.0157-2.961L129.7448,168a2.1051,2.1051,0,0,1-2.1694,1.6271A1.9775,1.9775,0,0,1,125.5427,168l-2.8438,1.1825a4.8664,4.8664,0,0,0,4.8765,2.961"/><path d="M140.7217,173.1794v10.6544c0,2.663-.2736,4.1435-2.4407,4.1435a2.7818,2.7818,0,0,1-1.0847-.1466v4.5857a5.1445,5.1445,0,0,0,2.0327.2981c6.098,0,6.3692-4.5882,6.3692-7.2536v-7.6934h3.5229v14.6489H154v-19.237H140.7217"/></svg>