<svg xmlns="http://www.w3.org/2000/svg" viewBox="0 0 200 250"><defs><style>.a{fill:#fd0;}.b{fill:#323232;}</style></defs><title>Card_anpz</title><path class="a" d="M61.2868,153.5471l47.3083-81.9339L100.16,57l-55.746,96.5473ZM130.59,138.9377l-43.9924-.004L78.16,153.547l77.7386.0037-38.868-67.3244L108.5929,100.84Z"/><path class="b" d="M36.1534,181.2354H33.0511l-1.4028-3.1718H25.27l-1.3349,3.1718H21l6.2276-13.9863H29.539Zm-5.6278-5.7242L28.3831,170.64,26.34,175.5112Z"/><path class="b" d="M45.1038,168.2055a7.1113,7.1113,0,0,1,4.88,1.4649,5.8244,5.8244,0,0,1,1.9043,4.5149,5.6589,5.6589,0,0,1-1.8938,4.438,7.2623,7.2623,0,0,1-4.89,1.417v1.31H41.9056v-1.31a7.2861,7.2861,0,0,1-4.8959-1.417,5.6514,5.6514,0,0,1-1.8987-4.438,5.8147,5.8147,0,0,1,1.91-4.5149,7.1312,7.1312,0,0,1,4.8847-1.4649V167.23h3.1982Zm-3.1982,9.4351v-7.0355a3.75,3.75,0,0,0-2.7327.8368,3.984,3.984,0,0,0-.0086,5.3932A3.841,3.841,0,0,0,41.9056,177.6406Zm3.1982,0a3.8431,3.8431,0,0,0,2.7369-.8055,3.9773,3.9773,0,0,0-.0046-5.3932,3.7475,3.7475,0,0,0-2.7323-.8368Z"/><path class="b" d="M65.5215,181.2354H62.5257v-9.0739l-6.321,9.0739H53.6153V167.2491H56.601v8.5229l6.3211-8.5229h2.5994Z"/><path class="b" d="M121.174,181.2354h-2.9958v-9.0739l-6.321,9.0739h-2.5894V167.2491h2.9857v8.5229l6.3211-8.5229h2.5994Z"/><path class="b" d="M135.1547,181.2354H132.159v-9.0739l-6.3211,9.0739h-2.5894V167.2491h2.9858v8.5229l6.321-8.5229h2.5994Z"/><path class="b" d="M78.9083,181.2354H75.9007V169.9916H70.5413v11.2438h-2.998V167.2491h11.365Z"/><path class="b" d="M166.7693,181.2357h-3.1507V169.9919h-5.6147v11.2438h-3.1408V167.2494h11.9062Z"/><path class="b" d="M107.7614,181.2354h-3.6266l-4.6267-5.8913-1.7248,1.586v4.3053h-3.01V167.2491h3.01v5.8539l6.0239-5.8539h3.6856l-6.1015,5.7434Z"/><path class="b" d="M152.76,181.2354h-3.0993v-5.5H143.943v5.5h-3.0892V167.2491h3.0892v5.2022h5.7177v-5.2022H152.76Z"/><path class="b" d="M91.4878,177.058l2.1107,2.1109a7.3061,7.3061,0,1,1,0-9.85L91.4878,171.43a4.33,4.33,0,1,0,0,5.6283Z"/><polygon class="b" points="130.789 167.249 127.001 167.249 129.166 164.002 132.954 164.002 130.789 167.249"/><path class="b" d="M167.57,179.0447l1.7493-2.1255a5.9881,5.9881,0,0,0,3.7487,1.7393c1.5946,0,2.6956-.6622,2.6956-1.838,0-1.1573-.8912-1.491-2.8009-1.491h-1.4087v-2.4481h.96c1.863,0,2.5516-.5763,2.5516-1.5478,0-1.0694-.91-1.5069-2.21-1.5069a5.3551,5.3551,0,0,0-3.142,1.23l-1.6724-2.0535a7.7392,7.7392,0,0,1,4.93-1.85c3.45,0,5.5905,1.3978,5.5905,3.6773a3.3082,3.3082,0,0,1-2.1116,2.9536v.084A3.2258,3.2258,0,0,1,179,177.0558c0,2.8109-2.5551,4.2761-5.8928,4.2761A8.5716,8.5716,0,0,1,167.57,179.0447Z"/></svg>