<svg xmlns="http://www.w3.org/2000/svg" viewBox="0 0 200 250"><defs><style>.a{fill:#ff9601;}.b,.c{fill:#013705;}.c{opacity:0.6;}</style></defs><title>Card_taneco</title><path class="a" d="M52.5135,120.8778a4.4336,4.4336,0,0,0-1.2546-.491h.8693a4.465,4.465,0,0,0,4.464-4.464v-.94H49.3089a4.4362,4.4362,0,0,0-1.3393.2067l.7589-.4394a4.4668,4.4668,0,0,0,1.6353-6.0992l-.47-.8129L43.5855,111.48a4.4143,4.4143,0,0,0-1.0572.8482l.4393-.759a4.4647,4.4647,0,0,0-1.6352-6.0992L40.52,105l-3.6417,6.3084a4.4345,4.4345,0,0,0-.4911,1.2547v-.8694a4.465,4.465,0,0,0-4.464-4.464h-.94v7.2834a4.4356,4.4356,0,0,0,.2068,1.3392l-.4394-.759a4.4626,4.4626,0,0,0-6.0969-1.6352l-.8152.47,3.6417,6.3084a4.4139,4.4139,0,0,0,.8481,1.0572l-.7589-.4392a4.4661,4.4661,0,0,0-6.0992,1.6328l-.47.8153,6.3083,3.6417a4.4413,4.4413,0,0,0,1.2547.491h-.8693a4.465,4.465,0,0,0-4.464,4.464v.94H30.513a4.4355,4.4355,0,0,0,1.3392-.2067l-.7589.4394a4.4668,4.4668,0,0,0-1.6352,6.0992l.47.8129,6.3084-3.6417a4.4163,4.4163,0,0,0,1.0572-.8482l-.4393.7589a4.4648,4.4648,0,0,0,1.6352,6.0993l.8129.47,3.6417-6.3084a4.4374,4.4374,0,0,0,.4911-1.2547v.8694a4.465,4.465,0,0,0,4.464,4.464h.94v-7.2834a4.4356,4.4356,0,0,0-.2068-1.3392l.4394.7588a4.4624,4.4624,0,0,0,6.0968,1.6354l.8153-.47-3.6417-6.3084a4.4189,4.4189,0,0,0-.8481-1.0573l.7589.4393a4.4661,4.4661,0,0,0,6.0992-1.6328l.47-.8153Zm-6.2707,5.0749-.8129.47,2.2367,3.8743a4.4431,4.4431,0,0,0-3.2917-1.452h-.94v4.471a4.44,4.44,0,0,0-2.1263-2.8992l-.8129-.47-2.2344,3.8719a4.4537,4.4537,0,0,0-.3924-3.5758l-.47-.8129-3.8742,2.2366a4.4431,4.4431,0,0,0,1.4519-3.2916v-.94H30.506a4.44,4.44,0,0,0,2.8992-2.1262l.47-.8129-3.8719-2.2344a4.4544,4.4544,0,0,0,3.5759-.3924l.8129-.47-2.2367-3.8743a4.4434,4.4434,0,0,0,3.2916,1.452h.94V114.506a4.44,4.44,0,0,0,2.1263,2.8993l.8129.47,2.2344-3.8719a4.4536,4.4536,0,0,0,.3923,3.5758l.47.8129,3.8743-2.2366a4.4432,4.4432,0,0,0-1.452,3.2916v.94h4.4711a4.44,4.44,0,0,0-2.8993,2.1262l-.47.8129,3.872,2.2344A4.4543,4.4543,0,0,0,46.2428,125.9527Z"/><path class="b" d="M90.8946,114.3956a9.6329,9.6329,0,1,0,5.9,17.2452,4.338,4.338,0,0,0,.578.7119,4.446,4.446,0,0,0,3.1554,1.3086v-9.6328A9.634,9.634,0,0,0,90.8946,114.3956Zm0,14.8017a5.1689,5.1689,0,1,1,5.1688-5.1688A5.1689,5.1689,0,0,1,90.8946,129.1973Z"/><path class="b" d="M81.7316,114.748a4.2273,4.2273,0,0,1-4.229,4.2291H74.9182v14.8017H70.924V118.9771H64.1106a4.2273,4.2273,0,0,1,4.229-4.2291Z"/><path class="b" d="M169.3671,114.3956A9.6329,9.6329,0,1,0,179,124.0285,9.6339,9.6339,0,0,0,169.3671,114.3956Zm0,14.8017a5.1689,5.1689,0,1,1,5.1689-5.1688A5.1689,5.1689,0,0,1,169.3671,129.1973Z"/><path class="b" d="M158.56,130.9523a9.64,9.64,0,0,1-15.382-2.7558l.0094-.0141-.0705-.1128a9.656,9.656,0,0,1-.11-7.8308c.0517-.12.1057-.24.16-.3571a9.7626,9.7626,0,0,1,1.28-2.0018,9.6254,9.6254,0,0,1,14.0969-.7918l.0141.0141a4.57,4.57,0,0,1-4.8681,2.0887,4.6143,4.6143,0,0,0-.672-.2,5.0442,5.0442,0,0,0-1.1536-.1316,5.1689,5.1689,0,0,0,0,10.3377,5.0591,5.0591,0,0,0,1.2171-.1457,4.8509,4.8509,0,0,0,.5544-.1644l.0071-.0024a4.57,4.57,0,0,1,4.9174,2.0675Z"/><path class="b" d="M140.2336,130.9523a9.6307,9.6307,0,0,1-14.2919-1.0008,9.5316,9.5316,0,0,1-1.09-1.755l.0094-.0141-.0705-.1128a9.656,9.656,0,0,1-.11-7.8308c.0517-.12.1057-.24.16-.3571A9.7673,9.7673,0,0,1,126.12,117.88a9.6254,9.6254,0,0,1,14.0969-.7918l.0141.0141a4.57,4.57,0,0,1-4.8681,2.0887,4.6143,4.6143,0,0,0-.672-.2,5.0442,5.0442,0,0,0-1.1536-.1316,5.1689,5.1689,0,0,0,0,10.3377,5.0582,5.0582,0,0,0,1.217-.1457,4.8526,4.8526,0,0,0,.5545-.1644l.0071-.0024a4.57,4.57,0,0,1,4.9174,2.0675Z"/><path class="b" d="M120.85,114.748v19.0308h-.7641a7.5271,7.5271,0,0,1-6.6457-3.9926l-1.8753-3.5257-1.9451-3.6591a1.517,1.517,0,0,0-1.34-.8049h0v11.9823h-3.9941V114.748h1.4252a7.5285,7.5285,0,0,1,6.6473,3.9943l1.6238,3.0542,2.1381,4.0221a.8328.8328,0,0,0,.7353.4419h0V114.748Z"/><path class="c" d="M153.6891,119.1909a4.5787,4.5787,0,0,1-.672-.2A4.6143,4.6143,0,0,1,153.6891,119.1909Z"/><path class="c" d="M158.56,117.0975l-.0023.0047-.0141-.0141Z"/><path class="c" d="M153.635,128.8872a4.8509,4.8509,0,0,1-.5544.1644A4.2644,4.2644,0,0,1,153.635,128.8872Z"/><path class="b" d="M135.0648,121.679h5.1689a0,0,0,0,1,0,0v0a4.464,4.464,0,0,1-4.464,4.464h-5.1689a0,0,0,0,1,0,0v0A4.464,4.464,0,0,1,135.0648,121.679Z"/></svg>