<svg xmlns="http://www.w3.org/2000/svg" viewBox="0 0 200 250"><defs><style>.a{fill:#005597;}.b{fill:#e41b13;}</style></defs><title>Card_transneft</title><path class="a" d="M94.5659,137.3219c-21.6551-8.6419-28.1843-27.4046-27.3956-35.3.7912-7.8919,4.0722-10.0078,6.5569-10.7191,0,0-11.191-5.3275-15.9489,3.4151a42.2024,42.2024,0,0,0,72.1261,42.3784c-.0183.009-13.7012,8.8609-35.3407.2242"/><path class="a" d="M96.693,68.8667A42.1514,42.1514,0,0,0,61.3162,88.0706a16.1423,16.1423,0,0,1,8.4925-1.1288.4906.4906,0,0,0,.057.0067,39.936,39.936,0,0,1,52.0365-9.7245,41.9964,41.9964,0,0,0-25.21-8.3584"/><path class="a" d="M94.9016,132.32a42.4372,42.4372,0,0,0,17.0776,5.3094,27.1392,27.1392,0,0,0,6.8583-2.67c8.2579-5.1547,32.6548-39.0091,32.6548-39.0091s-13.2811-2.7319-19.0442,1.4974c-5.7783,4.2114-10.0954,10.91-16.4873,18.1291-6.3972,7.2219-9.2064,11.7656-14.8533,13.1936a24.9648,24.9648,0,0,1-11.74.0928c1.714,1.1675,3.5388,2.3146,5.5337,3.4563"/><path class="b" d="M134.3344,133.8293c5.1109-3.7243,17.0466-19.9953,17.0466-19.9953s-9.16-4.8043-17.477,0c-8.3223,4.8351-8.0722,6.0568-16.3328,12.8584-8.2451,6.8147-14.4205,7.5749-18.9694,7.2243-.2526-.009-.5026-.062-.7552-.0825,11.9074,5.5337,27.3979,6.4409,36.4877-.0067"/><path class="a" d="M151.5,68.9117s-12.9229-3.5464-23.31,5.42c-7.4588,6.4537-23.5312,49.7371-36.1744,52.1864a19.2147,19.2147,0,0,1-6.0337.3376.3116.3116,0,0,0,.0723.0593,26.2238,26.2238,0,0,0,7.4357-.43c12.6342-2.446,29.3492-42.4048,37.0893-48.5315a23.7142,23.7142,0,0,1,17.0054-4.5851L139.633,87.1649Z"/><path class="a" d="M156.5363,165l-1.6016,13.1026h8.5424a2.94,2.94,0,0,0,1.9337-.7338,2.4354,2.4354,0,0,0,.82-1.511l.7547-5.8935a2.0531,2.0531,0,0,0-2.1944-2.244H160.622l.3714-2.72h-4.4571Zm-121.2939.0017L33,168.457h4.3823l-1.1838,9.6475h4.3454l1.1838-9.6475h3.565l.4242-3.4551Zm38.2118,0L71.847,178.1044h4.3437l.5878-4.7913h2.4759l-.5887,4.7913H83.01l1.6081-13.1025H80.2746l-.5943,4.8426H77.2044l.5943-4.8426Zm25.1433,0L96.99,178.1044h4.3437l.5887-4.7913h2.4758l-.5887,4.7913h4.3446l1.6072-13.1025h-4.3437l-.5935,4.8426h-2.4758l.5943-4.8426H98.5975Zm43.6466,0-.4267,3.4551h3.8168l-1.1838,9.6475h4.3446l1.1846-9.6475h3.1471l2.2425-3.4551H142.2441Zm-95.1363.0008-1.6065,13.1025h4.47l.304-2.4694h4.1626a2.7985,2.7985,0,0,0,2.7726-2.2424l.7555-6.1411a1.8844,1.8844,0,0,0-.4307-1.507,2.2817,2.2817,0,0,0-1.7443-.7323l-8.683-.01Zm15.0708,0a1.0836,1.0836,0,0,0-.9969.648l-4.545,12.4546H61.07l.7459-2.2288,4.2332-.0514.2358,2.28h4.4394L69.34,165.64a.739.739,0,0,0-.81-.6368H62.1786Zm48.9684,0-1.6089,13.1025h10.6983l.4243-3.4551h-6.3263l.1989-1.6144h6.3255l.3633-2.96h-6.3263l.1989-1.6169h6.323l.4275-3.4559H111.147Zm14.555,0a2.9427,2.9427,0,0,0-1.9345.7346,2.4324,2.4324,0,0,0-.8188,1.51l-.7515,6.1427a2.0245,2.0245,0,0,0,2.1558,2.2449h4.2049l-.3031,2.47h4.38l.304-2.47h4.1207a2.7978,2.7978,0,0,0,2.7726-2.2417l.7547-6.14a1.885,1.885,0,0,0-.4306-1.5078,2.2815,2.2815,0,0,0-1.7452-.7323l-1.7677-.01H125.702Zm-36.4456.0088a3.8573,3.8573,0,0,0-2.5361.9712,3.1826,3.1826,0,0,0-1.0747,1.9738l-.8822,7.1972a2.4547,2.4547,0,0,0,.5365,1.981,2.99,2.99,0,0,0,2.281.9793h4.7248a3.7126,3.7126,0,0,0,3.6628-2.9627l.2495-2.07H91.8086l-.1925,1.5656H89.1779l.76-6.1916h2.4382l-.16,1.3017h4.4127l.2775-2.2682c.22-1.8284-1.438-2.4774-2.925-2.4774H89.2564Zm37.8914,3.4471h2.2914l-.4547,3.7013h-2.2914Zm6.6721,0h2.2962l-.4187,3.4094a.3511.3511,0,0,1-.34.2919h-1.9915l.454-3.7014Zm-82.62.0072h2.2946l-.4676,3.3589a.4024.4024,0,0,1-.389.3384H50.7033l.4083-3.0477.0882-.65Zm13.2167.4748h.8718l.401,3.6147H63.0635l1.353-3.6147Zm95.7482,2.2528H162.41l-.3545,2.8929a.6377.6377,0,0,1-.6328.5606h-1.6819l.4235-3.4535Z"/></svg>