<svg xmlns="http://www.w3.org/2000/svg" viewBox="0 0 200 250"><defs><style>.a{fill:#fff;}.b{fill:none;}.c{fill:#18379a;}.d{fill:#fffa5b;}</style></defs><title>Card_NZNP</title><circle class="a" cx="100" cy="125" r="75"/><path class="b" d="M81.23,76.3431a5.8059,5.8059,0,0,0,5.806,5.8059c.1765,0,.3507-.0092.5232-.0246l-.0679-11.5678c-.15-.0117-.3019-.0194-.4553-.0194A5.8061,5.8061,0,0,0,81.23,76.3431Z"/><polygon class="b" points="126.999 140.567 131.026 140.522 131.395 138.697 126.868 137.41 126.999 140.567"/><polygon class="b" points="122.423 130.776 122.423 129.936 120.45 129.899 122.423 130.776"/><polygon class="b" points="131.341 133.617 131.115 129.929 126.883 129.899 126.893 132.039 131.341 133.617"/><path class="c" d="M55.5865,84.0121c-8.7539,5.8217-16.8886,27.3721-16.8886,27.3721l16.4488-.2364C52.2867,102.8041,55.5865,84.0121,55.5865,84.0121Z"/><path class="c" d="M87.0363,82.149a5.8059,5.8059,0,1,1-.02-11.6118h.02c.1534,0,.3049.0076.4553.0194l-.0187-3.185a2.8719,2.8719,0,0,1,.3747-1.1537c-.268-.0212-.538-.0352-.8113-.0352a10.16,10.16,0,0,0-3.1688,19.8141L83.8828,98.96H72.2473v5.8719H83.87l.4975,52.5777s-3.4254,3.591-15.8167-.2078c0,0-5.6246-.7619-12.8346-9.1419.0473.065-1.16-2.3587,11.1212-8.7342l-27.5028-.1676,2.8943,27.194,4.9584-9.1488a67.6122,67.6122,0,0,0,40.9712,26.8418L87.56,82.1243C87.387,82.14,87.2128,82.149,87.0363,82.149Z"/><path class="d" d="M148.246,84.6134s-9.4184-14.67-34.967-20.3c-19.5059-4.2981-24.2693-.2508-25.4315,1.9042a2.8738,2.8738,0,0,0-.3746,1.1538l.0187,3.185L87.56,82.1243l.5989,101.9212c17.4842,5.1753,21.3282-6.6669,21.3282-6.6669s-.81-104.2024-.7567-104.2241a5.224,5.224,0,0,1,4.2076-3.5873c19.1716,1.9329,32.6341,19.002,32.6341,19.002,14.528,18.9252,14.63,36.8148,10.9482,50.18a62.7878,62.7878,0,0,1-3.3378,9.1946,65.4764,65.4764,0,0,1-8.1584,13.4958c-14.4546,13.446-19.4571,14.66-27.287,17.2111s-7.2126,5.8939-7.19,5.89c22.8055-5.1427,34.9035-16.8448,38.0045-20.7967C181.5144,121.7348,148.246,84.6134,148.246,84.6134ZM99.9884,112.768a4.234,4.234,0,0,0-2.6213-.7321h-.9523v-1.73a10.4873,10.4873,0,0,0,2.0991-.1587,2.3381,2.3381,0,0,0,1.285-.8089,2.2091,2.2091,0,0,0,.5581-1.48,2.2883,2.2883,0,0,0-.7629-1.71,2.8673,2.8673,0,0,0-2.0632-.7271,3.2741,3.2741,0,0,0-1.94.5683,2.9061,2.9061,0,0,0-1.1109,1.5052,5.0266,5.0266,0,0,0-.3072,1.3976l-1.9044-.43q.7065-4.7817,5.2833-4.7816a4.8653,4.8653,0,0,1,3.4915,1.2236,3.8256,3.8256,0,0,1,1.29,2.8618,3.5976,3.5976,0,0,1-1.9864,3.256,3.698,3.698,0,0,1,2.6929,3.6348,4.1253,4.1253,0,0,1-1.5,3.2407,5.8445,5.8445,0,0,1-3.978,1.3055q-4.26,0-5.5393-4.495l1.8942-.4914a4.8534,4.8534,0,0,0,1.1519,2.1911,3.1045,3.1045,0,0,0,2.483,1.0956,3.6146,3.6146,0,0,0,2.4881-.8089,2.5232,2.5232,0,0,0,.9113-1.9556A2.349,2.349,0,0,0,99.9884,112.768Zm4.1513,53.4184h-1.9966V152.9473H94.3205v13.2391H92.3341V151.1758H104.14Zm.01-23.4876h-1.9862v-7.0752H94.3615v7.0752H92.3751V127.6882h1.9864v6.1641h7.8022v-6.1641H104.15Zm0-47.2391h-1.9862V88.3845H94.3615V95.46H92.3751V80.4492h1.9864v6.164h7.8022v-6.164H104.15Z"/><path d="M124.7931,83.5345V75.0991s-5.6809-4.7411-10.173.2307c-.0048-.0362-.1334,6.345-.1707,8.2047Z"/><path d="M145.1961,105.6785c.0259-.0348.065,4.3353.0777,5.83H153.29v-6.09S148.7276,101.3661,145.1961,105.6785Z"/><path d="M114.4392,84.0381H109.81l3.4358,3.5539,2.3411-2.341,3.8849,3.885,3.8849-3.885,2.62,2.62,4.0385-3.742-5.2227-.1039V83.93H114.4413Z"/><path d="M141.2423,93.914s-5.8478-5.1665-10.3659.3091c-.0268.0553-.011,6.1534-.0054,8.0487h10.3714Z"/><path d="M156.9363,112.1858H153.29v-.2816H145.277l.0008.0983-3.405.0087,3.06,3.3271,2.1309-2.1308,2.42,2.42,2.42-2.42,2.02,2.02Z"/><polygon points="153.347 115.81 153.773 115.379 151.903 113.51 149.635 115.779 149.599 115.815 149.368 115.815 149.332 115.779 147.064 113.51 145.078 115.496 145.307 115.745 145.308 115.815 145.411 124.308 153.347 124.308 153.347 115.81"/><path d="M129.5354,106.2217l2.5676-2.5676,3.8849,3.8851,3.885-3.8851,2.8751,2.8752,3.705-3.705h-5.2107v-.1567h-10.37l.0005.16H126.447Z"/><polygon points="147.087 126.703 149.507 129.123 151.927 126.703 153.347 128.123 153.347 124.704 145.416 124.704 145.46 128.331 147.087 126.703"/><polygon points="132.103 120.83 135.988 124.716 139.873 120.83 141.133 122.09 141.133 119.426 131.152 119.426 131.196 121.738 132.103 120.83"/><polygon class="b" points="122.423 130.776 122.423 129.936 120.45 129.899 122.423 130.776"/><polygon class="b" points="126.999 140.567 131.026 140.522 131.395 138.697 126.868 137.41 126.999 140.567"/><polygon class="b" points="131.341 133.617 131.115 129.929 126.883 129.899 126.893 132.039 131.341 133.617"/><polygon points="114.369 89.437 114.499 98.181 124.748 98.181 124.572 89.173 125.725 88.105 123.357 85.737 119.715 89.379 119.657 89.437 119.287 89.437 119.229 89.379 115.587 85.737 113.485 87.839 114.359 88.743 114.369 89.437"/><polygon points="114.548 101.484 115.605 100.426 115.873 100.159 116.14 100.426 119.338 103.624 122.535 100.426 122.802 100.159 123.07 100.426 124.825 102.182 124.755 98.577 114.505 98.577 114.548 101.484"/><path d="M153.3466,138.7489V128.4255l-1.42-1.42-2.2685,2.2685-.0361.0361h-.2305l-.0361-.0361-2.2686-2.2685-1.6238,1.6239.0083.6807.1149,9.4723H144.083v1.5644l-2.3032.0516-.12-3.569h-.5268V122.5764l-1.26-1.26-3.6419,3.642-.058.058h-.37l-.058-.058-3.642-3.642-.8983.8984.0524,2.8016.0463,2.4711-4.42-.0469s-.2616-7.1574-.213-7.1752a3.8136,3.8136,0,0,1,1.3693-1.6369l3.099.076.0061.3252h9.9876V108.1446l1.3723-1.3723-2.6322-2.6322-3.6418,3.6419-.0581.0581h-.37l-.058-.0581-3.642-3.6419-2.3359,2.3361,1.241,1.364.0773.0851-.1006,6.852-3.98-.009L125.1,116.32l-.2642-13.5931-2.0332-2.0332-3.1977,3.1977-.2673.2673-.2673-.2673-3.1977-3.1977-1.3169,1.3168.3765,25.407-5.2359.1161-.0143,4.8418,12.7624,3.8989.0424,4.2233-5.5188.081a11.9408,11.9408,0,0,0-7.0331,8.6721c.061.0621,0,14.4167,0,14.4167l5.2475-.0924-.08-14.3183a6.8487,6.8487,0,0,1,4.0363-3.8908c-.0383-.0118,12.0685.0249,12.0685.0249l-.0727,2.5173,10.53-.0436-.027-2.627h2.3271v2.7059h9.217a62.8,62.8,0,0,0,3.338-9.1946Zm-30.9237-7.9727-1.9734-.8769,1.9734.0371Zm8.6916-.8477.2268,3.6886-4.4481-1.5781-.01-2.14Zm-.0888,10.5938-4.0265.045-.1315-3.157,4.5271,1.2866Z"/><polygon points="102.164 86.613 94.361 86.613 94.361 80.449 92.375 80.449 92.375 95.46 94.361 95.46 94.361 88.384 102.164 88.384 102.164 95.46 104.15 95.46 104.15 80.449 102.164 80.449 102.164 86.613"/><polygon points="102.164 133.852 94.361 133.852 94.361 127.688 92.375 127.688 92.375 142.699 94.361 142.699 94.361 135.624 102.164 135.624 102.164 142.699 104.15 142.699 104.15 127.688 102.164 127.688 102.164 133.852"/><polygon points="92.334 166.186 94.32 166.186 94.32 152.947 102.143 152.947 102.143 166.186 104.14 166.186 104.14 151.176 92.334 151.176 92.334 166.186"/><path d="M100.04,116.6947a3.614,3.614,0,0,1-2.4881.8089,3.1045,3.1045,0,0,1-2.4829-1.0956,4.855,4.855,0,0,1-1.152-2.1911l-1.8942.4914q1.28,4.4951,5.5394,4.495a5.8444,5.8444,0,0,0,3.9779-1.3055,4.125,4.125,0,0,0,1.5-3.2407,3.6977,3.6977,0,0,0-2.6929-3.6348,3.5977,3.5977,0,0,0,1.9864-3.2561,3.8258,3.8258,0,0,0-1.29-2.8618,4.8668,4.8668,0,0,0-3.4915-1.2236q-4.5769,0-5.2834,4.7816l1.9045.43a5.0231,5.0231,0,0,1,.3072-1.3976,2.9056,2.9056,0,0,1,1.1109-1.5052,3.2736,3.2736,0,0,1,1.94-.5681,2.8664,2.8664,0,0,1,2.0632.727,2.288,2.288,0,0,1,.7629,1.71,2.2091,2.2091,0,0,1-.5581,1.48,2.3373,2.3373,0,0,1-1.2849.8089,10.4879,10.4879,0,0,1-2.0991.1587v1.73h.9523a4.2315,4.2315,0,0,1,2.6212.7321,2.349,2.349,0,0,1,.9624,1.9711A2.5226,2.5226,0,0,1,100.04,116.6947Z"/></svg>