<svg xmlns="http://www.w3.org/2000/svg" viewBox="0 0 200 250"><defs><style>.a,.d{fill:#a7a09a;}.a,.b,.c,.f,.g{fill-rule:evenodd;}.b,.e{fill:#02aef0;}.c{fill:#90d6f7;}.g{fill:#fff;}</style></defs><title>Card_kazmunaigaz</title><path d="M101.08,73.1176a29.3,29.3,0,0,1-1.7333,13.7867l.32.1867c.1143-.0019.2318,0,.3466,0A21,21,0,0,1,119.4,116.131l10.6933,9.84A34.9988,34.9988,0,0,0,101.08,73.1176ZM86.6533,75.731A34.98,34.98,0,0,0,84.6,139.491V122.3443a21.034,21.034,0,0,1-3.3867-4.88c-2.3752-4.1977-3.9315-10.7772-3.92-17.7333C77.3079,90.9774,79.5656,81.7653,86.6533,75.731Z"/><path class="a" d="M86.7307,120.4952c-7.103-8.032-7.4476-17.0059-5.4792-22.1448C84.9612,88.666,98.4062,84.24,100.43,69.7667,100.9641,105.7247,83.1956,93.4972,86.7307,120.4952Z"/><path class="a" d="M79.2392,98.2346C78.1033,75.964,96.5423,78.7425,98.9312,59.7067,102.0576,82.6127,81.6427,85.0906,79.2392,98.2346Z"/><path class="b" d="M86.7307,118.7885c-7.103-8.032-7.4476-17.0058-5.4792-22.1447,3.71-9.6845,17.1547-14.111,19.1781-28.5837C100.9641,104.018,83.1956,91.7905,86.7307,118.7885Z"/><path class="c" d="M79.2392,96.5279C78.1033,74.2573,96.5423,77.0358,98.9312,58,102.0576,80.9061,81.6427,83.384,79.2392,96.5279Z"/><path class="d" d="M91.26,126.1035a2.2449,2.2449,0,1,1-2.2449-2.2449A2.2448,2.2448,0,0,1,91.26,126.1035Z"/><path class="d" d="M91.26,131.7987a2.2449,2.2449,0,1,1-2.2449-2.2449A2.2448,2.2448,0,0,1,91.26,131.7987Z"/><path class="d" d="M91.26,137.4939a2.2449,2.2449,0,1,1-2.2449-2.2449A2.2448,2.2448,0,0,1,91.26,137.4939Z"/><path class="d" d="M96.9552,126.1035a2.2449,2.2449,0,1,1-2.2449-2.2449A2.2448,2.2448,0,0,1,96.9552,126.1035Z"/><path class="d" d="M96.9552,131.7987a2.2449,2.2449,0,1,1-2.2449-2.2449A2.2448,2.2448,0,0,1,96.9552,131.7987Z"/><path class="d" d="M96.9552,137.4939A2.2449,2.2449,0,1,1,94.71,135.249,2.2448,2.2448,0,0,1,96.9552,137.4939Z"/><path class="d" d="M102.65,126.1035a2.2449,2.2449,0,1,1-2.2449-2.2449A2.2448,2.2448,0,0,1,102.65,126.1035Z"/><path class="d" d="M102.65,131.7987a2.2449,2.2449,0,1,1-2.2449-2.2449A2.2448,2.2448,0,0,1,102.65,131.7987Z"/><path class="d" d="M102.65,137.4939a2.2449,2.2449,0,1,1-2.2449-2.2449A2.2448,2.2448,0,0,1,102.65,137.4939Z"/><path class="d" d="M108.3456,126.1035a2.2449,2.2449,0,1,1-2.2449-2.2449A2.2448,2.2448,0,0,1,108.3456,126.1035Z"/><path class="d" d="M108.3456,131.7987a2.2449,2.2449,0,1,1-2.2449-2.2449A2.2448,2.2448,0,0,1,108.3456,131.7987Z"/><path class="d" d="M108.3456,137.4939a2.2449,2.2449,0,1,1-2.2449-2.2449A2.2448,2.2448,0,0,1,108.3456,137.4939Z"/><path class="d" d="M114.0408,126.1035a2.2449,2.2449,0,1,1-2.2449-2.2449A2.2448,2.2448,0,0,1,114.0408,126.1035Z"/><path class="d" d="M114.0408,131.7987a2.2449,2.2449,0,1,1-2.2449-2.2449A2.2448,2.2448,0,0,1,114.0408,131.7987Z"/><path class="d" d="M114.0408,137.4939a2.2449,2.2449,0,1,1-2.2449-2.2449A2.2448,2.2448,0,0,1,114.0408,137.4939Z"/><path class="d" d="M119.7359,126.1035a2.2449,2.2449,0,1,1-2.2448-2.2449A2.2448,2.2448,0,0,1,119.7359,126.1035Z"/><path class="d" d="M119.7359,131.7987a2.2449,2.2449,0,1,1-2.2448-2.2449A2.2448,2.2448,0,0,1,119.7359,131.7987Z"/><path class="d" d="M119.7359,137.4939a2.2449,2.2449,0,1,1-2.2448-2.2449A2.2448,2.2448,0,0,1,119.7359,137.4939Z"/><path class="d" d="M119.7359,120.4083a2.2449,2.2449,0,1,1-2.2448-2.2449A2.2448,2.2448,0,0,1,119.7359,120.4083Z"/><path class="d" d="M119.7359,143.1891a2.2449,2.2449,0,1,1-2.2448-2.2449A2.2448,2.2448,0,0,1,119.7359,143.1891Z"/><path class="d" d="M125.4311,126.1035a2.2449,2.2449,0,1,1-2.2448-2.2449A2.2448,2.2448,0,0,1,125.4311,126.1035Z"/><path class="d" d="M125.4311,131.7987a2.2449,2.2449,0,1,1-2.2448-2.2449A2.2448,2.2448,0,0,1,125.4311,131.7987Z"/><path class="d" d="M125.4311,137.4939a2.2449,2.2449,0,1,1-2.2448-2.2449A2.2448,2.2448,0,0,1,125.4311,137.4939Z"/><path class="d" d="M131.1263,131.7987a2.2449,2.2449,0,1,1-2.2448-2.2449A2.2448,2.2448,0,0,1,131.1263,131.7987Z"/><path class="e" d="M91.26,125.25a2.2449,2.2449,0,1,1-2.2449-2.2448A2.2449,2.2449,0,0,1,91.26,125.25Z"/><path class="e" d="M91.26,130.9453a2.2449,2.2449,0,1,1-2.2449-2.2448A2.2449,2.2449,0,0,1,91.26,130.9453Z"/><path class="e" d="M91.26,136.6405a2.2449,2.2449,0,1,1-2.2449-2.2448A2.2449,2.2449,0,0,1,91.26,136.6405Z"/><path class="e" d="M96.9552,125.25a2.2449,2.2449,0,1,1-2.2449-2.2448A2.2449,2.2449,0,0,1,96.9552,125.25Z"/><path class="e" d="M96.9552,130.9453a2.2449,2.2449,0,1,1-2.2449-2.2448A2.2449,2.2449,0,0,1,96.9552,130.9453Z"/><path class="e" d="M96.9552,136.6405a2.2449,2.2449,0,1,1-2.2449-2.2448A2.2449,2.2449,0,0,1,96.9552,136.6405Z"/><path class="e" d="M102.65,125.25a2.2449,2.2449,0,1,1-2.2449-2.2448A2.2449,2.2449,0,0,1,102.65,125.25Z"/><path class="e" d="M102.65,130.9453a2.2449,2.2449,0,1,1-2.2449-2.2448A2.2449,2.2449,0,0,1,102.65,130.9453Z"/><path class="e" d="M102.65,136.6405a2.2449,2.2449,0,1,1-2.2449-2.2448A2.2449,2.2449,0,0,1,102.65,136.6405Z"/><path class="e" d="M108.3456,125.25a2.2449,2.2449,0,1,1-2.2449-2.2448A2.2449,2.2449,0,0,1,108.3456,125.25Z"/><path class="e" d="M108.3456,130.9453a2.2449,2.2449,0,1,1-2.2449-2.2448A2.2449,2.2449,0,0,1,108.3456,130.9453Z"/><path class="e" d="M108.3456,136.6405a2.2449,2.2449,0,1,1-2.2449-2.2448A2.2449,2.2449,0,0,1,108.3456,136.6405Z"/><path class="e" d="M114.0408,125.25a2.2449,2.2449,0,1,1-2.2449-2.2448A2.2449,2.2449,0,0,1,114.0408,125.25Z"/><path class="e" d="M114.0408,130.9453a2.2449,2.2449,0,1,1-2.2449-2.2448A2.2449,2.2449,0,0,1,114.0408,130.9453Z"/><path class="e" d="M114.0408,136.6405a2.2449,2.2449,0,1,1-2.2449-2.2448A2.2449,2.2449,0,0,1,114.0408,136.6405Z"/><path class="e" d="M119.7359,125.25a2.2449,2.2449,0,1,1-2.2448-2.2448A2.2448,2.2448,0,0,1,119.7359,125.25Z"/><path class="e" d="M119.7359,130.9453a2.2449,2.2449,0,1,1-2.2448-2.2448A2.2448,2.2448,0,0,1,119.7359,130.9453Z"/><path class="e" d="M119.7359,136.6405a2.2449,2.2449,0,1,1-2.2448-2.2448A2.2448,2.2448,0,0,1,119.7359,136.6405Z"/><path class="e" d="M119.7359,119.5549a2.2449,2.2449,0,1,1-2.2448-2.2448A2.2448,2.2448,0,0,1,119.7359,119.5549Z"/><path class="e" d="M119.7359,142.3357a2.2449,2.2449,0,1,1-2.2448-2.2448A2.2448,2.2448,0,0,1,119.7359,142.3357Z"/><path class="e" d="M125.4311,125.25a2.2449,2.2449,0,1,1-2.2448-2.2448A2.2448,2.2448,0,0,1,125.4311,125.25Z"/><path class="e" d="M125.4311,130.9453a2.2449,2.2449,0,1,1-2.2448-2.2448A2.2448,2.2448,0,0,1,125.4311,130.9453Z"/><path class="e" d="M125.4311,136.6405a2.2449,2.2449,0,1,1-2.2448-2.2448A2.2448,2.2448,0,0,1,125.4311,136.6405Z"/><path class="e" d="M131.1263,130.9453a2.2449,2.2449,0,1,1-2.2448-2.2448A2.2448,2.2448,0,0,1,131.1263,130.9453Z"/><path class="f" d="M99.7874,89.4645c-1.08,8.3239-9.34,13.9366-9.2752,21.9752-.0675,4.202,3.5073,10.6583,10.56,10.4168a11.2656,11.2656,0,0,0,8.6844-3.9179c3.5315-4.5667,2.4264-10.4154.1575-15.2644C107.3326,97.6244,102.8453,93.6327,99.7874,89.4645Z"/><path class="g" d="M104.1353,100.3094c-.2106,1.624-1.8223,2.719-1.81,4.2874a2.0393,2.0393,0,0,0,2.06,2.0323,2.1975,2.1975,0,0,0,1.6944-.7644,2.824,2.824,0,0,0,.0029-2.9781A19.58,19.58,0,0,0,104.1353,100.3094Z"/><path class="d" d="M98.0265,158.3462l-3.6779,10.8163v.668h2.9349v2.541H94.3486v2.5372H89.4763v-2.5372h-2.82v-2.541h2.82v-.668l-4.1934-10.8163h4.7362l1.9534,5.9236,1.8229-5.9236"/><path class="d" d="M20.9607,154.3768h5.4551v5.7983l3.6344-5.7983h5.9771l-4.5526,6.6961,3.8028,5.6039H36.87v4.2418H32.4355v-1.7692H30.5107l-4.0949-5.9566v5.9566H20.9607V154.3768"/><path class="d" d="M63.9621,154.1479H71.16l2.7777,9.1278,2.7657-9.1278h7.1738v15.0015H79.4087v-11.44l-3.4661,11.44H71.8968l-3.4541-11.44v11.44H63.9621V154.1479"/><path class="d" d="M99.7069,158.3462h4.4946v3.505h2.9456v-3.505h4.4946V168.89h-4.4946v-4.4527h-2.9456V168.89H99.7069V158.3462"/><path class="d" d="M139.1922,158.3462V168.89h-3.7259v-5.6106l-3.7571,5.6106h-3.8716V158.3462h3.7259v5.6105l3.7571-5.6105h3.8716"/><path class="d" d="M129.61,153.4775h1.664a1.64,1.64,0,0,0,.6982,1.1262,2.7414,2.7414,0,0,0,1.5477.3894,2.6832,2.6832,0,0,0,1.536-.3894,1.6272,1.6272,0,0,0,.71-1.1262H137.43a2.9951,2.9951,0,0,1-1.0822,2.3261,5.398,5.398,0,0,1-5.6554,0,2.9945,2.9945,0,0,1-1.0822-2.3261"/><path class="d" d="M141.9389,168.89V154.33h12.0527v3.75h-6.53v10.81h-5.5224"/><path class="d" d="M170.9551,162.3188c.641.0019,1.2771.0575,1.87.0079,2.2691-.1975,2.2362-1.9509-.0534-2.0942a10.27,10.27,0,0,0-3.443.75v-2.4381a26.4148,26.4148,0,0,1,5.1941-.485c2.1081.101,4.9523.2014,5.1855,2.8007q0,1.8639-2.2793,2.344Q180,163.778,180,165.8959c-.1075,2.7709-3.0833,3.0386-5.2727,3.2542a16.5334,16.5334,0,0,1-5.4239-.5148V165.532a8.361,8.361,0,0,0,3.9691.8555c2.1877-.4081,2.0581-1.7223-.1052-2.0226-.7362-.0573-1.5515.0343-2.2122.0343v-2.08"/><path class="d" d="M161.3346,158.0857a23.5887,23.5887,0,0,0-4.8149.5367v2.5732a9.8256,9.8256,0,0,1,4.1361-.8682c1.1569-.0923,2.8707.3305,2.8731,1.8154h-2.1943a8.7615,8.7615,0,0,0-4.436.8683,2.9551,2.9551,0,0,0-1.405,2.7153,3.1143,3.1143,0,0,0,1.1366,2.4785,4.4119,4.4119,0,0,0,2.9363.9629,5.3749,5.3749,0,0,0,2.2733-.442,4.7168,4.7168,0,0,0,1.6891-1.405v1.5629h4.2624V162.869a4.3858,4.3858,0,0,0-1.405-3.6467C165.4565,158.4693,163.4369,158.0857,161.3346,158.0857Zm2.1943,6.062a2.7472,2.7472,0,0,1-.8606,1.987c-1.17.7209-2.2071.4418-2.3287-.7322C160.4918,164.0233,161.7953,163.9831,163.5289,164.1477Z"/><path class="d" d="M53.2508,162.3188c.6411.0019,1.2772.0575,1.87.0079,2.2691-.1975,2.2362-1.9509-.0534-2.0942a10.27,10.27,0,0,0-3.443.75v-2.4381a26.4158,26.4158,0,0,1,5.1942-.485c2.108.101,4.9523.2014,5.1854,2.8007q0,1.8639-2.2792,2.344,2.5706.5744,2.5706,2.6923c-.1075,2.7709-3.0832,3.0386-5.2727,3.2542a16.5337,16.5337,0,0,1-5.4239-.5148V165.532a8.3613,8.3613,0,0,0,3.9691.8555c2.1877-.4081,2.0582-1.7223-.1052-2.0226-.7361-.0573-1.5515.0343-2.2122.0343v-2.08"/><path class="d" d="M43.63,158.0857a23.59,23.59,0,0,0-4.8149.5367v2.5732a9.8263,9.8263,0,0,1,4.1361-.8682c1.1569-.0923,2.8707.3305,2.8732,1.8154H43.63a8.7615,8.7615,0,0,0-4.436.8683,2.9551,2.9551,0,0,0-1.405,2.7153,3.1143,3.1143,0,0,0,1.1366,2.4785,4.4121,4.4121,0,0,0,2.9363.9629,5.3745,5.3745,0,0,0,2.2733-.442,4.718,4.718,0,0,0,1.6892-1.405v1.5629H50.087V162.869a4.3855,4.3855,0,0,0-1.405-3.6467C47.7523,158.4693,45.7326,158.0857,43.63,158.0857Zm2.1944,6.062a2.7475,2.7475,0,0,1-.8606,1.987c-1.17.7209-2.2071.4418-2.3288-.7322C42.7875,164.0233,44.091,163.9831,45.8247,164.1477Z"/><path class="d" d="M20.5052,172.2843h.9882l1.2479,2.3534v-2.3534H23.58v3.4312h-.9883l-1.2479-2.3533v2.3533h-.8388v-3.4312m6.5311,2.8061H25.6527l-.2183.6251H24.545l1.2709-3.4312h1.0549l1.2709,3.4312h-.8894l-.216-.6251m-1.1629-.6366h.94l-.4688-1.3651-.4711,1.3651m2.7657-2.184h3.1623v.6688H30.6638v2.7625H29.779v-2.7625h-1.14V172.27m4.0178,0h.8848v3.4313h-.8848V172.27m3.6737.6412a.7372.7372,0,0,0-.6274.2988,1.6936,1.6936,0,0,0,0,1.68.8105.8105,0,0,0,1.2571,0,1.6942,1.6942,0,0,0,0-1.68.74.74,0,0,0-.63-.2988m0-.6412a1.7419,1.7419,0,0,1,1.2962.4735,2.0549,2.0549,0,0,1,0,2.613,2.0109,2.0109,0,0,1-2.5924,0,2.0546,2.0546,0,0,1,0-2.613,1.7464,1.7464,0,0,1,1.2962-.4735m3.0572,0h.9883l1.2479,2.3534V172.27h.8388v3.4313h-.9882l-1.2479-2.3534v2.3534h-.8389V172.27m6.5015,2.8061H44.5058l-.2183.6252h-.8894L44.669,172.27h1.0549l1.2709,3.4313h-.8894l-.2161-.6252m-1.1629-.6366h.94l-.4688-1.3651-.4712,1.3651m3.2467-2.1695h.8849v2.7625h1.5535v.6688H47.9731V172.27m10.4588,3.2573a2.2628,2.2628,0,0,1-.5079.1907,2.3241,2.3241,0,0,1-.5516.0644,1.8863,1.8863,0,0,1-1.3582-.478,1.9389,1.9389,0,0,1,0-2.6016,1.8807,1.8807,0,0,1,1.3582-.48,2.3241,2.3241,0,0,1,.5516.0644,2.2628,2.2628,0,0,1,.5079.1907v.71a1.9335,1.9335,0,0,0-.4849-.2459,1.61,1.61,0,0,0-.5034-.0782.948.948,0,0,0-.7446.3034,1.4223,1.4223,0,0,0,0,1.6708.9476.9476,0,0,0,.7446.3034,1.61,1.61,0,0,0,.5034-.0782,1.93,1.93,0,0,0,.4849-.2459v.71M61.04,172.911a.7373.7373,0,0,0-.6274.2988,1.6942,1.6942,0,0,0,0,1.68.8105.8105,0,0,0,1.2571,0,1.6936,1.6936,0,0,0,0-1.68.74.74,0,0,0-.63-.2988m0-.6412a1.7416,1.7416,0,0,1,1.2962.4735,2.0546,2.0546,0,0,1,0,2.613,2.0109,2.0109,0,0,1-2.5924,0,2.0549,2.0549,0,0,1,0-2.613A1.7466,1.7466,0,0,1,61.04,172.27m2.9617,0h1.1262l.7814,1.8363.7859-1.8363h1.1239v3.4313h-.8366v-2.51l-.7906,1.85h-.5607l-.7906-1.85v2.51h-.8389V172.27m5.0434,0h1.4686a1.5273,1.5273,0,0,1,1.0043.2919,1.1546,1.1546,0,0,1,0,1.6593,1.5356,1.5356,0,0,1-1.0043.29H69.93v1.19h-.8848V172.27m.8848.6412v.9584h.4895a.58.58,0,0,0,.3976-.1241.455.455,0,0,0,.14-.3563.4477.4477,0,0,0-.14-.3539.58.58,0,0,0-.3976-.1241H69.93m5.0432,2.1794H73.5892l-.2184.6251h-.8894l1.2709-3.4312h1.0549l1.2709,3.4312h-.8894l-.216-.6251m-1.1629-.6366h.94l-.4689-1.3651-.4711,1.3651m3.2262-2.1695h.9883l1.2479,2.3534v-2.3534h.8389v3.4312h-.9883l-1.2479-2.3533v2.3533H77.036v-3.4312m3.9709,0h.9676l.7814,1.2226.7814-1.2226h.97L83.1994,174.27v1.4455h-.8848V174.27l-1.3077-1.9857"/><path class="d" d="M103.59,172.27l-1.3077,1.9857v.4412h.51v.4413h-.51v.5631h-.8848v-.5631h-.5079v-.4413h.5079v-.4412l-1.3077-1.9857h.9675l.7814,1.2227.7814-1.2227h.97m.9983,3.4313v-.6688q.5838-.0644.701-.4436a7.2439,7.2439,0,0,0,.1172-1.6708V172.27h2.443v3.4313h-.8848v-2.7625h-.6734v.2091a5.5679,5.5679,0,0,1-.2229,1.8432q-.2229.5814-1.48.71m9.0727-3.4313h3.1623v.6688h-1.1376v2.7625H114.8v-2.7625h-1.14V172.27m5.6974,2.8291a.6264.6264,0,0,0,.4021-.1034.4033.4033,0,0,0,.1333-.3263.3908.3908,0,0,0-.1333-.3195.6211.6211,0,0,0-.4021-.1034h-.5194v.8526h.5194m1.42-.4573a.9107.9107,0,0,1-.3355.7906,1.7069,1.7069,0,0,1-1.02.2689h-1.4686V172.27h.8849v1.3077h.5837a1.7062,1.7062,0,0,1,1.02.2689.916.916,0,0,1,.3355.7952m.3034-2.3718h.8848v3.4313h-.8848V172.27m2.78,0h.8848v1.4157L126.13,172.27h1.002l-1.3628,1.39.9675,1.3721h.4712v1.4065h-.8825v-.7377h-.092l-1.0319-1.4617-.455.4642v.9975h-.8848V172.27m6.916,0h.8848v1.4157l1.3835-1.4157h1.002l-1.3628,1.39,1.4387,2.0409h-.9745l-1.0319-1.4617-.455.4642v.9975h-.8848V172.27m6.6206.6412a.7372.7372,0,0,0-.6274.2988,1.6942,1.6942,0,0,0,0,1.68.8105.8105,0,0,0,1.2571,0,1.6942,1.6942,0,0,0,0-1.68.74.74,0,0,0-.63-.2988m0-.6412a1.7417,1.7417,0,0,1,1.2962.4735,2.0549,2.0549,0,0,1,0,2.613,2.0109,2.0109,0,0,1-2.5924,0,2.0549,2.0549,0,0,1,0-2.613,1.7466,1.7466,0,0,1,1.2962-.4735m3.8832,0h1.1262l.7814,1.8363.7859-1.8363h1.1239v3.4313h-.8366v-2.51l-.7906,1.85h-.5607l-.7906-1.85v2.51h-.8389V172.27m8.8147,0v3.4313h-.8848v-2.7625h-1.3054v2.7625h-.8848V172.27h3.075m4.1022,2.8061h-1.3835l-.2183.6252h-.8894l1.2709-3.4313h1.0549l1.2709,3.4313h-.8894l-.2161-.6252m-1.1629-.6366h.94l-.4688-1.3651-.4712,1.3651m3.9226-2.1695h.8848v1.3077h1.3054V172.27h.8848v3.4313h-.8848v-1.4548h-1.3054v1.4548h-.8848V172.27m8.07,0v3.4313h-.8389v-2.3534l-1.2479,2.3534h-.9883V172.27h.8389v2.3534l1.2479-2.3534h.9883m2.8346,1.0779a.4285.4285,0,0,0,.1195.34.6164.6164,0,0,0,.4.1034h.4413v-.88h-.4413a.6271.6271,0,0,0-.4.1011.4181.4181,0,0,0-.1195.3356m-1.0457,2.3534.855-1.4571a2.4231,2.4231,0,0,1-.4344-.3447.79.79,0,0,1-.26-.5907.9528.9528,0,0,1,.3149-.7768,1.55,1.55,0,0,1,.9951-.262h1.42v3.4313h-.8848v-1.2985h-.3011l-.763,1.2985h-.9423m7.4-.1908a2.2582,2.2582,0,0,1-.5079.1908,2.3235,2.3235,0,0,1-.5516.0643,1.8859,1.8859,0,0,1-1.3582-.478,1.9392,1.9392,0,0,1,0-2.6016,1.8807,1.8807,0,0,1,1.3582-.48,2.3235,2.3235,0,0,1,.5516.0643,2.2582,2.2582,0,0,1,.5079.1908v.71a1.9319,1.9319,0,0,0-.4849-.2459,1.6094,1.6094,0,0,0-.5033-.0781.9476.9476,0,0,0-.7446.3033,1.4223,1.4223,0,0,0,0,1.6708.9473.9473,0,0,0,.7446.3034,1.6094,1.6094,0,0,0,.5033-.0781,1.9319,1.9319,0,0,0,.4849-.2459v.71m2.9656-.4114a.6265.6265,0,0,0,.4022-.1034.4033.4033,0,0,0,.1333-.3263.3908.3908,0,0,0-.1333-.3195.6213.6213,0,0,0-.4022-.1034h-.5194v.8526h.5194m1.42-.4573a.9107.9107,0,0,1-.3355.7906,1.7069,1.7069,0,0,1-1.02.2689h-1.4686V172.27h.8848v1.3077h.5838a1.7062,1.7062,0,0,1,1.02.2689.916.916,0,0,1,.3355.7952m.3034-2.3718h.8848v3.4313h-.8848V172.27"/><path class="d" d="M109.43,172.27h3.1624v.6688h-1.1376v2.7625H110.57v-2.7625h-1.14V172.27"/><path class="d" d="M119.4056,158.0857a23.59,23.59,0,0,0-4.8149.5367v2.5732a9.8256,9.8256,0,0,1,4.1361-.8682c1.1569-.0923,2.8707.3305,2.8731,1.8154h-2.1943a8.7615,8.7615,0,0,0-4.436.8683,2.9551,2.9551,0,0,0-1.405,2.7153,3.1143,3.1143,0,0,0,1.1366,2.4785,4.4119,4.4119,0,0,0,2.9363.9629,5.3749,5.3749,0,0,0,2.2733-.442,4.7168,4.7168,0,0,0,1.6891-1.405v1.5629h4.2624V162.869a4.3858,4.3858,0,0,0-1.405-3.6467C123.5275,158.4693,121.5079,158.0857,119.4056,158.0857Zm2.1943,6.062a2.7474,2.7474,0,0,1-.8605,1.987c-1.17.7209-2.2071.4418-2.3288-.7322C118.5628,164.0233,119.8663,163.9831,121.6,164.1477Z"/><path d="M97.5213,157.841l-3.6778,10.8163v.668h2.9349v2.541H93.8435v2.5373H88.9711v-2.5373h-2.82v-2.541h2.82v-.668L84.7777,157.841h4.7362l1.9534,5.9236L93.29,157.841"/><path class="e" d="M20.4555,153.8716h5.4552V159.67l3.6344-5.7984h5.977L30.97,160.5677l3.8029,5.6039H36.365v4.2419H31.93v-1.7693H30.0055l-4.0948-5.9566v5.9566H20.4555V153.8716"/><path d="M63.4569,153.6428h7.198l2.7777,9.1277,2.7657-9.1277h7.1738v15.0014H78.9036v-11.44l-3.4662,11.44H71.3916l-3.4541-11.44v11.44H63.4569V153.6428"/><path d="M99.2017,157.841h4.4946v3.5051h2.9457V157.841h4.4946v10.5433H106.642v-4.4527h-2.9457v4.4527H99.2017V157.841"/><path d="M138.687,157.841v10.5433h-3.7259v-5.6105l-3.7571,5.6105h-3.8716V157.841h3.7259v5.6106l3.7571-5.6106h3.8716"/><path d="M129.105,152.9723h1.664a1.64,1.64,0,0,0,.6982,1.1262,2.7405,2.7405,0,0,0,1.5477.3895,2.6824,2.6824,0,0,0,1.536-.3895,1.6277,1.6277,0,0,0,.71-1.1262h1.664a2.9946,2.9946,0,0,1-1.0822,2.3261,5.398,5.398,0,0,1-5.6554,0,2.9946,2.9946,0,0,1-1.0822-2.3261"/><path class="e" d="M141.4338,168.3843v-14.56h12.0527v3.75h-6.53v10.81h-5.5224"/><path class="e" d="M170.45,161.8136c.6411.0019,1.2771.0576,1.87.008,2.2691-.1975,2.2362-1.9509-.0534-2.0943a10.27,10.27,0,0,0-3.443.75v-2.4382a26.4234,26.4234,0,0,1,5.1942-.485c2.108.101,4.9523.2015,5.1854,2.8008q0,1.8639-2.2792,2.344,2.5705.5742,2.5706,2.6923c-.1075,2.7708-3.0833,3.0386-5.2727,3.2542a16.5364,16.5364,0,0,1-5.4239-.5149v-3.1033a8.3613,8.3613,0,0,0,3.9691.8555c2.1877-.408,2.0582-1.7223-.1052-2.0226-.7361-.0572-1.5515.0343-2.2122.0343v-2.08"/><path class="e" d="M160.8294,157.5805a23.5826,23.5826,0,0,0-4.8149.5368v2.5732a9.8263,9.8263,0,0,1,4.1361-.8683c1.1569-.0923,2.8707.3306,2.8731,1.8155h-2.1943a8.7627,8.7627,0,0,0-4.436.8682,2.9551,2.9551,0,0,0-1.405,2.7153A3.114,3.114,0,0,0,156.125,167.7a4.4122,4.4122,0,0,0,2.9363.963,5.3745,5.3745,0,0,0,2.2733-.4421,4.7158,4.7158,0,0,0,1.6891-1.405v1.5629h4.2624v-6.0147a4.3851,4.3851,0,0,0-1.405-3.6466C164.9513,157.9641,162.9317,157.5805,160.8294,157.5805Zm2.1943,6.0621a2.7468,2.7468,0,0,1-.8605,1.9869c-1.17.721-2.2071.4419-2.3288-.7321C159.9866,163.5182,161.29,163.4779,163.0237,163.6426Z"/><path class="e" d="M52.7456,161.8136c.6411.0019,1.2772.0576,1.87.008,2.2691-.1975,2.2362-1.9509-.0535-2.0943a10.269,10.269,0,0,0-3.4429.75v-2.4382a26.4217,26.4217,0,0,1,5.1941-.485c2.1081.101,4.9523.2015,5.1855,2.8008q0,1.8639-2.2793,2.344,2.5707.5742,2.5707,2.6923c-.1075,2.7708-3.0833,3.0386-5.2727,3.2542a16.5359,16.5359,0,0,1-5.4239-.5149v-3.1033a8.3608,8.3608,0,0,0,3.9691.8555c2.1877-.408,2.0581-1.7223-.1052-2.0226-.7362-.0572-1.5516.0343-2.2123.0343v-2.08"/><path class="e" d="M43.1252,157.5805a23.5818,23.5818,0,0,0-4.8149.5368v2.5732a9.8256,9.8256,0,0,1,4.136-.8683c1.1569-.0923,2.8707.3306,2.8732,1.8155H43.1252a8.7631,8.7631,0,0,0-4.4361.8682,2.9553,2.9553,0,0,0-1.405,2.7153A3.1138,3.1138,0,0,0,38.4208,167.7a4.412,4.412,0,0,0,2.9363.963,5.374,5.374,0,0,0,2.2732-.4421,4.7161,4.7161,0,0,0,1.6892-1.405v1.5629h4.2623v-6.0147a4.3851,4.3851,0,0,0-1.405-3.6466C47.2471,157.9641,45.2275,157.5805,43.1252,157.5805Zm2.1943,6.0621a2.7469,2.7469,0,0,1-.8606,1.9869c-1.17.721-2.2071.4419-2.3288-.7321C42.2824,163.5182,43.5858,163.4779,45.32,163.6426Z"/><path d="M20,171.7791h.9882l1.248,2.3534v-2.3534h.8388V175.21h-.9882l-1.2479-2.3534V175.21H20v-3.4313m6.5311,2.8061H25.1476l-.2184.6252H24.04l1.2709-3.4313h1.0549l1.2709,3.4313h-.8894l-.216-.6252m-1.1629-.6366h.94l-.4689-1.3651-.4711,1.3651m2.7657-2.184h3.1623v.6688H30.1586v2.7625h-.8848v-2.7625h-1.14v-.6688m4.0179,0h.8848v3.4313h-.8848v-3.4313m3.6736.6412a.7374.7374,0,0,0-.6274.2988,1.6942,1.6942,0,0,0,0,1.68.8105.8105,0,0,0,1.2571,0,1.6942,1.6942,0,0,0,0-1.68.74.74,0,0,0-.63-.2988m0-.6412a1.7425,1.7425,0,0,1,1.2962.4735,2.0551,2.0551,0,0,1,0,2.6131,2.0112,2.0112,0,0,1-2.5924,0,2.0551,2.0551,0,0,1,0-2.6131,1.7474,1.7474,0,0,1,1.2962-.4735m3.0573,0h.9882l1.2479,2.3534v-2.3534h.8389v3.4313h-.9883l-1.2479-2.3534v2.3534h-.8388v-3.4313m6.5015,2.8062H44.0006l-.2183.6251h-.8894l1.2709-3.4313h1.0549l1.2709,3.4313H45.6l-.216-.6251m-1.1629-.6366h.94l-.4688-1.3652-.4711,1.3652m3.2467-2.17h.8848v2.7625h1.5536v.6688H47.468v-3.4313m10.4587,3.2573a2.2582,2.2582,0,0,1-.5079.1908,2.3241,2.3241,0,0,1-.5516.0643,1.8859,1.8859,0,0,1-1.3582-.478,1.9392,1.9392,0,0,1,0-2.6016,1.8807,1.8807,0,0,1,1.3582-.48,2.3241,2.3241,0,0,1,.5516.0643,2.2582,2.2582,0,0,1,.5079.1908v.71a1.9319,1.9319,0,0,0-.4849-.2459,1.6094,1.6094,0,0,0-.5033-.0781.9477.9477,0,0,0-.7446.3033,1.4223,1.4223,0,0,0,0,1.6708.9475.9475,0,0,0,.7446.3034,1.6094,1.6094,0,0,0,.5033-.0781,1.9319,1.9319,0,0,0,.4849-.2459v.71m2.6078-2.6161a.7377.7377,0,0,0-.6275.2988,1.6942,1.6942,0,0,0,0,1.68.8106.8106,0,0,0,1.2572,0,1.6942,1.6942,0,0,0,0-1.68.74.74,0,0,0-.63-.2988m0-.6412a1.7423,1.7423,0,0,1,1.2961.4735,2.0547,2.0547,0,0,1,0,2.6131,2.0111,2.0111,0,0,1-2.5923,0,2.0547,2.0547,0,0,1,0-2.6131,1.747,1.747,0,0,1,1.2962-.4735m2.9617,0h1.1261l.7814,1.8363.786-1.8363h1.1238v3.4313H66.477v-2.51l-.7906,1.85h-.5608l-.7906-1.85v2.51h-.8388v-3.4313m5.0433,0h1.4686a1.5278,1.5278,0,0,1,1.0043.2919,1.1546,1.1546,0,0,1,0,1.6593,1.5356,1.5356,0,0,1-1.0043.29h-.5838v1.19H68.54v-3.4313m.8848.6412v.9584h.49a.58.58,0,0,0,.3975-.1241.4549.4549,0,0,0,.14-.3562.4476.4476,0,0,0-.14-.3539.58.58,0,0,0-.3975-.1242h-.49m5.0432,2.1794H73.084l-.2183.6252h-.8894l1.2709-3.4313h1.0549L75.573,175.21h-.8894l-.2161-.6252m-1.1629-.6366h.94l-.4688-1.3651-.4712,1.3651m3.2263-2.1695h.9882l1.248,2.3534v-2.3534h.8388V175.21h-.9882L77.37,172.857V175.21h-.8388v-3.4313m3.9709,0h.9675l.7814,1.2227.7814-1.2227h.97l-1.3077,1.9857V175.21h-.8849v-1.4456l-1.3076-1.9857"/><path d="M103.0843,171.7646l-1.3077,1.9857v.4413h.51v.4412h-.51v.5631h-.8848v-.5631h-.5079v-.4412h.5079V173.75l-1.3077-1.9857h.9676l.7814,1.2227.7814-1.2227h.97m.9984,3.4313v-.6688q.5836-.0644.7009-.4435a7.239,7.239,0,0,0,.1172-1.6709v-.6481h2.443v3.4313h-.8848v-2.7625h-.6734v.2092a5.5672,5.5672,0,0,1-.2229,1.8431q-.2229.5815-1.48.71m9.0726-3.4313h3.1623v.6688H115.18v2.7625h-.8848v-2.7625h-1.14v-.6688m5.6974,2.8292a.6266.6266,0,0,0,.4022-.1035.4033.4033,0,0,0,.1333-.3263.3914.3914,0,0,0-.1333-.3195.6214.6214,0,0,0-.4022-.1034h-.5194v.8527h.5194m1.42-.4574a.9107.9107,0,0,1-.3356.7906,1.706,1.706,0,0,1-1.02.2689h-1.4685v-3.4313h.8848v1.3077h.5837a1.7067,1.7067,0,0,1,1.02.2689.9161.9161,0,0,1,.3356.7952m.3033-2.3718h.8849v3.4313h-.8849v-3.4313m2.78,0h.8848V173.18l1.3835-1.4158h1.0021l-1.3629,1.3905.9676,1.372h.4711v1.4065H125.82v-.7377h-.0919l-1.0319-1.4617-.4551.4643v.9974h-.8848v-3.4313m6.916,0h.8848V173.18l1.3835-1.4158h1.0021l-1.3629,1.3905,1.4387,2.0408h-.9744l-1.0319-1.4617-.4551.4643v.9974h-.8848v-3.4313m6.6206.6413a.7372.7372,0,0,0-.6274.2987,1.6942,1.6942,0,0,0,0,1.68.8105.8105,0,0,0,1.2571,0,1.6936,1.6936,0,0,0,0-1.68.74.74,0,0,0-.63-.2987m0-.6413a1.7424,1.7424,0,0,1,1.2962.4735,2.0547,2.0547,0,0,1,0,2.6131,2.0112,2.0112,0,0,1-2.5924,0,2.0551,2.0551,0,0,1,0-2.6131,1.7474,1.7474,0,0,1,1.2962-.4735m3.8833,0h1.1261l.7814,1.8363.786-1.8363h1.1238v3.4313h-.8365v-2.51l-.7906,1.85h-.5608l-.7906-1.85v2.51h-.8388v-3.4313m8.8146,0v3.4313h-.8848v-2.7625H147.4v2.7625h-.8848v-3.4313h3.075m4.1023,2.8062h-1.3836l-.2183.6251h-.8894l1.2709-3.4313h1.0549l1.2709,3.4313h-.8894l-.216-.6251m-1.1629-.6366h.94l-.4688-1.3652-.4711,1.3652m3.9225-2.17h.8848v1.3077h1.3054v-1.3077h.8848v3.4313h-.8848v-1.4548h-1.3054v1.4548h-.8848v-3.4313m8.07,0v3.4313h-.8389v-2.3534l-1.2479,2.3534h-.9882v-3.4313h.8388v2.3534l1.248-2.3534h.9882m2.8347,1.0779a.4281.4281,0,0,0,.1195.34.6163.6163,0,0,0,.4.1035h.4412v-.88h-.4412a.6271.6271,0,0,0-.4.1011.4174.4174,0,0,0-.1195.3355m-1.0457,2.3534.8549-1.4571a2.43,2.43,0,0,1-.4344-.3447.79.79,0,0,1-.26-.5907.9528.9528,0,0,1,.3149-.7768,1.55,1.55,0,0,1,.9951-.262h1.42v3.4313h-.8848v-1.2985h-.3011l-.763,1.2985h-.9422m7.4-.1908a2.2582,2.2582,0,0,1-.5079.1908,2.3232,2.3232,0,0,1-.5515.0643,1.8861,1.8861,0,0,1-1.3583-.478,1.9392,1.9392,0,0,1,0-2.6016,1.8809,1.8809,0,0,1,1.3583-.48,2.3284,2.3284,0,0,1,.5515.0643,2.2631,2.2631,0,0,1,.5079.1908v.71a1.93,1.93,0,0,0-.4849-.2459,1.6119,1.6119,0,0,0-.5033-.0781.9476.9476,0,0,0-.7446.3034,1.4223,1.4223,0,0,0,0,1.6708.9479.9479,0,0,0,.7446.3033,1.6089,1.6089,0,0,0,.5033-.0781,1.93,1.93,0,0,0,.4849-.2459v.71m2.9657-.4113a.6261.6261,0,0,0,.4021-.1035.4034.4034,0,0,0,.1334-.3263.3914.3914,0,0,0-.1334-.3195.6211.6211,0,0,0-.4021-.1034h-.5194v.8527h.5194m1.42-.4574a.9107.9107,0,0,1-.3356.7906,1.706,1.706,0,0,1-1.02.2689H175.273v-3.4313h.8849v1.3077h.5837a1.7067,1.7067,0,0,1,1.02.2689.9161.9161,0,0,1,.3356.7952m.3033-2.3718h.8848v3.4313h-.8848v-3.4313"/><path d="M108.9253,171.7646h3.1623v.6688H110.95v2.7625h-.8848v-2.7625h-1.14v-.6688"/><path d="M118.9,157.5805a23.5834,23.5834,0,0,0-4.8149.5368v2.5732a9.8263,9.8263,0,0,1,4.1361-.8683c1.1569-.0923,2.8707.3306,2.8732,1.8155H118.9a8.7627,8.7627,0,0,0-4.436.8682,2.9551,2.9551,0,0,0-1.405,2.7153,3.1138,3.1138,0,0,0,1.1367,2.4785,4.4117,4.4117,0,0,0,2.9362.963,5.3745,5.3745,0,0,0,2.2733-.4421,4.7169,4.7169,0,0,0,1.6892-1.405v1.5629h4.2623v-6.0147a4.3851,4.3851,0,0,0-1.405-3.6466C123.0224,157.9641,121.0027,157.5805,118.9,157.5805Zm2.1944,6.0621a2.7469,2.7469,0,0,1-.8606,1.9869c-1.17.721-2.2071.4419-2.3288-.7321C118.0576,163.5182,119.3611,163.4779,121.0948,163.6426Z"/></svg>