<svg xmlns="http://www.w3.org/2000/svg" xmlns:xlink="http://www.w3.org/1999/xlink" viewBox="0 0 200 250"><defs><style>.a{fill:url(#a);}.b{fill:#eb4f28;}</style><radialGradient id="a" cx="190.0781" cy="427.829" r="103.9364" gradientTransform="scale(0.2902 0.2902)" gradientUnits="userSpaceOnUse"><stop offset="0.5" stop-color="#f8e801"/><stop offset="1" stop-color="#e34511"/></radialGradient></defs><title>Card_nnk</title><path class="a" d="M55.1644,109.7441l-3.8091-6.2578,3.8091-6.2579,3.8091,6.2579Zm3.8091,35.0985-3.8091-6.2579-3.8091,6.2579L55.1644,151.1ZM72.48,112.2364l1.7316-7.1184-7.1185,1.7314-1.7316,7.1185ZM43.236,141.4794l1.7316-7.1185-7.1185,1.7315-1.7316,7.1184Zm-8.75-21.1236-6.2578,3.8093,6.2579,3.8089,6.2578-3.8092Zm41.3563-.001-6.2578,3.8092,6.2579,3.809L82.1,124.1637ZM43.236,106.8494l-7.1185-1.7314,1.7316,7.1184,7.1185,1.7314ZM72.48,136.0924l-7.1185-1.7314,1.7316,7.1184,7.1185,1.7314Zm-10.4063,4.3821.4947-3.7684-3.2389-2.4869-.5317,4.0487,3.0145,2.3149L60.49,149.0876l7.1686,5.2412,1.3629-8.7751ZM49.8385,99.2412,42.67,94l-1.3629,8.7751,6.9484,5.0792-.4947,3.7684L51,114.11l.5317-4.0487-3.0145-2.3149ZM47.76,136.7052l.4957,3.77-6.9493,5.0784,1.3636,8.7737,7.1682-5.24-1.323-8.505,3.0166-2.3156L51,134.2176ZM76.5537,110.307l-5.0793,6.9484-3.7683-.4947L65.2192,120l4.0487.5317,2.3148-3.0144,8.5048,1.3216,5.2413-7.1686Zm-35.4928,17.49-2.3148,3.0145L30.2412,129.49,25,136.6589l8.7751,1.3628,5.0793-6.9483,3.7683.4947,2.4869-3.2389ZM80.0881,129.49l-8.5049,1.3228-2.3156-3.0165-4.05.5319,2.4875,3.24,3.77-.4957,5.0784,6.9494,8.7737-1.3636ZM60.49,99.2407l1.323,8.505-3.0166,2.3155.5309,4.0474,3.24-2.4876-.4946-3.7679,6.9493-5.0784L67.6585,94.001ZM42.6235,116.76l-3.77.4958-5.0784-6.9494L25.001,111.67l5.24,7.1682,8.5049-1.3229L41.06,120.53l4.05-.5319Z"/><path d="M61.4223,124.1638A6.2579,6.2579,0,1,1,51.63,119l3.5343,6.2524L58.6987,119A6.2522,6.2522,0,0,1,61.4223,124.1638Z"/><polygon class="b" points="55.164 122.373 52.172 117.067 55.164 111.761 58.157 117.067 55.164 122.373"/><path d="M103.1647,125.6131v10.6594H97.8811V112.0573h5.2836V121.32h10.2122v-9.2629h5.2836v24.2152h-5.2836V125.6131Z"/><path d="M130.3728,125.6131v10.6594h-5.2836V112.0573h5.2836V121.32H140.585v-9.2629h5.2836v24.2152H140.585V125.6131Z"/><path d="M157.6828,112.0573v24.2152h-5.2836V112.0573Zm9.0575,0h7.009l-9.6831,11.6763L175,136.2725h-7.6558l-9.6614-12.5389Z"/></svg>