<svg xmlns="http://www.w3.org/2000/svg" viewBox="0 0 200 250"><defs><style>.a{fill:#006fab;fill-rule:evenodd;}</style></defs><title>Card_gazpromneft</title><path class="a" d="M73.3315,137.6549v17.7844H179.994V137.6549ZM84.9186,152.12H82.2163v-5.0666h-1.395V152.12H78.119V140.5334h2.7023v4.479h1.3951v-4.479h2.7023Zm22.4106-9.3987h-3.6864v2.2909h3.3044v2.1882h-3.3044v2.7315h3.6861V152.12h-6.4763V140.5334h6.4763Zm24.51,5.2724c0,2.35-1.19,2.9813-3.8475,2.9813v1.1454H125.363v-1.1457c-2.6728,0-3.877-.6315-3.877-2.9813v-3.6273c0-2.3645,1.16-2.9519,3.877-2.9519v-.881h2.6288v.881c2.7022,0,3.8475.5874,3.8475,2.9519Zm20.81-5.2721h-2.0414v9.3988h-2.57v-9.3991h-2.203v-2.1881h6.8141Zm22.5572,6.4176c0,2.5259-1.1455,2.9812-4.0973,2.9812h-2.7022V140.5334h2.7022v4.479h.4553c2.6581,0,3.642.6169,3.642,2.9372Z"/><path class="a" d="M125.363,143.4558v5.39h-.4406c-.5874,0-.8224-.1615-.8224-.837v-3.7158c0-.6755.2347-.837.8224-.837Z"/><path class="a" d="M129.2254,144.2635v3.73c0,.6756-.22.8518-.8224.8518h-.4112v-5.39h.4112C129.0051,143.4558,129.2254,143.5879,129.2254,144.2635Z"/><path class="a" d="M172.5042,147.8615v1.3952c0,.6613-.1762.8224-.7787.8224h-.6167v-3.0253h.6167C172.328,147.0538,172.5042,147.2006,172.5042,147.8615Z"/><path class="a" d="M66.2,128.7667v18.2459A26.6538,26.6538,0,1,1,46.71,102.2377v20A14.9816,14.9816,0,0,0,36.1077,126.61a14.6342,14.6342,0,0,0-1.8422,2.2239A14.9777,14.9777,0,0,0,57.2776,147.769a.1249.1249,0,0,1,.0458-.037v-.0107l.0369-.03a7.49,7.49,0,0,0-10.6134-10.5726h0a.0959.0959,0,0,0-.0369.03v-8.382Z"/><path class="a" d="M62.8753,92.79A44.3422,44.3422,0,0,0,56.6338,79,47.92,47.92,0,0,0,50.877,91.0571,43.7473,43.7473,0,0,0,49.4377,108.43a48.366,48.366,0,0,0,2.9372,11.1467,38.4859,38.4859,0,0,0,4.303,7.6952,41.9991,41.9991,0,0,0,7.0784-18.0781A40.82,40.82,0,0,0,62.8753,92.79Zm-6.2415,32.72a19.4306,19.4306,0,0,1-2.144-8.7527,18.0778,18.0778,0,0,1,2.1882-8.6793,19.5854,19.5854,0,0,1,2.0706,8.2828A18.4454,18.4454,0,0,1,56.6338,125.51Zm5.7715-20.6922a38.411,38.411,0,0,1-.7931,7.2547,45.2223,45.2223,0,0,0-.8812-10.324,44.7413,44.7413,0,0,0-4.1266-11.1319,44.2664,44.2664,0,0,0-4.0533,11.1025,52.5621,52.5621,0,0,0-.94,10.4563,50.9933,50.9933,0,0,1-.6755-10.1334,45.3257,45.3257,0,0,1,1.4686-9.1785,51.0764,51.0764,0,0,1,4.2-10.0891,45.307,45.307,0,0,1,4.2736,9.9569A44.0119,44.0119,0,0,1,62.4053,104.8176Z"/><polygon class="a" points="173.335 102.101 180 102.101 180 128.771 174.869 128.771 174.869 112.043 174.693 112.043 172.052 128.771 167.956 128.771 165.321 112.043 165.147 112.043 165.147 128.771 160.014 128.771 160.014 102.101 166.669 102.101 169.993 120.842 173.335 102.101"/><path class="a" d="M138.3011,102.1007h-8.0477V128.77h5.1253v-9.0611h2.9226c3.5834,0,4.1562-2.9078,4.1562-4.7728v-8.0772C142.4573,104.9938,141.8845,102.1007,138.3011,102.1007Zm-.6167,13.3346c0,.8371-.3965,1.3366-.9546,1.3366h-1.3511v-11.367H136.73c.5581,0,.9546.4994.9546,1.3366Z"/><polygon class="a" points="114.692 102.101 126.546 102.101 126.546 128.771 121.767 128.771 121.767 105.412 119.468 105.412 119.468 128.771 114.692 128.771 114.692 102.101"/><path class="a" d="M104.593,119.4311v5.018a.8005.8005,0,0,0,.8006.8815.8407.8407,0,0,0,.8006-.879v-6.2028c0-.832-.1425-1.7494-2.05-1.7494h-2.0815v-2.9309h2.1554c1.4638,0,1.9758-.3554,1.9758-1.9776v-5.3047a.8365.8365,0,0,0-.7967-.8745l-.0038,0a.7987.7987,0,0,0-.8006.8747v4.3476H99.4607V106.865c0-1.8667.2269-4.7646,3.808-4.7646h4.2491c3.5857,0,3.8057,2.8978,3.8057,4.7646v4.272c0,2.889-1.9424,3.6843-3.4819,3.61v.271c3.44-.0845,3.4819,2.6637,3.4819,3.6175v5.3663c0,1.8721-.22,4.768-3.8057,4.768h-4.25c-3.58,0-3.808-2.896-3.808-4.768v-4.5711Z"/><path class="a" d="M94.5813,102.1007H86.5339L83.8613,128.77h5.0079l.4846-7.0933h2.4084l.4847,7.0933h5.0078ZM89.53,118.7544l.8808-13.35h.2938l.8664,13.35Z"/><polygon class="a" points="73.332 102.101 83.108 102.101 83.108 105.412 78.454 105.412 78.454 128.771 73.332 128.771 73.332 102.101"/><path class="a" d="M153.1778,102.1007h-4.2442c-3.5833,0-3.7889,2.8931-3.7889,4.7582v17.1382c0,1.88.2056,4.7729,3.7889,4.7729h4.2442c3.5834,0,3.8187-2.8931,3.8187-4.7729V106.8589C156.9961,104.9938,156.7612,102.1007,153.1778,102.1007Zm-.9839,22.3076a1.1413,1.1413,0,0,1-2.2763,0l.0147-.0293V106.3449a1.1023,1.1023,0,0,1,1.116-.94,1.0859,1.0859,0,0,1,1.1307.94l.0147.0734Z"/><polyline class="a" points="173.335 102.102 180 102.102 180 128.772 174.869 128.772 174.869 112.045 174.691 112.045 172.052 128.772 167.955 128.772 165.321 112.045 165.147 112.045 165.147 128.772 160.014 128.772 160.014 102.102 166.669 102.102 169.993 120.844 173.335 102.102"/></svg>