<svg xmlns="http://www.w3.org/2000/svg" viewBox="0 0 200 250"><defs><style>.a,.d{fill:#ef2b2f;}.a,.b,.c{fill-rule:evenodd;}.c{fill:#005b9a;}</style></defs><title>Card_slavneft</title><path d="M40.686,145.0879a18.663,18.663,0,1,1,13.2125-5.4591A18.5869,18.5869,0,0,1,40.686,145.0879Zm0-36.4664A17.8272,17.8272,0,1,0,58.56,126.4486,17.8707,17.8707,0,0,0,40.686,108.6215Z"/><path class="a" d="M42.5373,111.7145s-2.4161-2.0737-1.3618-4.69A5.5547,5.5547,0,0,1,44.6181,104a2.3051,2.3051,0,0,0-.0771,1.0247c.1031.8723.9772,1.9481.5657,3.7429a4.956,4.956,0,0,1-2.5694,2.9469Z"/><path class="b" d="M42.4368,111.9252s-5.8775,14.4221-6.1016,15.0882-.7181,6.5974,6.1528,6.5974c7.1344,0,6.4665-6.6942,6.5113-6.5974-.2779-.6661-6.5625-15.0882-6.5625-15.0882Z"/><path class="c" d="M51.0971,127.1577c-.0044,1.6774-.4052,8.4048-8.4944,8.4048-8.9633,0-8.32-7.8973-8.0273-8.7813.2106-.6374,4.2387-9.9288,6.4817-15.0909q-.336-.016-.6724-.0171a14.9807,14.9807,0,1,0,15.0067,15.4845Z"/><path class="b" d="M84.7591,140.9688l.0682-2.0315a1.25,1.25,0,0,0,.6392-.0789c.4545-.1345,1.0005-.6374.9323-2.8106V120.9927l7.0152.0682V141.06H90.6671V123.5908H89.2139v11.7766c0,5.7887-.0879,5.6014-3.32,5.6014Z"/><path class="b" d="M99.9664,121.0674c-.8392,0-2.7719-.12-3.3663.2723a3.2014,3.2014,0,0,0-1.1378,2.8956v3.2923h2.9813s-.0691-3.0573-.0235-3.7375c.0525-.788,1.2732-.6836,1.2732.0761v3.3725c0,3.1313-4.3678,2.2631-4.3678,5.9l-.0443,6.3234c.09,1.0749.5848,1.7357,1.9769,1.7357,1.8906.0007,2.3447-1.1585,2.3447-1.1585v1.0659h2.8748V124.236C102.4776,122.1305,102.0553,121.0674,99.9664,121.0674Zm-.2758,16.6579s-.1314,1.1184-.6933,1.1184-.5807-.9732-.5807-1.4377v-4.4294a2.1583,2.1583,0,0,1,1.274-2.07Z"/><path class="b" d="M111.6756,133.0685a2.2943,2.2943,0,0,0-2.1393-2.18c1.84-.1576,2.1393-.6795,2.0993-2.6267v-4.6029a2.1714,2.1714,0,0,0-2.3972-2.4359H104.46l.0456,20.0008,4.4861.0138c1.9458.0193,2.6384-.68,2.69-1.9051Zm-4.287-9.6226h.6463c.4576,0,.4887.4527.4887,1.5228v3.8778c-.01.3656.056,1.6334-.7617,1.6334l-.3919.0062Zm1.1364,14.4391c0,1.0693-.0774,1.2636-.5343,1.2636l-.6007-.0007v-6.801l.5088-.0056c.4576,0,.6815.3367.6815,1.406Z"/><path class="b" d="M141.95,132.5453v-8.7082c-.06-1.9513-1.6113-2.5416-3.7-2.5416-2.1884,0-3.6006.3594-3.6006,2.6778v14.728c.0055,2.4726.8108,2.7007,3.6456,2.7007,2.693,0,3.595-.59,3.6047-2.7007V134.07h-3.0649v4.5614c0,.3643-.1839.5012-.5848.5012s-.73-.0456-.73-.5012v-6.0862Zm-4.4308-2.2542v-5.5754c0-.9277.329-1.332.73-1.332s.7286.4327.7286,1.361v5.5464Z"/><path class="b" d="M153.12,121.2035h-6.9165a2.1083,2.1083,0,0,0-2.1518,2.2472v15.6267c0,1.7336,1.29,2.0723,2.35,2.0723h6.6282v.0014c1.06,0,2.4158-.0664,2.4158-1.9368V123.5869C155.4451,121.6577,154.6682,121.2035,153.12,121.2035Zm-5.2976,17.8587c-.89,0-.7528-1.2242-.7514-1.1371V124.8076s-.1839-.9712.6359-.9712.76.9989.76.9989v13.0255S148.4831,139.0622,147.8223,139.0622Zm4.184,0c-.8876,0-.7514-1.2242-.7493-1.1371V124.8076s-.1839-.9712.6352-.9712.759.9989.759.9989v13.0255S152.6671,139.0622,152.0063,139.0622Z"/><path class="b" d="M160.4532,124.6989l.0036,16.36H157.71l-.0314-19.8541,2.8662.0457-.0036,1.066a4.3936,4.3936,0,0,1,2.4161-1.0211,1.6261,1.6261,0,0,1,1.6828,1.2712,2.7583,2.7583,0,0,1,2.4564-1.2712c1.7751.0071,2.0942,2.3147,2.0942,2.3147l-.0457,17.4748-3.0938-.0457V124.7894c0-1.1807-1.35-1.1358-1.35,0v16.27h-2.928V124.7437c-.0206-1.0157-1.32-1.0614-1.32-.0448Z"/><path class="b" d="M177.99,138.2991v-5.8769c.092-2.7138-.88-2.53-2.225-2.53h-1.7454v-8.6037h-2.9743V141.102h4.7211C177.4594,141.1013,178.0912,140.934,177.99,138.2991Zm-2.6536-.542h-.0007c0,1.07-.3152,1.6465-.658,1.6465h-.6581l-.0055-7.4894h.6836c.459,0,.6387.1555.6387,1.2255Z"/><path class="c" d="M125.7816,111.31v16.849h-4.7784v-6.9094h-7.4168v19.8353h7.4168v-7.0268h4.7784v7.0268h7.4159V111.31Z"/><path class="a" d="M120.99,111.1813H76.6878c-4.1024,0-14.0832,3.1369-14.0832,14.73s9.0242,14.3208,14.7673,15.004a26.2552,26.2552,0,0,0,5.3324,0v-7.87a63.6371,63.6371,0,0,1-6.5624-.1766,6.7057,6.7057,0,0,1-6.1537-6.82,6.8709,6.8709,0,0,1,6.4262-7.2285h44.4391Z"/><rect class="d" x="135.1891" y="111.1813" width="42.8109" height="7.6467"/></svg>