<svg xmlns="http://www.w3.org/2000/svg" viewBox="0 0 200 250"><defs><style>.a{fill:#008c95;}</style></defs><title>Card_sibur</title><path class="a" d="M51.4162,122.9937s.73-8.273.8038-9.083a3.512,3.512,0,0,0-3.3473-3.6693q-.0606-.0027-.1214-.0034H27.871a3.6727,3.6727,0,0,0-3.9139,3.3574c-.0928.9707-1.824,20.9731-1.9292,22.1231a3.5186,3.5186,0,0,0,3.4255,3.9572H46.21c2.7577,0,3.8274-1.4592,4.0623-3.71.1422-1.3479.8224-9.491.8224-9.491H38.543l-.5379,6.2944H34.827l1.3664-15.6247h3.1781l-.507,5.8492Z"/><path class="a" d="M70.7817,112.7545c-.4452,1.2861-4.0994,12.7186-4.0994,12.7186l1.6261-15.2475H55.7629l-2.6278,29.45h9.454a3.4092,3.4092,0,0,0,3.58-2.43c.4761-1.2861,3.9572-10.9069,3.9572-10.9069l-1.28,13.3369H81.3981l2.5845-29.4377h-9.85A3.4562,3.4562,0,0,0,70.7817,112.7545Z"/><path class="a" d="M134.3563,110.238l-1.1748,13.4235h-3.1843l1.1748-13.4235H118.6265s-1.2057,14.2211-1.3356,15.5876a3.4773,3.4773,0,0,0,3.5553,3.9571H132.65l-.26,2.9865H116.685l-.6183,6.9065H141.04a3.5127,3.5127,0,0,0,3.5491-3.4687c.1422-1.5149,2.3-25.969,2.3-25.969Z"/><path class="a" d="M167.102,110.2441H150.0614l-2.5722,29.4316h12.5455l.7976-9.1077h12.1931c2.1579,0,3.5862-1.1006,3.8211-3.6233.0866-.9831,1.0821-12.1374,1.1439-13.12.1546-2.1765-1.5767-3.58-3.71-3.58ZM161.37,124.4653l.6183-7.3023h3.1472l-.6183,7.3023Z"/><path class="a" d="M98.8653,120.1247l.2659-2.98h15.7174l.6183-6.9065H87.1793L84.6071,139.67h25.0415a3.4356,3.4356,0,0,0,3.5429-3.4007c.167-1.8549.94-10.5978,1.0821-12.1869a3.5142,3.5142,0,0,0-3.8026-3.9572Zm2.0281,13.4235H97.6905l.6183-7.296h3.1967Z"/></svg>