<svg xmlns="http://www.w3.org/2000/svg" viewBox="0 0 200 250"><defs><style>.a,.b{fill:#c0a775;}.b{opacity:0.6;}</style></defs><title>Card_taif-nk</title><rect class="a" x="30" y="171.6952" width="139.9038" height="1.7187"/><path class="a" d="M48.8148,180.4607H44.2654v13.5779a.6874.6874,0,0,1-.6875.6875H36.1874a.6874.6874,0,0,1-.6875-.6875V180.4607H31.9954a1.7387,1.7387,0,0,1-1.4557-.782l-.2733-.4211a.4478.4478,0,0,1,.385-.6875H47.4553a1.7636,1.7636,0,0,1,1.48.7958l.2647.4073A.4464.4464,0,0,1,48.8148,180.4607Z"/><path class="a" d="M150.6541,179.2576v14.781a.6874.6874,0,0,1-.6875.6875h-7.5624a.6873.6873,0,0,1-.6874-.6875v-6.0155h-7.5624v6.3163a.3648.3648,0,0,1-.562.3248l-.3455-.23a1.4829,1.4829,0,0,1-.6394-1.2324V178.9568a.366.366,0,0,1,.5621-.3265l.3334.2251a1.5089,1.5089,0,0,1,.6514,1.253v6.0241h7.5624v-6.8749a.6873.6873,0,0,1,.6874-.6875h7.5624A.6874.6874,0,0,1,150.6541,179.2576Z"/><path class="a" d="M169.6528,194.7175l-.4142.0086a1.4858,1.4858,0,0,1-1.2323-.6429l-3.6849-5.2626-3.2,5.1011a1.72,1.72,0,0,1-1.4558.8044h-5.5961a.3461.3461,0,0,1-.1959-.0619l-.3455-.23a.19.19,0,0,1-.0292-.0224,1.4786,1.4786,0,0,1-.61-1.21V178.9568a.366.366,0,0,1,.5621-.3265l.3334.2251a1.5089,1.5089,0,0,1,.6514,1.253v12.141l5.8093-9.2536.7012-1.1172,1.5709-2.5041a1.72,1.72,0,0,1,1.4558-.8044h5.0753a.9445.9445,0,0,1,.7992,1.4472l-4.6319,7.3819,4.711,6.7288A.3651.3651,0,0,1,169.6528,194.7175Z"/><path class="a" d="M86.374,180.1084v14.231a.3648.3648,0,0,1-.562.3248l-.3455-.23a1.4829,1.4829,0,0,1-.6394-1.2324v-12.45l-8.267,13.17a1.72,1.72,0,0,1-1.4558.8044H69.5082a.3461.3461,0,0,1-.1959-.0619l-.3455-.23a.19.19,0,0,1-.0292-.0224,1.4786,1.4786,0,0,1-.61-1.21V178.9568a.366.366,0,0,1,.5621-.3265l.3334.2251a1.5089,1.5089,0,0,1,.6514,1.253v12.141l8.0814-12.8749a1.72,1.72,0,0,1,1.4558-.8044H85.18a.5533.5533,0,0,1,.0773.0051.3534.3534,0,0,1,.1324.0551l.2337.1581.1.067A1.5089,1.5089,0,0,1,86.374,180.1084Z"/><path class="a" d="M129.15,188.0231H117.0273a1.2122,1.2122,0,0,1-1.0485-.7824l-.1973-.4214c-.1393-.2975.0179-.6868.2774-.6868H128.17a1.2334,1.2334,0,0,1,1.0669.796l.191.4079C129.5666,187.6338,129.4094,188.0231,129.15,188.0231Z"/><path class="a" d="M65.2939,194.7261h-4.723a1.7162,1.7162,0,0,1-1.6036-1.1034l-5.1716-13.5041-2.9751,7.5607h3.7571a1.03,1.03,0,0,1,.95.6342l2.2653,5.4621a.6871.6871,0,0,1-.6342.9505H47.8076a.7744.7744,0,0,1-.72-1.057L52.6029,179.66a1.7069,1.7069,0,0,1,1.2821-1.0586,1.6123,1.6123,0,0,1,.3163-.031H59.067a1.72,1.72,0,0,1,1.6053,1.1052l5.3555,13.9835A.7859.7859,0,0,1,65.2939,194.7261Z"/><path class="a" d="M106.483,178.57H93.4207a5.1558,5.1558,0,0,0-5.1561,5.1562v2.4062a5.1558,5.1558,0,0,0,5.1561,5.1561h2.0625v2.75a.6874.6874,0,0,0,.6875.6875h7.5624a.6873.6873,0,0,0,.6874-.6875v-2.75h2.0625a5.1558,5.1558,0,0,0,5.1562-5.1561v-2.4062A5.1559,5.1559,0,0,0,106.483,178.57Zm.43,8.7655a2.4067,2.4067,0,0,1-2.4062,2.4062h-.086v-7.5624a.6873.6873,0,0,0-.6874-.6875H96.1707a.6874.6874,0,0,0-.6875.6875v7.5624h-.0859a2.4067,2.4067,0,0,1-2.4062-2.4062v-4.8124a2.4066,2.4066,0,0,1,2.4062-2.4062h9.1092a2.4066,2.4066,0,0,1,2.4062,2.4062Z"/><path class="a" d="M89.3033,92.73a2.6935,2.6935,0,0,0,.2561.4756l.5141.8181a2.5518,2.5518,0,0,1,.3247.645,5.7388,5.7388,0,0,1-.0055,1.4712.4378.4378,0,0,0,.0472.2222.3107.3107,0,0,0,.3152.125.6439.6439,0,0,0,.3122-.1694,1.44,1.44,0,0,0,.39-.5686c.1759-.4695.0978-1.0055.2775-1.4735a2.0959,2.0959,0,0,0,.2288-.653.825.825,0,0,0-.2536-.5763,5.57,5.57,0,0,0-.6854-.5625c-.3675-.2455-.5467-.3442-.9265-.5711a3.8816,3.8816,0,0,0-.6041-.3c-.0826-.0315-.2234-.1127-.266-.038a1.0622,1.0622,0,0,0-.0251.3591A2.0289,2.0289,0,0,0,89.3033,92.73Z"/><path class="a" d="M164.7184,158.7756H164.71a3.1111,3.1111,0,0,0-2.6365,2.7328,2.7941,2.7941,0,0,1-2.8978,2.3873.3774.3774,0,0,1-.0447.0017c-2.9373,0-5.3521-3.4375-5.756-4.0236-2.2223-3.2311-2.5677-5.4036-3.8379-8.9751-1.5589-4.3844-2.4354-8.8222-4.4394-13.2341-4.4463-9.7813-5.438-12.99-7.6019-14.628a9.0617,9.0617,0,0,0-5.4329-2.2155c-4.9207,0-6.2561-4.1387-8.7654-5.4431a5.05,5.05,0,0,0-3.1075-.8594c-.76-.043-2.1329-.6445-2.15-1.332-.0206-.8559,1.5881-1.5039,2.9184-2.1244,6.2355-2.9029,8.994-10.4223,7.9026-10.5151h-.0034c-.4228,0-4.7076,4.9929-9.7228,5.5463-.0223.0017-.0464.0035-.0722.0035-.2681,0-.7408-.1289-.8387-.4572-.1667-.5517.7579-1.3458,1.6362-1.5761,3.7674-.9882,9.367-6.1582,9.8551-10.2264.0447-.38-.0206-1.0484-.4021-1.06-.17,0-1.693,1.6482-3.89,3.434-2.1965,1.7875-5.0685,3.7141-7.94,4.2727a.4181.4181,0,0,1-.0825.0069.9962.9962,0,0,1-.9109-.8954c-.0275-1.26,2.1123-2.114,5.5772-4.0958,2.5781-1.4763,6.4469-4.5167,6.8405-9.0267.0533-.6-.397-1.588-.76-1.588a.244.244,0,0,0-.196.1168c-1.3474,1.8528-5.6855,6.1788-8.9871,6.3507-.019.0017-.0362.0017-.055.0017a1.2322,1.2322,0,0,1-1.1688-1.088c0-.837.5448-1.4918,3.1659-2.7946,2.0865-1.0381,5.6288-4.4137,5.6288-7.6122,0-1-.0326-2.5334-.4623-2.5334a.2089.2089,0,0,0-.0464.0052c-1.4678.3506-2.1983,2.3409-4.7334,4.1747-3.04,2.1983-4.8571,3.1367-7.0622,4.7832-3.5079,2.6211-7.1361,8.3117-7.2513,13.7549-.1545,7.36-2.9219,7.3727-5.0609,7.7847l-.0007-.0006c.4159-3.4873,2.8548-6.5964,4.0871-10.094a.5234.5234,0,0,0-.1306-.5449c-.55-.33-3.4409,3.5131-5.3108,6.4452a32.5525,32.5525,0,0,0-2.4131,4.4481,11.644,11.644,0,0,1-1.9938-.2733c-.2853-.9745.0138-2.8135-.2148-3.6883a9.4611,9.4611,0,0,0,1.8322-4.4687,5.9578,5.9578,0,0,0-.801-4.0957c-1.7548-3.4392-5.5652-8.91-8.8135-10.5169a25.1811,25.1811,0,0,1-2.3427-2.8324,4.3808,4.3808,0,0,0-1.2392-1.05A11.8164,11.8164,0,0,0,82.885,80.5a.3466.3466,0,0,0-.4228.4245,5.149,5.149,0,0,0,.78,1.3217,2.8343,2.8343,0,0,1,.5311.7717,1.6655,1.6655,0,0,1,.043.45c.0085.1976.0274.3953.0309.593a1.1146,1.1146,0,0,1-.06.4933.2506.2506,0,0,1-.1341.12,4.0909,4.0909,0,0,1-.4107.0207,3.0254,3.0254,0,0,1-1.33-.2991c-1.8545-.8766-2.3839-1.8167-6.1943-5.8557-1.76-1.8665-2.7224-2.4165-3.2707-2.4165a.6323.6323,0,0,0-.3248.0825c-.5.2888-.43,2.0746-.0859,2.7208,1.82,3.4236,2.4371,4.7092,1.863,5.17a.43.43,0,0,1-.28.1014c-.83,0-2.0917-2.133-3.0783-2.133-.366,0-.4881.4641-.4949,1.2581-.0138,1.5761,2.1776,3.7984,2.1776,4.8984a.76.76,0,0,1-.3936.5878c-.012.0085-.0241.0189-.0344.0258a.3425.3425,0,0,1-.0292.024.6064.6064,0,0,1-.562.0035c-.22-.074-.43-.1685-.6531-.2321a1.3394,1.3394,0,0,0-1.2891.1083,1.11,1.11,0,0,0-.2612.8869c.0429.4709.3472.8593.3472,1.3354a2.3045,2.3045,0,0,1-.2544,1.0364c-.2755.41-.5256.8156-.7472,1.2042a.5947.5947,0,0,1-.7451.2534,6.9517,6.9517,0,0,1-3.2651-2.7879c-2.0024-3.2346-4.3175-9.69-5.2146-11.3968-3.1556-6.0018-5.72-6.5277-5.273-5.9674a22.8016,22.8016,0,0,1,4.0372,6.3833c1.497,3.8723,1.7084,4.8227,3.4083,9.4049A19.2906,19.2906,0,0,0,66.7,96.71a.85.85,0,0,1,.2746.7657c-.04.2563-.0773.5061-.1152.7545a1.9324,1.9324,0,0,0-.1993.0034c-.0413.0035-.2131.0189-.2286.0155-.6273-.0911-1.0587-.7682-1.4712-1.179a12.6729,12.6729,0,0,0-1.7617-1.4609,11.4132,11.4132,0,0,0-4.6629-1.8408.5358.5358,0,0,0-.1049-.0069.4208.4208,0,0,0-.4056.2045.4336.4336,0,0,0,.1547.5878c.6549.306,1.27.6893,1.9147,1.0175a11.5779,11.5779,0,0,1,1.5.8731,7.564,7.564,0,0,1,2.1776,2.3616,9.6188,9.6188,0,0,1,.9866,3.42,15.669,15.669,0,0,1,.0464,3.1985,19.7849,19.7849,0,0,1-.2131,2.09c-.0327.165-.3163,1.09-.5,1.7359q-.2346.49-.5207,1.0295c-2.0333,3.8379-3.07,5.9606-3.4375,8.5936a58.8159,58.8159,0,0,0,.0395,9.1092c.2287,4.89.1719,5.6564.1719,6.7786a29.2063,29.2063,0,0,1-1.4145,8.4321c-.8679,3.0284-1.124,2.3478-2.8067,7.3321-.9727,2.884-1.4213,4.1472-2.32,6.6755-1.131,3.1813-1.595,4.01-2.4922,4.754-1.3045,1.0827-2.74,1.289-4.45,1.576a3.4083,3.4083,0,0,0-2.4252,3.0937c.1066,1.26,1.2117,1.4094,2.2636,1.5142.67.0653,2.0264.1822,3.5251.1822a16.005,16.005,0,0,0,4.1662-.45,6.3065,6.3065,0,0,0,4.0235-3.5372c1.05-2.3065.574-2.4062,1.4248-6.0825a31.5189,31.5189,0,0,1,2.9975-5.3865c.5121-.7442,1.8561-2.5866,2.31-2.6863a.4174.4174,0,0,1,.1032-.012c.5156,0,.8885.904.928,2.9373a9.6983,9.6983,0,0,0,2.1776,6.1873,6.7952,6.7952,0,0,0,5.017,2.3546,2.3243,2.3243,0,0,0,2.1776-2.3116c0-1.59-1.827-2.6245-2.7551-5.0084a13.321,13.321,0,0,1-.9745-4.5734c-.0378-1.5126.3592-3.3017.9315-3.4289a4.524,4.524,0,0,1,.7786-.0619c.6652,0,1.3183.1117,2.1794.1117,3.5164,0,9.7623-1.0931,13.681-3.6282,3.8482-2.4921,5.1441-8.2429,6.7253-10.3536,1.3527-1.8029,4.9688-2.0728,7.2822-2.0728,1.0021,0,2.2395.2115,5.1046,2.4836,3.6385,2.8858,6.04,6.0585,9.4564,8.7191,4.41,3.0937,10.235,7.5435,16.3089,8.958,2.0247.4709,2.1192.7631,2.6348,2.7688a10.4892,10.4892,0,0,1,.2579,4.3243c-.318,1.1928-.6634,1.16-2.0625,3.7245-1.3733,2.5162-1.3011,2.5764-1.87,3.0645a3.0607,3.0607,0,0,1-1.6517.5843c-.586,0-1.2856-.1925-2.9527-.1925-.9522,0-2.3048.6686-2.3048,1.772,0,.801.0945,1.1842,1.2839,1.198,1.1738.0137,4.6164.0876,7.8734.0876a51.5185,51.5185,0,0,0,6.3816-.2406c1.3767-.2578,2.6675-2.3271,3.48-3.709a22.92,22.92,0,0,0,1.8116-3.1452,1.1425,1.1425,0,0,1,1.0965-.7649c.51,0,.9711,1.2564,1.7754,2.2911a11.9747,11.9747,0,0,0,9.3585,5.0323c4.668,0,7.2375-2.9321,7.3715-5.8917A2.3687,2.3687,0,0,0,164.7184,158.7756ZM77.6945,140.2048a9.1206,9.1206,0,0,1-4.5718,1.0124,3.09,3.09,0,0,0-2.26.65,9.3357,9.3357,0,0,0-1.3595,1.7771c-.2785.5191-.5208,1.1464-1.1671,1.2994a1.4043,1.4043,0,0,1-1.3956-.59c-.9779-1.2168.5328-2.49,1.1688-3.4855a27.2284,27.2284,0,0,1,2.7551-3.2776,12.8189,12.8189,0,0,1,1.3371-1.5143,11.9555,11.9555,0,0,1,1.815-1.4591,2.6123,2.6123,0,0,1,1.7411-.6806c1.3715.177,2.4062,1.9885,3.0627,3.0593C79.6039,138.273,78.8426,139.4968,77.6945,140.2048ZM135.8508,142.4c-.3163.2957-1.1344.1169-1.6758-.0034l-.1856-.04a4.5289,4.5289,0,0,1-2.2206-1.2512l-.0756-.0722c-.9934-.9247-1.7909-1.693-2.4922-2.37a37.5056,37.5056,0,0,0-4.8-4.1318,12.893,12.893,0,0,0-3.721-1.8631,12.3939,12.3939,0,0,1-2.5369-1.1206,11.4438,11.4438,0,0,1-2.5832-2.3461c-1.3337-1.4867-2.7122-3.0232-5.3917-3.0232a10.3153,10.3153,0,0,0-3.7072.7888,6.1657,6.1657,0,0,1-2.9356.5586,27.3036,27.3036,0,0,1-4.4893-1.0191,12.2079,12.2079,0,0,0-3.18-.6652c-1.485,0-1.8511.9522-2.1742,1.7909-.2836.7391-.5294,1.3767-1.4352,1.4747a9.6855,9.6855,0,0,0-3.97,1.0519,4.8048,4.8048,0,0,0-1.8132,1.961c-.29.4365-.6531.98-1.1464,1.674-2.2687,3.1934-2.8961,3.1934-3.3549,3.1934a2.1271,2.1271,0,0,1-1.7-1.7393,3.6046,3.6046,0,0,1,.8336-2.023,5.5041,5.5041,0,0,0,1.1825-3.3051,4.1106,4.1106,0,0,0-1.3544-2.554,3.4782,3.4782,0,0,1-1.1532-2.04c.0069-1.3715.1031-3.0576.1667-3.6162l.0326-.2887-.2681.11a27.7546,27.7546,0,0,0-6.6549,4.5547c-.89.7734-1.6,1.5193-2.1707,2.1175-.7975.8369-1.375,1.44-1.7858,1.44-.3815,0-1.2116-.8868-1.8785-1.6a7.5948,7.5948,0,0,0-1.53-1.4111L65.5,126.541l-.0585.196a8.6746,8.6746,0,0,0-.1529,1.8733,43.7771,43.7771,0,0,1-.6532,6.8664,32.0635,32.0635,0,0,1-1.7548,6.27,52.701,52.701,0,0,1-2.3873,5.7268,48.76,48.76,0,0,0-1.99,4.644c-.2888.7648-.5879,1.5555-1.0571,2.6571-.0894.2132-.2612.5655-.4571.9745a23.24,23.24,0,0,0-1.0278,2.3169l-.0791.2526a14.52,14.52,0,0,1-2.1931,4.6647c-1.4076,1.8287-2.1913,2.4542-4.2934,2.5179a10.6112,10.6112,0,0,1-1.4591-.086c-.3369-.0446-.8147-.1-1.0055-.4228a.5835.5835,0,0,1,.45-.8318l.0035-.0018a6.2684,6.2684,0,0,0,4.3655-1.674c1.045-.8662,1.5486-1.81,2.7018-5.0531.8972-2.5282,1.3492-3.7966,2.3237-6.6858a38.7832,38.7832,0,0,1,1.7256-4.4273,19.4667,19.4667,0,0,0,1.2512-3.03c1.1275-3.5234,1.32-4.5425,1.3492-6.3042.0018-.1753-.0292-1.8408-.0274-2.0161.0086-.9625-.0207-2.8823-.2149-7.0175a61.4957,61.4957,0,0,1-.0447-8.9821c.3472-2.48,1.2925-4.4549,3.3653-8.3667.3953-.7442.7184-1.42.9848-2.0383l.0069-.01a12.2694,12.2694,0,0,0,1.3732-3.84,5.5154,5.5154,0,0,0,.0859-.9951l-.0051-.1031v-.0018l.0258-.1289c.4383-2.169.6462-3.5577.849-4.9a12.228,12.228,0,0,1,.7185-3.0766,17.2921,17.2921,0,0,1,3.7846-5.9329,7.906,7.906,0,0,1,1.1842-.801,4.9123,4.9123,0,0,0,1.7857-1.2874,3.2065,3.2065,0,0,0,.5517-1.9506,14.4766,14.4766,0,0,0-.3076-2.5524,1.1827,1.1827,0,0,1,.1633-1.1532.925.925,0,0,1,1.1085-.0636l.0035.0017c1.8081,1.9886,2.2652,2.8255,3.7606,3.532a5.8381,5.8381,0,0,0,2.8925.2079,20.1712,20.1712,0,0,1,4.0442-.04,13.1921,13.1921,0,0,1,5.108,4.2057c.38.4675.758.9625,1.1309,1.473a39.3466,39.3466,0,0,1,3.0714,5.4689,4.8662,4.8662,0,0,1,.1925,1.31c0,1.2392-.7081,1.44-.7081,2.4062,0,.6119.4726.696.4,1.1962a3.9785,3.9785,0,0,1-1.6431,2.2343,5.4963,5.4963,0,0,1-3.4219,1.0261c-2.1106,0-2.8084-2.97-6.15-2.97-2.1862,0-4.7557,1.1842-4.7557,4.2968,0,3.0558,1.6809,4.546,4.7179,4.546,4.8691,0,6.4538-1.49,11.0754-1.49.5449,0,1.0519.0018,1.5039,0a10.2283,10.2283,0,0,0-.7391,3.3859c0,2.3341,1.7273,3.3446,3.8156,3.3446.935,0,1.5829-.1718,3.48-.1718.8095,0,2.47.17,3.9462.17.9384.0016,1.8115-.1633,1.8115-.6652,0-.9951-1.3389-1.741-2.14-1.9559-3.4392-.9195-4.5305-.8422-5.5085-2.37a3.2561,3.2561,0,0,1-.5173-1.7943c0-.0156-.0017-.0327-.0017-.0482.3936-.0327.861-.0619,1.3577-.0619,3.18,0,5.4862,2.5919,8.7844,5.0565,2.4647,1.8391,3.6334,1.8407,4.8554,1.8407,2.2807,0,2.2412-.3952,3.9771-.3952,2.8875,0,4.2676,3.5319,6.3112,4.5889a12.1525,12.1525,0,0,0,2.9046,1.1705,8.0934,8.0934,0,0,0,2.0126.2423,8.6156,8.6156,0,0,1,5.0187,2.0763,5.85,5.85,0,0,1,1.2821,1.3852,3.648,3.648,0,0,1,.6463,3.159.7.7,0,0,1-.6359.4452c-.7443.01-1.0244-.2166-1.937-.9539-.5157-.4159-1.2221-.9866-2.3117-1.7548a3.9272,3.9272,0,0,0-2.5008-.8285,2.0364,2.0364,0,0,0-2.1965,2.3152,12.6073,12.6073,0,0,0,.9556,4.2984c1.1739,3.2055,1.88,4.0854,2.6176,4.8314a7.13,7.13,0,0,1,.7081.8972c.1169.1633.2252.3179.3386.4623C135.5844,139.8147,136.1292,142.14,135.8508,142.4Zm5.1888,3.6918c-.7339-.6152-2.2894-1.3217-2.36-2.3975-.031-.4624.2062-.6875-.1031-1.1362a6.052,6.052,0,0,0-.76-.751,13.1469,13.1469,0,0,1-1.1842-1.2908,32.8633,32.8633,0,0,1-1.7995-2.9458c-.7442-1.2-1.7411-2.2035-2.4423-3.4409a18.93,18.93,0,0,1-1.71-4.2074c-.2974-1.0519-.8405-2.5712-.0688-3.5527.7047-.8971,2.0161-.4949,2.8548-.0085.0189.01.0361.0206.0533.0309,3.9634,2.4887,5.854,6.9453,7.5228,11.1219.8078,2.02,1.662,4.0252,2.3512,6.0876.2784.8284.5517,1.66.7941,2.4991.1908.6548.6049,1.2048.7923,1.86.1324.4658-.452,1.0106-.8851.6806C143.04,147.8342,142.0553,146.9457,141.04,146.0914Zm6.1358,11.7785a5.747,5.747,0,0,1-.9195,1.8476c-.1409.18-.3214.4262-.5672.4571-.3506.0413-.4572-.2972-.4829-.574a10.8188,10.8188,0,0,1,.05-1.6843c.055-.8422.2114-1.6844.1959-2.53a5.58,5.58,0,0,0-.72-2.6124c-.4916-.8749-1.0914-1.6947-1.6638-2.518a.2806.2806,0,0,1-.0034-.3454l.0087-.01.0016-.0034a.3032.3032,0,0,1,.0224-.0258.311.311,0,0,1,.1014-.0773,1.5111,1.5111,0,0,1,1.387.1582,5.3191,5.3191,0,0,1,1.1584.8438,5.7079,5.7079,0,0,1,1.3527,2.05,6.6729,6.6729,0,0,1,.5688,2.5248A8.0866,8.0866,0,0,1,147.1754,157.87Z"/><path class="b" d="M66.59,103.2953v.0069a.2689.2689,0,0,1-.0052-.043l.0018.0069Z"/><path class="a" d="M69.7884,76.3636c-1.0122-.6493-2.6049-3.4017-4.9557-9.367C63.041,62.45,62.0541,58.7571,62.0541,54.65c0-.4869.182-2.8358.4583-2.8358.2578,0,.3008,2.6067,1.5469,7.4334a34.75,34.75,0,0,0,3.71,9.2668c1.3188,2.2447,2.8931,4.4448,3.7668,5.0416a1.3748,1.3748,0,0,0-1.4752.7089A3.7711,3.7711,0,0,0,69.7884,76.3636Z"/><path class="a" d="M68.8,83.038a30.7336,30.7336,0,0,1-6.0442-10.2121,86.35,86.35,0,0,1-3.5233-12.561c-.1954-.8173-1.8477-7.3427-2.5543-8.45-.3851-.6038,2.6736.7352,3.9149,7.5528a93.5217,93.5217,0,0,0,4.4878,13.807c1.1269,2.347,3.4708,6.02,4.3445,6.6171-.8021-.0334-1.0312.412-1.0312,1.1553C68.3943,81.6292,68.7705,82.4066,68.8,83.038Z"/><path class="a" d="M67.7474,90.4213c-1.8405-1.54-3.8295-4.2349-6.18-10.2-1.7916-4.5466-2.6-8.7927-4.0962-12.666a27.747,27.747,0,0,0-4.137-6.9179c-.4473-.5592,2.1031-.43,5.2732,5.9678.8835,1.7828,3.8556,10.4486,5.4212,13.7092,1.1268,2.3469,3.5257,6.0585,4.3994,6.6552-.518.0382-.8594.71-.8594,1.4538C67.5683,89.1057,67.7178,89.79,67.7474,90.4213Z"/><path class="a" d="M128.855,78.6982c1.0121-.6493,3.1143-3.7351,5.9678-9.4768,2.1846-4.3959,4.0449-11.778,4.13-14.2272.0168-.4867.0185-2.3776-.2578-2.3776-.444,0-.81,3.7713-2.4492,8.479a59.4214,59.4214,0,0,1-4.8248,9.533,19.2679,19.2679,0,0,1-4.27,5.0045,1.55,1.55,0,0,1,1.6328.8737A5.0763,5.0763,0,0,1,128.855,78.6982Z"/><path class="a" d="M130.44,86.6043c1.7855-1.5039,3.6876-4.3753,6.6361-10.0688,2.3531-4.5439,4.8029-13.7211,5.5286-17.531.231-1.213,1.8527-6.732,2.8549-7.5814.8337-.7066-2.0127-1.3491-3.9,5.3184-.8975,3.17-3.0507,12.8618-7.2787,20.1317-1.3088,2.2506-4.2152,6.055-5.0889,6.6517a1.286,1.286,0,0,1,1.3248,1.3607C130.5164,85.568,130.47,85.973,130.44,86.6043Z"/><path class="a" d="M131.6073,95.2051c1.84-1.54,5.2-6.5456,7.5506-12.5109,1.7917-4.5465,2.8193-9.5232,4.3158-13.3965,1.2174-3.1509,4.809-7.6719,5.6015-8.7893.4143-.5841-3.2526.8069-6.4227,7.2043-.8834,1.7829-3.982,11.4917-5.5476,14.7523-1.1269,2.347-4.45,7.3714-6.2475,8.7094.518.0382,1.1868,1.1461,1.1868,1.8894A7.0142,7.0142,0,0,1,131.6073,95.2051Z"/><path class="a" d="M130.7456,103.7772c3.44-1.8047,5.7643-4.38,8.5793-10.14,3.2894-6.7316,2.58-8.4213,4.4734-12.1169a28.1915,28.1915,0,0,1,5.1865-6.5664c.5033-.5094-3.0858.1689-5.95,5.306-.969,1.7378-5.1489,11.2626-7.0467,14.3417a15.9442,15.9442,0,0,1-5.0559,4.6358,1.4357,1.4357,0,0,1,.8737,1.4036A7.2993,7.2993,0,0,1,130.7456,103.7772Z"/><path class="a" d="M124.1,112.3851a22.7281,22.7281,0,0,0,11.83-6.4977c4.3971-4.4448,3.9674-5.4928,6.13-6.8224a7.11,7.11,0,0,0,2.3274-1.59c.5944-.6732-1.6439-.74-4.4989,1.3514-1.6052,1.1757-3.252,4.0626-6.67,6.4019a20.093,20.093,0,0,1-3.69,2A33.5028,33.5028,0,0,1,124.1,112.3851Z"/></svg>